<?xml version="1.0" encoding="UTF-8"?>
<svg width="62px" height="63px" viewBox="0 0 62 63" version="1.1" xmlns="http://www.w3.org/2000/svg" xmlns:xlink="http://www.w3.org/1999/xlink">
    <title>essential-20</title>
    <g id="Page-1" stroke="none" stroke-width="1" fill="none" fill-rule="evenodd">
        <g id="Essentials" transform="translate(-920.000000, -2367.000000)" fill="#17DE74">
            <g id="essential-20" transform="translate(920.000000, 2367.000000)">
                <path d="M0,31.5 C0,14.104125 13.8802337,0 31,0 C48.1197663,0 62,14.104125 62,31.5 C62,48.895875 48.1197663,63 31,63 C13.8802337,63 0,48.895875 0,31.5 Z M46.3368421,26.25 C46.3368421,23.3489156 44.0008779,21 41.1157895,21 C38.2307011,21 35.8947368,23.3489156 35.8947368,26.25 C35.8947368,29.1510844 38.2349432,31.5 41.1157895,31.5 C43.9966358,31.5 46.3368421,29.1510844 46.3368421,26.25 Z M20.8842105,21 C23.7692989,21 26.1052632,23.3489156 26.1052632,26.25 C26.1052632,29.1510844 23.7692989,31.5 20.8842105,31.5 C17.9991221,31.5 15.6631579,29.1510844 15.6631579,26.25 C15.6631579,23.3489156 18.0033642,21 20.8842105,21 Z M31.0075705,52.5 C37.3144716,52.5 43.4276063,49.8475688 47.7730232,45.2368219 C48.4979663,44.4650719 48.4630505,43.2552094 47.6954905,42.5261813 C46.9241453,41.801025 45.7069221,41.8320656 44.9781284,42.60375 C41.29944,46.5087 36.3376126,48.6648094 31.0075705,48.6648094 C25.6736126,48.6648094 20.7078695,46.5126375 17.0214147,42.60375 C16.2926211,41.8281937 15.0793137,41.7971531 14.3079032,42.5261813 C13.5364926,43.2513375 13.5016421,44.4690094 14.22652,45.2368219 C18.6495347,49.9212 24.6075389,52.5 31.0075705,52.5 Z" id="Shape"></path>
            </g>
        </g>
    </g>
</svg>
