<?xml version="1.0" encoding="UTF-8"?>
<svg width="30px" height="30px" viewBox="0 0 30 30" version="1.1" xmlns="http://www.w3.org/2000/svg" xmlns:xlink="http://www.w3.org/1999/xlink">
    <title>linkedin</title>
    <g id="Page-1" stroke="none" stroke-width="1" fill="none" fill-rule="evenodd">
        <g id="linkedin">
            <rect id="Rectangle" fill-opacity="0" fill="#D8D8D8" x="0" y="0" width="30" height="30"></rect>
            <g id="linkedin-copy" transform="translate(5.000000, 5.000000)" fill="#FFFFFF" fill-rule="nonzero" stroke="#FFFFFF">
                <path d="M2.53004455,0 C1.84288416,0 1.2181696,0.249894974 0.74964283,0.718425172 C0.249893144,1.21817852 0,1.84286104 0,2.49880332 C0,3.18596875 0.281116061,3.81068788 0.74964283,4.27921808 C1.2181696,4.74774828 1.87410707,5.02886639 2.49882163,4.99764325 C2.49882163,4.99764325 2.53004455,4.99764325 2.56130407,4.99764325 C3.18601863,4.99764325 3.77947367,4.74774828 4.24800044,4.27921808 C4.71652721,3.81068788 4.99764327,3.18596875 4.99764327,2.49880332 C5.02886618,1.84286104 4.74775012,1.21814191 4.27922335,0.749611714 C3.81069658,0.24985837 3.18598203,0 2.53004455,0 Z M3.81069658,3.84194763 C3.46709809,4.18554864 2.99857132,4.40418387 2.49882163,4.37296072 C2.03029486,4.37296072 1.53054518,4.18554864 1.18694668,3.84194763 C0.812125267,3.49834661 0.624714559,2.99859327 0.624714559,2.49883993 C0.624714559,1.99908658 0.812125267,1.53055638 1.18694668,1.15573223 C1.53054518,0.812131212 1.99907195,0.624719133 2.53004455,0.624719133 C2.99857132,0.624719133 3.46709809,0.812131212 3.81069658,1.15573223 C4.185518,1.53055638 4.37292871,1.99908658 4.37292871,2.49883993 C4.37292871,2.99859327 4.185518,3.49834661 3.81069658,3.84194763 Z" id="Shape"></path>
                <path d="M3.92857442,6 L1.03572535,6 C0.464312321,6 0,6.44388868 0,7.02438927 L0,18.9756107 C0,19.5219383 0.500012556,20 1.07142558,20 L3.92857442,20 C4.49998744,20 5,19.5219383 5,19.0097437 L5,7.02438927 C5,6.47802165 4.49998744,6 3.92857442,6 Z M4.28570233,19.0097437 C4.28570233,19.1804886 4.10711745,19.3170605 3.92857442,19.3170605 L1.07142558,19.3170605 C0.892840701,19.3170605 0.714297672,19.1463156 0.714297672,18.9756107 L0.714297672,7.02438927 C0.714297672,6.85364438 0.857140466,6.68293952 1.03572535,6.68293952 L3.92857442,6.68293952 C4.1071593,6.68293952 4.28570233,6.8536844 4.28570233,7.02438927 L4.28570233,19.0097437 Z" id="Shape"></path>
                <path d="M15.1121839,5 L14.3790197,5 C13.017429,5 11.7256771,5.60715681 10.8877751,6.57144252 L10.8877751,6.07142857 C10.8877751,5.71429967 10.538663,5.35712891 10.1895099,5.35712891 L6.69826528,5.35712891 C6.38405204,5.35712891 6,5.64285714 6,6.03568638 L6,19.357101 C6,19.7499721 6.38405204,20 6.69826528,20 L10.538663,20 C10.8528762,20 11.2369282,19.7499721 11.2369282,19.357101 L11.2369282,11.6428153 C11.2369282,10.4642439 12.0748302,9.53565848 13.1571066,9.53565848 C13.7156943,9.53565848 14.239383,9.7499442 14.6234351,10.1428153 C14.9725473,10.4642439 15.1122249,10.9642578 15.1122249,11.607115 L15.1122249,19.2857003 C15.1122249,19.6428292 15.461337,20 15.8104901,20 L19.3017347,20 C19.6508469,20 20,19.6428711 20,19.2857003 L20,10.0714146 C20,7.21429967 17.8703052,5 15.1121839,5 Z M19.3016938,19.25 L19.2667949,19.2857003 L15.8453482,19.2857003 L15.8104492,11.6071568 C15.8104492,10.750014 15.6009737,10.1071568 15.1471238,9.64288504 C14.6234351,9.10717076 13.9251698,8.82144252 13.1920056,8.82144252 C11.7256771,8.85714286 10.5735619,10.0714565 10.5735619,11.6428571 L10.5735619,19.2857003 L6.73316423,19.2857003 L6.73316423,6.07142857 L10.1895099,6.07142857 L10.2244088,6.10712891 L10.2244088,8.35712891 L11.1670485,7.39284319 L11.2019475,7.35714286 C11.9002127,6.35715681 13.1221258,5.71429967 14.4139187,5.71429967 L15.1470829,5.71429967 C17.4862123,5.71429967 19.3016938,7.64287109 19.3016938,10.0714565 L19.3016938,19.25 L19.3016938,19.25 Z" id="Shape"></path>
            </g>
        </g>
    </g>
</svg>
