<?xml version="1.0" encoding="UTF-8"?>
<svg width="62px" height="63px" viewBox="0 0 62 63" version="1.1" xmlns="http://www.w3.org/2000/svg" xmlns:xlink="http://www.w3.org/1999/xlink">
    <title>essential-19</title>
    <g id="Page-1" stroke="none" stroke-width="1" fill="none" fill-rule="evenodd">
        <g id="Essentials" transform="translate(-920.000000, -2191.000000)" fill="#4E806A">
            <g id="essential-19" transform="translate(920.000000, 2191.000000)">
                <path d="M0,31.5 C0,14.104125 13.8802337,0 31,0 C48.1197663,0 62,14.104125 62,31.5 C62,48.895875 48.1197663,63 31,63 C13.8802337,63 0,48.895875 0,31.5 Z M25.4526316,27.234375 C25.4526316,24.5146125 23.2626611,22.3125 20.5578947,22.3125 C17.8571095,22.3125 15.6631579,24.5146125 15.6631579,27.234375 C15.6631579,29.9541375 17.8531284,32.15625 20.5578947,32.15625 C23.2626611,32.15625 25.4526316,29.9541375 25.4526316,27.234375 Z M45.74608,49.335825 C45.3809979,49.6965656 44.9169768,49.875 44.4529558,49.875 C43.9547368,49.875 43.4565179,49.6728094 43.0876505,49.2644906 C39.9804063,45.8391937 35.8081979,43.9560844 31.3280126,43.9560844 C26.8401916,43.9560844 22.6680484,45.8391937 19.57216,49.25655 C18.8609874,50.0414906 17.6667368,50.0811281 16.9099453,49.335825 C16.1493032,48.5944594 16.11504,47.3496187 16.8300632,46.5686156 C20.6446947,42.3504375 25.7942842,40.03125 31.3280126,40.03125 C36.85032,40.03125 42.0036947,42.3504375 45.8221768,46.5567375 C46.5371347,47.3456812 46.5029368,48.5905219 45.74608,49.335825 Z M36.5473684,27.234375 C36.5473684,29.9541375 38.7373389,32.15625 41.4421053,32.15625 C44.1429558,32.15625 46.3368421,29.9541375 46.3368421,27.234375 C46.3368421,24.5146125 44.1429558,22.3125 41.4421053,22.3125 C38.7412547,22.3125 36.5473684,24.5146125 36.5473684,27.234375 Z" id="Shape"></path>
            </g>
        </g>
    </g>
</svg>
