<svg xmlns="http://www.w3.org/2000/svg" viewBox="0 0 1224 792"><defs><style>.cls-1{fill:#65a8df;}.cls-1,.cls-5{opacity:0.7;}.cls-19,.cls-2,.cls-3{fill:#d0d1d3;}.cls-2{stroke:#bbbcbf;}.cls-10,.cls-14,.cls-15,.cls-16,.cls-18,.cls-2,.cls-22,.cls-25,.cls-26,.cls-27,.cls-28,.cls-29,.cls-3,.cls-30,.cls-31,.cls-32,.cls-33,.cls-34,.cls-35,.cls-36,.cls-37,.cls-38,.cls-39,.cls-40,.cls-41,.cls-42,.cls-43,.cls-44,.cls-45,.cls-46,.cls-47,.cls-48,.cls-49,.cls-50,.cls-51,.cls-52,.cls-53,.cls-7{stroke-miterlimit:10;}.cls-3{stroke:#d0d1d3;}.cls-4{fill:#808183;}.cls-5{fill:#85aeb2;}.cls-16,.cls-28,.cls-32,.cls-33,.cls-34,.cls-36,.cls-37,.cls-38,.cls-47,.cls-48,.cls-49,.cls-6{fill:#fff;}.cls-30,.cls-7{fill:none;}.cls-16,.cls-18,.cls-28,.cls-29,.cls-30,.cls-33,.cls-34,.cls-35,.cls-37,.cls-38,.cls-39,.cls-40,.cls-41,.cls-42,.cls-43,.cls-44,.cls-45,.cls-46,.cls-48,.cls-49,.cls-50,.cls-7{stroke:#272525;}.cls-16,.cls-28,.cls-30,.cls-7{stroke-linecap:round;}.cls-14,.cls-16,.cls-18,.cls-7{stroke-width:2px;}.cls-15,.cls-27,.cls-8{fill:#6d6e70;}.cls-9{fill:#bbbcbf;}.cls-10,.cls-25{fill:#59595b;stroke:#59595b;}.cls-10,.cls-15{stroke-width:0.81px;}.cls-11{fill:#6e6659;}.cls-12{fill:#a6a8aa;}.cls-13,.cls-22,.cls-31{fill:#929496;}.cls-14,.cls-24,.cls-26,.cls-35,.cls-39,.cls-40,.cls-41,.cls-42,.cls-43,.cls-44,.cls-45,.cls-46,.cls-50{fill:#434244;}.cls-14,.cls-26{stroke:#434244;}.cls-15,.cls-27{stroke:#6d6e70;}.cls-17{fill:#564c44;}.cls-18,.cls-21,.cls-29{fill:#272525;}.cls-20{fill:#948478;}.cls-22,.cls-31{stroke:#8d8e94;}.cls-22{stroke-width:2.44px;}.cls-23{fill:#9c7b53;}.cls-25,.cls-27{stroke-width:0.31px;}.cls-26,.cls-28,.cls-29,.cls-30{stroke-width:0.76px;}.cls-31{stroke-width:0.93px;}.cls-32,.cls-36,.cls-47,.cls-51,.cls-52,.cls-53{stroke:#fff;}.cls-32{stroke-width:0.54px;}.cls-33{stroke-width:0.27px;}.cls-34{stroke-width:0.22px;}.cls-35{stroke-width:0.21px;}.cls-36{stroke-width:1.68px;}.cls-37{stroke-width:0.84px;}.cls-38{stroke-width:0.67px;}.cls-39{stroke-width:0.64px;}.cls-40{stroke-width:0.47px;}.cls-41{stroke-width:0.46px;}.cls-42{stroke-width:0.49px;}.cls-43{stroke-width:0.51px;}.cls-44{stroke-width:0.4px;}.cls-45{stroke-width:0.42px;}.cls-46{stroke-width:0.41px;}.cls-47{stroke-width:0.25px;}.cls-48{stroke-width:0.12px;}.cls-49{stroke-width:0.1px;}.cls-50{stroke-width:0.09px;}.cls-51{fill:#5ba69c;stroke-width:1.76px;}.cls-52,.cls-53{fill:#323b8c;}.cls-52{stroke-width:0.29px;}.cls-53{stroke-width:0.31px;}</style></defs><g id="Layer_3" data-name="Layer 3"><rect class="cls-1" y="196.22" width="608.29" height="364.44"/><rect class="cls-2" x="1.24" y="561.09" width="607.04" height="37.43"/><rect class="cls-3" x="1.24" y="695.97" width="607.04" height="37.43"/><rect class="cls-4" x="1.24" y="598.95" width="607.04" height="97.02"/><rect class="cls-5" x="617.05" y="196.22" width="607.04" height="539.86"/><circle class="cls-6" cx="565.72" cy="537.02" r="2.8"/><circle class="cls-6" cx="579" cy="537.02" r="2.8"/><circle class="cls-6" cx="592.07" cy="537.02" r="2.8"/><line class="cls-7" x1="262.11" y1="529.34" x2="241.84" y2="529.34"/><line class="cls-7" x1="169.89" y1="533.91" x2="149.61" y2="533.91"/><rect class="cls-8" x="230.25" y="503.45" width="43.45" height="57.65"/><polygon class="cls-9" points="262.72 503.44 262.72 487.83 273.7 487.83 273.7 368.47 306.17 355.32 306.17 443.67 316.69 443.67 316.69 463.65 307.54 463.65 307.54 560.66 273.7 560.66 273.7 503.44 262.72 503.44"/><polygon class="cls-10" points="308 560.66 308 463.65 316.69 463.65 316.69 456.39 345.95 456.39 345.95 463.65 353.73 463.65 353.73 560.66 308 560.66"/><polygon class="cls-11" points="366.54 560.66 366.54 440.85 370.65 440.85 370.65 424.45 383.46 416.61 393.78 426.93 393.78 440.39 400.38 440.39 400.38 511.27 386.66 511.27 386.66 560.66 366.54 560.66"/><polygon class="cls-12" points="386.66 560.66 386.66 511.27 400.38 511.27 400.38 498.01 408.15 498.01 417.75 498.01 417.75 511.27 429.64 511.27 429.64 560.66 386.66 560.66"/><polygon class="cls-13" points="408.15 407.46 440.16 407.46 440.16 560.66 429.64 560.66 429.64 511.27 417.75 511.27 417.75 498.01 408.15 498.01 408.15 407.46"/><polygon class="cls-14" points="452.41 560.66 457.37 352.58 465.41 352.58 465.41 344.08 472.84 344.08 472.84 313.76 472.84 344.08 483.98 344.08 483.98 313.76 483.98 344.08 492.02 344.08 492.02 352.58 498.83 352.58 506.25 560.66 452.41 560.66"/><polygon class="cls-9" points="518.37 501.01 518.37 419.35 529.34 419.35 529.34 431.7 550.84 431.7 550.84 419.35 560.9 419.35 560.9 498.01 553.12 498.01 553.12 560.66 543.06 560.66 543.06 501.01 518.37 501.01"/><polygon class="cls-15" points="560.9 488.63 579.65 488.63 579.65 501.01 604.88 501.01 604.88 560.66 553.12 560.66 553.12 498.01 560.9 498.01 560.9 488.63"/><line class="cls-16" x1="533.61" y1="442.67" x2="533.61" y2="453.95"/><line class="cls-16" x1="546.57" y1="442.67" x2="546.57" y2="453.95"/><line class="cls-16" x1="533.61" y1="465.39" x2="533.61" y2="476.67"/><line class="cls-16" x1="546.57" y1="465.39" x2="546.57" y2="476.67"/><line class="cls-16" x1="533.61" y1="490.01" x2="533.61" y2="501.29"/><line class="cls-16" x1="546.57" y1="490.01" x2="546.57" y2="501.29"/><rect class="cls-8" x="511.96" y="501.01" width="31.1" height="59.65"/><circle class="cls-6" cx="565.72" cy="515.09" r="2.8"/><circle class="cls-6" cx="579" cy="515.09" r="2.8"/><circle class="cls-6" cx="592.07" cy="515.09" r="2.8"/><circle class="cls-6" cx="565.72" cy="526.05" r="2.8"/><circle class="cls-6" cx="579" cy="526.05" r="2.8"/><circle class="cls-6" cx="592.07" cy="526.05" r="2.8"/><polygon class="cls-17" points="0 560.66 0 493.89 14.86 493.89 14.86 477.89 34.98 477.89 34.98 491.66 86.2 491.66 86.2 560.66 0 560.66"/><polygon class="cls-13" points="32.23 477.89 32.23 408.83 45.49 408.83 45.49 364.47 71.56 364.47 71.56 409.03 82.08 409.03 82.08 491.66 34.98 491.66 34.98 477.89 32.23 477.89"/><polygon class="cls-18" points="101.29 560.66 101.29 368.36 112.26 368.36 112.26 296.33 127.36 296.33 127.36 263.4 127.36 296.33 143.13 296.33 143.13 367.67 156.93 367.67 156.93 507.16 140.47 507.16 140.47 560.66 101.29 560.66"/><rect class="cls-19" x="140.47" y="507.16" width="29.42" height="53.51"/><polygon class="cls-20" points="205.56 477.89 205.56 360.81 239.4 360.81 239.4 501.01 230.25 501.01 230.25 560.66 219.28 560.66 219.28 477.89 205.56 477.89"/><circle class="cls-21" cx="46.88" cy="450.33" r="2.8"/><circle class="cls-21" cx="57.16" cy="450.33" r="2.8"/><circle class="cls-21" cx="67.85" cy="450.33" r="2.8"/><circle class="cls-21" cx="46.88" cy="461.87" r="2.8"/><circle class="cls-21" cx="57.16" cy="461.87" r="2.8"/><circle class="cls-21" cx="67.85" cy="461.87" r="2.8"/><circle class="cls-21" cx="46.88" cy="473.41" r="2.8"/><circle class="cls-21" cx="57.16" cy="473.41" r="2.8"/><circle class="cls-21" cx="67.85" cy="473.41" r="2.8"/><circle class="cls-21" cx="46.88" cy="484.95" r="2.8"/><circle class="cls-21" cx="57.16" cy="484.95" r="2.8"/><circle class="cls-21" cx="67.85" cy="484.95" r="2.8"/><line class="cls-7" x1="169.89" y1="518.28" x2="149.61" y2="518.28"/><line class="cls-7" x1="262.11" y1="515.39" x2="241.84" y2="515.39"/><line class="cls-7" x1="217.6" y1="374.53" x2="217.6" y2="477.89"/><line class="cls-7" x1="230.25" y1="374.93" x2="230.25" y2="498.58"/><polygon class="cls-22" points="169.89 507.16 169.89 477.89 219.28 477.89 219.28 560.66 169.89 560.66 169.89 507.16"/><rect class="cls-23" x="461.77" y="553.63" width="0.98" height="5.81"/><rect class="cls-23" x="465.1" y="553.63" width="0.98" height="5.81"/><rect class="cls-23" x="495.38" y="553.63" width="0.98" height="5.81"/><rect class="cls-23" x="498.71" y="553.63" width="0.98" height="5.81"/><rect class="cls-6" x="470.85" y="531.05" width="19.75" height="14.69"/><rect class="cls-6" x="470.2" y="548.93" width="21.06" height="14.12"/><rect class="cls-6" x="460.29" y="548.93" width="7.26" height="4.87"/><rect class="cls-6" x="460.76" y="559.48" width="6.29" height="8.63"/><rect class="cls-6" x="494.31" y="559.48" width="6.29" height="8.63"/><rect class="cls-6" x="493.9" y="548.93" width="7.26" height="4.87"/><rect class="cls-6" x="468.49" y="573.17" width="24.4" height="11.02"/><rect class="cls-21" x="465.68" y="577.45" width="2.81" height="2.81"/><rect class="cls-21" x="467.56" y="549.95" width="2.64" height="2.81"/><rect class="cls-21" x="491.26" y="549.95" width="2.64" height="2.81"/><rect class="cls-21" x="492.89" y="577.45" width="2.81" height="2.81"/><polygon class="cls-24" points="496.32 568.79 498.67 568.79 499.24 572.38 495.83 572.38 496.32 568.79"/><polygon class="cls-24" points="462.75 568.79 465.1 568.79 465.68 572.38 462.26 572.38 462.75 568.79"/><path class="cls-21" d="M462.18,570.83a2.33,2.33,0,0,1,3.5,0v15.93s-2.13,1.28-3.5,0Z"/><path class="cls-21" d="M495.71,570.83a2.33,2.33,0,0,1,3.5,0v15.93s-2.13,1.28-3.5,0Z"/><rect class="cls-21" x="479.15" y="563.05" width="3.16" height="10.12"/><rect class="cls-21" x="479.15" y="545.74" width="3.16" height="3.16"/><rect class="cls-23" x="512.15" y="562.54" width="0.98" height="5.81"/><rect class="cls-23" x="515.48" y="562.54" width="0.98" height="5.81"/><rect class="cls-23" x="545.76" y="562.54" width="0.98" height="5.81"/><rect class="cls-23" x="549.09" y="562.54" width="0.98" height="5.81"/><rect class="cls-6" x="521.24" y="539.97" width="19.75" height="14.69"/><rect class="cls-6" x="520.58" y="557.84" width="21.06" height="14.12"/><rect class="cls-6" x="510.68" y="557.84" width="7.26" height="4.87"/><rect class="cls-6" x="511.15" y="568.39" width="6.29" height="8.63"/><rect class="cls-6" x="544.69" y="568.39" width="6.29" height="8.63"/><rect class="cls-6" x="544.28" y="557.84" width="7.26" height="4.87"/><rect class="cls-6" x="518.87" y="582.08" width="24.4" height="11.02"/><rect class="cls-21" x="516.06" y="586.36" width="2.81" height="2.81"/><rect class="cls-21" x="517.94" y="558.87" width="2.64" height="2.81"/><rect class="cls-21" x="541.64" y="558.87" width="2.64" height="2.81"/><rect class="cls-21" x="543.28" y="586.36" width="2.81" height="2.81"/><polygon class="cls-24" points="546.7 577.71 549.05 577.71 549.62 581.3 546.21 581.3 546.7 577.71"/><polygon class="cls-24" points="513.13 577.71 515.48 577.71 516.06 581.3 512.64 581.3 513.13 577.71"/><path class="cls-21" d="M512.56,579.75a2.32,2.32,0,0,1,3.5,0v15.92s-2.13,1.29-3.5,0Z"/><path class="cls-21" d="M546.09,579.75a2.32,2.32,0,0,1,3.5,0v15.92s-2.13,1.29-3.5,0Z"/><rect class="cls-21" x="529.53" y="571.96" width="3.16" height="10.12"/><rect class="cls-21" x="529.53" y="554.66" width="3.16" height="3.16"/><rect class="cls-23" x="413.23" y="564.46" width="0.98" height="5.81"/><rect class="cls-23" x="416.56" y="564.46" width="0.98" height="5.81"/><rect class="cls-23" x="446.84" y="564.46" width="0.98" height="5.81"/><rect class="cls-23" x="450.16" y="564.46" width="0.98" height="5.81"/><rect class="cls-6" x="422.31" y="541.89" width="19.75" height="14.69"/><rect class="cls-6" x="421.66" y="559.76" width="21.06" height="14.12"/><rect class="cls-6" x="411.75" y="559.76" width="7.26" height="4.87"/><rect class="cls-6" x="412.22" y="570.31" width="6.29" height="8.63"/><rect class="cls-6" x="445.77" y="570.31" width="6.29" height="8.63"/><rect class="cls-6" x="445.36" y="559.76" width="7.26" height="4.87"/><rect class="cls-6" x="419.95" y="584" width="24.4" height="11.02"/><rect class="cls-21" x="417.13" y="588.28" width="2.81" height="2.81"/><rect class="cls-21" x="419.01" y="560.79" width="2.64" height="2.81"/><rect class="cls-21" x="442.71" y="560.79" width="2.64" height="2.81"/><rect class="cls-21" x="444.35" y="588.28" width="2.81" height="2.81"/><polygon class="cls-24" points="447.77 579.63 450.12 579.63 450.7 583.22 447.28 583.22 447.77 579.63"/><polygon class="cls-24" points="414.21 579.63 416.56 579.63 417.13 583.22 413.72 583.22 414.21 579.63"/><path class="cls-21" d="M413.63,581.67a2.32,2.32,0,0,1,3.5,0v15.92s-2.13,1.29-3.5,0Z"/><path class="cls-21" d="M447.16,581.67a2.32,2.32,0,0,1,3.5,0v15.92s-2.13,1.29-3.5,0Z"/><rect class="cls-21" x="430.61" y="573.88" width="3.16" height="10.12"/><rect class="cls-21" x="430.61" y="556.58" width="3.16" height="3.16"/><rect class="cls-8" x="905.58" y="529.83" width="16.6" height="22.03"/><polygon class="cls-9" points="917.99 529.83 917.99 523.87 922.19 523.87 922.19 478.25 934.6 473.22 934.6 506.99 938.62 506.99 938.62 514.63 935.12 514.63 935.12 551.7 922.19 551.7 922.19 529.83 917.99 529.83"/><polygon class="cls-25" points="935.3 551.7 935.3 514.63 938.62 514.63 938.62 511.85 949.8 511.85 949.8 514.63 952.77 514.63 952.77 551.7 935.3 551.7"/><polygon class="cls-11" points="957.67 551.7 957.67 505.91 959.24 505.91 959.24 499.64 964.14 496.64 968.08 500.59 968.08 505.73 970.6 505.73 970.6 532.83 965.36 532.83 965.36 551.7 957.67 551.7"/><polygon class="cls-12" points="965.36 551.7 965.36 532.83 970.6 532.83 970.6 527.76 973.57 527.76 977.25 527.76 977.25 532.83 981.79 532.83 981.79 551.7 965.36 551.7"/><polygon class="cls-13" points="973.57 493.15 985.81 493.15 985.81 551.7 981.79 551.7 981.79 532.83 977.25 532.83 977.25 527.76 973.57 527.76 973.57 493.15"/><polygon class="cls-26" points="990.49 551.7 992.38 472.17 995.46 472.17 995.46 468.93 998.3 468.93 998.3 457.34 998.3 468.93 1002.55 468.93 1002.55 457.34 1002.55 468.93 1005.63 468.93 1005.63 472.17 1008.23 472.17 1011.07 551.7 990.49 551.7"/><polygon class="cls-9" points="1015.7 528.9 1015.7 497.69 1019.89 497.69 1019.89 502.41 1028.11 502.41 1028.11 497.69 1031.95 497.69 1031.95 527.76 1028.98 527.76 1028.98 551.7 1025.14 551.7 1025.14 528.9 1015.7 528.9"/><polygon class="cls-27" points="1031.95 524.17 1039.12 524.17 1039.12 528.9 1048.76 528.9 1048.76 551.7 1028.98 551.7 1028.98 527.76 1031.95 527.76 1031.95 524.17"/><line class="cls-28" x1="1021.52" y1="506.61" x2="1021.52" y2="510.92"/><line class="cls-28" x1="1026.48" y1="506.61" x2="1026.48" y2="510.92"/><line class="cls-28" x1="1021.52" y1="515.29" x2="1021.52" y2="519.6"/><line class="cls-28" x1="1026.48" y1="515.29" x2="1026.48" y2="519.6"/><line class="cls-28" x1="1021.52" y1="524.7" x2="1021.52" y2="529.01"/><line class="cls-28" x1="1026.48" y1="524.7" x2="1026.48" y2="529.01"/><rect class="cls-8" x="1013.25" y="528.9" width="11.89" height="22.8"/><circle class="cls-6" cx="1033.8" cy="534.28" r="1.07"/><circle class="cls-6" cx="1038.87" cy="534.28" r="1.07"/><circle class="cls-6" cx="1043.87" cy="534.28" r="1.07"/><circle class="cls-6" cx="1033.8" cy="538.47" r="1.07"/><circle class="cls-6" cx="1038.87" cy="538.47" r="1.07"/><circle class="cls-6" cx="1043.87" cy="538.47" r="1.07"/><polygon class="cls-17" points="817.58 551.7 817.58 526.18 823.26 526.18 823.26 520.07 830.95 520.07 830.95 525.33 850.52 525.33 850.52 551.7 817.58 551.7"/><polygon class="cls-13" points="829.9 520.07 829.9 493.67 834.97 493.67 834.97 476.72 844.93 476.72 844.93 493.75 848.95 493.75 848.95 525.33 830.95 525.33 830.95 520.07 829.9 520.07"/><polygon class="cls-29" points="856.29 551.7 856.29 478.2 860.49 478.2 860.49 450.68 866.26 450.68 866.26 438.09 866.26 450.68 872.29 450.68 872.29 477.94 877.56 477.94 877.56 531.25 871.27 531.25 871.27 551.7 856.29 551.7"/><rect class="cls-19" x="871.27" y="531.25" width="11.24" height="20.45"/><polygon class="cls-20" points="896.14 520.07 896.14 475.32 909.08 475.32 909.08 528.9 905.58 528.9 905.58 551.7 901.39 551.7 901.39 520.07 896.14 520.07"/><circle class="cls-21" cx="835.5" cy="509.53" r="1.07"/><circle class="cls-21" cx="839.43" cy="509.53" r="1.07"/><circle class="cls-21" cx="843.51" cy="509.53" r="1.07"/><circle class="cls-21" cx="835.5" cy="513.94" r="1.07"/><circle class="cls-21" cx="839.43" cy="513.94" r="1.07"/><circle class="cls-21" cx="843.51" cy="513.94" r="1.07"/><circle class="cls-21" cx="835.5" cy="518.35" r="1.07"/><circle class="cls-21" cx="839.43" cy="518.35" r="1.07"/><circle class="cls-21" cx="843.51" cy="518.35" r="1.07"/><circle class="cls-21" cx="835.5" cy="522.76" r="1.07"/><circle class="cls-21" cx="839.43" cy="522.76" r="1.07"/><circle class="cls-21" cx="843.51" cy="522.76" r="1.07"/><line class="cls-30" x1="882.51" y1="535.51" x2="874.76" y2="535.51"/><line class="cls-30" x1="917.76" y1="534.4" x2="910.01" y2="534.4"/><line class="cls-30" x1="900.75" y1="480.56" x2="900.75" y2="520.07"/><line class="cls-30" x1="905.58" y1="480.72" x2="905.58" y2="527.97"/><polygon class="cls-31" points="882.51 531.25 882.51 520.07 901.39 520.07 901.39 551.7 882.51 551.7 882.51 531.25"/><rect class="cls-21" x="88.69" y="669.15" width="7.72" height="31.71" transform="translate(45.48 -4.62) rotate(3.79)"/><rect class="cls-21" x="92.26" y="627.7" width="7.72" height="6.92" transform="translate(29.5 -3.79) rotate(2.67)"/><rect class="cls-6" x="87.21" y="599.89" width="18.73" height="27.81" transform="translate(28.69 -3.83) rotate(2.67)"/><rect class="cls-32" x="74.31" y="634.3" width="39.51" height="36.1" transform="translate(30.49 -3.67) rotate(2.67)"/><rect class="cls-6" x="68.28" y="699.62" width="46.39" height="16.83" transform="translate(33.08 -3.49) rotate(2.67)"/><circle class="cls-21" cx="91.49" cy="707.64" r="16.69"/><rect class="cls-23" x="91.38" y="655.09" width="6.63" height="4.28" transform="translate(741.06 505.15) rotate(84.96)"/><rect class="cls-23" x="91.4" y="650.14" width="6.27" height="4.28" transform="translate(750.51 588.23) rotate(92.67)"/><rect class="cls-33" x="87.68" y="635.52" width="13.71" height="13.71" transform="translate(30.02 -3.71) rotate(2.67)"/><rect class="cls-34" x="90.42" y="660.33" width="10.54" height="13.11" transform="translate(-58.23 10.99) rotate(-5.04)"/><rect class="cls-21" x="100.78" y="602.65" width="5.16" height="23.44" transform="translate(32.3 -4.57) rotate(3)"/><path class="cls-35" d="M99.65,673.41l2.13,6.94s-6.21,2.77-9.38.81l1-7.23Z"/><polygon class="cls-35" points="99.95 674.39 103.07 676.04 102.22 677.52 100.7 676.85 99.95 674.39"/><path class="cls-35" d="M103.55,676.3l1.62.89s1.55,1.44-.8,1.51l-1.73-.73Z"/><rect class="cls-35" x="100.35" y="681.15" width="1.56" height="2.93" transform="translate(-196.36 59.97) rotate(-17.11)"/><rect class="cls-35" x="101.19" y="684.53" width="1.56" height="1.64" transform="matrix(0.96, -0.29, 0.29, 0.96, -197.13, 60.34)"/><path class="cls-35" d="M103.16,686.54l.43,1.42s-.14,1.79-1.49.46l-.43-1.42Z"/><rect class="cls-35" x="98.1" y="681.85" width="1.56" height="2.93" transform="translate(-152.04 40.09) rotate(-13.08)"/><rect class="cls-35" x="98.75" y="685.29" width="1.56" height="1.64" transform="translate(-152.66 40.31) rotate(-13.08)"/><path class="cls-35" d="M100.63,687.37l.33,1.45s-.26,1.78-1.52.35l-.33-1.44Z"/><rect class="cls-35" x="95.6" y="682.15" width="1.56" height="2.93" transform="translate(-94.02 20.01) rotate(-7.98)"/><rect class="cls-35" x="95.99" y="685.63" width="1.56" height="1.64" transform="translate(-94.41 20.09) rotate(-7.98)"/><path class="cls-35" d="M97.75,687.81l.21,1.47s-.43,1.75-1.55.21l-.2-1.47Z"/><rect class="cls-35" x="92.7" y="682.87" width="2.58" height="1.56" transform="translate(-591.04 767) rotate(-89.11)"/><rect class="cls-35" x="93.23" y="685.4" width="1.45" height="1.56" transform="translate(-593.61 769.45) rotate(-89.11)"/><path class="cls-35" d="M94.71,687.5l0,1.31s-.68,1.47-1.56,0l0-1.31Z"/><rect class="cls-21" x="708.42" y="559.02" width="23.86" height="98.04" transform="translate(16.84 -19.4) rotate(1.56)"/><rect class="cls-21" x="712.96" y="430.56" width="23.86" height="21.4" transform="translate(3.42 -5.56) rotate(0.44)"/><rect class="cls-6" x="695.28" y="344.56" width="57.91" height="85.99" transform="translate(3 -5.56) rotate(0.44)"/><rect class="cls-36" x="660.04" y="451.17" width="122.16" height="111.61" transform="translate(3.92 -5.53) rotate(0.44)"/><rect class="cls-6" x="648.08" y="653.3" width="143.44" height="52.05" transform="translate(5.25 -5.52) rotate(0.44)"/><circle class="cls-21" cx="719.81" cy="678.09" r="51.6"/><rect class="cls-23" x="736.84" y="502.45" width="21.38" height="13.25" transform="translate(-28.12 43.98) rotate(-3.31)"/><rect class="cls-23" x="727.66" y="495.69" width="19.37" height="13.25" transform="translate(769.81 -389.28) rotate(57.82)"/><rect class="cls-37" x="700.17" y="454.9" width="42.38" height="42.38" transform="translate(-141.4 424.46) rotate(-30)"/><rect class="cls-38" x="762.53" y="487.15" width="32.6" height="40.53" transform="translate(317.19 1314.22) rotate(-93.31)"/><rect class="cls-21" x="737.28" y="352.29" width="15.96" height="72.48" transform="translate(5.3 -10) rotate(0.77)"/><polygon class="cls-6" points="816.05 500.26 817.27 478.88 818.81 478.88 820.24 500.26 816.05 500.26"/><circle class="cls-6" cx="818.15" cy="476.87" r="2.02"/><path class="cls-6" d="M816.5,478s.43,5.49-6.91,5.49A6.71,6.71,0,0,1,816.5,478Z"/><path class="cls-6" d="M820,477.73s4.54-3.12,8.2,3.24A6.71,6.71,0,0,1,820,477.73Z"/><path class="cls-6" d="M818,474.88s-5-2.38-1.3-8.73A6.71,6.71,0,0,1,818,474.88Z"/><polygon class="cls-39" points="802.39 496.06 807.85 486.61 812.34 489.39 810.08 494 802.39 496.06"/><path class="cls-39" d="M799.34,494.87,821,489.06s7.85,19.49,1.43,29.08l-22.24-3.9Z"/><rect class="cls-40" x="823.35" y="489.5" width="4.84" height="4.82" transform="translate(-99.24 230.7) rotate(-15.01)"/><rect class="cls-41" x="825.21" y="496.39" width="4.65" height="4.82" transform="translate(-79.85 166.74) rotate(-10.98)"/><rect class="cls-42" x="825.84" y="503.93" width="5.32" height="4.82" transform="translate(-47.56 87.64) rotate(-5.89)"/><rect class="cls-43" x="826.31" y="510.92" width="4.82" height="4.99" transform="translate(272.8 1314.24) rotate(-87.01)"/><rect class="cls-21" x="1139.61" y="559.02" width="23.86" height="98.04" transform="translate(2319.21 1184.48) rotate(178.44)"/><rect class="cls-21" x="1135.06" y="430.56" width="23.86" height="21.4" transform="translate(2297.34 873.67) rotate(179.56)"/><rect class="cls-6" x="1118.68" y="344.56" width="57.91" height="85.99" transform="translate(2298.23 766.26) rotate(179.56)"/><path class="cls-24" d="M1118.94,556.79l-18.51,12.71s9.73,18.63,21.18,20L1133.09,570Z"/><polygon class="cls-24" points="1116.33 558.58 1105.61 556.59 1104.81 561.81 1109.77 563.08 1116.33 558.58"/><path class="cls-24" d="M1103.93,556.27l-5.63-1s-6.52.53-1,5.2l5.59,1.57Z"/><rect class="cls-24" x="1093.14" y="573.82" width="9.04" height="4.82" transform="translate(-133.37 722.68) rotate(-34.48)"/><rect class="cls-24" x="1087.83" y="578.83" width="5.06" height="4.82" transform="translate(-137.5 719.43) rotate(-34.48)"/><path class="cls-24" d="M1085.22,581.85l-3.78,2.6s-3.11,4.62,2.73,4l3.78-2.59Z"/><rect class="cls-24" x="1097.25" y="579.83" width="9.04" height="4.82" transform="translate(-122.87 812.78) rotate(-38.52)"/><rect class="cls-24" x="1092.3" y="585.35" width="5.06" height="4.82" transform="translate(-127.82 809.66) rotate(-38.52)"/><path class="cls-24" d="M1089.75,588.73l-3.59,2.85s-2.78,4.83,3,3.77l3.58-2.85Z"/><rect class="cls-24" x="1102.75" y="585.36" width="9.04" height="4.82" transform="translate(-99.87 925.91) rotate(-43.61)"/><rect class="cls-24" x="1098.33" y="591.48" width="5.06" height="4.82" transform="translate(-105.86 923.17) rotate(-43.61)"/><path class="cls-24" d="M1095.88,595.3l-3.32,3.16s-2.34,5.06,3.33,3.5l3.31-3.16Z"/><rect class="cls-24" x="1108.97" y="590.04" width="7.99" height="4.82" transform="translate(-34.73 1114.44) rotate(-52.48)"/><rect class="cls-24" x="1105.96" y="596.25" width="4.47" height="4.82" transform="translate(-41.52 1113.09) rotate(-52.48)"/><path class="cls-24" d="M1103.82,600.4l-2.46,3.21s-1.17,4.88,3.82,2.94l2.47-3.21Z"/><rect class="cls-36" x="1089.68" y="451.17" width="122.16" height="111.61" transform="translate(2305.38 1005.08) rotate(179.56)"/><rect class="cls-6" x="1080.36" y="653.3" width="143.44" height="52.05" transform="translate(2309.36 1349.77) rotate(179.56)"/><circle class="cls-21" cx="1152.07" cy="678.09" r="51.6"/><rect class="cls-23" x="1096.6" y="467" width="20.51" height="13.25" transform="translate(1753.12 1489.38) rotate(-145.63)"/><rect class="cls-23" x="1110.4" y="470.87" width="19.37" height="13.25" transform="translate(2240.18 954.99) rotate(180)"/><rect class="cls-37" x="1129.33" y="454.9" width="42.38" height="42.38" transform="translate(2304.67 943.31) rotate(179.56)"/><rect class="cls-38" x="1066.24" y="433.94" width="32.6" height="40.53" transform="translate(96.53 1091.37) rotate(-55.63)"/><rect class="cls-21" x="1118.64" y="352.29" width="15.96" height="72.48" transform="translate(2258.36 761.85) rotate(179.23)"/><path class="cls-39" d="M1069.35,433.77l-16.79-14.91s-15.75,13.92-14.3,25.36l21.63,6.47Z"/><polygon class="cls-39" points="1066.98 431.67 1066.34 420.78 1061.07 421.26 1061.03 426.39 1066.98 431.67"/><path class="cls-39" d="M1066.23,419.07l-.42-5.69s-2.08-6.2-5.28.31l-.18,5.81Z"/><rect class="cls-39" x="1042.95" y="413.27" width="4.82" height="9.04" transform="translate(38.87 922.08) rotate(-48.4)"/><rect class="cls-39" x="1036.32" y="409.38" width="4.82" height="5.06" transform="translate(41.04 915.15) rotate(-48.4)"/><path class="cls-39" d="M1036.91,407.06l-3.43-3s-5.24-1.91-3.2,3.61l3.43,3Z"/><rect class="cls-44" x="1040.45" y="423.28" width="4.82" height="3.51" transform="translate(70.12 992.48) rotate(-52.43)"/><rect class="cls-45" x="1036.35" y="429.4" width="4.82" height="3.93" transform="translate(117.1 1076.06) rotate(-57.52)"/><rect class="cls-46" x="1033.2" y="435.9" width="4.82" height="3.31" transform="matrix(0.4, -0.92, 0.92, 0.4, 220.03, 1211.37)"/><rect class="cls-21" x="355.42" y="674.13" width="7.72" height="31.71" transform="translate(763.38 1354.72) rotate(176.21)"/><rect class="cls-21" x="351.85" y="632.68" width="7.72" height="6.92" transform="translate(740.67 1255.03) rotate(177.33)"/><rect class="cls-6" x="345.88" y="604.87" width="18.73" height="27.81" transform="translate(738.93 1220.34) rotate(177.33)"/><rect class="cls-32" x="338" y="639.28" width="39.51" height="36.1" transform="translate(745.74 1297.29) rotate(177.33)"/><rect class="cls-6" x="337.16" y="704.61" width="46.39" height="16.83" transform="translate(753.53 1408.49) rotate(177.33)"/><circle class="cls-21" cx="360.34" cy="712.62" r="16.69"/><rect class="cls-23" x="353.81" y="660.07" width="6.63" height="4.28" transform="translate(1048.16 364.65) rotate(95.04)"/><rect class="cls-23" x="354.16" y="655.12" width="6.27" height="4.28" transform="translate(997.2 269.74) rotate(87.33)"/><rect class="cls-33" x="350.44" y="640.5" width="13.71" height="13.71" transform="translate(744.35 1277.37) rotate(177.33)"/><rect class="cls-34" x="350.86" y="665.31" width="10.54" height="13.11" transform="translate(651.85 1372.42) rotate(-174.96)"/><rect class="cls-21" x="345.88" y="607.63" width="5.16" height="23.44" transform="translate(728.87 1219.63) rotate(177)"/><path class="cls-35" d="M352.18,678.39l-2.14,7s6.21,2.76,9.39.8l-1-7.23Z"/><polygon class="cls-35" points="351.88 679.37 348.76 681.02 349.61 682.51 351.12 681.83 351.88 679.37"/><path class="cls-35" d="M348.27,681.28l-1.62.89s-1.54,1.44.8,1.51l1.74-.72Z"/><rect class="cls-35" x="349.23" y="686.82" width="2.93" height="1.56" transform="translate(-409.65 820.47) rotate(-72.89)"/><rect class="cls-35" x="349.03" y="689.56" width="1.64" height="1.56" transform="translate(-412.86 821.59) rotate(-72.89)"/><path class="cls-35" d="M348.67,691.52l-.44,1.42s.14,1.8,1.5.46l.43-1.42Z"/><rect class="cls-35" x="351.48" y="687.52" width="2.93" height="1.56" transform="translate(-397.36 876.35) rotate(-76.92)"/><rect class="cls-35" x="351.48" y="690.31" width="1.64" height="1.56" transform="translate(-400.58 877.88) rotate(-76.92)"/><path class="cls-35" d="M351.2,692.35l-.34,1.45s.27,1.78,1.52.35l.34-1.44Z"/><rect class="cls-35" x="353.99" y="687.81" width="2.93" height="1.56" transform="translate(-375.84 944.96) rotate(-82.02)"/><rect class="cls-35" x="354.23" y="690.65" width="1.64" height="1.56" transform="translate(-378.99 947.01) rotate(-82.02)"/><path class="cls-35" d="M354.07,692.79l-.2,1.47s.42,1.75,1.54.22l.21-1.47Z"/><rect class="cls-35" x="357.05" y="687.34" width="1.56" height="2.58" transform="translate(-10.67 5.65) rotate(-0.89)"/><rect class="cls-35" x="357.09" y="690.44" width="1.56" height="1.45" transform="translate(-10.71 5.65) rotate(-0.89)"/><path class="cls-35" d="M357.11,692.49l0,1.3s.69,1.48,1.56,0l0-1.31Z"/><rect class="cls-21" x="296.86" y="674.13" width="7.72" height="31.71" transform="translate(46.27 -18.37) rotate(3.79)"/><rect class="cls-21" x="300.43" y="632.68" width="7.72" height="6.92" transform="translate(29.96 -13.48) rotate(2.67)"/><rect class="cls-6" x="295.39" y="604.87" width="18.73" height="27.81" transform="translate(29.15 -13.52) rotate(2.67)"/><rect class="cls-32" x="282.49" y="639.28" width="39.51" height="36.1" transform="translate(30.94 -13.36) rotate(2.67)"/><rect class="cls-6" x="276.45" y="704.61" width="46.39" height="16.83" transform="translate(33.53 -13.18) rotate(2.67)"/><circle class="cls-21" cx="299.67" cy="712.62" r="16.69"/><rect class="cls-23" x="299.55" y="660.07" width="6.63" height="4.28" transform="translate(935.91 302.32) rotate(84.96)"/><rect class="cls-23" x="299.58" y="655.12" width="6.27" height="4.28" transform="translate(973.36 385.49) rotate(92.67)"/><rect class="cls-33" x="295.85" y="640.5" width="13.71" height="13.71" transform="translate(30.48 -13.4) rotate(2.67)"/><rect class="cls-34" x="298.6" y="665.31" width="10.54" height="13.11" transform="matrix(1, -0.09, 0.09, 1, -57.86, 29.3)"/><rect class="cls-21" x="308.95" y="607.63" width="5.16" height="23.44" transform="translate(32.84 -15.46) rotate(3)"/><path class="cls-35" d="M307.82,678.39l2.14,7s-6.21,2.76-9.39.8l1-7.23Z"/><polygon class="cls-35" points="308.12 679.37 311.24 681.02 310.39 682.51 308.88 681.83 308.12 679.37"/><path class="cls-35" d="M311.73,681.28l1.62.89s1.54,1.44-.8,1.51l-1.73-.72Z"/><rect class="cls-35" x="308.53" y="686.13" width="1.56" height="2.93" transform="translate(-188.61 121.44) rotate(-17.11)"/><rect class="cls-35" x="309.37" y="689.52" width="1.56" height="1.64" transform="translate(-189.38 121.81) rotate(-17.11)"/><path class="cls-35" d="M311.33,691.52l.44,1.42s-.14,1.8-1.49.46l-.44-1.42Z"/><rect class="cls-35" x="306.28" y="686.83" width="1.56" height="2.93" transform="translate(-147.77 87.32) rotate(-13.08)"/><rect class="cls-35" x="306.93" y="690.27" width="1.56" height="1.64" transform="translate(-148.39 87.54) rotate(-13.08)"/><path class="cls-35" d="M308.8,692.35l.34,1.45s-.27,1.78-1.52.35l-.34-1.44Z"/><rect class="cls-35" x="303.77" y="687.13" width="1.56" height="2.93" transform="translate(-92.69 48.97) rotate(-7.98)"/><rect class="cls-35" x="304.17" y="690.61" width="1.56" height="1.64" transform="translate(-93.08 49.06) rotate(-7.98)"/><path class="cls-35" d="M305.93,692.79l.2,1.47s-.42,1.75-1.54.22l-.21-1.47Z"/><rect class="cls-35" x="300.88" y="687.85" width="2.58" height="1.56" transform="translate(-391.08 980.06) rotate(-89.11)"/><rect class="cls-35" x="301.41" y="690.38" width="1.45" height="1.56" transform="translate(-393.65 982.51) rotate(-89.11)"/><path class="cls-35" d="M302.89,692.49l0,1.3s-.69,1.48-1.56,0l0-1.31Z"/><rect class="cls-21" x="97.55" y="565" width="3.52" height="14.48" transform="translate(236.23 1136.66) rotate(176.21)"/><rect class="cls-21" x="95.92" y="546.06" width="3.52" height="3.16" transform="translate(220.76 1090.14) rotate(177.33)"/><rect class="cls-6" x="93.19" y="533.36" width="8.56" height="12.71" transform="translate(219.97 1074.3) rotate(177.33)"/><rect class="cls-47" x="89.59" y="549.08" width="18.05" height="16.49" transform="translate(223.08 1109.45) rotate(177.33)"/><rect class="cls-6" x="89.2" y="578.92" width="21.19" height="7.69" transform="matrix(-1, 0.05, -0.05, -1, 226.63, 1160.24)"/><circle class="cls-21" cx="99.79" cy="582.58" r="7.62"/><rect class="cls-23" x="96.81" y="558.57" width="3.03" height="1.96" transform="matrix(-0.09, 1, -1, -0.09, 664.35, 510.77)"/><rect class="cls-23" x="96.97" y="556.31" width="2.86" height="1.96" transform="translate(650.5 433.04) rotate(87.33)"/><rect class="cls-48" x="95.27" y="549.63" width="6.26" height="6.26" transform="translate(222.44 1100.35) rotate(177.33)"/><rect class="cls-49" x="95.46" y="560.97" width="4.82" height="5.99" transform="translate(145.81 1134.34) rotate(-174.96)"/><rect class="cls-21" x="93.19" y="534.62" width="2.36" height="10.71" transform="matrix(-1, 0.05, -0.05, -1, 216.87, 1074.27)"/><path class="cls-50" d="M96.07,566.94l-1,3.17s2.84,1.27,4.29.37l-.46-3.3Z"/><polygon class="cls-50" points="95.93 567.39 94.5 568.14 94.89 568.82 95.58 568.51 95.93 567.39"/><path class="cls-50" d="M94.28,568.26l-.74.41s-.7.66.37.69l.79-.33Z"/><rect class="cls-50" x="94.72" y="570.79" width="1.34" height="0.71" transform="translate(-478.54 494.27) rotate(-72.89)"/><rect class="cls-50" x="94.63" y="572.04" width="0.75" height="0.71" transform="translate(-480.01 494.78) rotate(-72.89)"/><path class="cls-50" d="M94.46,572.94l-.2.65s.07.82.68.21l.2-.65Z"/><rect class="cls-50" x="95.75" y="571.11" width="1.34" height="0.71" transform="translate(-482.05 536.08) rotate(-76.92)"/><rect class="cls-50" x="95.74" y="572.38" width="0.75" height="0.71" transform="matrix(0.23, -0.97, 0.97, 0.23, -483.52, 536.78)"/><path class="cls-50" d="M95.62,573.32l-.15.66s.12.81.69.16l.15-.66Z"/><rect class="cls-50" x="96.89" y="571.24" width="1.34" height="0.71" transform="translate(-482.05 588.82) rotate(-82.02)"/><rect class="cls-50" x="97" y="572.54" width="0.75" height="0.71" transform="translate(-483.49 589.76) rotate(-82.02)"/><path class="cls-50" d="M96.93,573.52l-.09.67s.19.8.7.1l.1-.67Z"/><rect class="cls-50" x="98.29" y="571.03" width="0.71" height="1.18" transform="translate(-8.88 1.6) rotate(-0.89)"/><rect class="cls-50" x="98.31" y="572.45" width="0.71" height="0.66" transform="translate(-8.9 1.6) rotate(-0.89)"/><path class="cls-50" d="M98.32,573.38v.6s.31.67.71,0v-.6Z"/><rect class="cls-21" x="26.57" y="678.13" width="7.72" height="31.71" transform="translate(45.94 -0.49) rotate(3.79)"/><rect class="cls-21" x="30.14" y="636.68" width="7.72" height="6.92" transform="translate(29.85 -0.89) rotate(2.67)"/><rect class="cls-6" x="25.09" y="608.87" width="18.73" height="27.81" transform="translate(29.04 -0.93) rotate(2.67)"/><rect class="cls-32" x="12.19" y="643.28" width="39.51" height="36.1" transform="translate(30.84 -0.77) rotate(2.67)"/><rect class="cls-6" x="6.16" y="708.61" width="46.39" height="16.83" transform="translate(33.43 -0.59) rotate(2.67)"/><circle class="cls-21" cx="29.37" cy="716.62" r="16.69"/><rect class="cls-23" x="29.26" y="664.07" width="6.63" height="4.28" transform="translate(693.35 575.22) rotate(84.96)"/><rect class="cls-23" x="29.28" y="659.12" width="6.27" height="4.28" transform="translate(694.47 659.68) rotate(92.67)"/><rect class="cls-33" x="25.56" y="644.5" width="13.71" height="13.71" transform="translate(30.37 -0.8) rotate(2.67)"/><rect class="cls-34" x="28.3" y="669.31" width="10.54" height="13.11" transform="translate(-59.26 5.56) rotate(-5.04)"/><rect class="cls-21" x="38.66" y="611.63" width="5.16" height="23.44" transform="translate(32.68 -1.3) rotate(3)"/><path class="cls-35" d="M37.53,682.39l2.13,7s-6.21,2.76-9.38.8l1-7.23Z"/><polygon class="cls-35" points="37.83 683.37 40.95 685.02 40.1 686.51 38.59 685.83 37.83 683.37"/><path class="cls-35" d="M41.43,685.28l1.62.89s1.55,1.44-.8,1.51L40.52,687Z"/><rect class="cls-35" x="38.23" y="690.13" width="1.56" height="2.93" transform="translate(-201.75 42.09) rotate(-17.11)"/><rect class="cls-35" x="39.08" y="693.52" width="1.56" height="1.64" transform="translate(-202.52 42.46) rotate(-17.11)"/><path class="cls-35" d="M41,695.52l.43,1.42s-.14,1.8-1.49.46L39.55,696Z"/><rect class="cls-35" x="35.98" y="690.83" width="1.56" height="2.93" transform="translate(-155.69 26.27) rotate(-13.08)"/><rect class="cls-35" x="36.63" y="694.27" width="1.56" height="1.64" transform="translate(-156.3 26.49) rotate(-13.08)"/><path class="cls-35" d="M38.51,696.35l.33,1.45s-.26,1.78-1.52.35L37,696.71Z"/><rect class="cls-35" x="33.48" y="691.13" width="1.56" height="2.93" transform="translate(-95.87 11.47) rotate(-7.98)"/><rect class="cls-35" x="33.87" y="694.61" width="1.56" height="1.64" transform="translate(-96.26 11.55) rotate(-7.98)"/><path class="cls-35" d="M35.63,696.79l.21,1.47s-.43,1.75-1.55.22l-.2-1.47Z"/><rect class="cls-35" x="30.58" y="691.85" width="2.58" height="1.56" transform="translate(-661.17 713.73) rotate(-89.11)"/><rect class="cls-35" x="31.11" y="694.38" width="1.45" height="1.56" transform="translate(-663.74 716.18) rotate(-89.11)"/><path class="cls-35" d="M32.6,696.49l0,1.3s-.68,1.48-1.56,0l0-1.31Z"/><circle class="cls-4" cx="29.37" cy="717.02" r="11.14"/><circle class="cls-4" cx="91.49" cy="708.04" r="11.14"/><circle class="cls-4" cx="99.8" cy="582.76" r="5.28"/><circle class="cls-4" cx="299.65" cy="712.62" r="11.14"/><circle class="cls-4" cx="360.35" cy="712.62" r="11.14"/><rect class="cls-6" x="801.8" y="552.76" width="263.54" height="22.67"/><rect class="cls-24" x="834.37" y="574.62" width="35.48" height="161.46"/><rect class="cls-24" x="997.67" y="574.62" width="35.48" height="161.46"/><polygon class="cls-6" points="900.51 475.32 901.74 453.94 903.27 453.94 904.71 475.32 900.51 475.32"/><circle class="cls-6" cx="902.61" cy="451.92" r="2.02"/><path class="cls-6" d="M901,453.05s.43,5.49-6.9,5.49A6.71,6.71,0,0,1,901,453.05Z"/><path class="cls-6" d="M904.41,452.78s4.54-3.11,8.21,3.24A6.71,6.71,0,0,1,904.41,452.78Z"/><path class="cls-6" d="M902.46,449.93s-5-2.37-1.3-8.73A6.72,6.72,0,0,1,902.46,449.93Z"/><polygon class="cls-6" points="941.75 511.84 942.98 490.45 944.51 490.45 945.95 511.84 941.75 511.84"/><circle class="cls-6" cx="943.85" cy="488.44" r="2.02"/><path class="cls-6" d="M942.2,489.56s.43,5.49-6.9,5.49A6.71,6.71,0,0,1,942.2,489.56Z"/><path class="cls-6" d="M945.65,489.3s4.54-3.12,8.21,3.24A6.73,6.73,0,0,1,945.65,489.3Z"/><path class="cls-6" d="M943.7,486.45s-5-2.38-1.3-8.73A6.71,6.71,0,0,1,943.7,486.45Z"/><polygon class="cls-6" points="976.87 493.15 978.09 471.76 979.63 471.76 981.06 493.15 976.87 493.15"/><circle class="cls-6" cx="978.97" cy="469.75" r="2.02"/><path class="cls-6" d="M977.32,470.87s.43,5.49-6.91,5.49A6.71,6.71,0,0,1,977.32,470.87Z"/><path class="cls-6" d="M980.76,470.61s4.54-3.12,8.21,3.24A6.73,6.73,0,0,1,980.76,470.61Z"/><path class="cls-6" d="M978.81,467.76s-5-2.38-1.3-8.73A6.71,6.71,0,0,1,978.81,467.76Z"/><polygon class="cls-24" points="962.01 545.67 962.01 550.52 956.06 550.52 956.06 553.17 970.62 553.17 970.62 550.52 964.99 550.52 964.99 545.67 962.01 545.67"/><path class="cls-51" d="M956.94,529.71h13.68a4.67,4.67,0,0,1,3.75,4l2,7.72s-.11,3-3,3H953.19s-2.54-.33-2.43-2.54l2.32-8.05S954.51,529.71,956.94,529.71Z"/><line class="cls-52" x1="953.45" y1="533.86" x2="974.16" y2="533.86"/><line class="cls-53" x1="952.08" y1="538" x2="975.23" y2="538"/><line class="cls-52" x1="958.7" y1="529.71" x2="956.83" y2="544.38"/><line class="cls-52" x1="963.34" y1="529.71" x2="963.56" y2="544.38"/><line class="cls-52" x1="968.14" y1="529.71" x2="970.23" y2="544.38"/><polygon class="cls-24" points="990.95 545.67 990.95 550.52 984.99 550.52 984.99 553.17 999.55 553.17 999.55 550.52 993.93 550.52 993.93 545.67 990.95 545.67"/><path class="cls-51" d="M985.87,529.71h13.68a4.68,4.68,0,0,1,3.76,4l2,7.72s-.11,3-3,3H982.12s-2.54-.33-2.43-2.54l2.32-8.05S983.45,529.71,985.87,529.71Z"/><line class="cls-52" x1="982.38" y1="533.86" x2="1003.1" y2="533.86"/><line class="cls-53" x1="981.02" y1="538" x2="1004.16" y2="538"/><line class="cls-52" x1="987.64" y1="529.71" x2="985.76" y2="544.38"/><line class="cls-52" x1="992.27" y1="529.71" x2="992.49" y2="544.38"/><line class="cls-52" x1="997.07" y1="529.71" x2="999.17" y2="544.38"/><polygon class="cls-24" points="932.03 545.67 932.03 550.52 926.07 550.52 926.07 553.17 940.63 553.17 940.63 550.52 935.01 550.52 935.01 545.67 932.03 545.67"/><path class="cls-51" d="M927,529.71h13.68a4.68,4.68,0,0,1,3.76,4l2,7.72s-.11,3-3,3H923.2s-2.54-.33-2.43-2.54l2.32-8.05S924.52,529.71,927,529.71Z"/><line class="cls-52" x1="923.46" y1="533.86" x2="944.18" y2="533.86"/><line class="cls-53" x1="922.1" y1="538" x2="945.24" y2="538"/><line class="cls-52" x1="928.72" y1="529.71" x2="926.84" y2="544.38"/><line class="cls-52" x1="933.35" y1="529.71" x2="933.57" y2="544.38"/><line class="cls-52" x1="938.15" y1="529.71" x2="940.25" y2="544.38"/><polygon class="cls-24" points="890.41 511.2 890.41 516.06 884.45 516.06 884.45 518.71 899.01 518.71 899.01 516.06 893.38 516.06 893.38 511.2 890.41 511.2"/><path class="cls-51" d="M885.33,495.24H899a4.67,4.67,0,0,1,3.75,4l2,7.73s-.11,3-3,3H881.58s-2.54-.33-2.43-2.53l2.32-8.06S882.9,495.24,885.33,495.24Z"/><line class="cls-52" x1="881.84" y1="499.4" x2="902.56" y2="499.4"/><line class="cls-53" x1="880.48" y1="503.53" x2="903.62" y2="503.53"/><line class="cls-52" x1="887.1" y1="495.24" x2="885.22" y2="509.91"/><line class="cls-52" x1="891.73" y1="495.24" x2="891.95" y2="509.91"/><line class="cls-52" x1="896.53" y1="495.24" x2="898.63" y2="509.91"/><circle class="cls-4" cx="720.34" cy="679.33" r="36.51"/><circle class="cls-4" cx="1151.53" cy="679.33" r="36.51"/></g></svg>