<svg xmlns="http://www.w3.org/2000/svg" viewBox="0 0 792 612"><defs><style>.cls-1{fill:#beded9;}.cls-2{fill:#79c2d4;}.cls-10,.cls-3,.cls-5,.cls-6,.cls-7,.cls-9{fill:none;stroke-miterlimit:10;}.cls-3{stroke:#33a457;stroke-width:13px;}.cls-4,.cls-8{opacity:0.5;}.cls-5,.cls-6,.cls-7{stroke:#e6a84f;stroke-width:11px;}.cls-6{stroke-dasharray:23.8364 5.9591;}.cls-7{stroke-dasharray:23.8564 5.9641;}.cls-8{fill:#4675b8;}.cls-9{stroke:#33348e;}.cls-10{stroke:#a32430;}.cls-11,.cls-12,.cls-13{font-size:14px;}.cls-11{fill:#33348e;}.cls-11,.cls-12{font-family:Helvetica-Light, Helvetica;font-weight:300;}.cls-12{fill:#a32430;}.cls-13,.cls-15{fill:#272525;font-family:Helvetica-Bold, Helvetica;font-weight:700;}.cls-14{letter-spacing:-0.0737em;}.cls-15{font-size:20px;}</style></defs><g id="Layer_2" data-name="Layer 2"><circle class="cls-1" cx="396" cy="306" r="247.6763"/><circle class="cls-2" cx="396" cy="306" r="81.9805"/><circle class="cls-2" cx="510.8022" cy="191.1978" r="59.8047"/><circle class="cls-2" cx="558.3548" cy="306" r="59.8047"/><circle class="cls-2" cx="510.8022" cy="420.8022" r="59.8047"/><circle class="cls-2" cx="396" cy="468.3548" r="59.8047"/><circle class="cls-2" cx="281.1978" cy="420.8022" r="59.8047"/><circle class="cls-2" cx="233.6452" cy="306" r="59.8047"/><circle class="cls-2" cx="281.1978" cy="191.1978" r="59.8047"/><circle class="cls-2" cx="396" cy="143.6452" r="59.8047"/><line class="cls-3" x1="468.5139" y1="233.4861" x2="453.969" y2="248.031"/><line class="cls-3" x1="498.5501" y1="306" x2="477.9805" y2="306"/><line class="cls-3" x1="468.5139" y1="378.5139" x2="453.969" y2="363.969"/><line class="cls-3" x1="396" y1="408.5501" x2="396" y2="387.9805"/><line class="cls-3" x1="323.4861" y1="378.5139" x2="338.031" y2="363.969"/><line class="cls-3" x1="293.4499" y1="306" x2="314.0195" y2="306"/><line class="cls-3" x1="323.4861" y1="233.4861" x2="338.031" y2="248.031"/><line class="cls-3" x1="396" y1="203.4499" x2="396" y2="224.0195"/><g class="cls-4"><path class="cls-5" d="M333.1155,385.6631c-6.0582-4.1271-9.6293-7.1492-9.6293-7.1492l-7.8993,9.0333"/><line class="cls-6" x1="311.6642" y1="392.0331" x2="254.7849" y2="457.0785"/><path class="cls-5" d="M252.8235,459.3214l-7.8993,9.0334s3.6918,2.4968,10.1011,6.47"/><path class="cls-7" d="M260.11,477.9353C288.0985,494.8319,349.2316,528.16,396,528.16c62.65,0,151.0758-59.8047,151.0758-59.8047S618.16,404.8846,618.16,306s-65.0689-157.09-65.0689-157.09-45.896-38.6808-84.5768,0,0,84.5766,0,84.5766S498.55,257.9105,498.55,306s-30.0362,72.5139-30.0362,72.5139S433.0225,408.55,396,408.55c-23.7552,0-46.88-12.3661-60.4033-21.2291"/></g><path class="cls-8" d="M396,83.8405s59.8047,1.4026,59.8047,59.8047S396,203.45,396,203.45s-37.6153-2.7205-72.5139,30.0362S293.45,306,293.45,306s-6.0182,56.3936,30.0362,72.5139l-78.5619,89.8409S173.8405,394.1854,173.8405,306,238.91,148.91,238.91,148.91,303.3111,83.8405,396,83.8405Z"/><line class="cls-9" x1="199.6552" y1="233.4861" x2="119.2898" y2="178.1392"/><line class="cls-10" x1="622.532" y1="499.5885" x2="564.6452" y2="459.7224"/><text class="cls-11" transform="translate(41.7954 151.3292)"><tspan xml:space="preserve">Areas current digital  </tspan><tspan x="0" y="16.8003">technologies are trying </tspan><tspan x="0" y="33.6001">to solve</tspan></text><text class="cls-12" transform="translate(575.4752 514.2346)">Areas related to <tspan x="0" y="16.8003">the physical world</tspan></text></g><g id="Layer_1" data-name="Layer 1"><text class="cls-13" transform="translate(369.1715 146.0536)"><tspan class="cls-14">T</tspan><tspan x="7.5195" y="0">eachers</tspan></text><text class="cls-13" transform="translate(490.0816 188.2051)">Natural<tspan x="-11.6792" y="16.7998">Resources</tspan></text><text class="cls-13" transform="translate(531.4034 309.4919)">Materials</text><text class="cls-13" transform="translate(369.4383 472.9081)">Facilities</text><text class="cls-13" transform="translate(266.4452 425.2313)"><tspan class="cls-14">T</tspan><tspan x="7.5195" y="0">ools</tspan></text><text class="cls-13" transform="translate(209.0313 310.5533)">Courses</text><text class="cls-15" transform="translate(356.6185 311.4474)">Students</text><text class="cls-13" transform="translate(245.681 195.7511)">Classmates</text><text class="cls-13" transform="translate(489.6819 425.3555)">Spaces</text></g></svg>