<svg  xmlns="http://www.w3.org/2000/svg" viewBox="0 0 1224 792"><defs><style>.cls-1{fill:#65a8df;opacity:0.7;}.cls-2{fill:#51924b;}.cls-3{fill:#39673d;}.cls-4{fill:#9c7b53;}.cls-5,.cls-7{fill:#eec38c;}.cls-6{fill:#7f5e40;}.cls-7{opacity:0.5;}.cls-17,.cls-8{fill:#434244;}.cls-9{fill:#272525;}.cls-10{fill:#6b4e2f;}.cls-11{fill:#33348e;}.cls-12{fill:#2a2760;}.cls-13,.cls-14,.cls-16{fill:#fff;}.cls-14{stroke:#fff;}.cls-14,.cls-16,.cls-17{stroke-miterlimit:10;}.cls-15{fill:#808183;}.cls-16,.cls-17{stroke:#272525;}.cls-16{stroke-width:0.5px;}.cls-17{stroke-width:0.25px;}.cls-18{fill:#929496;}.cls-19{fill:#c08447;}</style></defs><g id="Layer_2" data-name="Layer 2"><rect class="cls-1" x="-1" y="196.22" width="1224" height="538.86"/><polygon class="cls-2" points="27.03 196.22 93.76 320.62 72.73 320.62 117.41 433.5 77.38 433.5 117.41 538.31 0 538.31 0 433.5 0 378.3 0 321.19 -1.33 262.91 27.03 196.22"/><polygon class="cls-3" points="134.02 196.22 200.75 328.25 179.73 328.25 224.4 448.06 184.37 448.06 224.4 559.32 59.69 559.32 85.88 448.06 59.69 448.06 98.55 328.25 81.61 327.03 134.02 196.22"/><rect class="cls-4" x="7" y="537.31" width="50.95" height="197.76"/><rect class="cls-4" x="116.57" y="559.32" width="50.95" height="175.76"/><circle class="cls-4" cx="215.64" cy="714.92" r="20.16"/><circle class="cls-4" cx="255.95" cy="714.92" r="20.16"/><circle class="cls-4" cx="235.8" cy="680.01" r="20.16"/><circle class="cls-5" cx="235.8" cy="680.01" r="16.51"/><circle class="cls-5" cx="215.64" cy="714.92" r="16.51"/><circle class="cls-5" cx="255.95" cy="714.92" r="16.51"/><polygon class="cls-6" points="323.5 407.39 773.75 226.63 773.75 250.28 329.37 428.39 323.5 407.39"/><polygon class="cls-6" points="1224 407.39 773.75 226.63 773.75 250.28 1224 430.75 1224 407.39"/><polygon class="cls-7" points="378.69 736.08 378.69 408.63 773.75 250.28 1224 430.75 1223 735.08 378.69 736.08"/><rect class="cls-6" x="364.05" y="400.15" width="14.64" height="335.93"/><rect class="cls-4" x="1013.66" y="528.46" width="68.14" height="50.68"/><rect class="cls-8" x="1017.9" y="533.82" width="59.39" height="39.41"/><rect class="cls-4" x="1011.4" y="590.12" width="72.64" height="48.71"/><rect class="cls-4" x="977.23" y="590.12" width="25.05" height="16.8"/><rect class="cls-4" x="1005.5" y="673.74" width="84.19" height="38.02"/><path class="cls-9" d="M983.72,665.68s5.51-6.25,12.07,0v55s-7.35,4.43-12.07,0Z"/><path class="cls-9" d="M1099.39,665.68s5.52-6.25,12.08,0v55s-7.35,4.43-12.08,0Z"/><rect class="cls-10" x="995.79" y="688.5" width="9.71" height="9.71"/><rect class="cls-10" x="1001.7" y="593.67" width="9.71" height="9.71"/><rect class="cls-10" x="1089.69" y="688.5" width="9.71" height="9.71"/><rect class="cls-10" x="1042.28" y="638.83" width="10.89" height="34.91"/><rect class="cls-10" x="1042.28" y="579.14" width="10.89" height="10.89"/><circle class="cls-5" cx="801.5" cy="519.49" r="29.69"/><path class="cls-11" d="M771.81,519.49s-.49-29.69,29.69-29.69,29.69,29.69,29.69,29.69Z"/><polygon class="cls-5" points="793.15 546.06 793.15 552.95 803.15 567.6 813.03 552.32 813.03 546.06 793.15 546.06"/><polygon class="cls-11" points="779.64 539.58 768.05 552.3 763.92 541.78 779.64 539.58"/><path class="cls-11" d="M793.15,553s-27.16,4.32-33.92,22.11l4.69,10.27,12.27,9.39v28.53h57.65V596.31l5.63-3.09,9.86-11.83V571S827.7,552.25,813,552.32l-9.88,15.28Z"/><polygon class="cls-5" points="814.6 586.46 814.6 578.29 828.21 576.32 835.81 581.39 828.49 586.46 814.6 586.46"/><polygon class="cls-5" points="774.71 574.92 782.03 570.97 788.79 574.92 788.79 577.73 777.25 579.14 774.71 574.92"/><polygon class="cls-12" points="776.19 594.72 795.27 593.78 814.6 586.46 796.21 596.6 776.19 594.72"/><polygon class="cls-12" points="833.84 596.31 807.38 590.44 804.28 592.15 833.84 596.31"/><polygon class="cls-11" points="776.19 624.47 833.84 624.47 846.23 721.87 821.73 723.02 807.94 643.89 793.15 719.87 765.7 719.59 776.19 624.47"/><path class="cls-6" d="M765.7,721.23S757,727,762.23,735.08H796s8.07-7.84-2.82-13.1S765.7,721.23,765.7,721.23Z"/><path class="cls-6" d="M820.7,721.23S812,727,817.23,735.08H851s8.07-7.84-2.82-13.1S820.7,721.23,820.7,721.23Z"/><rect class="cls-9" x="506.97" y="634.54" width="14.21" height="58.4" transform="translate(171.11 -102.55) rotate(13.65)"/><rect class="cls-9" x="530.42" y="560.79" width="14.21" height="12.75" transform="translate(135.8 -103.08) rotate(12.53)"/><rect class="cls-13" x="526.59" y="510.19" width="34.5" height="51.22" transform="translate(129.15 -105.2) rotate(12.53)"/><rect class="cls-9" x="552.6" y="516.58" width="8.06" height="44.31" transform="translate(130.09 -107.9) rotate(12.53)"/><rect class="cls-14" x="490.75" y="571.73" width="72.77" height="66.48" transform="translate(143.76 -99.93) rotate(12.53)"/><rect class="cls-13" x="462.15" y="689.69" width="85.44" height="31" transform="translate(164.96 -92.71) rotate(12.53)"/><circle class="cls-9" cx="505.03" cy="704.48" r="30.73"/><circle class="cls-15" cx="504.01" cy="705.2" r="20"/><rect class="cls-4" x="527.75" y="606.85" width="12.21" height="7.89" transform="translate(271.21 -156.73) rotate(22.26)"/><rect class="cls-4" x="599.46" y="639.52" width="12.21" height="11.07" transform="translate(289.54 -181.34) rotate(22.26)"/><rect class="cls-4" x="524.65" y="601.46" width="11.54" height="7.89" transform="translate(1135.82 74.99) rotate(90)"/><rect class="cls-16" x="518.5" y="574.39" width="25.25" height="25.25"/><rect class="cls-16" x="538.23" y="609.88" width="34.91" height="21.3" transform="translate(276.53 -164.27) rotate(22.26)"/><polygon class="cls-17" points="577.13 618.93 570.37 636.95 571.68 641.27 575.06 639.96 577.13 645.59 582.2 643.71 583.88 648.59 589.7 646.71 591.77 651.03 597.77 649.53 602.09 642.4 606.41 641.27 607.91 630.38 577.13 618.93"/><polygon class="cls-18" points="614.62 643.19 622.65 646.29 626.31 637.84 631.8 639.53 635.74 636.3 637.57 641.29 642.64 638.27 643.76 642.35 647.7 640.38 649.39 644.32 654.88 642.07 656.29 646.29 662.21 644.04 664.18 648.68 669.67 646.57 670.93 650.09 675.02 648.12 675.72 652.2 665.72 677.97 660.94 681.63 657.84 676.56 653.34 680.22 651.65 675.71 646.86 679.66 644.04 673.74 640.1 677.97 637.85 672.05 630.81 676 628.84 671.35 624.34 675.01 622.22 669.24 617.86 671.77 617.01 667.41 612.57 665.72 616.73 656.57 609.55 654.17 614.62 643.19"/><rect class="cls-19" x="617.67" y="674.87" width="21.21" height="16.52"/><rect class="cls-6" x="617.67" y="707.15" width="9.57" height="27.92"/><rect class="cls-6" x="668.54" y="707.15" width="9.57" height="27.92"/><rect class="cls-6" x="617.67" y="691.39" width="60.44" height="15.77"/></g></svg>
