<?xml version="1.0" encoding="UTF-8"?>
<svg width="711px" height="158px" viewBox="0 0 761 158" version="1.1" xmlns="http://www.w3.org/2000/svg" xmlns:xlink="http://www.w3.org/1999/xlink">
    <title>teleducation-9</title>
    <g id="Page-1" stroke="none" stroke-width="1" fill="none" fill-rule="evenodd">
        <g id="Teleducation" transform="translate(-130.000000, -6105.000000)">
            <g id="teleducation-9" transform="translate(130.000000, 6107.000000)">
                <polygon id="Fill-1" fill="#40AC49" points="187 77.5 130.820962 1 0 1 0 154 130.820962 154"></polygon>
                <polygon id="Fill-2" fill="#00B4EA" points="571 77.5 512.348686 1 316 1 375.771211 77.4973621 316 154 512.348686 154"></polygon>
                <polygon id="Fill-3" fill="#FEFEFE" points="758 77.5 701.419054 1 512 1 569.661876 77.4973621 512 154 701.419054 154"></polygon>
                <line x1="751" y1="68" x2="706" y2="7" id="Stroke-4" stroke="#25408E" stroke-width="4" stroke-dasharray="12.039,12.039"></line>
                <line x1="690" y1="0.5" x2="520" y2="0.5" id="Stroke-5" stroke="#25408E" stroke-width="4" stroke-dasharray="12.011,12.011"></line>
                <line x1="519" y1="11" x2="565" y2="72" id="Stroke-6" stroke="#25408E" stroke-width="4" stroke-dasharray="12.121,12.121"></line>
                <line x1="562" y1="86" x2="516" y2="147" id="Stroke-7" stroke="#25408E" stroke-width="4" stroke-dasharray="12.121,12.121"></line>
                <line x1="523" y1="153.5" x2="693" y2="153.5" id="Stroke-8" stroke="#25408E" stroke-width="4" stroke-dasharray="12.011,12.011"></line>
                <line x1="708" y1="144" x2="753" y2="83" id="Stroke-10" stroke="#25408E" stroke-width="4" stroke-dasharray="12.039,12.039"></line>
                <path d="M703.77673,4.18728017 L701.419054,1 L697.473166,1 M515.946545,1 L512,1 L514.403016,4.18728017 M567.259517,74.3100819 L569.661876,77.4973621 L567.259517,80.6853017 M514.403016,150.81206 L512,154 L515.946545,154 M697.473166,154 L701.419054,154 L703.77673,150.81206 M755.642981,80.6872802 L758,77.5 L755.642981,74.3127198" id="Stroke-11" stroke="#25408E" stroke-width="4"></path>
                <polygon id="Fill-13" fill="#35ADAD" points="375 77.5 317.747239 1 128 1 184.425705 77.479556 128 154 317.747239 154"></polygon>
                <text id="Technology-learning" font-family="Helvetica-Bold, Helvetica" font-size="16" font-weight="bold" fill="#FFFFFF">
                    <tspan x="18" y="72">Technology</tspan>
                    <tspan x="18" y="91">learning</tspan>
                </text>
                <text id="Physical-product-des" font-family="Helvetica-Bold, Helvetica" font-size="16" font-weight="bold" fill="#FFFFFF">
                    <tspan x="202" y="63">Physical product</tspan>
                    <tspan x="202" y="82">design / </tspan>
                    <tspan x="202" y="101">Space design</tspan>
                </text>
                <text id="Problem-solving-work" font-family="Helvetica-Bold, Helvetica" font-size="16" font-weight="bold" fill="#FFFFFF">
                    <tspan x="392" y="73">Problem solving</tspan>
                    <tspan x="392" y="92">workshop</tspan>
                </text>
                <text id="Future-career" font-family="Helvetica-Bold, Helvetica" font-size="16" font-weight="bold" fill="#25186F">
                    <tspan x="596" y="83">Future career</tspan>
                </text>
            </g>
        </g>
    </g>
</svg>
