<svg xmlns="http://www.w3.org/2000/svg" viewBox="300 100 1024 600"><defs><style>.cls-1,.cls-12,.cls-8{fill:#e6e6e7;}.cls-1,.cls-10,.cls-12,.cls-13,.cls-2,.cls-3,.cls-4,.cls-5,.cls-6,.cls-8{stroke:#272525;}.cls-1,.cls-10,.cls-11,.cls-12,.cls-13,.cls-2,.cls-3,.cls-4,.cls-5,.cls-6,.cls-8{stroke-miterlimit:10;}.cls-1,.cls-3,.cls-4{stroke-width:0.5px;}.cls-2,.cls-4,.cls-6,.cls-9{fill:#272525;}.cls-3{fill:#fff;}.cls-5{fill:#bbbcbf;}.cls-10,.cls-11,.cls-5,.cls-6,.cls-8{stroke-width:0.25px;}.cls-13,.cls-7{fill:#434244;}.cls-10{fill:#d0d1d3;}.cls-11{fill:#9c7b53;stroke:#7f5e40;}.cls-12{stroke-width:0.1px;}.cls-13{stroke-width:0.17px;}</style></defs><g id="Layer_3" data-name="Layer 3"><rect class="cls-1" x="699.17" y="156.55" width="215.67" height="88.97"/><rect class="cls-2" x="709.31" y="166.37" width="195.4" height="65.32"/><rect class="cls-1" x="714.94" y="268.86" width="182.45" height="113.19"/><ellipse class="cls-3" cx="769.19" cy="197.72" rx="6.57" ry="14.64"/><ellipse class="cls-3" cx="838.46" cy="197.72" rx="6.57" ry="14.64"/><rect class="cls-4" x="796.4" y="245.52" width="21.02" height="23.34"/><polygon class="cls-5" points="690.54 497.67 708.56 483.03 906.4 483.03 921.41 497.67 690.54 497.67"/><path class="cls-6" d="M797.15,382.05V489.42s11.54,3,19.29,0V382.05Z"/><path class="cls-7" d="M678.9,431.6H645.11s-12.76,25.91-12.76,114.13S642.86,646,642.86,646s19.52,3,33.79,0c0,0-10.74-2.63-10.74-100.61S678.9,431.6,678.9,431.6Z"/><path class="cls-6" d="M678.9,431.6s9,2.25,9,104.74S676.65,646,676.65,646s-10.74-10.13-10.74-100.61C665.91,457.88,678.9,431.6,678.9,431.6Z"/><rect class="cls-8" x="690.54" y="497.67" width="230.88" height="104.36"/><path class="cls-6" d="M690.54,528.18H678.9S675,542,678.9,547h11.64Z"/><path class="cls-7" d="M933.3,431.6h33.79s12.76,25.91,12.76,114.13S969.34,646,969.34,646s-19.52,3-33.78,0c0,0,10.73-2.63,10.73-100.61S933.3,431.6,933.3,431.6Z"/><path class="cls-6" d="M933.3,431.6s-9,2.25-9,104.74S935.56,646,935.56,646s10.73-10.13,10.73-100.61C946.29,457.88,933.3,431.6,933.3,431.6Z"/><path class="cls-6" d="M921.67,528.18H933.3s4,13.79,0,18.86H921.67Z"/><circle class="cls-9" cx="797.75" cy="234.5" r="1"/><circle class="cls-9" cx="802.54" cy="234.5" r="1"/><circle class="cls-9" cx="807.33" cy="234.5" r="1"/><circle class="cls-9" cx="812.12" cy="234.5" r="1"/><circle class="cls-9" cx="816.91" cy="234.5" r="1"/><circle class="cls-9" cx="797.75" cy="238.02" r="1"/><circle class="cls-9" cx="797.75" cy="241.55" r="1"/><circle class="cls-9" cx="802.54" cy="241.55" r="1"/><circle class="cls-9" cx="802.54" cy="238.02" r="1"/><circle class="cls-9" cx="807.33" cy="238.02" r="1"/><circle class="cls-9" cx="812.12" cy="238.02" r="1"/><circle class="cls-9" cx="816.91" cy="238.02" r="1"/><circle class="cls-9" cx="807.33" cy="241.55" r="1"/><circle class="cls-9" cx="812.12" cy="241.55" r="1"/><circle class="cls-9" cx="816.91" cy="241.55" r="1"/><polygon class="cls-8" points="678.56 414.99 647.16 413.82 647.4 393.5 678.66 394.44 678.56 414.99"/><rect class="cls-8" x="643.61" y="274.68" width="53.68" height="42.42"/><polygon class="cls-5" points="697.29 274.68 701.42 278.06 701.42 319.35 697.29 317.1 697.29 274.68"/><polygon class="cls-10" points="643.61 317.1 649.48 319.35 701.42 319.35 697.29 317.1 643.61 317.1"/><polygon class="cls-8" points="678.9 394.44 647.4 393.5 653.94 362.9 684.91 363.84 678.9 394.44"/><polyline class="cls-5" points="684.94 363.75 684.46 374.93 678.56 414.99 678.9 394.44 684.94 363.75"/><polygon class="cls-11" points="672.3 319.35 672.3 355.77 668.95 363.36 665.85 363.26 669.5 355.72 669.5 319.35 669.5 317.99 672.3 317.99 672.3 319.35"/><rect class="cls-9" x="670.4" y="353.47" width="5.68" height="4.15"/><polygon class="cls-11" points="681.36 319.35 681.36 355.77 677.9 363.63 672.25 363.46 675.99 355.72 675.99 319.35 675.99 317.99 681.36 317.99 681.36 319.35"/><path class="cls-4" d="M714.94,287.16H700s-2.59,6.34-.66,20.13h15.58Z"/><line class="cls-12" x1="647.6" y1="393.5" x2="678.86" y2="394.44"/><path class="cls-13" d="M668.13,406.25l1.42,4.59,6.47-3.3L673,398.83c-9.18-4.83-18.13,0-18.13,0l-7.22,13.31h4.51l5.54-10,6.24-.83Z"/><polygon class="cls-13" points="677.49 413.18 671.46 415.96 669.98 411.63 676.19 408.31 677.49 413.18"/><path class="cls-13" d="M671.93,416.63l5.82-2.71s1.51,5.75-.9,7.22S671.93,416.63,671.93,416.63Z"/><polygon class="cls-13" points="652.75 413.78 650.4 413.78 650.4 424.03 652.75 423.91 652.75 413.78"/><polygon class="cls-13" points="652.68 424.66 650.32 424.66 650.32 430.84 652.68 430.77 652.68 424.66"/><polygon class="cls-13" points="655.55 426.43 653.2 426.43 653.2 433.05 655.55 433.12 655.55 426.43"/><polygon class="cls-13" points="658.22 425.22 655.86 425.22 655.86 431.4 658.22 431.47 658.22 425.22"/><polygon class="cls-13" points="655.55 415.74 653.2 415.74 653.2 425.98 655.55 425.86 655.55 415.74"/><polygon class="cls-13" points="658.22 417.61 655.86 417.61 655.86 424.62 658.22 424.54 658.22 417.61"/><path class="cls-13" d="M659.4,436.32l-.84-1.16a5.14,5.14,0,0,1-.48-3.33h-1.74a6.92,6.92,0,0,0,.57,3,4.3,4.3,0,0,0,2.49,1.5"/><polygon class="cls-13" points="652.08 426.14 647.61 428.1 647.61 412.91 652.08 412.91 652.08 426.14"/><polygon class="cls-13" points="654.86 426.14 652.75 423.91 652.75 413.78 654.86 415.55 654.86 426.14"/><polygon class="cls-13" points="654.86 432.74 652.75 431.29 652.75 424.71 654.86 426.79 654.86 432.74"/><polyline class="cls-13" points="655.55 426.43 657.66 428.91 657.66 434.57 655.55 433.12 655.55 426.54"/><polygon class="cls-13" points="660.33 432.95 658.22 431.49 658.22 425.08 660.33 426.54 660.33 432.95"/><polygon class="cls-13" points="657.66 428.1 655.55 425.86 655.55 415.74 657.66 417.5 657.66 428.1"/><polygon class="cls-13" points="660.33 426.13 658.22 424.6 658.22 417.71 660.33 419.28 660.33 426.13"/><path class="cls-13" d="M656.87,437.94l-.84-1.16a5.16,5.16,0,0,1-.48-3.34h-1.74a7,7,0,0,0,.56,3,4.34,4.34,0,0,0,2.5,1.5"/><polygon class="cls-13" points="654.46 433.15 651.11 434.57 647.65 428.81 652.41 426.79 654.46 433.15"/><polygon class="cls-13" points="652.13 412.13 660.25 418.49 670.72 413.78 668.13 406.25 663.9 401.3 657.66 402.13 652.13 412.13"/><path class="cls-13" d="M651.3,435.17l3.41-1.57s1.65,3.77.32,4.55S651.3,435.17,651.3,435.17Z"/><path class="cls-13" d="M655.55,433.44l2.11,1.56.76,2.34s0,1.52-1.82.46A6.39,6.39,0,0,1,655.55,433.44Z"/><path class="cls-13" d="M658.11,431.71l2.11,1.56.76,2.33s0,1.52-1.81.46A6.35,6.35,0,0,1,658.11,431.71Z"/><polygon class="cls-9" points="673.81 318.88 673.81 353.47 674.35 353.47 674.35 319.35 673.81 318.88"/><polygon class="cls-9" points="674.54 318.88 674.54 353.47 675.08 353.47 675.08 319.35 674.54 318.88"/><polygon class="cls-9" points="673.04 318.88 673.04 353.47 673.58 353.47 673.58 319.35 673.04 318.88"/><polygon class="cls-9" points="671.89 357.62 672.38 357.62 670.21 363.42 669.61 363.42 671.89 357.62"/><polygon class="cls-9" points="672.76 357.62 673.24 357.62 671.07 363.42 670.48 363.42 672.76 357.62"/><polygon class="cls-9" points="673.67 357.62 674.15 357.62 671.98 363.42 671.38 363.42 673.67 357.62"/><polygon class="cls-8" points="934.77 414.99 966.17 413.82 965.93 393.5 934.67 394.44 934.77 414.99"/><rect class="cls-8" x="916.04" y="274.68" width="53.68" height="42.42" transform="translate(1885.76 591.78) rotate(180)"/><polygon class="cls-5" points="916.04 274.68 911.91 278.06 911.91 319.35 916.04 317.1 916.04 274.68"/><polygon class="cls-10" points="969.72 317.1 963.85 319.35 911.91 319.35 916.04 317.1 969.72 317.1"/><polygon class="cls-8" points="934.43 394.44 965.93 393.5 959.39 362.9 928.42 363.84 934.43 394.44"/><polyline class="cls-5" points="928.39 363.75 928.87 374.93 934.77 414.99 934.43 394.44 928.39 363.75"/><polygon class="cls-11" points="941.03 319.35 941.03 355.77 944.38 363.36 947.48 363.26 943.83 355.72 943.83 319.35 943.83 317.99 941.03 317.99 941.03 319.35"/><rect class="cls-9" x="937.25" y="353.47" width="5.68" height="4.15" transform="translate(1880.18 711.09) rotate(180)"/><polygon class="cls-11" points="931.97 319.35 931.97 355.77 935.43 363.63 941.08 363.46 937.34 355.72 937.34 319.35 937.34 317.99 931.97 317.99 931.97 319.35"/><path class="cls-4" d="M898.39,287.16h14.92s2.58,6.34.66,20.13H898.39Z"/><line class="cls-12" x1="965.73" y1="393.5" x2="934.47" y2="394.44"/><path class="cls-13" d="M945.2,406.25l-1.42,4.59-6.47-3.3,3.06-8.71c9.18-4.83,18.13,0,18.13,0l7.22,13.31H961.2l-5.53-10-6.24-.83Z"/><polygon class="cls-13" points="935.84 413.18 941.87 415.96 943.35 411.63 937.14 408.31 935.84 413.18"/><path class="cls-13" d="M941.4,416.63l-5.82-2.71s-1.51,5.75.9,7.22S941.4,416.63,941.4,416.63Z"/><polygon class="cls-13" points="960.58 413.78 962.93 413.78 962.93 424.03 960.58 423.91 960.58 413.78"/><polygon class="cls-13" points="960.65 424.66 963 424.66 963 430.84 960.65 430.77 960.65 424.66"/><polygon class="cls-13" points="957.78 426.43 960.13 426.43 960.13 433.05 957.78 433.12 957.78 426.43"/><polygon class="cls-13" points="955.11 425.22 957.47 425.22 957.47 431.4 955.11 431.47 955.11 425.22"/><polygon class="cls-13" points="957.78 415.74 960.13 415.74 960.13 425.98 957.78 425.86 957.78 415.74"/><polygon class="cls-13" points="955.11 417.61 957.47 417.61 957.47 424.62 955.11 424.54 955.11 417.61"/><path class="cls-13" d="M953.93,436.32l.84-1.16a5.14,5.14,0,0,0,.48-3.33H957a6.92,6.92,0,0,1-.57,3,4.3,4.3,0,0,1-2.49,1.5"/><polygon class="cls-13" points="961.25 426.14 965.73 428.1 965.73 412.91 961.25 412.91 961.25 426.14"/><polygon class="cls-13" points="958.47 426.14 960.58 423.91 960.58 413.78 958.47 415.55 958.47 426.14"/><polygon class="cls-13" points="958.47 432.74 960.58 431.29 960.58 424.71 958.47 426.79 958.47 432.74"/><polyline class="cls-13" points="957.78 426.43 955.67 428.91 955.67 434.57 957.78 433.12 957.78 426.54"/><polygon class="cls-13" points="953 432.95 955.11 431.49 955.11 425.08 953 426.54 953 432.95"/><polygon class="cls-13" points="955.67 428.1 957.78 425.86 957.78 415.74 955.67 417.5 955.67 428.1"/><polygon class="cls-13" points="953 426.13 955.11 424.6 955.11 417.71 953 419.28 953 426.13"/><path class="cls-13" d="M956.46,437.94l.84-1.16a5.16,5.16,0,0,0,.48-3.34h1.74a7,7,0,0,1-.56,3,4.34,4.34,0,0,1-2.5,1.5"/><polygon class="cls-13" points="958.87 433.15 962.22 434.57 965.68 428.81 960.92 426.79 958.87 433.15"/><polygon class="cls-13" points="961.21 412.13 953.08 418.49 942.61 413.78 945.2 406.25 949.43 401.3 955.67 402.13 961.21 412.13"/><path class="cls-13" d="M962,435.17l-3.42-1.57s-1.64,3.77-.31,4.55S962,435.17,962,435.17Z"/><path class="cls-13" d="M957.78,433.44,955.67,435l-.76,2.34s0,1.52,1.82.46A6.39,6.39,0,0,0,957.78,433.44Z"/><path class="cls-13" d="M955.22,431.71l-2.11,1.56-.76,2.33s-.05,1.52,1.81.46A6.35,6.35,0,0,0,955.22,431.71Z"/><polygon class="cls-9" points="939.52 318.88 939.52 353.47 938.98 353.47 938.98 319.35 939.52 318.88"/><polygon class="cls-9" points="938.79 318.88 938.79 353.47 938.25 353.47 938.25 319.35 938.79 318.88"/><polygon class="cls-9" points="940.29 318.88 940.29 353.47 939.75 353.47 939.75 319.35 940.29 318.88"/><polygon class="cls-9" points="941.43 357.62 940.95 357.62 943.12 363.42 943.72 363.42 941.43 357.62"/><polygon class="cls-9" points="940.57 357.62 940.09 357.62 942.26 363.42 942.85 363.42 940.57 357.62"/><polygon class="cls-9" points="939.66 357.62 939.18 357.62 941.35 363.42 941.95 363.42 939.66 357.62"/></g></svg>
