<svg xmlns="http://www.w3.org/2000/svg" viewBox="0 0 792 612"><defs><style>.cls-1{fill:#beded9;}.cls-2{fill:#79c2d4;}.cls-3{fill:none;stroke:#33a457;stroke-miterlimit:10;stroke-width:13px;}.cls-4{font-size:14px;}.cls-4,.cls-6{fill:#272525;font-family:Helvetica-Bold, Helvetica;font-weight:700;}.cls-5{letter-spacing:-0.0737em;}.cls-6{font-size:20px;}</style></defs><g id="Layer_1" data-name="Layer 1"><circle class="cls-1" cx="396" cy="306" r="247.6763"/><circle class="cls-2" cx="396" cy="306" r="81.9805"/><circle class="cls-2" cx="510.8022" cy="191.1978" r="59.8047"/><circle class="cls-2" cx="558.3548" cy="306" r="59.8047"/><circle class="cls-2" cx="510.8022" cy="420.8022" r="59.8047"/><circle class="cls-2" cx="396" cy="468.3548" r="59.8047"/><circle class="cls-2" cx="281.1978" cy="420.8022" r="59.8047"/><circle class="cls-2" cx="233.6452" cy="306" r="59.8047"/><circle class="cls-2" cx="281.1978" cy="191.1978" r="59.8047"/><circle class="cls-2" cx="396" cy="143.6452" r="59.8047"/><line class="cls-3" x1="468.5139" y1="233.4861" x2="453.969" y2="248.031"/><line class="cls-3" x1="498.5501" y1="306" x2="477.9805" y2="306"/><line class="cls-3" x1="468.5139" y1="378.5139" x2="453.969" y2="363.969"/><line class="cls-3" x1="396" y1="408.5501" x2="396" y2="387.9805"/><line class="cls-3" x1="323.4861" y1="378.5139" x2="338.031" y2="363.969"/><line class="cls-3" x1="293.4499" y1="306" x2="314.0195" y2="306"/><line class="cls-3" x1="323.4861" y1="233.4861" x2="338.031" y2="248.031"/><line class="cls-3" x1="396" y1="203.4499" x2="396" y2="224.0195"/><text class="cls-4" transform="translate(365.7749 146.0536)"><tspan class="cls-5">T</tspan><tspan x="7.5195" y="0">eachers</tspan></text><text class="cls-4" transform="translate(486.685 188.2051)">Natural<tspan x="-11.6792" y="16.7998">Resources</tspan></text><text class="cls-4" transform="translate(528.0069 309.4919)">Materials</text><text class="cls-4" transform="translate(366.0417 472.9081)">Facilities</text><text class="cls-4" transform="translate(263.0486 425.2313)"><tspan class="cls-5">T</tspan><tspan x="7.5195" y="0">ools</tspan></text><text class="cls-4" transform="translate(205.6346 310.5533)">Courses</text><text class="cls-6" transform="translate(353.2219 311.4474)">Students</text><text class="cls-4" transform="translate(242.2844 195.7511)">Classmates</text><text class="cls-4" transform="translate(486.2853 425.3555)">Spaces</text></g></svg>