<svg id="Layer_1" data-name="Layer 1" xmlns="http://www.w3.org/2000/svg" viewBox="0 0 1224 792"><defs><style>.cls-1{fill:#85aeb2;}.cls-1,.cls-13{opacity:0.7;}.cls-2{fill:#65a8df;}.cls-3{fill:#eec38c;}.cls-4{fill:#7f5e40;}.cls-18,.cls-5{fill:#272525;}.cls-17,.cls-5,.cls-6,.cls-8{stroke:#272525;}.cls-17,.cls-21,.cls-5,.cls-6,.cls-8{stroke-miterlimit:10;}.cls-5,.cls-6,.cls-8{stroke-width:0.46px;}.cls-16,.cls-17,.cls-6{fill:#fff;}.cls-7{fill:#59595b;}.cls-21,.cls-8{fill:none;}.cls-9{fill:#434244;}.cls-10{fill:#b8996e;}.cls-11{fill:#102358;}.cls-12{fill:#808183;}.cls-13{fill:#a6a8aa;}.cls-14{fill:#6b4e2f;}.cls-15{fill:#4675b8;}.cls-17{stroke-width:0.5px;}.cls-19{fill:#e0922f;}.cls-20{fill:#9c7b53;}.cls-21{stroke:#00acec;stroke-width:6px;}</style></defs><rect class="cls-1" y="196.22" width="607.04" height="539.86"/><path class="cls-2" d="M286.67,467.49l-5.77,64.59s45.26,12,79.63,5.17l2.62-58-6.74-56.74L336,426.25l-6.13-.53-42.65.8Z"/><path class="cls-2" d="M335.77,426.18l-2.34-3.53.17-8.39s16.45,2.54,22.15,8.26l32.06,24.91a44,44,0,0,0,14.48,1.05c7.16-.87,20.43-27.93,20.43-27.93s.9,9.36,17.2,7.55L419.4,474.27S402.5,484.4,396.16,481s-33.8-2.83-33.8-2.83l-2.57-21.56Z"/><path class="cls-2" d="M294.4,470.28S285,470,282.24,455.51s5.69-29.07,5.69-29.07,8.05-10.21,21-9,18.46,5.11,20.81,8.25,35.74-5.5,35.74-5.5,31-25.14,40.85-36.53A16.81,16.81,0,0,1,418.14,395l-34.17,53s-2.75,7.07-8.25,7.46-34.17,2.36-34.17,2.36L317.41,468Z"/><path class="cls-3" d="M304.36,399.34,303,417.66s19.2-1.3,26.79,8l6,.52-2.34-3.53.26-12.83s7.59,1.83,12.83-1.31,4.45-19.9,4.45-19.9-.26-25.4-8.38-32.74l-19.11,3.41-3.93,24.35-7.86-2.36s-5.93-5.49-8.72-1,3.49,13.61,6.11,13.35a18.34,18.34,0,0,0,5-1.31l-5,1.31s-2.25.45-4.46-3.66Z"/><path class="cls-4" d="M342.59,355.87s7-5.84-2.27-11.25l-2.27-4.54v3.49s-21.82-4.54-43.46,5.58l-4.89,31.08s1.05,12.22,14.66,19.11l.26-9.42s-3.31-6-1.65-9.69c0,0,2.44-4.32,8.72,1l7.86,2.36,3.93-24.35Z"/><path class="cls-3" d="M406.35,383.63l21.26-25.4,6.11-6.46h6.2l20.51-1.92s3.49.88,0,3.14l-12.92,2.1,4.36,1.92-.35,9.73-6.63,7.2-2.45-1-9.77,6.1L429,380.05l-11.5,13.18S413.9,385.29,406.35,383.63Z"/><path class="cls-3" d="M423.07,421.88l3.05-9.07-2.22-6.76-.83-11.81,5.93-8.12,9.43-1.05s2.75.79,0,3.8l5.37-1.05,2.22,2.49,2.1,2,1.05,7.86-4.06,5.92-.66,8.21-4.53,4.59-3.05,9.46S427.09,430.27,423.07,421.88Z"/><path class="cls-5" d="M290.92,363.29l-1.57,11s40.67,7,49.58,6.81V369.05S297.9,365.39,290.92,363.29Z"/><path class="cls-6" d="M338.93,369.05s.7-6.28,3.14-6.8l24.26-3.49,3.57.66,7.61,1.43,2.27,2.44s3.14,10.3-2.45,23a93.37,93.37,0,0,1-12.74,2.44l-22.17-1.92s-3.49-3-3.49-5.76Z"/><path class="cls-7" d="M325.85,367.81s.86-5.39,6.27-6.44,11.69-1.22,16.41-1.92,6.42.94,6.42.94l-12.88,1.86s-2.36.15-3.14,6.8V381.1s-.22,2.12,3.49,5.76l4.76.41-3.74.81-12.7-1.18s-5.07-3.52-5.45-7.06S325.85,367.81,325.85,367.81Z"/><path class="cls-8" d="M369.9,359.42l-13.17,2.13s-1.83-.18-2.35,4.71,0,17.81,0,17.81.45,3.86,2.54,4.05,1.47,0,1.47,0l-1.74-4.49.61-.78.19-15.78L356.34,366l-.79.92-.13,15.84,1.23.85"/><path class="cls-9" d="M380,364.16s-2.7-1.74-3.36-.56-4.64,1.57-4.64,1.57-5.37-.48-6.16-1-2.81.73-2.81.73a5.68,5.68,0,0,0-.66,2.29c.07.92.4,14,.4,14s.58,5,2.81,5.1a10.83,10.83,0,0,0,4.91-1.37,6.77,6.77,0,0,1,3.47-.39,16.49,16.49,0,0,0,4.15-.08S382.24,372.17,380,364.16Z"/><rect class="cls-10" y="505.2" width="159.64" height="16.05"/><rect class="cls-10" x="128.39" y="521.24" width="16.89" height="214.83"/><path class="cls-11" d="M281.69,535.23s43.52,7.73,80.67,3.48l24.31,167.46a56.18,56.18,0,0,1-27.7,0L334.18,563.85l-15,144s-30.78,6-40.92,0Z"/><polygon class="cls-12" points="53.27 505.2 33 434.24 37.79 434.24 56.43 501.22 112.4 501.25 112.4 505.2 53.27 505.2"/><rect class="cls-13" x="616.96" y="196.22" width="607.04" height="539.86"/><path class="cls-14" d="M275.81,730.44s27,5.07,51.25,0-7.89-22.55-7.89-22.55-34,6.79-40.92,1.15C278.25,709,271.87,724.81,275.81,730.44Z"/><path class="cls-14" d="M359.72,726.5s15.77,8.45,43.08,0c0,0,18.43-8.28-16.13-20.33,0,0-9.87,6.14-27.7,0C359,706.17,347.61,724.81,359.72,726.5Z"/><polygon class="cls-15" points="363.15 477.04 364.9 456.26 359.79 456.61 363.15 477.04"/><path class="cls-15" d="M286.7,465.89l7.7.76,23-2.56,21.1-8.82L381.63,452a7.18,7.18,0,0,1-5.91,3.53l-34.17,2.36L317.41,468l-23,2.25A9.76,9.76,0,0,1,286.7,465.89Z"/><path class="cls-15" d="M376.86,452.34l40.64-59.11.64,1.79-36.51,57s-3.63,3.2-4.77,3.36S376.86,452.34,376.86,452.34Z"/><path class="cls-16" d="M756.76,725.83V360.93s14.36-27,32.09,0v364.9Z"/><rect class="cls-9" x="767.47" y="364.03" width="10.68" height="350.26"/><rect class="cls-17" x="749.72" y="393.31" width="48.43" height="36.6"/><path class="cls-16" d="M1039.44,725.83V360.93s14.36-27,32.1,0v364.9Z"/><rect class="cls-9" x="1050.15" y="364.03" width="10.68" height="350.26"/><rect class="cls-17" x="1032.4" y="543.79" width="48.43" height="36.6"/><path class="cls-18" d="M820.48,584.39s7.89-9,17.27,0v79.22s-10.51,6.38-17.27,0Z"/><path class="cls-18" d="M988.79,584.39s7.89-9,17.27,0v79.22s-10.51,6.38-17.27,0Z"/><rect class="cls-16" x="849.39" y="605.61" width="127.83" height="34.35"/><rect class="cls-18" x="837.75" y="619.51" width="11.64" height="6.55"/><rect class="cls-18" x="977.16" y="619.51" width="11.64" height="6.55"/><rect class="cls-18" x="907.36" y="541.41" width="11.83" height="64.2"/><polygon class="cls-16" points="869.66 489.04 869.66 541.41 959.2 541.41 959.2 466.15 888.81 466.15 888.81 484.32 869.66 484.32 869.66 489.04"/><rect class="cls-7" x="809.97" y="666.44" width="204.41" height="59.39"/><polygon class="cls-17" points="859.91 393.21 875.19 408.18 880.25 403.13 865.14 388.02 859.91 393.21"/><polygon class="cls-17" points="1050.12 517.75 1028.73 517.12 1028.45 524.26 1049.8 525.11 1050.12 517.75"/><rect class="cls-17" x="873.72" y="408.18" width="9.08" height="7.08"/><rect class="cls-17" x="1016.33" y="517.1" width="7.08" height="9.08"/><path class="cls-17" d="M787.34,418.85a7.06,7.06,0,0,1-5-3c-2-2.85-.44-8.28-.44-8.28a10.76,10.76,0,0,1,4.38-3.23c2.59-.91,40.43-3.24,40.43-3.24s4.06.67,5.74,4-1,8-1,8-1.46,2.31-5.33,2.49S787.34,418.85,787.34,418.85Z"/><circle class="cls-9" cx="789.28" cy="411.5" r="3.74"/><path class="cls-17" d="M1056.37,562.08a7.07,7.07,0,0,1-5.71-1.06c-2.9-1.95-3.33-7.59-3.33-7.59a10.79,10.79,0,0,1,3-4.57c2.1-1.76,36.69-17.29,36.69-17.29s4-.8,6.78,1.72,1.87,7.82,1.87,7.82-.55,2.68-4.1,4.21S1056.37,562.08,1056.37,562.08Z"/><circle class="cls-9" cx="1055.59" cy="554.51" r="3.74"/><path class="cls-17" d="M820.1,403.25l43.09-16s6.56-1.7,8.43,3.63a6,6,0,0,1-2.68,7.6l-43.4,16.26A7,7,0,0,1,819,414c-3.09-2.26-2.47-6.56-2.47-6.56S817.37,404.27,820.1,403.25Z"/><circle class="cls-9" cx="824.2" cy="408.31" r="3.4"/><circle class="cls-9" cx="864.78" cy="393.18" r="3.4"/><path class="cls-17" d="M1047.56,515.59l42.89,16.56s6,3.08,3.91,8.31a6,6,0,0,1-7,3.91L1044,527.78a7,7,0,0,1-4.46-4.89c-.81-3.74,2.5-6.55,2.5-6.55S1044.83,514.54,1047.56,515.59Z"/><circle class="cls-9" cx="1047.27" cy="522.09" r="3.4"/><circle class="cls-9" cx="1087.69" cy="537.66" r="3.4"/><circle class="cls-17" cx="878.26" cy="407.28" r="5.77"/><circle class="cls-17" cx="1026.54" cy="521.12" r="5.77"/><rect class="cls-18" x="869.66" y="415.23" width="17.6" height="4.88"/><rect class="cls-18" x="857.34" y="427.07" width="15.94" height="5.39" transform="translate(435.55 1295.07) rotate(-90)"/><rect class="cls-18" x="883.64" y="427.07" width="15.94" height="5.39" transform="translate(461.85 1321.37) rotate(-90)"/><polygon class="cls-18" points="873.47 418.69 866.35 425.14 862.54 421.69 869.66 415.23 873.47 418.69"/><polygon class="cls-18" points="873.47 440.63 866.35 434.18 862.54 437.63 869.66 444.08 873.47 440.63"/><polygon class="cls-18" points="883.45 440.63 890.57 434.18 894.38 437.63 887.26 444.08 883.45 440.63"/><polygon class="cls-18" points="883.45 418.69 890.57 425.14 894.38 421.69 887.26 415.23 883.45 418.69"/><rect class="cls-18" x="1006.57" y="519.26" width="17.6" height="4.77" transform="translate(1536.9 -493.78) rotate(89.99)"/><rect class="cls-18" x="995.77" y="505.8" width="15.57" height="5.39"/><rect class="cls-18" x="995.78" y="532.1" width="15.57" height="5.39"/><polygon class="cls-18" points="1014.38 516.65 1008.08 509.54 1011.45 505.73 1017.75 512.85 1014.38 516.65"/><polygon class="cls-18" points="992.95 516.66 999.25 509.54 995.88 505.73 989.58 512.85 992.95 516.66"/><polygon class="cls-18" points="992.95 526.64 999.25 533.76 995.88 537.57 989.58 530.45 992.95 526.64"/><polygon class="cls-18" points="1014.38 526.63 1008.08 533.76 1011.45 537.57 1017.75 530.44 1014.38 526.63"/><rect class="cls-16" x="869.87" y="435.49" width="17.18" height="17.18"/><rect class="cls-19" x="989.98" y="513.11" width="6.21" height="17.57"/><rect class="cls-19" x="981.43" y="510.07" width="6.21" height="23.65" transform="translate(1506.43 -462.64) rotate(90)"/><rect class="cls-16" x="876.49" y="452.67" width="4.15" height="4.15"/><rect class="cls-16" x="965.11" y="466.15" width="28.26" height="21.74"/><rect class="cls-18" x="959.2" y="474.08" width="5.91" height="5.91"/><rect class="cls-20" x="972.71" y="487.89" width="3.38" height="32.5"/><rect class="cls-20" x="984.2" y="487.89" width="3.38" height="32.5"/><path class="cls-21" d="M595.28,159.05s7.6,6.76,0,16"/><path class="cls-21" d="M607,151.54s9.24,15.77,0,28.16"/><path class="cls-21" d="M618.83,145.54s14.16,23.39,0,37.54"/></svg>