<svg xmlns="http://www.w3.org/2000/svg" xmlns:xlink="http://www.w3.org/1999/xlink" viewBox="0 0 1224 792"><defs><style>.cls-1,.cls-4,.cls-5,.cls-7,.cls-8{fill:none;}.cls-2{fill:#e0922f;opacity:0.5;}.cls-3{fill:#beded9;}.cls-4,.cls-5,.cls-8{stroke:#e0922f;}.cls-20,.cls-21,.cls-23,.cls-24,.cls-4,.cls-5,.cls-7,.cls-8{stroke-miterlimit:10;}.cls-4{stroke-width:8px;}.cls-5{stroke-width:9.3842px;}.cls-6{fill:#79c2d4;}.cls-7{stroke:#33a457;stroke-width:5.2549px;}.cls-8{stroke-width:8.1053px;}.cls-9{fill:#1f1e1e;}.cls-10{fill:#464647;}.cls-11{fill:#7e7e7d;}.cls-12{fill:#6c6c6b;}.cls-13{fill:#585a59;}.cls-14{isolation:isolate;}.cls-15{clip-path:url(#clip-path);}.cls-16{fill:#2a887e;}.cls-17{clip-path:url(#clip-path-2);}.cls-18{clip-path:url(#clip-path-3);}.cls-19{clip-path:url(#clip-path-4);}.cls-20,.cls-21{fill:#c8c9c1;stroke:#070707;}.cls-20{stroke-width:0.3725px;}.cls-21{stroke-width:0.3546px;}.cls-22{fill:#65a8df;}.cls-23{fill:#fff;}.cls-23,.cls-24{stroke:#000;stroke-width:0.1842px;}.cls-24,.cls-26,.cls-28,.cls-29{fill:#272525;}.cls-25{fill:#434244;}.cls-26{font-size:11px;}.cls-26,.cls-28{font-family:Helvetica-Bold, Helvetica;font-weight:700;}.cls-27{letter-spacing:-0.0366em;}.cls-28,.cls-29{font-size:7px;}.cls-29{font-family:Helvetica-Light, Helvetica;font-weight:300;}.cls-30{letter-spacing:-0.0737em;}</style><clipPath id="clip-path"><polygon class="cls-1" points="953.89 187.15 953.869 179.894 965.368 173.255 965.389 180.511 953.89 187.15"/></clipPath><clipPath id="clip-path-2"><polygon class="cls-1" points="208.879 573.664 208.858 566.408 220.357 559.769 220.378 567.025 208.879 573.664"/></clipPath><clipPath id="clip-path-3"><polygon class="cls-1" points="136.987 225.778 136.966 218.522 148.465 211.883 148.486 219.139 136.987 225.778"/></clipPath><clipPath id="clip-path-4"><polygon class="cls-1" points="990.896 568.532 990.876 561.276 1002.368 554.641 1002.389 561.897 990.896 568.532"/></clipPath></defs><g id="Layer_3" data-name="Layer 3"><path class="cls-2" d="M793.4506,231.1022C901.7765,138.3557,900.69,96.3958,952.25,82.4387c55.7222-15.0837,129.1788,14.383,167.2465,72.6424,33.3564,51.0493,40.5053,125.6808,6.7574,168.9358-40.55,51.9736-119.92,32.7238-141.906,87.8466-1.432,3.59-11.772,29.5144,0,50.6807,26.0364,46.8137,121.7854,1.2163,172.3145,50.6809,35.3513,34.6067,33.69,101.1782,13.5149,145.2847-28.7837,62.927-95.5031,80.6777-135.1487,91.2253-71.9186,19.1338-179.3782,16.2068-246.6463-47.302-49.4071-46.646-37.29-88.3576-91.2253-118.2551-57.9717-32.1348-123.7377-12.6419-131.77-10.136C523.5314,587.1,517.63,606.949,440.3748,668.646c-59.5523,47.56-89.3285,71.3391-121.6338,81.0891-10.839,3.2713-110.8791,31.646-189.2081-33.7871C75.3908,670.72,40.6218,588.1907,65.3373,533.4973c17.4642-38.6472,55.6165-43.4511,57.4382-77.71,1.6006-30.104-27.0778-41.0635-52.37-81.0893-28.7721-45.5325-50.3883-124.29-16.8935-184.14,38.1165-68.1086,127.26-75.3833,136.838-76.0211,31.4535-2.0945,54.4352,7.9586,174.0039,79.4,125.2151,74.8148,141.1337,89.636,189.7711,100.7985,28.1534,6.4613,89.1778,19.6457,154.2948-5.6313C719.6969,284.726,742.4076,274.8042,793.4506,231.1022Z"/><circle class="cls-3" cx="1014.696" cy="615.9744" r="100.1161"/><line class="cls-4" x1="915.9011" y1="297.2887" x2="904.4448" y2="306.2397"/><line class="cls-4" x1="922.3621" y1="578.6691" x2="909.4402" y2="572.0064"/><line class="cls-5" x1="355.6301" y1="568.1178" x2="341.6007" y2="577.7804"/><circle class="cls-6" cx="1014.696" cy="615.9744" r="33.1383"/><circle class="cls-6" cx="1061.1015" cy="569.5689" r="24.1744"/><circle class="cls-6" cx="1080.3233" cy="615.9744" r="24.1744"/><circle class="cls-6" cx="1061.1015" cy="662.3799" r="24.1744"/><circle class="cls-6" cx="1014.696" cy="681.6017" r="24.1744"/><circle class="cls-6" cx="968.2905" cy="662.3799" r="24.1744"/><circle class="cls-3" cx="173.4696" cy="263.0376" r="100.1161"/><path class="cls-6" d="M190.0387,234.3445A33.1584,33.1584,0,1,1,144.771,246.474,33.1384,33.1384,0,0,1,190.0387,234.3445Z"/><circle class="cls-6" cx="219.8751" cy="216.6376" r="24.1744"/><circle class="cls-6" cx="239.0969" cy="263.0431" r="24.1744"/><circle class="cls-6" cx="219.8751" cy="309.4487" r="24.1744"/><circle class="cls-6" cx="173.4696" cy="328.6704" r="24.1744"/><circle class="cls-6" cx="127.0641" cy="309.4487" r="24.1744"/><line class="cls-7" x1="202.7813" y1="233.7315" x2="196.9019" y2="239.6108"/><line class="cls-7" x1="214.9226" y1="263.0431" x2="206.6079" y2="263.0431"/><line class="cls-7" x1="202.7813" y1="292.3548" x2="196.9019" y2="286.4754"/><line class="cls-7" x1="173.4696" y1="304.4961" x2="173.4696" y2="296.1814"/><line class="cls-7" x1="144.1579" y1="292.3548" x2="150.0373" y2="286.4754"/><circle class="cls-3" cx="251.208" cy="615.9744" r="100.1161"/><circle class="cls-6" cx="251.208" cy="615.9744" r="33.1383"/><circle class="cls-6" cx="297.6135" cy="569.5689" r="24.1744"/><circle class="cls-6" cx="316.8353" cy="615.9744" r="24.1744"/><circle class="cls-6" cx="297.6135" cy="662.3799" r="24.1744"/><circle class="cls-6" cx="251.208" cy="681.6017" r="24.1744"/><circle class="cls-6" cx="204.8025" cy="662.3799" r="24.1744"/><line class="cls-7" x1="280.5197" y1="586.6627" x2="274.6403" y2="592.5421"/><line class="cls-7" x1="280.5197" y1="645.2861" x2="274.6403" y2="639.4067"/><line class="cls-7" x1="251.208" y1="657.4274" x2="251.208" y2="649.1127"/><line class="cls-7" x1="221.8963" y1="645.2861" x2="227.7757" y2="639.4067"/><line class="cls-7" x1="292.661" y1="615.9744" x2="284.3463" y2="615.9744"/><circle class="cls-3" cx="988.3224" cy="229.896" r="100.1161"/><circle class="cls-6" cx="988.3224" cy="229.896" r="33.1383"/><circle class="cls-6" cx="1034.7279" cy="183.4905" r="24.1744"/><circle class="cls-6" cx="1053.9497" cy="229.896" r="24.1744"/><circle class="cls-6" cx="1034.7279" cy="276.3015" r="24.1744"/><circle class="cls-6" cx="988.3224" cy="295.5233" r="24.1744"/><circle class="cls-6" cx="941.9169" cy="276.3015" r="24.1744"/><line class="cls-7" x1="1017.6341" y1="200.5843" x2="1011.7547" y2="206.4637"/><line class="cls-7" x1="1029.7754" y1="229.896" x2="1021.4607" y2="229.896"/><line class="cls-7" x1="1017.6341" y1="259.2077" x2="1011.7547" y2="253.3283"/><line class="cls-7" x1="988.3224" y1="271.349" x2="988.3224" y2="263.0343"/><line class="cls-7" x1="959.0107" y1="259.2077" x2="964.8901" y2="253.3283"/><line class="cls-7" x1="1044.0077" y1="586.6627" x2="1038.1283" y2="592.5421"/><line class="cls-7" x1="1056.149" y1="615.9744" x2="1047.8343" y2="615.9744"/><line class="cls-7" x1="1044.0077" y1="645.2861" x2="1038.1283" y2="639.4067"/><line class="cls-7" x1="1014.696" y1="657.4274" x2="1014.696" y2="649.1127"/><line class="cls-7" x1="985.3843" y1="645.2861" x2="991.2637" y2="639.4067"/><line class="cls-4" x1="960.7856" y1="190.2161" x2="970.9097" y2="202.483"/><line class="cls-4" x1="218.036" y1="575.0023" x2="231.3386" y2="590.0865"/><line class="cls-4" x1="141.6877" y1="227.5036" x2="151.2924" y2="238.4177"/><line class="cls-4" x1="264.1987" y1="306.1079" x2="277.1109" y2="312.7894"/><line class="cls-8" x1="994.7225" y1="573.3102" x2="1004.7721" y2="584.0175"/><line class="cls-4" x1="398.1355" y1="378.9562" x2="780.4384" y2="510.8146"/><line class="cls-4" x1="361.0175" y1="418.7856" x2="380.3063" y2="477.7529"/><line class="cls-4" x1="490.3371" y1="539.1677" x2="776.1745" y2="545.8565"/><line class="cls-4" x1="847.7621" y1="464.6539" x2="847.3509" y2="414.8533"/><line class="cls-4" x1="410.1553" y1="350.3837" x2="775.1994" y2="342.7019"/><line class="cls-4" x1="794.7253" y1="392.0551" x2="478.3173" y2="499.2867"/><path class="cls-9" d="M970.1767,164.465l-19.8511,8.236a9.9885,9.9885,0,0,0-3.0621,6.23c-.2112,3.6957,0,14.8883,0,14.8883s.1056,2.4286,3.0621,2.2174,17.4225-8.9752,17.4225-8.9752,2.64-1.782,4.0125-6.8041l.7391-12.8358S972.6053,165.5209,970.1767,164.465Z"/><path class="cls-10" d="M969.44,164.7707l-3.2238-.889s-21.126,7.7191-23.1574,9.6924-.4062,19.7137-.4062,19.7137l5.2157,1.9518-.6045-1.42s-.306-14.8512.0564-15.4685.0774-2.75,3.0057-5.65Z"/><path class="cls-10" d="M942.8694,173.82l-9.7672-1.16a1.8858,1.8858,0,0,0-2.3691,1.9742V185.888s.1316,2.764,1.9084,3.3563l10.0108,4.0435S941.0543,175.9669,942.8694,173.82Z"/><path class="cls-11" d="M963.8133,164.7708l-6.7566-1.1921a6.0138,6.0138,0,0,0-3.093.303L930.47,171.2552a4.0977,4.0977,0,0,0-2.5007,3.3136l.3948,10.3979s1.0306,2.78,2.8845,2.9366l-.5153-2.0153V174.6346a1.9375,1.9375,0,0,1,2.3691-1.9742l9.7672,1.16s.7647-.8869,3.8328-2.22Z"/><path class="cls-12" d="M928.0277,176.1118s-18.6974-4.1067-19.1369-6.89l-.3662,6.4792s.4394,1.4316,1.5382,1.6514,15.1762,6.1579,18.2457,6.1554Z"/><path class="cls-9" d="M908.8908,169.2216s1.8312-5.0741,6.6656-5.7233l4.3216-.9422a53.4407,53.4407,0,0,1,9.8153-.3663v5.5669a2.1846,2.1846,0,0,1-1.3848,1.1719L914.08,172.256S908.8908,170.4669,908.8908,169.2216Z"/><path class="cls-13" d="M948.0692,165.5616s-14.9294-4.135-18.3759-3.3718v5.5669l7.5828,1.3623Z"/><path class="cls-11" d="M942.0369,167.6249l-2.17-3.16a7.8469,7.8469,0,0,0,3.25-.9667l2.1934,3.0993Z"/><path class="cls-12" d="M915.5564,163.4983s-4.2457-14.3148,2.86-17.4621,11.2768-.9256,11.2768-.9256,10.64,3.5175,13.88,14.2553c0,0,.7094,3.61-.4564,4.1324l-3.25.9667a7.3429,7.3429,0,0,1-4.2542-2.35S926.17,148.35,923.0231,149.2761s-3.3325,1.9439-3.3325,1.9439l.1874,11.3361Z"/><g class="cls-14"><g class="cls-15"><polyline class="cls-16" points="959.405 176.698 958.032 177.49 956.668 183.789 955.28 179.079 953.869 179.894 956.029 185.915 957.274 185.196 959.405 176.698"/><path class="cls-16" d="M961.5207,178.6875l-.0055-1.9514,1.4557-.84a1.2534,1.2534,0,0,1,.6133-.2218c.2366.01.3588.2411.36.6813a1.4929,1.4929,0,0,1-.368,1.0282,2.4835,2.4835,0,0,1-.6382.4859l-1.4173.8183m1.7211-4.2049-3.02,1.7435.0206,7.2558,1.29-.7446-.0081-2.8465,1.29-.7446c.3639-.21.62-.2843.754-.2076.1281.08.1992.3479.207.8138l.0147.66a3.5741,3.5741,0,0,0,.0528.6014c.0195.0843.0454.2016.0905.3372l1.4557-.84,0-.1834c-.128-.0143-.2113-.1058-.2438-.2781a3.3311,3.3311,0,0,1-.04-.6455l-.0014-.4916a2.0333,2.0333,0,0,0-.182-1.0339.6349.6349,0,0,0-.6209-.2147,3.0442,3.0442,0,0,0,.745-1.1355,3.3916,3.3916,0,0,0,.2269-1.1525,1.65,1.65,0,0,0-.1235-.693,1.0893,1.0893,0,0,0-.3146-.4283.8664.8664,0,0,0-.5951-.1634,2.7042,2.7042,0,0,0-.9966.3917"/></g></g><path class="cls-9" d="M225.1663,550.9821l-19.851,8.2361a9.9883,9.9883,0,0,0-3.0622,6.23c-.2111,3.6957,0,14.8883,0,14.8883s.1056,2.4286,3.0622,2.2175,17.4224-8.9753,17.4224-8.9753,2.64-1.782,4.0125-6.8041l.7391-12.8357S227.5949,552.038,225.1663,550.9821Z"/><path class="cls-10" d="M224.4294,551.2879l-3.2239-.8891s-21.126,7.7191-23.1573,9.6924-.4063,19.7138-.4063,19.7138l5.2158,1.9517-.6046-1.42s-.306-14.8512.0564-15.4684.0775-2.75,3.0058-5.65Z"/><path class="cls-10" d="M197.8591,560.3372l-9.7673-1.16a1.8859,1.8859,0,0,0-2.3691,1.9743v11.2534s.1316,2.7639,1.9084,3.3562l10.0108,4.0436S196.0439,562.484,197.8591,560.3372Z"/><path class="cls-11" d="M218.8029,551.288l-6.7566-1.1921a6.0144,6.0144,0,0,0-3.093.3029l-23.4939,7.3736a4.0977,4.0977,0,0,0-2.5007,3.3136l.3949,10.3978s1.0306,2.78,2.8844,2.9367l-.5153-2.0153V561.1518a1.9375,1.9375,0,0,1,2.3691-1.9743l9.7673,1.16s.7646-.8868,3.8327-2.2205Z"/><path class="cls-12" d="M183.0173,562.629s-18.6974-4.1068-19.1369-6.89l-.3662,6.4792s.44,1.4316,1.5382,1.6513,15.1763,6.1579,18.2457,6.1554Z"/><path class="cls-9" d="M163.88,555.7388s1.8312-5.0741,6.6656-5.7234l4.3217-.9422a53.445,53.445,0,0,1,9.8152-.3662v5.5668a2.1845,2.1845,0,0,1-1.3848,1.172L169.07,558.7732S163.88,556.984,163.88,555.7388Z"/><path class="cls-13" d="M203.0588,552.0787s-14.9293-4.135-18.3759-3.3717v5.5668l7.5829,1.3624Z"/><path class="cls-11" d="M197.0265,554.1421l-2.17-3.16a7.8448,7.8448,0,0,0,3.25-.9667l2.1934,3.0994Z"/><path class="cls-12" d="M170.546,550.0154s-4.2457-14.3147,2.86-17.462,11.2767-.9257,11.2767-.9257,10.64,3.5176,13.88,14.2554c0,0,.7095,3.61-.4564,4.1323l-3.25.9667a7.3426,7.3426,0,0,1-4.2543-2.35s-9.4418-13.7643-12.5891-12.8386-3.3324,1.9439-3.3324,1.9439l.1874,11.336Z"/><g class="cls-14"><g class="cls-17"><polyline class="cls-16" points="214.394 563.212 213.021 564.005 211.658 570.31 210.269 565.593 208.858 566.408 211.018 572.429 212.263 571.71 214.394 563.212"/><path class="cls-16" d="M216.51,565.2088l-.0055-1.9515,1.4557-.8405a1.37,1.37,0,0,1,.6133-.229c.243.0139.3588.2411.36.6813a1.48,1.48,0,0,1-.368,1.0282,2.4885,2.4885,0,0,1-.6381.4932l-1.4174.8183m1.7212-4.2122-3.02,1.7435.0206,7.2557,1.29-.7446-.0081-2.8465,1.29-.7446c.3639-.21.62-.2768.7541-.2.1281.08.1992.3478.2069.8064l.0147.6675a3.4882,3.4882,0,0,0,.0528.5942c.0195.0843.0454.2015.09.3371l1.4557-.84,0-.1833c-.128-.0144-.2113-.1058-.2438-.2708a3.424,3.424,0,0,1-.04-.6528l-.0014-.4915a2,2,0,0,0-.182-1.0266.6056.6056,0,0,0-.6209-.2146,3.0135,3.0135,0,0,0,.745-1.143,3.3539,3.3539,0,0,0,.227-1.1453,1.63,1.63,0,0,0-.1235-.6928,1.04,1.04,0,0,0-.3146-.4283.7746.7746,0,0,0-.5952-.1635,2.6574,2.6574,0,0,0-.9965.3844"/></g></g><path class="cls-9" d="M153.2734,203.0971l-19.851,8.236a9.9883,9.9883,0,0,0-3.0622,6.23c-.2111,3.6957,0,14.8883,0,14.8883s.1056,2.4286,3.0622,2.2174,17.4225-8.9752,17.4225-8.9752,2.64-1.782,4.0124-6.8041l.7391-12.8358S155.702,204.153,153.2734,203.0971Z"/><path class="cls-10" d="M152.5365,203.4028l-3.2239-.889s-21.126,7.7191-23.1573,9.6924-.4063,19.7137-.4063,19.7137l5.2158,1.9518-.6046-1.42s-.306-14.8512.0564-15.4685.0775-2.75,3.0058-5.65Z"/><path class="cls-10" d="M125.9662,212.4522l-9.7673-1.16a1.8858,1.8858,0,0,0-2.3691,1.9742V224.52s.1316,2.764,1.9085,3.3563L125.749,231.92S124.1511,214.599,125.9662,212.4522Z"/><path class="cls-11" d="M146.91,203.4029l-6.7566-1.1921a6.0138,6.0138,0,0,0-3.093.303l-23.4938,7.3735a4.0978,4.0978,0,0,0-2.5008,3.3136l.3949,10.3979s1.0306,2.78,2.8844,2.9366L113.83,224.52V213.2667a1.9375,1.9375,0,0,1,2.3691-1.9742l9.7673,1.16s.7646-.8869,3.8327-2.2205Z"/><path class="cls-12" d="M111.1244,214.7439s-18.6974-4.1067-19.1369-6.89l-.3662,6.4792s.4395,1.4316,1.5382,1.6514,15.1763,6.1579,18.2458,6.1554Z"/><path class="cls-9" d="M91.9875,207.8537s1.8312-5.0741,6.6656-5.7233l4.3217-.9422a53.4391,53.4391,0,0,1,9.8152-.3663v5.5669a2.1842,2.1842,0,0,1-1.3847,1.1719l-14.2284,3.3274S91.9875,209.099,91.9875,207.8537Z"/><path class="cls-13" d="M131.1659,204.1937s-14.9293-4.135-18.3759-3.3718v5.5669l7.5829,1.3623Z"/><path class="cls-11" d="M125.1336,206.257l-2.17-3.16a7.8463,7.8463,0,0,0,3.25-.9667l2.1934,3.0993Z"/><path class="cls-12" d="M98.6531,202.13s-4.2457-14.3148,2.86-17.4621,11.2767-.9256,11.2767-.9256,10.64,3.5175,13.88,14.2553c0,0,.7095,3.61-.4564,4.1324l-3.25.9667a7.3429,7.3429,0,0,1-4.2542-2.35s-9.4419-13.7644-12.5892-12.8387-3.3324,1.9439-3.3324,1.9439l.1874,11.3361Z"/><g class="cls-14"><g class="cls-18"><polyline class="cls-16" points="142.502 215.326 141.129 216.119 139.766 222.424 138.377 217.707 136.966 218.522 139.126 224.543 140.371 223.824 142.502 215.326"/><path class="cls-16" d="M144.6177,217.3228l-.0055-1.9514,1.4557-.84a1.3911,1.3911,0,0,1,.6133-.2292c.2366.0176.3588.2411.36.6813a1.48,1.48,0,0,1-.368,1.0281,2.5183,2.5183,0,0,1-.6381.4933l-1.4174.8183m1.7212-4.2122-3.02,1.7436.0206,7.2557,1.29-.7446-.0081-2.8466,1.29-.7446c.3639-.21.6132-.2732.7477-.1965s.2056.3442.2133.8027l.0083.6713a4.26,4.26,0,0,0,.0592.59c.0195.0842.0454.2016.09.3372l1.4557-.84,0-.1835c-.128-.0143-.2113-.1058-.2438-.2707a3.4276,3.4276,0,0,1-.04-.6529L148.2,217.54a2.0009,2.0009,0,0,0-.182-1.0266.6059.6059,0,0,0-.6209-.2147,3.0112,3.0112,0,0,0,.745-1.143,3.3529,3.3529,0,0,0,.227-1.1451,1.63,1.63,0,0,0-.1235-.6929,1.04,1.04,0,0,0-.3146-.4283.7973.7973,0,0,0-.5952-.1634,2.655,2.655,0,0,0-.9965.3843"/></g></g><path class="cls-9" d="M1007.18,545.8565l-19.851,8.2361a9.9883,9.9883,0,0,0-3.0622,6.23c-.2112,3.6957,0,14.8883,0,14.8883s.1056,2.4286,3.0622,2.2174,17.4224-8.9752,17.4224-8.9752,2.64-1.782,4.0125-6.8041l.7391-12.8358S1009.6084,546.9124,1007.18,545.8565Z"/><path class="cls-10" d="M1006.4428,546.1623l-3.2238-.8891s-21.126,7.7191-23.1573,9.6924-.4063,19.7138-.4063,19.7138l5.2158,1.9517-.6046-1.42s-.306-14.8512.0564-15.4684.0774-2.75,3.0058-5.65Z"/><path class="cls-10" d="M979.8726,555.2116l-9.7673-1.16a1.8858,1.8858,0,0,0-2.3691,1.9743V567.28s.1316,2.764,1.9084,3.3563l10.0108,4.0436S978.0574,557.3584,979.8726,555.2116Z"/><path class="cls-11" d="M1000.8164,546.1624,994.06,544.97a6.0132,6.0132,0,0,0-3.093.3029l-23.4939,7.3736a4.0975,4.0975,0,0,0-2.5007,3.3136l.3948,10.3978s1.0307,2.78,2.8845,2.9367l-.5153-2.0154V556.0262a1.9375,1.9375,0,0,1,2.3691-1.9743l9.7673,1.16s.7646-.8868,3.8327-2.2205Z"/><path class="cls-12" d="M965.0308,557.5033s-18.6974-4.1067-19.1369-6.89l-.3662,6.4791s.44,1.4317,1.5382,1.6514,15.1763,6.1579,18.2457,6.1554Z"/><path class="cls-9" d="M945.8939,550.6132s1.8312-5.0741,6.6656-5.7234l4.3216-.9422a53.4466,53.4466,0,0,1,9.8153-.3662v5.5668a2.1845,2.1845,0,0,1-1.3848,1.172l-14.2283,3.3274S945.8939,551.8584,945.8939,550.6132Z"/><path class="cls-13" d="M985.0723,546.9531s-14.9294-4.135-18.3759-3.3717v5.5668l7.5829,1.3624Z"/><path class="cls-11" d="M979.04,549.0164l-2.17-3.16a7.8451,7.8451,0,0,0,3.25-.9667l2.1934,3.0994Z"/><path class="cls-12" d="M952.56,544.89s-4.2457-14.3147,2.86-17.462,11.2767-.9257,11.2767-.9257,10.64,3.5176,13.88,14.2554c0,0,.7094,3.61-.4564,4.1323l-3.25.9667a7.3422,7.3422,0,0,1-4.2542-2.35s-9.4418-13.7643-12.5891-12.8387-3.3324,1.944-3.3324,1.944l.1873,11.336Z"/><g class="cls-14"><g class="cls-19"><polyline class="cls-16" points="996.411 558.08 995.039 558.873 993.669 565.182 992.28 560.465 990.876 561.276 993.029 567.301 994.274 566.582 996.411 558.08"/><path class="cls-16" d="M998.521,560.0807l-.0055-1.9515,1.4557-.84a1.2375,1.2375,0,0,1,.6133-.222q.3645.01.3664.67a1.5131,1.5131,0,0,1-.3744,1.0392,2.4661,2.4661,0,0,1-.6317.4823l-1.4238.822m1.7211-4.2124-3.02,1.7436.0206,7.2558,1.29-.7446-.0081-2.8393,1.29-.7446c.37-.2138.6195-.2841.7541-.2075s.2056.3443.2133.8027l.0082.6715a2.8181,2.8181,0,0,0,.0593.59,2.5069,2.5069,0,0,0,.0841.3409l1.4557-.84,0-.1761c-.1279-.0143-.205-.11-.2438-.2781a3.6293,3.6293,0,0,1-.0339-.6566l-.0013-.4842a2.0041,2.0041,0,0,0-.1884-1.03.6084.6084,0,0,0-.621-.2146,3.0227,3.0227,0,0,0,.7514-1.1393,3.53,3.53,0,0,0,.2207-1.1488,1.8031,1.8031,0,0,0-.1171-.6966,1.0915,1.0915,0,0,0-.321-.4247.8137.8137,0,0,0-.5952-.1633,2.7947,2.7947,0,0,0-.9966.3842"/></g></g><circle class="cls-3" cx="338.0039" cy="350.3837" r="72.1514"/><polygon class="cls-20" points="277.507 370.514 277.507 322.086 275.644 322.086 275.644 316.125 351.64 316.125 351.64 322.086 349.405 322.086 349.405 370.514 277.507 370.514"/><line class="cls-21" x1="277.5069" y1="322.0857" x2="349.4046" y2="322.0857"/><rect class="cls-22" x="304.5151" y="349.4665" width="18.6263" height="21.0478"/><path class="cls-22" d="M304.8876,343.1335h5.5879V335.683s-3.3527-4.47-5.5879,0Z"/><path class="cls-22" d="M317.181,343.1335h5.5879V335.683s-3.3527-4.47-5.5879,0Z"/><path class="cls-22" d="M332.8272,343.1335h5.5879V335.683s-3.3528-4.47-5.5879,0Z"/><path class="cls-22" d="M332.8272,358.78h5.5879v-7.4505s-3.3528-4.47-5.5879,0Z"/><rect class="cls-23" x="312.3206" y="341.2301" width="16.8607" height="10.0766" rx="0.8044"/><rect class="cls-24" x="313.5102" y="342.153" width="14.7323" height="8.2307"/><rect class="cls-24" x="307.8914" y="374.0385" width="4.4291" height="13.7032"/><rect class="cls-24" x="329.1813" y="374.0385" width="4.4291" height="13.7032"/><rect class="cls-23" x="312.3206" y="377.3584" width="16.8535" height="5.7161"/><rect class="cls-23" x="318.5029" y="351.2613" width="4.15" height="3.3081"/><rect class="cls-23" x="318.5029" y="367.5633" width="4.15" height="9.7952"/><rect class="cls-23" x="312.3206" y="354.5694" width="16.8535" height="12.9938"/><rect class="cls-23" x="304.7677" y="354.3891" width="6.2474" height="9.765" rx="2.4115" transform="translate(437.3585 814.3666) rotate(-155.284)"/><rect class="cls-23" x="300.8053" y="363.365" width="6.2474" height="9.765" rx="2.4115" transform="translate(426.0437 829.8394) rotate(-155.284)"/><circle class="cls-23" cx="300.6737" cy="375.6332" r="2.6905"/><rect class="cls-23" x="330.1407" y="354.3891" width="6.2474" height="9.765" rx="2.4115" transform="translate(-119.689 172.257) rotate(-24.716)"/><rect class="cls-23" x="334.1031" y="363.365" width="6.2474" height="9.765" rx="2.4115" transform="translate(-123.079 174.7361) rotate(-24.716)"/><circle class="cls-23" cx="340.4821" cy="375.6332" r="2.6905"/><rect class="cls-23" x="369.9739" y="341.8626" width="16.8607" height="10.0766" rx="0.8044"/><rect class="cls-24" x="371.1636" y="342.7855" width="14.7323" height="8.2307"/><rect class="cls-24" x="365.5448" y="374.671" width="4.4291" height="13.7032"/><rect class="cls-24" x="386.8346" y="374.671" width="4.4291" height="13.7032"/><rect class="cls-23" x="369.9739" y="377.991" width="16.8535" height="5.7161"/><rect class="cls-23" x="376.1563" y="351.8938" width="4.15" height="3.3081"/><rect class="cls-23" x="376.1563" y="368.1958" width="4.15" height="9.7952"/><rect class="cls-23" x="369.9739" y="355.202" width="16.8535" height="12.9938"/><rect class="cls-23" x="362.4211" y="355.0217" width="6.2474" height="9.765" rx="2.4115" transform="translate(547.1192 839.6798) rotate(-155.284)"/><rect class="cls-23" x="358.4587" y="363.9976" width="6.2474" height="9.765" rx="2.4115" transform="translate(535.8044 855.1526) rotate(-155.284)"/><circle class="cls-23" cx="358.3271" cy="376.2657" r="2.6905"/><rect class="cls-23" x="387.7941" y="355.0217" width="6.2474" height="9.765" rx="2.4115" transform="translate(-114.672 196.421) rotate(-24.716)"/><rect class="cls-23" x="391.7565" y="363.9976" width="6.2474" height="9.765" rx="2.4115" transform="translate(-118.062 198.9001) rotate(-24.716)"/><circle class="cls-23" cx="398.1355" cy="376.2657" r="2.6905"/><rect class="cls-23" x="342.433" y="341.8626" width="16.8607" height="10.0766" rx="0.8044"/><rect class="cls-24" x="343.6227" y="342.7855" width="14.7323" height="8.2307"/><rect class="cls-24" x="338.0039" y="374.671" width="4.4291" height="13.7032"/><rect class="cls-24" x="359.2937" y="374.671" width="4.4291" height="13.7032"/><rect class="cls-23" x="342.433" y="377.991" width="16.8535" height="5.7161"/><rect class="cls-23" x="348.6154" y="351.8938" width="4.15" height="3.3081"/><rect class="cls-23" x="348.6154" y="368.1958" width="4.15" height="9.7952"/><rect class="cls-23" x="342.433" y="355.202" width="16.8535" height="12.9938"/><rect class="cls-23" x="334.8802" y="355.0217" width="6.2474" height="9.765" rx="2.4115" transform="translate(494.5604 828.1644) rotate(-155.284)"/><rect class="cls-23" x="330.9178" y="363.9976" width="6.2474" height="9.765" rx="2.4115" transform="translate(483.2456 843.6372) rotate(-155.284)"/><circle class="cls-23" cx="330.7862" cy="376.2657" r="2.6905"/><rect class="cls-23" x="360.2532" y="355.0217" width="6.2474" height="9.765" rx="2.4115" transform="translate(-117.1949 184.9056) rotate(-24.716)"/><rect class="cls-23" x="364.2156" y="363.9976" width="6.2474" height="9.765" rx="2.4115" transform="translate(-120.5849 187.3846) rotate(-24.716)"/><circle class="cls-23" cx="370.5946" cy="376.2657" r="2.6905"/><path class="cls-22" d="M289.2415,343.1335h5.5879V335.683s-3.3527-4.47-5.5879,0Z"/><path class="cls-22" d="M289.2415,358.78h5.5879v-7.4505s-3.3527-4.47-5.5879,0Z"/><circle class="cls-3" cx="418.1857" cy="539.1677" r="72.1514"/><polygon class="cls-20" points="357.689 565.14 357.689 516.711 355.826 516.711 355.826 510.751 431.822 510.751 431.822 516.711 429.586 516.711 429.586 565.14 357.689 565.14"/><line class="cls-21" x1="357.6887" y1="516.7112" x2="429.5864" y2="516.7112"/><rect class="cls-22" x="384.6969" y="544.092" width="18.6263" height="21.0478"/><path class="cls-22" d="M369.4233,537.759h5.5879v-7.4505s-3.3527-4.47-5.5879,0Z"/><path class="cls-22" d="M385.07,537.759h5.5879v-7.4505s-3.3528-4.47-5.5879,0Z"/><path class="cls-22" d="M397.3628,537.759h5.5879v-7.4505s-3.3527-4.47-5.5879,0Z"/><path class="cls-22" d="M413.009,537.759h5.5879v-7.4505s-3.3528-4.47-5.5879,0Z"/><path class="cls-22" d="M413.009,553.4051h5.5879v-7.45s-3.3528-4.47-5.5879,0Z"/><path class="cls-22" d="M369.4233,553.4051h5.5879v-7.45s-3.3527-4.47-5.5879,0Z"/><rect class="cls-23" x="392.5024" y="535.8556" width="16.8607" height="10.0766" rx="0.8044"/><rect class="cls-24" x="393.692" y="536.7785" width="14.7323" height="8.2307"/><rect class="cls-24" x="388.0732" y="568.664" width="4.4291" height="13.7032"/><rect class="cls-24" x="409.3631" y="568.664" width="4.4291" height="13.7032"/><rect class="cls-23" x="392.5024" y="571.9839" width="16.8535" height="5.7161"/><rect class="cls-23" x="398.6848" y="545.8868" width="4.15" height="3.3081"/><rect class="cls-23" x="398.6848" y="562.1888" width="4.15" height="9.7952"/><rect class="cls-23" x="392.5024" y="549.1949" width="16.8535" height="12.9938"/><rect class="cls-23" x="384.9495" y="549.0146" width="6.2474" height="9.765" rx="2.4115" transform="translate(508.9999 1219.3139) rotate(-155.284)"/><rect class="cls-23" x="380.9871" y="557.9905" width="6.2474" height="9.765" rx="2.4115" transform="translate(497.6851 1234.7867) rotate(-155.284)"/><circle class="cls-23" cx="380.8555" cy="570.2586" r="2.6905"/><rect class="cls-23" x="410.3225" y="549.0146" width="6.2474" height="9.765" rx="2.4115" transform="translate(-193.7206 223.6121) rotate(-24.716)"/><rect class="cls-23" x="414.2849" y="557.9905" width="6.2474" height="9.765" rx="2.4115" transform="translate(-197.1106 226.0911) rotate(-24.716)"/><circle class="cls-23" cx="420.6639" cy="570.2586" r="2.6905"/><rect class="cls-23" x="450.1557" y="536.4881" width="16.8607" height="10.0766" rx="0.8044"/><rect class="cls-24" x="451.3454" y="537.411" width="14.7323" height="8.2307"/><rect class="cls-24" x="445.7266" y="569.2965" width="4.4291" height="13.7032"/><rect class="cls-24" x="467.0164" y="569.2965" width="4.4291" height="13.7032"/><rect class="cls-23" x="450.1557" y="572.6165" width="16.8535" height="5.7161"/><rect class="cls-23" x="456.3381" y="546.5193" width="4.15" height="3.3081"/><rect class="cls-23" x="456.3381" y="562.8213" width="4.15" height="9.7952"/><rect class="cls-23" x="450.1557" y="549.8275" width="16.8535" height="12.9938"/><rect class="cls-23" x="442.6029" y="549.6472" width="6.2474" height="9.765" rx="2.4115" transform="translate(618.7606 1244.6271) rotate(-155.284)"/><rect class="cls-23" x="438.6405" y="558.623" width="6.2474" height="9.765" rx="2.4115" transform="translate(607.4458 1260.0999) rotate(-155.284)"/><circle class="cls-23" cx="438.5089" cy="570.8912" r="2.6905"/><rect class="cls-23" x="467.9759" y="549.6472" width="6.2474" height="9.765" rx="2.4115" transform="translate(-188.7035 247.7761) rotate(-24.716)"/><rect class="cls-23" x="471.9383" y="558.623" width="6.2474" height="9.765" rx="2.4115" transform="translate(-192.0936 250.2551) rotate(-24.716)"/><circle class="cls-23" cx="478.3173" cy="570.8912" r="2.6905"/><rect class="cls-23" x="422.6148" y="536.4881" width="16.8607" height="10.0766" rx="0.8044"/><rect class="cls-24" x="423.8045" y="537.411" width="14.7323" height="8.2307"/><rect class="cls-24" x="418.1857" y="569.2965" width="4.4291" height="13.7032"/><rect class="cls-24" x="439.4755" y="569.2965" width="4.4291" height="13.7032"/><rect class="cls-23" x="422.6148" y="572.6165" width="16.8535" height="5.7161"/><rect class="cls-23" x="428.7972" y="546.5193" width="4.15" height="3.3081"/><rect class="cls-23" x="428.7972" y="562.8213" width="4.15" height="9.7952"/><rect class="cls-23" x="422.6148" y="549.8275" width="16.8535" height="12.9938"/><rect class="cls-23" x="415.062" y="549.6472" width="6.2474" height="9.765" rx="2.4115" transform="translate(566.2018 1233.1117) rotate(-155.284)"/><rect class="cls-23" x="411.0996" y="558.623" width="6.2474" height="9.765" rx="2.4115" transform="translate(554.887 1248.5845) rotate(-155.284)"/><circle class="cls-23" cx="410.968" cy="570.8912" r="2.6905"/><rect class="cls-23" x="440.435" y="549.6472" width="6.2474" height="9.765" rx="2.4115" transform="translate(-191.2265 236.2606) rotate(-24.716)"/><rect class="cls-23" x="444.3974" y="558.623" width="6.2474" height="9.765" rx="2.4115" transform="translate(-194.6165 238.7397) rotate(-24.716)"/><circle class="cls-23" cx="450.7764" cy="570.8912" r="2.6905"/><circle class="cls-3" cx="847.3509" cy="342.7019" r="72.1514"/><polygon class="cls-20" points="786.854 368.674 786.854 320.245 784.991 320.245 784.991 314.285 860.987 314.285 860.987 320.245 858.752 320.245 858.752 368.674 786.854 368.674"/><line class="cls-21" x1="786.8539" y1="320.2455" x2="858.7516" y2="320.2455"/><rect class="cls-22" x="813.8621" y="347.6262" width="18.6263" height="21.0478"/><path class="cls-22" d="M798.5885,341.2932h5.5879v-7.4505s-3.3527-4.47-5.5879,0Z"/><path class="cls-22" d="M814.2347,341.2932h5.5879v-7.4505s-3.3528-4.47-5.5879,0Z"/><path class="cls-22" d="M826.528,341.2932h5.5879v-7.4505s-3.3527-4.47-5.5879,0Z"/><path class="cls-22" d="M842.1742,341.2932h5.5879v-7.4505s-3.3528-4.47-5.5879,0Z"/><path class="cls-22" d="M842.1742,356.9394h5.5879v-7.4506s-3.3528-4.47-5.5879,0Z"/><path class="cls-22" d="M798.5885,356.9394h5.5879v-7.4506s-3.3527-4.47-5.5879,0Z"/><rect class="cls-23" x="821.6676" y="339.3898" width="16.8607" height="10.0766" rx="0.8044"/><rect class="cls-24" x="822.8572" y="340.3127" width="14.7323" height="8.2307"/><rect class="cls-24" x="817.2384" y="372.1982" width="4.4291" height="13.7032"/><rect class="cls-24" x="838.5283" y="372.1982" width="4.4291" height="13.7032"/><rect class="cls-23" x="821.6676" y="375.5182" width="16.8535" height="5.7161"/><rect class="cls-23" x="827.85" y="349.421" width="4.15" height="3.3081"/><rect class="cls-23" x="827.85" y="365.723" width="4.15" height="9.7952"/><rect class="cls-23" x="821.6676" y="352.7291" width="16.8535" height="12.9938"/><rect class="cls-23" x="814.1147" y="352.5488" width="6.2474" height="9.765" rx="2.4115" transform="translate(1410.1615 1023.8231) rotate(-155.284)"/><rect class="cls-23" x="810.1523" y="361.5247" width="6.2474" height="9.765" rx="2.4115" transform="translate(1398.8467 1039.2959) rotate(-155.284)"/><circle class="cls-23" cx="810.0207" cy="373.7929" r="2.6905"/><rect class="cls-23" x="839.4877" y="352.5488" width="6.2474" height="9.765" rx="2.4115" transform="translate(-72.2591 385.0569) rotate(-24.716)"/><rect class="cls-23" x="843.4501" y="361.5247" width="6.2474" height="9.765" rx="2.4115" transform="translate(-75.6491 387.5359) rotate(-24.716)"/><circle class="cls-23" cx="849.8291" cy="373.7929" r="2.6905"/><rect class="cls-23" x="879.3209" y="340.0223" width="16.8607" height="10.0766" rx="0.8044"/><rect class="cls-24" x="880.5106" y="340.9453" width="14.7323" height="8.2307"/><rect class="cls-24" x="874.8918" y="372.8307" width="4.4291" height="13.7032"/><rect class="cls-24" x="896.1816" y="372.8307" width="4.4291" height="13.7032"/><rect class="cls-23" x="879.3209" y="376.1507" width="16.8535" height="5.7161"/><rect class="cls-23" x="885.5033" y="350.0535" width="4.15" height="3.3081"/><rect class="cls-23" x="885.5033" y="366.3555" width="4.15" height="9.7952"/><rect class="cls-23" x="879.3209" y="353.3617" width="16.8535" height="12.9938"/><rect class="cls-23" x="871.7681" y="353.1814" width="6.2474" height="9.765" rx="2.4115" transform="translate(1519.9222 1049.1363) rotate(-155.284)"/><rect class="cls-23" x="867.8057" y="362.1573" width="6.2474" height="9.765" rx="2.4115" transform="translate(1508.6074 1064.6091) rotate(-155.284)"/><circle class="cls-23" cx="867.6741" cy="374.4254" r="2.6905"/><rect class="cls-23" x="897.1411" y="353.1814" width="6.2474" height="9.765" rx="2.4115" transform="translate(-67.242 409.2209) rotate(-24.716)"/><rect class="cls-23" x="901.1035" y="362.1573" width="6.2474" height="9.765" rx="2.4115" transform="translate(-70.632 411.7) rotate(-24.716)"/><circle class="cls-23" cx="907.4825" cy="374.4254" r="2.6905"/><rect class="cls-23" x="851.78" y="340.0223" width="16.8607" height="10.0766" rx="0.8044"/><rect class="cls-24" x="852.9697" y="340.9453" width="14.7323" height="8.2307"/><rect class="cls-24" x="847.3509" y="372.8307" width="4.4291" height="13.7032"/><rect class="cls-24" x="868.6407" y="372.8307" width="4.4291" height="13.7032"/><rect class="cls-23" x="851.78" y="376.1507" width="16.8535" height="5.7161"/><rect class="cls-23" x="857.9624" y="350.0535" width="4.15" height="3.3081"/><rect class="cls-23" x="857.9624" y="366.3555" width="4.15" height="9.7952"/><rect class="cls-23" x="851.78" y="353.3617" width="16.8535" height="12.9938"/><rect class="cls-23" x="844.2272" y="353.1814" width="6.2474" height="9.765" rx="2.4115" transform="translate(1467.3634 1037.6209) rotate(-155.284)"/><rect class="cls-23" x="840.2648" y="362.1573" width="6.2474" height="9.765" rx="2.4115" transform="translate(1456.0486 1053.0936) rotate(-155.284)"/><circle class="cls-23" cx="840.1332" cy="374.4254" r="2.6905"/><rect class="cls-23" x="869.6002" y="353.1814" width="6.2474" height="9.765" rx="2.4115" transform="translate(-69.765 397.7055) rotate(-24.716)"/><rect class="cls-23" x="873.5626" y="362.1573" width="6.2474" height="9.765" rx="2.4115" transform="translate(-73.155 400.1845) rotate(-24.716)"/><circle class="cls-23" cx="879.9416" cy="374.4254" r="2.6905"/><circle class="cls-3" cx="847.7621" cy="536.8053" r="72.1514"/><polygon class="cls-20" points="787.265 562.777 787.265 514.349 785.402 514.349 785.402 508.388 861.398 508.388 861.398 514.349 859.163 514.349 859.163 562.777 787.265 562.777"/><line class="cls-21" x1="787.2651" y1="514.3489" x2="859.1628" y2="514.3489"/><rect class="cls-22" x="814.2733" y="541.7296" width="18.6263" height="21.0478"/><path class="cls-22" d="M799,535.3966h5.5879v-7.4505s-3.3527-4.47-5.5879,0Z"/><path class="cls-22" d="M814.6458,535.3966h5.5879v-7.4505s-3.3527-4.47-5.5879,0Z"/><path class="cls-22" d="M826.9392,535.3966h5.5879v-7.4505s-3.3527-4.47-5.5879,0Z"/><path class="cls-22" d="M842.5854,535.3966h5.5879v-7.4505s-3.3528-4.47-5.5879,0Z"/><path class="cls-22" d="M842.5854,551.0428h5.5879v-7.4506s-3.3528-4.47-5.5879,0Z"/><path class="cls-22" d="M799,551.0428h5.5879v-7.4506s-3.3527-4.47-5.5879,0Z"/><rect class="cls-23" x="822.0788" y="533.4932" width="16.8607" height="10.0766" rx="0.8044"/><rect class="cls-24" x="823.2684" y="534.4161" width="14.7323" height="8.2307"/><rect class="cls-24" x="817.6496" y="566.3016" width="4.4291" height="13.7032"/><rect class="cls-24" x="838.9395" y="566.3016" width="4.4291" height="13.7032"/><rect class="cls-23" x="822.0788" y="569.6216" width="16.8535" height="5.7161"/><rect class="cls-23" x="828.2612" y="543.5244" width="4.15" height="3.3081"/><rect class="cls-23" x="828.2612" y="559.8264" width="4.15" height="9.7952"/><rect class="cls-23" x="822.0788" y="546.8326" width="16.8535" height="12.9938"/><rect class="cls-23" x="814.5259" y="546.6523" width="6.2474" height="9.765" rx="2.4115" transform="translate(1329.7876 1394.4204) rotate(-155.284)"/><rect class="cls-23" x="810.5635" y="555.6281" width="6.2474" height="9.765" rx="2.4115" transform="translate(1318.4728 1409.8931) rotate(-155.284)"/><circle class="cls-23" cx="810.4319" cy="567.8963" r="2.6905"/><rect class="cls-23" x="839.8989" y="546.6523" width="6.2474" height="9.765" rx="2.4115" transform="translate(-153.38 403.0104) rotate(-24.716)"/><rect class="cls-23" x="843.8613" y="555.6281" width="6.2474" height="9.765" rx="2.4115" transform="translate(-156.77 405.4894) rotate(-24.716)"/><circle class="cls-23" cx="850.2403" cy="567.8963" r="2.6905"/><rect class="cls-23" x="879.7321" y="534.1257" width="16.8607" height="10.0766" rx="0.8044"/><rect class="cls-24" x="880.9218" y="535.0487" width="14.7323" height="8.2307"/><rect class="cls-24" x="875.303" y="566.9342" width="4.4291" height="13.7032"/><rect class="cls-24" x="896.5928" y="566.9342" width="4.4291" height="13.7032"/><rect class="cls-23" x="879.7321" y="570.2541" width="16.8535" height="5.7161"/><rect class="cls-23" x="885.9145" y="544.157" width="4.15" height="3.3081"/><rect class="cls-23" x="885.9145" y="560.4589" width="4.15" height="9.7952"/><rect class="cls-23" x="879.7321" y="547.4651" width="16.8535" height="12.9938"/><rect class="cls-23" x="872.1793" y="547.2848" width="6.2474" height="9.765" rx="2.4115" transform="translate(1439.5483 1419.7336) rotate(-155.284)"/><rect class="cls-23" x="868.2169" y="556.2607" width="6.2474" height="9.765" rx="2.4115" transform="translate(1428.2335 1435.2063) rotate(-155.284)"/><circle class="cls-23" cx="868.0853" cy="568.5288" r="2.6905"/><rect class="cls-23" x="897.5523" y="547.2848" width="6.2474" height="9.765" rx="2.4115" transform="translate(-148.363 427.1744) rotate(-24.716)"/><rect class="cls-23" x="901.5147" y="556.2607" width="6.2474" height="9.765" rx="2.4115" transform="translate(-151.753 429.6534) rotate(-24.716)"/><circle class="cls-23" cx="907.8937" cy="568.5288" r="2.6905"/><rect class="cls-23" x="852.1912" y="534.1257" width="16.8607" height="10.0766" rx="0.8044"/><rect class="cls-24" x="853.3809" y="535.0487" width="14.7323" height="8.2307"/><rect class="cls-24" x="847.7621" y="566.9342" width="4.4291" height="13.7032"/><rect class="cls-24" x="869.0519" y="566.9342" width="4.4291" height="13.7032"/><rect class="cls-23" x="852.1912" y="570.2541" width="16.8535" height="5.7161"/><rect class="cls-23" x="858.3736" y="544.157" width="4.15" height="3.3081"/><rect class="cls-23" x="858.3736" y="560.4589" width="4.15" height="9.7952"/><rect class="cls-23" x="852.1912" y="547.4651" width="16.8535" height="12.9938"/><rect class="cls-23" x="844.6384" y="547.2848" width="6.2474" height="9.765" rx="2.4115" transform="translate(1386.9895 1408.2181) rotate(-155.284)"/><rect class="cls-23" x="840.676" y="556.2607" width="6.2474" height="9.765" rx="2.4115" transform="translate(1375.6747 1423.6909) rotate(-155.284)"/><circle class="cls-23" cx="840.5444" cy="568.5288" r="2.6905"/><rect class="cls-23" x="870.0114" y="547.2848" width="6.2474" height="9.765" rx="2.4115" transform="translate(-150.8859 415.659) rotate(-24.716)"/><rect class="cls-23" x="873.9738" y="556.2607" width="6.2474" height="9.765" rx="2.4115" transform="translate(-154.276 418.138) rotate(-24.716)"/><circle class="cls-23" cx="880.3528" cy="568.5288" r="2.6905"/><line class="cls-4" x1="204.8087" y1="608.7619" x2="218.0242" y2="612.384"/><polygon class="cls-25" points="194.135 619.89 205.047 616.855 209.035 599.023 203.78 597.658 202.967 604.842 200.589 589.807 195.859 590.718 196.899 602.214 192.33 591.528 187.262 593.518 191.767 604.848 183.695 597.658 180.464 601.464 188.576 608.409 181.818 607.846 181.818 611.459 191.579 615.081 194.135 619.89"/><polygon class="cls-25" points="167.092 613.082 178.004 610.048 181.993 592.216 176.737 590.851 175.924 598.035 173.546 583 168.816 583.911 169.856 595.407 165.287 584.721 160.219 586.71 164.724 598.041 156.652 590.851 153.421 594.656 161.533 601.601 154.775 601.038 154.775 604.652 164.536 608.274 167.092 613.082"/><line class="cls-4" x1="125.5475" y1="260.6455" x2="138.7631" y2="264.2676"/><polygon class="cls-25" points="114.874 271.773 125.786 268.739 129.774 250.907 124.519 249.542 123.706 256.726 121.328 241.691 116.598 242.602 117.638 254.098 113.069 243.412 108.001 245.401 112.506 256.732 104.434 249.542 101.203 253.347 109.315 260.292 102.557 259.729 102.557 263.343 112.318 266.965 114.874 271.773"/><polygon class="cls-25" points="87.831 264.966 98.743 261.932 102.731 244.1 97.476 242.735 96.663 249.918 94.285 234.883 89.555 235.794 90.595 247.291 86.026 236.604 80.958 238.594 85.463 249.925 77.391 242.735 74.16 246.54 82.272 253.485 75.514 252.922 75.514 256.535 85.275 260.157 87.831 264.966"/><line class="cls-4" x1="943.8401" y1="216.2285" x2="957.0557" y2="219.8507"/><polygon class="cls-25" points="933.167 227.356 944.079 224.322 948.067 206.49 942.811 205.125 941.999 212.309 939.62 197.274 934.891 198.185 935.93 209.681 931.361 198.995 926.293 200.984 930.798 212.315 922.727 205.125 919.495 208.93 927.607 215.875 920.85 215.312 920.85 218.926 930.61 222.548 933.167 227.356"/><polygon class="cls-25" points="906.124 220.549 917.036 217.515 921.024 199.683 915.768 198.318 914.956 205.502 912.577 190.466 907.848 191.377 908.888 202.874 904.318 192.187 899.25 194.177 903.755 205.508 895.684 198.318 892.453 202.123 900.564 209.068 893.807 208.505 893.807 212.118 903.568 215.74 906.124 220.549"/><line class="cls-4" x1="969.0975" y1="607.5924" x2="982.3131" y2="611.2146"/><polygon class="cls-25" points="958.424 618.72 969.336 615.686 973.324 597.854 968.069 596.489 967.256 603.673 964.878 588.638 960.148 589.549 961.188 601.045 956.619 590.359 951.551 592.348 956.056 603.679 947.984 596.489 944.753 600.294 952.865 607.239 946.107 606.676 946.107 610.289 955.868 613.912 958.424 618.72"/><polygon class="cls-25" points="931.381 611.913 942.293 608.879 946.281 591.047 941.026 589.682 940.213 596.865 937.835 581.83 933.105 582.741 934.145 594.238 929.576 583.551 924.508 585.541 929.013 596.872 920.941 589.682 917.71 593.487 925.822 600.432 919.064 599.869 919.064 603.482 928.825 607.104 931.381 611.913"/></g><g id="Layer_1" data-name="Layer 1"><text class="cls-26" transform="translate(130.5756 143.4503)">Environment<tspan class="cls-27" x="67.23" y="0" xml:space="preserve"> A</tspan></text><text class="cls-28" transform="translate(207.599 215.6574)">Natural<tspan x="-5.8398" y="8.3999">Resources</tspan></text><text class="cls-29" transform="translate(138.7439 192.3092)">VR goggle</text><text class="cls-29" transform="translate(75.8458 276.8132)">VR groves</text><text class="cls-28" transform="translate(224.9249 265.5742)">Materials</text><text class="cls-28" transform="translate(158.2732 332.4428)">Facilities</text><text class="cls-28" transform="translate(117.7721 313.2211)"><tspan class="cls-30">T</tspan><tspan x="3.7598" y="0">ools</tspan></text><text class="cls-26" transform="translate(148.0843 267.9817)">Student<tspan class="cls-27" x="40.9385" y="0" xml:space="preserve"> A</tspan></text><text class="cls-28" transform="translate(207.3994 312.537)">Spaces</text><text class="cls-26" transform="translate(211.002 497.6941)">Environment B</text><text class="cls-28" transform="translate(285.0679 568.2759)">Natural<tspan x="-5.8398" y="8.3999">Resources</tspan></text><text class="cls-28" transform="translate(302.3937 618.1926)">Materials</text><text class="cls-28" transform="translate(235.7421 685.0613)">Facilities</text><text class="cls-28" transform="translate(195.2409 665.8396)"><tspan class="cls-30">T</tspan><tspan x="3.7598" y="0">ools</tspan></text><text class="cls-26" transform="translate(225.1498 620.6001)">Student B</text><text class="cls-28" transform="translate(284.8682 665.1555)">Spaces</text><text class="cls-26" transform="translate(975.3729 499.3362)">Environment D</text><text class="cls-28" transform="translate(1048.4365 568.5838)">Natural<tspan x="-5.8398" y="8.3999">Resources</tspan></text><text class="cls-28" transform="translate(1065.7624 618.5005)">Materials</text><text class="cls-28" transform="translate(999.1108 685.3692)">Facilities</text><text class="cls-28" transform="translate(958.6095 666.1475)"><tspan class="cls-30">T</tspan><tspan x="3.7598" y="0">ools</tspan></text><text class="cls-26" transform="translate(988.5185 620.908)">Student D</text><text class="cls-28" transform="translate(1048.2368 665.4634)">Spaces</text><text class="cls-26" transform="translate(950.0013 113.5458)">Environment C</text><text class="cls-28" transform="translate(1022.6419 182.2672)">Natural<tspan x="-5.8398" y="8.3999">Resources</tspan></text><text class="cls-28" transform="translate(1039.9678 232.1841)">Materials</text><text class="cls-28" transform="translate(973.3162 299.0526)">Facilities</text><text class="cls-28" transform="translate(932.815 279.8309)"><tspan class="cls-30">T</tspan><tspan x="3.7598" y="0">ools</tspan></text><text class="cls-26" transform="translate(962.7239 234.5916)">Student C</text><text class="cls-28" transform="translate(1022.4423 279.1469)">Spaces</text></g></svg>