<svg xmlns="http://www.w3.org/2000/svg" viewBox="0 0 1224 792"><defs><style>.cls-1{fill:#beded9;}.cls-2{fill:#79c2d4;}.cls-3{fill:none;stroke:#33a457;stroke-miterlimit:10;stroke-width:5.2549px;}.cls-4{font-size:7px;}.cls-4,.cls-6{fill:#272525;font-family:Helvetica-Bold, Helvetica;font-weight:700;}.cls-5{letter-spacing:-0.0737em;}.cls-6{font-size:11px;}.cls-7{letter-spacing:-0.0366em;}</style></defs><g id="Layer_1" data-name="Layer 1"><circle class="cls-1" cx="173.4723" cy="263.0365" r="100.1161"/><circle class="cls-2" cx="173.4723" cy="263.0365" r="33.1383"/><circle class="cls-2" cx="219.8778" cy="216.631" r="24.1744"/><circle class="cls-2" cx="239.0996" cy="263.0365" r="24.1744"/><circle class="cls-2" cx="219.8778" cy="309.442" r="24.1744"/><circle class="cls-2" cx="173.4723" cy="328.6638" r="24.1744"/><circle class="cls-2" cx="127.0667" cy="309.442" r="24.1744"/><line class="cls-3" x1="202.7839" y1="233.7248" x2="196.9046" y2="239.6042"/><line class="cls-3" x1="214.9252" y1="263.0365" x2="206.6105" y2="263.0365"/><line class="cls-3" x1="202.7839" y1="292.3481" x2="196.9046" y2="286.4688"/><line class="cls-3" x1="173.4723" y1="304.4894" x2="173.4723" y2="296.1748"/><line class="cls-3" x1="144.1606" y1="292.3481" x2="150.04" y2="286.4688"/><circle class="cls-1" cx="251.206" cy="615.9749" r="100.1161"/><circle class="cls-2" cx="251.206" cy="615.9749" r="33.1383"/><circle class="cls-2" cx="297.6116" cy="569.5693" r="24.1744"/><circle class="cls-2" cx="316.8334" cy="615.9749" r="24.1744"/><circle class="cls-2" cx="297.6116" cy="662.3804" r="24.1744"/><circle class="cls-2" cx="251.206" cy="681.6022" r="24.1744"/><circle class="cls-2" cx="204.8005" cy="662.3804" r="24.1744"/><line class="cls-3" x1="280.5177" y1="586.6632" x2="274.6383" y2="592.5426"/><line class="cls-3" x1="292.659" y1="615.9749" x2="284.3443" y2="615.9749"/><line class="cls-3" x1="280.5177" y1="645.2865" x2="274.6383" y2="639.4072"/><line class="cls-3" x1="251.206" y1="657.4278" x2="251.206" y2="649.1131"/><line class="cls-3" x1="221.8944" y1="645.2865" x2="227.7737" y2="639.4072"/><circle class="cls-1" cx="988.3254" cy="229.8927" r="100.1161"/><circle class="cls-2" cx="988.3254" cy="229.8927" r="33.1383"/><circle class="cls-2" cx="1034.7309" cy="183.4871" r="24.1744"/><circle class="cls-2" cx="1053.9527" cy="229.8927" r="24.1744"/><circle class="cls-2" cx="1034.7309" cy="276.2982" r="24.1744"/><circle class="cls-2" cx="988.3254" cy="295.52" r="24.1744"/><circle class="cls-2" cx="941.9199" cy="276.2982" r="24.1744"/><line class="cls-3" x1="1017.6371" y1="200.581" x2="1011.7577" y2="206.4604"/><line class="cls-3" x1="1029.7783" y1="229.8927" x2="1021.4637" y2="229.8927"/><line class="cls-3" x1="1017.6371" y1="259.2043" x2="1011.7577" y2="253.325"/><line class="cls-3" x1="988.3254" y1="271.3456" x2="988.3254" y2="263.0309"/><line class="cls-3" x1="959.0137" y1="259.2043" x2="964.8931" y2="253.325"/><circle class="cls-1" cx="1014.6974" cy="615.9749" r="100.1161"/><circle class="cls-2" cx="1014.6974" cy="615.9749" r="33.1383"/><circle class="cls-2" cx="1061.1029" cy="569.5693" r="24.1744"/><circle class="cls-2" cx="1080.3247" cy="615.9749" r="24.1744"/><circle class="cls-2" cx="1061.1029" cy="662.3804" r="24.1744"/><circle class="cls-2" cx="1014.6974" cy="681.6022" r="24.1744"/><circle class="cls-2" cx="968.2919" cy="662.3804" r="24.1744"/><line class="cls-3" x1="1044.009" y1="586.6632" x2="1038.1297" y2="592.5426"/><line class="cls-3" x1="1056.1503" y1="615.9749" x2="1047.8357" y2="615.9749"/><line class="cls-3" x1="1044.009" y1="645.2865" x2="1038.1297" y2="639.4072"/><line class="cls-3" x1="1014.6974" y1="657.4278" x2="1014.6974" y2="649.1131"/><line class="cls-3" x1="985.3857" y1="645.2865" x2="991.2651" y2="639.4072"/><text class="cls-4" transform="translate(207.819 214.1552)">Natural<tspan x="-5.8398" y="8.3999">Resources</tspan></text><text class="cls-4" transform="translate(225.1448 264.0721)">Materials</text><text class="cls-4" transform="translate(158.4932 330.9406)">Facilities</text><text class="cls-4" transform="translate(117.9921 311.719)"><tspan class="cls-5">T</tspan><tspan x="3.7598" y="0">ools</tspan></text><text class="cls-6" transform="translate(147.9063 266.4785)">Student<tspan class="cls-7" x="40.9385" y="0" xml:space="preserve"> A</tspan><tspan x="51.1328" y="0"> </tspan></text><text class="cls-6" transform="translate(134.7602 145.7699)">Environment<tspan class="cls-7" x="67.23" y="0" xml:space="preserve"> A</tspan></text><text class="cls-6" transform="translate(212.0912 498.7082)">Environment B</text><text class="cls-6" transform="translate(975.9302 499.2741)">Environment D</text><text class="cls-6" transform="translate(949.2105 113.8272)">Environment C</text><text class="cls-4" transform="translate(207.6194 311.0349)">Spaces</text><text class="cls-4" transform="translate(286.157 569.2899)">Natural<tspan x="-5.8398" y="8.3999">Resources</tspan></text><text class="cls-4" transform="translate(303.4829 619.2067)">Materials</text><text class="cls-4" transform="translate(236.8312 686.0753)">Facilities</text><text class="cls-4" transform="translate(196.3301 666.8536)"><tspan class="cls-5">T</tspan><tspan x="3.7598" y="0">ools</tspan></text><text class="cls-6" transform="translate(226.239 621.6142)">Student B</text><text class="cls-4" transform="translate(285.9574 666.1695)">Spaces</text><text class="cls-4" transform="translate(1048.9938 568.5216)">Natural<tspan x="-5.8398" y="8.3999">Resources</tspan></text><text class="cls-4" transform="translate(1066.3196 618.4384)">Materials</text><text class="cls-4" transform="translate(999.668 685.307)">Facilities</text><text class="cls-4" transform="translate(959.1668 666.0853)"><tspan class="cls-5">T</tspan><tspan x="3.7598" y="0">ools</tspan></text><text class="cls-6" transform="translate(989.0757 620.8459)">Student D</text><text class="cls-4" transform="translate(1048.7941 665.4012)">Spaces</text><text class="cls-4" transform="translate(1021.8511 182.5486)">Natural<tspan x="-5.8398" y="8.3999">Resources</tspan></text><text class="cls-4" transform="translate(1039.177 232.4655)">Materials</text><text class="cls-4" transform="translate(972.5254 299.334)">Facilities</text><text class="cls-4" transform="translate(932.0242 280.1123)"><tspan class="cls-5">T</tspan><tspan x="3.7598" y="0">ools</tspan></text><text class="cls-6" transform="translate(961.9331 234.8729)">Student C</text><text class="cls-4" transform="translate(1021.6515 279.4282)">Spaces</text></g></svg>