<svg width="200" height="300" viewBox="0 -50 242 207" fill="none" xmlns="http://www.w3.org/2000/svg">
<path fill-rule="evenodd" clip-rule="evenodd" d="M225.846 104.353C220.589 99.2012 214.164 94.4314 206.571 90.0431C175.225 72.2992 131.03 66.3846 91.1172 72.1084C70.6743 74.9703 51.3996 81.0758 35.4347 90.0431C-0.778488 110.458 -9.15035 140.794 9.9297 165.788C15.7705 173.42 24.3371 180.67 35.4347 186.967C82.7454 213.678 159.455 213.678 206.766 186.967C217.863 180.67 226.43 173.42 232.465 165.598C247.067 145.946 244.926 123.241 225.846 104.353Z" fill="#26523F" fill-opacity="0.2"/>
<path d="M179.431 58.748C175.57 56.5712 171.395 55.0002 167.054 54.0904C162.364 53.0336 157.562 52.5583 152.756 52.6751C147.248 52.8665 141.775 53.63 136.426 54.9533C135.744 55.1282 135.024 54.8607 134.624 54.2833C134.224 53.7059 134.228 52.9411 134.634 52.3679C136.534 49.7504 137.7 46.6761 138.012 43.4612C138.055 40.7161 137.206 38.0305 135.589 35.8064C133.521 32.9115 130.815 30.5258 127.679 28.8314C123.817 26.6568 119.642 25.087 115.301 24.177C110.61 23.1274 105.807 22.6521 101 22.7618C96.1548 22.8043 91.3324 23.4265 86.6364 24.615C82.217 25.671 77.9793 27.3739 74.0618 29.6681H74.0584C70.8495 31.4824 68.062 33.9518 65.8789 36.9142L65.4686 37.8458L58.8252 97.9601C59.6161 98.5719 60.6176 98.848 61.6119 98.7282L164.211 93.8091L166.443 93.4136C170.815 92.3537 175.008 90.6611 178.886 88.3899C182.099 86.5824 184.886 84.1104 187.059 81.1404C188.751 78.8964 189.698 76.1828 189.767 73.3778C189.811 70.6326 188.962 67.9471 187.345 65.7229C185.275 62.828 182.568 60.4423 179.431 58.748Z" fill="#F5B08C"/>
<path d="M208.565 122.771C181.972 138.659 147.12 146.71 113.029 146.71C82.31 146.71 52.2109 140.173 29.3265 126.948C17.3091 120.468 7.21022 110.96 0.0390625 99.3754C0.433758 116.582 12.0105 132.638 32.6942 144.569C79.0866 171.403 156.422 169.553 205.102 140.447C228.225 126.636 241.211 109.017 241.92 90.6758C233.812 104.095 222.311 115.161 208.565 122.771Z" fill="#C1675A"/>
<path fill-rule="evenodd" clip-rule="evenodd" d="M36.8922 23.5396C85.5725 -5.54344 162.914 -7.39681 209.3 19.4148C230.149 31.4649 241.74 47.6662 241.986 65.0561V65.6908C241.954 84.6058 228.884 102.826 205.105 117.032C156.422 146.114 79.0834 147.965 32.7007 121.156C11.9613 109.17 0.388564 93.0739 0.0283203 75.788V74.5145C0.223231 55.7304 13.2701 37.653 36.8922 23.5396ZM180.616 91.2596C184.239 89.2103 187.377 86.4104 189.82 83.0491C191.897 80.2628 193.053 76.9026 193.128 73.4333C193.19 69.9996 192.138 66.6375 190.128 63.8468C187.777 60.5316 184.695 57.7967 181.118 55.8521C176.961 53.5051 172.467 51.8096 167.792 50.825C162.84 49.7274 157.774 49.2248 152.703 49.328C148.223 49.4633 143.763 49.9761 139.37 50.8609C140.541 48.5775 141.223 46.0764 141.372 43.5166C141.434 40.0828 140.382 36.7208 138.372 33.9301C136.022 30.6158 132.941 27.881 129.365 25.9354C125.207 23.5899 120.711 21.8955 116.036 20.9117C111.086 19.8027 106.019 19.2999 100.947 19.4147C95.8404 19.4595 90.7578 20.1158 85.8088 21.3694C81.0719 22.5067 76.5302 24.3362 72.3316 26.7983C68.6195 28.8982 65.4212 31.7916 62.9671 35.2703L62.3008 36.7084C62.2249 36.8716 62.1761 37.046 62.1562 37.2248L55.4833 97.5939C55.3854 98.5924 55.7377 99.5826 56.445 100.297C57.7653 101.52 59.5242 102.163 61.3258 102.082C61.4735 102.082 61.6245 102.078 61.7755 102.068L164.575 97.1298L167.132 96.6885C171.871 95.5505 176.415 93.7211 180.616 91.2596Z" fill="#EB8172"/>
</svg>
