<svg width="350" height="350" viewBox="0 0 802 632" fill="none" xmlns="http://www.w3.org/2000/svg">
<g opacity="0.623954">
<path fill-rule="evenodd" clip-rule="evenodd" d="M655.685 126.606C655.695 126.609 655.701 126.621 655.717 126.636C657.852 128.576 661.26 133.931 664.828 140.946C667.727 146.699 672.045 156.191 676.256 168.764C680.257 180.864 683.124 192.785 684.745 204.203C686.641 217.725 686.757 230.264 685.058 241.408C685.087 241.447 685.039 241.473 685.011 241.464L684.974 241.453C684.946 241.445 684.946 241.445 684.929 241.4C688.924 215.295 682.329 187.522 676.106 168.79C668.473 145.831 659.357 130.088 655.614 126.705C655.586 126.697 655.567 126.661 655.606 126.632C655.612 126.614 655.648 126.595 655.685 126.606L655.685 126.606Z" fill="#FAFAFA"/>
<path fill-rule="evenodd" clip-rule="evenodd" d="M511.967 168.719C508.718 168.719 505.47 169.431 502.992 170.866L7.54119 458.703C2.59825 461.574 2.59825 466.277 7.54119 469.147L284.159 629.853C286.636 631.288 289.885 632 293.133 632C296.382 632 299.642 631.288 302.108 629.853L797.571 342.016C802.502 339.145 802.502 334.478 797.571 331.572L520.941 170.866C518.476 169.431 515.215 168.719 511.967 168.719L511.967 168.719Z" fill="#91B28A"/>
<path fill-rule="evenodd" clip-rule="evenodd" d="M785.84 134.26C785.829 134.26 785.818 134.272 785.795 134.283C782.726 135.787 777.044 140.793 770.61 147.662C765.362 153.304 757.228 162.774 748.147 175.841C739.465 188.432 732.118 201.209 726.345 213.836C719.534 228.799 715.062 243.241 713.111 256.7C713.065 256.735 713.111 256.781 713.145 256.781H713.191C713.225 256.781 713.225 256.781 713.259 256.735C717.811 225.202 734.833 195.405 748.306 175.921C764.826 152.044 780.513 137.012 785.886 134.399C785.92 134.399 785.954 134.364 785.92 134.318C785.92 134.295 785.886 134.26 785.84 134.26V134.26Z" fill="#FAFAFA"/>
<path fill-rule="evenodd" clip-rule="evenodd" d="M724.648 161.062C724.637 161.062 724.616 161.074 724.616 161.085C724.584 161.145 724.584 161.181 724.616 161.216C724.723 161.335 736.929 176.081 739.777 187.815C739.777 187.863 739.82 187.863 739.852 187.863C739.884 187.863 739.927 187.815 739.927 187.78C737.079 176.01 724.841 161.252 724.691 161.085C724.691 161.074 724.669 161.062 724.648 161.062L724.648 161.062Z" fill="#FAFAFA"/>
<path fill-rule="evenodd" clip-rule="evenodd" d="M766.334 199.349C763.368 199.349 760.262 199.441 757.144 199.669C749.186 200.298 738.414 202.012 732.307 206.847C732.26 206.893 732.26 206.927 732.26 206.961C732.307 207.007 732.307 207.007 732.342 207.007H732.377C739.914 201.064 754.495 199.544 766.381 199.544C772.98 199.544 778.759 200.012 782.029 200.458C782.064 200.458 782.099 200.412 782.099 200.378C782.099 200.332 782.099 200.298 782.064 200.298C778.184 199.772 772.57 199.349 766.334 199.349V199.349Z" fill="#FAFAFA"/>
<path fill-rule="evenodd" clip-rule="evenodd" d="M145.503 394.616L38.3379 423.653L291.552 570.74L398.717 541.656L145.503 394.616V394.616Z" fill="#F2DE8C"/>
<path fill-rule="evenodd" clip-rule="evenodd" d="M128.203 386.959L0 421.81L282.051 586.055L410.219 551.204L393.153 541.228L288.253 569.775L40.3923 425.4L145.292 396.9L128.203 386.959L128.203 386.959Z" fill="#E1FBF0"/>
<path fill-rule="evenodd" clip-rule="evenodd" d="M264.178 287.411L141.852 398.069L395.24 543.938L517.566 433.28L264.178 287.411Z" fill="#ECC25A"/>
<path fill-rule="evenodd" clip-rule="evenodd" d="M515.683 429.075L394.883 541.365L412.112 551.596L532.9 439.306L515.683 429.075H515.683Z" fill="#C0D8B5"/>
<path fill-rule="evenodd" clip-rule="evenodd" d="M251.084 275.925L130.35 384.737L147.597 394.616L268.367 285.804L251.084 275.925Z" fill="#C0D8B5"/>
<path fill-rule="evenodd" clip-rule="evenodd" d="M508.68 149.575L391.051 252.874L645.266 398.445L762.932 295.147L508.68 149.575V149.575Z" fill="#ECC25A"/>
<path fill-rule="evenodd" clip-rule="evenodd" d="M507.741 126.603L379.549 241.43L396.671 251.385L511.335 148.694L759.175 293.409L644.477 396.101L661.564 406.103L789.768 291.287L507.741 126.603L507.741 126.603Z" fill="#C0D8B5"/>
<path fill-rule="evenodd" clip-rule="evenodd" d="M392.716 249.123L260.699 284.869L515.934 432.904L647.915 397.17L392.716 249.123V249.123Z" fill="#F2DE8C"/>
<path fill-rule="evenodd" clip-rule="evenodd" d="M377.718 245.295L249.199 278.062L266.365 287.411L394.884 254.633L377.718 245.295V245.295Z" fill="#E1FBF0"/>
<path fill-rule="evenodd" clip-rule="evenodd" d="M512.096 149.575L490.729 168.111L499.563 222.322L605.743 202.52L512.096 149.575L512.096 149.575Z" fill="#263238"/>
<path fill-rule="evenodd" clip-rule="evenodd" d="M617.763 210.836L594.242 215.43L640.083 287.411C656.336 278.351 672.036 265.467 682.42 247.943L617.763 210.836V210.836Z" fill="#263238"/>
<path fill-rule="evenodd" clip-rule="evenodd" d="M578.091 218.493L552.07 223.718L568.354 305.866C572.334 306.329 576.519 306.555 580.923 306.555C581.886 306.555 582.872 306.543 583.859 306.519C593.056 306.234 608.514 302.909 624.913 295.654L578.091 218.493V218.493Z" fill="#263238"/>
<path fill-rule="evenodd" clip-rule="evenodd" d="M537.898 226.151L502.23 233.45L509.396 280.264C517.278 285.697 530.983 296.886 552.07 302.726L537.898 226.151V226.151Z" fill="#263238"/>
<path fill-rule="evenodd" clip-rule="evenodd" d="M697.658 256.781C673.258 297.912 619.034 319.05 591.269 319.05C590.413 319.05 589.568 319.027 588.77 318.992C588.77 318.992 583.83 319.787 588.77 322.651C593.698 325.527 639.94 352.5 639.94 352.5L715.786 337.055L762.93 294.884L697.658 256.781L697.658 256.781Z" fill="#263238"/>
<path fill-rule="evenodd" clip-rule="evenodd" d="M693.922 352.5L647.916 360.61L669.479 371.644L693.922 352.5V352.5Z" fill="#263238"/>
<path fill-rule="evenodd" clip-rule="evenodd" d="M527.453 310.384C523.058 310.384 520.459 317.078 521.718 325.951L642.017 394.616L655.584 382.736C655.584 382.736 536.358 314.693 530.308 311.236C529.294 310.66 528.338 310.384 527.453 310.384L527.453 310.384Z" fill="#263238"/>
<path fill-rule="evenodd" clip-rule="evenodd" d="M495.859 287.411L479.229 297.325L506.155 314.212C504.945 306.14 513.733 298.952 513.733 298.952C513.733 298.952 501.458 290.915 495.859 287.411V287.411Z" fill="#263238"/>
<path fill-rule="evenodd" clip-rule="evenodd" d="M319.337 272.096L264.533 286.605L333.579 325.699L383.382 312.556L319.337 272.096L319.337 272.096Z" fill="#61B290"/>
<path fill-rule="evenodd" clip-rule="evenodd" d="M364.214 256.781L337.377 264.462L354.166 275.925L364.214 256.781V256.781Z" fill="#61B290"/>
<path fill-rule="evenodd" clip-rule="evenodd" d="M394.25 249.123L386.441 251.243L368.047 284.692V284.728L401.716 306.555L463.892 289.646L394.25 249.123V249.123Z" fill="#61B290"/>
<path fill-rule="evenodd" clip-rule="evenodd" d="M521.4 325.699C521.4 325.699 544.77 375.508 549.548 384.038C554.303 392.534 560.068 394.555 569.149 396.427C578.076 398.254 610.039 402.126 611.228 402.274H611.264L644.083 393.744L521.4 325.699L521.4 325.699Z" fill="#61B290"/>
<path fill-rule="evenodd" clip-rule="evenodd" d="M477.323 298.897L414.053 315.707L540.569 398.445L506.01 315.707L477.323 298.897H477.323Z" fill="#61B290"/>
<path fill-rule="evenodd" clip-rule="evenodd" d="M397.857 321.87L348.924 334.807L348.877 334.89L464.497 402.274L506.064 392.256L397.857 321.87V321.87Z" fill="#61B290"/>
<path fill-rule="evenodd" clip-rule="evenodd" d="M520.692 402.274L479.229 410.999L514.625 429.075L552.071 420.159L520.692 402.274V402.274Z" fill="#61B290"/>
<path fill-rule="evenodd" clip-rule="evenodd" d="M555.904 406.103L569.82 413.76L586.575 409.772L555.904 406.103L555.904 406.103Z" fill="#61B290"/>
<path fill-rule="evenodd" clip-rule="evenodd" d="M479.465 409.932L424.593 429.004L414.053 470.055L464.688 475.021L513.732 429.969L479.465 409.932V409.932Z" fill="#263238"/>
<path fill-rule="evenodd" clip-rule="evenodd" d="M236.216 360.158L184.122 389.451L153.515 388.661L145.686 395.724L210.122 432.904L283.703 369.914L236.216 360.158V360.158Z" fill="#263238"/>
<path fill-rule="evenodd" clip-rule="evenodd" d="M345.996 333.356L318.207 358.036L420.081 417.589L463.892 402.235L345.996 333.356V333.356Z" fill="#263238"/>
<path fill-rule="evenodd" clip-rule="evenodd" d="M267.565 287.411L264.533 352.341L298.817 360.158L337.376 327.352L267.565 287.411L267.565 287.411Z" fill="#263238"/>
<path fill-rule="evenodd" clip-rule="evenodd" d="M249.198 302.726L218.527 332.01L225.186 352.5L231.639 348.618L247.134 350.906L249.198 302.726V302.726Z" fill="#263238"/>
<path fill-rule="evenodd" clip-rule="evenodd" d="M205.117 344.842L168.688 375.473L183.257 375.013L210.86 360.247L205.117 344.842V344.842Z" fill="#263238"/>
<path fill-rule="evenodd" clip-rule="evenodd" d="M307.429 367.815L253.033 415.047L317.876 452.048L402.552 422.07L307.429 367.815Z" fill="#263238"/>
<path fill-rule="evenodd" clip-rule="evenodd" d="M406.385 440.562L314.373 471.928L321.565 501.189V501.223L378.473 532.452L406.385 440.562L406.385 440.562Z" fill="#263238"/>
<path fill-rule="evenodd" clip-rule="evenodd" d="M412.349 486.507L398.717 536.281L417.952 519.667L452.39 489.899L412.349 486.507V486.507Z" fill="#263238"/>
<path fill-rule="evenodd" clip-rule="evenodd" d="M304.734 471.192L279.869 474.046L310.258 490.336L310.54 489.747L304.734 471.192L304.734 471.192Z" fill="#263238"/>
<path fill-rule="evenodd" clip-rule="evenodd" d="M242.063 429.075L226.195 442.202L265.347 463.534H265.382L299.038 458.624L242.063 429.075V429.075Z" fill="#263238"/>
<path fill-rule="evenodd" clip-rule="evenodd" d="M512.096 149.575L490.729 168.111L499.563 222.322L605.743 202.52L512.096 149.575L512.096 149.575Z" fill="#509176"/>
<path fill-rule="evenodd" clip-rule="evenodd" d="M617.763 210.836L594.242 215.43L640.083 287.411C656.336 278.351 672.036 265.467 682.42 247.943L617.763 210.836V210.836Z" fill="#509176"/>
<path fill-rule="evenodd" clip-rule="evenodd" d="M578.091 218.493L552.07 223.718L568.354 305.866C572.23 306.317 576.256 306.555 580.487 306.555C581.623 306.555 582.712 306.555 583.859 306.519C593.056 306.234 608.514 302.909 624.913 295.654L578.091 218.493V218.493Z" fill="#509176"/>
<path fill-rule="evenodd" clip-rule="evenodd" d="M537.898 226.151L502.23 233.45L509.396 280.264C517.278 285.697 530.983 296.886 552.07 302.726L537.898 226.151V226.151Z" fill="#509176"/>
<path fill-rule="evenodd" clip-rule="evenodd" d="M697.65 256.781V256.816C673.248 297.912 619.041 319.062 591.225 319.062C590.404 319.062 589.571 319.027 588.749 318.992C588.749 318.992 586.574 319.343 586.574 320.418C586.574 320.944 587.083 321.693 588.749 322.651C593.678 325.527 639.925 352.5 639.925 352.5L715.781 337.055L762.93 294.884L697.65 256.781V256.781Z" fill="#509176"/>
<path fill-rule="evenodd" clip-rule="evenodd" d="M693.922 352.5L647.916 360.61L669.479 371.644L693.922 352.5V352.5Z" fill="#509176"/>
<path fill-rule="evenodd" clip-rule="evenodd" d="M479.229 176.377L490.73 275.925L479.229 176.377Z" fill="#2E3C43"/>
<path fill-rule="evenodd" clip-rule="evenodd" d="M477.45 180.205L474.66 182.615C464.136 208.975 450.893 236.215 444.485 249.059C443.314 251.433 440.926 252.742 438.513 252.742C437.296 252.742 436.054 252.383 434.954 251.711L416.722 241.589C416.722 241.589 414.747 240.048 411.637 237.28L394.883 251.827L464.585 291.24L490.728 276.496L477.45 180.205V180.205Z" fill="#509176"/>
<path fill-rule="evenodd" clip-rule="evenodd" d="M527.461 310.384C523.836 310.384 521.4 314.948 521.4 321.552C521.4 322.935 521.528 324.434 521.727 325.932L642.018 394.616L655.584 382.733C655.584 382.733 536.365 314.671 530.316 311.213C529.326 310.626 528.37 310.384 527.461 310.384L527.461 310.384Z" fill="#509176"/>
<path fill-rule="evenodd" clip-rule="evenodd" d="M495.859 287.411L479.229 297.325L506.155 314.212C506.067 313.686 506.034 313.196 506.034 312.67C506.034 305.243 513.733 298.952 513.733 298.952C513.733 298.952 501.458 290.915 495.859 287.411V287.411Z" fill="#509176"/>
<path fill-rule="evenodd" clip-rule="evenodd" d="M479.465 409.932L424.593 429.004L414.053 470.055L464.688 475.021L513.732 429.969L479.465 409.932V409.932Z" fill="#509176"/>
<path fill-rule="evenodd" clip-rule="evenodd" d="M236.216 360.158L184.122 389.451L153.515 388.661L145.686 395.724L210.122 432.904L283.703 369.914L236.216 360.158V360.158Z" fill="#509176"/>
<path fill-rule="evenodd" clip-rule="evenodd" d="M345.996 333.356L318.207 358.036L420.081 417.589L463.892 402.235L345.996 333.356V333.356Z" fill="#509176"/>
<path fill-rule="evenodd" clip-rule="evenodd" d="M267.565 287.411L264.533 352.341L298.817 360.158L337.376 327.352L267.565 287.411L267.565 287.411Z" fill="#509176"/>
<path fill-rule="evenodd" clip-rule="evenodd" d="M249.198 302.726L243.315 308.334L218.527 332.01L225.186 352.5L231.639 348.618L247.134 350.906L249.198 302.726L249.198 302.726Z" fill="#509176"/>
<path fill-rule="evenodd" clip-rule="evenodd" d="M205.117 344.842L168.688 375.473L183.257 375.013L210.86 360.247L205.117 344.842V344.842Z" fill="#509176"/>
<path fill-rule="evenodd" clip-rule="evenodd" d="M307.429 367.815L253.033 415.047L317.876 452.048L402.552 422.07L307.429 367.815Z" fill="#509176"/>
<path fill-rule="evenodd" clip-rule="evenodd" d="M406.385 440.562L314.373 471.928L321.565 501.189V501.223L378.473 532.452L406.385 440.562L406.385 440.562Z" fill="#509176"/>
<path fill-rule="evenodd" clip-rule="evenodd" d="M412.349 486.507L398.717 536.281L417.952 519.667L452.39 489.899L412.349 486.507V486.507Z" fill="#509176"/>
<path fill-rule="evenodd" clip-rule="evenodd" d="M304.734 471.192L279.869 474.046L310.258 490.336L310.54 489.747L304.734 471.192L304.734 471.192Z" fill="#509176"/>
<path fill-rule="evenodd" clip-rule="evenodd" d="M242.063 429.075L226.242 442.202H226.195L265.347 463.534H265.382L299.038 458.624L242.063 429.075L242.063 429.075Z" fill="#509176"/>
<path fill-rule="evenodd" clip-rule="evenodd" d="M125.611 402.274L38.3379 424.804L80.5954 448.219L141.851 441.323L125.611 402.274V402.274Z" fill="#61B290"/>
<path fill-rule="evenodd" clip-rule="evenodd" d="M146.572 394.616L138.018 396.817L154.824 436.733L210.86 430.367L146.572 394.616L146.572 394.616Z" fill="#61B290"/>
<path fill-rule="evenodd" clip-rule="evenodd" d="M224.712 440.562L95.8457 456.146L185.483 505.651L264.534 462.556L224.712 440.562Z" fill="#61B290"/>
<path fill-rule="evenodd" clip-rule="evenodd" d="M325.061 497.993L299.039 563.082L362.455 546.212L379.549 529.046L325.061 497.993V497.993Z" fill="#61B290"/>
<path fill-rule="evenodd" clip-rule="evenodd" d="M280.591 471.192L203.193 516.468L281.343 563.082L310.54 489.042L280.591 471.192Z" fill="#61B290"/>
<path fill-rule="evenodd" clip-rule="evenodd" d="M403.335 30.8572C411.144 30.8572 416.514 37.1866 416.514 48.1266C416.514 63.5378 405.843 82.2821 392.676 89.9818C388.852 92.2233 385.233 93.2917 382.028 93.2917C374.208 93.2917 368.838 86.9623 368.838 76.0223C375.914 74.8726 393.729 44.027 392.676 34.1671C396.511 31.914 400.129 30.8572 403.335 30.8572ZM412.873 0C406.736 0 399.889 2.00915 392.676 6.25968C366.342 21.6361 345 60.797 345 93.6633V101.154C345 134.009 388.577 169.721 388.577 169.721L406.392 179.952C406.392 179.952 395.687 167.584 396.901 165.005C408.579 140.745 440.317 72.1434 440.317 45.3045V37.8486C440.317 31.8212 439.607 26.4789 438.279 21.7987L440.317 22.9832L444.679 14.6215L426.589 4.07634C422.639 1.40523 418.002 0 412.873 0Z" fill="#EA9291"/>
<path fill-rule="evenodd" clip-rule="evenodd" d="M421.312 42.1018C429.491 42.1018 435.083 48.3955 435.083 59.2077C435.083 74.5154 423.923 93.1199 410.2 100.797C406.2 102.998 402.392 104.059 399.039 104.059C392.165 104.059 387.1 99.621 385.675 91.7828C385.388 90.2842 385.268 88.6705 385.268 86.9415C385.268 71.6452 396.428 53.0293 410.2 45.3639C414.163 43.1507 417.959 42.1018 421.312 42.1018ZM431.323 11.4863C424.905 11.4863 417.756 13.4574 410.2 17.6647C390.453 28.6384 373.413 51.7037 365.318 75.8871C362.132 85.4545 360.336 95.2062 360.336 104.451V111.851C360.336 136.991 389.878 166.131 403.494 178.223C404.799 179.353 406.439 179.952 408.032 179.952C410.475 179.952 412.894 178.65 414.079 176.287C425.815 153.152 460.015 83.4834 460.015 56.4643V49.0179C460.015 25.3762 448.28 11.4863 431.323 11.4863V11.4863Z" fill="#D75958"/>
<path fill-rule="evenodd" clip-rule="evenodd" d="M586.574 517.137V537.645H586.61C586.61 538.081 586.81 538.646 587.293 539.33L647.031 623C647.668 623.895 648.328 624.342 648.917 624.342C649.66 624.342 650.273 623.624 650.532 622.234L658.1 582.996C658.583 580.499 660.999 578.367 663.522 578.202L738.029 573.431C739.279 573.337 739.927 573.137 739.927 572.901V552.358L586.574 517.137L586.574 517.137Z" fill="#FAFAFA"/>
<path fill-rule="evenodd" clip-rule="evenodd" d="M646.112 394.616L517.566 427.358L534.671 436.733L663.252 403.991L646.112 394.616Z" fill="#E1FBF0"/>
</g>
<path fill-rule="evenodd" clip-rule="evenodd" d="M335.929 420.746C336.498 420.412 337.06 420.085 337.631 419.751C337.083 419.816 336.778 419.861 336.778 419.861L335.929 420.746Z" fill="#8B490E"/>
<path fill-rule="evenodd" clip-rule="evenodd" d="M327.068 417.694L324.445 416.151L312.977 397.643L318.606 390.338L351.971 378.861L354.594 380.404L322.586 395.303L319.459 398.997L327.068 417.694Z" fill="#423D3D"/>
<path fill-rule="evenodd" clip-rule="evenodd" d="M315.579 399.485L326.959 418.034L324.356 416.488L312.976 397.937L315.579 399.485Z" fill="#291518"/>
<path fill-rule="evenodd" clip-rule="evenodd" d="M318.653 390.443L321.301 391.987L315.623 399.299L312.977 397.753L318.653 390.443Z" fill="#4C4C4C"/>
<path fill-rule="evenodd" clip-rule="evenodd" d="M329.896 413.826L326.762 417.694L315.307 399.267L320.931 391.992L354.26 380.564L352.594 386.05L324.906 396.936L321.781 400.614L329.896 413.826Z" fill="#362326"/>
<path fill-rule="evenodd" clip-rule="evenodd" d="M340.227 406.2L339.916 406.002L340.028 406.333L340.227 406.2ZM340.704 408.535L340.71 408.875C340.71 409.393 340.678 409.922 340.616 410.455L340.297 410.668C340.271 410.885 340.239 411.104 340.202 411.324L340.494 411.313C340.378 411.995 340.217 412.687 340.016 413.376L339.698 413.49C339.628 413.723 339.553 413.953 339.476 414.183L339.724 414.278C339.482 414.978 339.201 415.671 338.882 416.354L338.59 416.365C338.481 416.593 338.369 416.821 338.251 417.047L338.442 417.24C338.093 417.914 337.707 418.568 337.293 419.2L337.044 419.106C336.905 419.319 336.761 419.529 336.613 419.736L336.734 420.019C336.298 420.622 335.835 421.195 335.349 421.735L335.16 421.54L334.656 422.075L334.699 422.426C334.206 422.922 333.696 423.379 333.168 423.794L333.05 423.51L332.51 423.91L332.472 424.307C332.21 424.489 331.948 424.66 331.683 424.816C331.415 424.974 331.153 425.112 330.892 425.242L330.853 424.889L330.313 425.13L330.195 425.549C329.815 425.701 329.442 425.817 329.08 425.905L330.566 427.553L329.886 427.913L328.358 427.079L328.175 427.158L323.941 424.654C323.695 424.537 323.457 424.399 323.236 424.237L323.274 424.151L322.796 423.868C322.479 423.563 322.196 423.201 321.956 422.788L322.136 422.507L321.664 422.229C321.461 421.779 321.302 421.279 321.186 420.732L321.478 420.399L321.452 420.251L321.062 420.021C321.002 419.56 320.968 419.069 320.968 418.551L320.976 418.204L321.291 417.947L321.313 417.565L321.019 417.392C321.077 416.727 321.182 416.049 321.33 415.369L321.652 415.202L321.785 414.651L321.538 414.506C321.724 413.802 321.958 413.097 322.228 412.401L322.535 412.338C322.621 412.121 322.711 411.903 322.805 411.688L322.584 411.543C322.891 410.845 323.234 410.156 323.613 409.489L323.885 409.533C324.003 409.329 324.123 409.127 324.246 408.927L324.089 408.688C324.494 408.039 324.93 407.411 325.393 406.814L325.622 406.95L326.04 406.434L325.959 406.114C326.437 405.552 326.936 405.025 327.455 404.538L327.712 404.69L328.081 404.363L328.079 403.983C328.598 403.546 329.131 403.153 329.676 402.807L329.983 402.989L329.998 402.978L330.238 402.844L330.317 402.429C330.864 402.129 331.398 401.892 331.914 401.716L332.345 401.971L332.384 401.96L332.538 401.536C333.059 401.407 333.559 401.343 334.034 401.343L334.476 401.602L334.603 401.369C335.066 401.42 335.501 401.534 335.906 401.705L336.358 401.975L336.382 401.942L341.321 404.861L342.275 407.494L340.393 406.303C340.515 406.761 340.61 407.246 340.659 407.775L340.352 408.074L340.387 408.653L340.704 408.535Z" fill="#481018"/>
<path fill-rule="evenodd" clip-rule="evenodd" d="M336.272 401.694L339.159 403.207L341.277 404.749L339.957 404.398L337.941 402.768L334.952 401.343L335.801 401.54L336.272 401.694Z" fill="#4F1F26"/>
<path fill-rule="evenodd" clip-rule="evenodd" d="M323.664 409.518L326.496 409.885L328.623 412.319L327.59 414.287L325.437 411.84L322.63 411.488L323.123 410.484L323.664 409.518Z" fill="#4F1F26"/>
<path fill-rule="evenodd" clip-rule="evenodd" d="M322.659 412.243L325.289 412.573L327.625 415.014L326.931 417.012L324.567 414.554L321.965 414.241L322.247 413.333L322.659 412.243Z" fill="#4F1F26"/>
<path fill-rule="evenodd" clip-rule="evenodd" d="M321.615 415.309L324.119 415.625L326.627 418.126L326.312 420.078L323.778 417.562L321.3 417.262L321.396 416.389L321.615 415.309Z" fill="#4F1F26"/>
<path fill-rule="evenodd" clip-rule="evenodd" d="M321.307 418.034L323.668 418.293L326.208 420.972L326.293 422.803L323.728 420.106L321.393 419.863L321.299 419.068L321.307 418.034Z" fill="#4F1F26"/>
<path fill-rule="evenodd" clip-rule="evenodd" d="M321.632 420.419L323.77 420.575L326.489 423.347L326.959 424.847L324.212 422.06L322.102 421.919L321.843 421.301L321.632 420.419Z" fill="#4F1F26"/>
<path fill-rule="evenodd" clip-rule="evenodd" d="M322.297 422.803L324.02 423.132L327.132 425.537L327.957 426.55L324.818 424.131L323.12 423.814L322.681 423.389L322.297 422.803Z" fill="#4F1F26"/>
<path fill-rule="evenodd" clip-rule="evenodd" d="M325.618 406.453L328.479 406.832L330.623 409.355L329.302 411.222L327.13 408.681L324.297 408.316L324.956 407.337L325.618 406.453Z" fill="#4F1F26"/>
<path fill-rule="evenodd" clip-rule="evenodd" d="M327.764 404.409L330.538 404.787L332.619 407.285L331.149 408.837L329.042 406.321L326.293 405.96L326.957 405.189L327.764 404.409Z" fill="#4F1F26"/>
<path fill-rule="evenodd" clip-rule="evenodd" d="M329.917 402.706L332.792 403.089L334.949 405.62L333.321 406.793L331.137 404.245L328.291 403.879L328.985 403.314L329.917 402.706Z" fill="#4F1F26"/>
<path fill-rule="evenodd" clip-rule="evenodd" d="M331.915 401.684L334.79 402.044L336.947 404.423L335.321 405.09L333.138 402.694L330.289 402.353L331.003 401.996L331.915 401.684Z" fill="#4F1F26"/>
<path fill-rule="evenodd" clip-rule="evenodd" d="M334.422 401.002L337.261 401.67L339.277 404.197L337.805 404.409L335.888 401.79L332.952 401.214L333.761 401.048L334.422 401.002Z" fill="#4F1F26"/>
<path fill-rule="evenodd" clip-rule="evenodd" d="M339.612 404.068L342.941 406.065L342.062 407.474L339.612 406.034V404.068Z" fill="#481018"/>
<path fill-rule="evenodd" clip-rule="evenodd" d="M340.278 405.771L343.607 407.77L342.728 409.178L340.278 407.738V405.771Z" fill="#481018"/>
<path fill-rule="evenodd" clip-rule="evenodd" d="M340.61 408.496L343.939 410.495L343.062 411.903L340.61 410.463V408.496Z" fill="#481018"/>
<path fill-rule="evenodd" clip-rule="evenodd" d="M340.61 410.881L343.939 412.878L343.061 414.287L340.61 412.849V410.881Z" fill="#481018"/>
<path fill-rule="evenodd" clip-rule="evenodd" d="M339.612 414.287L342.941 416.287L342.064 417.694L339.612 416.255V414.287Z" fill="#481018"/>
<path fill-rule="evenodd" clip-rule="evenodd" d="M326.387 422.899C326.327 422.44 326.293 421.956 326.293 421.443L326.302 421.098L326.618 420.844C326.624 420.64 326.635 420.435 326.65 420.231L326.344 420.294C326.402 419.636 326.507 418.967 326.654 418.291L326.974 418.129C327.023 417.911 327.074 417.696 327.132 417.479L326.861 417.438C327.049 416.743 327.279 416.045 327.548 415.355L327.853 415.292C327.939 415.077 328.03 414.864 328.122 414.649L327.902 414.505C328.207 413.814 328.549 413.135 328.927 412.474L329.198 412.515C329.315 412.313 329.435 412.116 329.556 411.918L329.401 411.681C329.804 411.036 330.237 410.415 330.698 409.824L330.918 409.97L331.343 409.45L331.264 409.133C331.737 408.577 332.235 408.056 332.753 407.574L332.907 407.813L333.374 407.4L333.372 407.024C333.889 406.592 334.42 406.201 334.964 405.86L335.043 406.177L335.282 406.029L335.521 405.895L335.602 405.484C336.145 405.186 336.676 404.952 337.192 404.78L337.19 405.156L337.658 405.021L337.811 404.6C338.33 404.474 338.827 404.411 339.303 404.409L339.222 404.819L339.647 404.841L339.867 404.437C340.328 404.487 340.761 404.598 341.164 404.769L341.008 405.189L341.367 405.367L341.638 405.002C342.016 405.221 342.357 405.501 342.662 405.834L342.442 406.233L342.711 406.561L343.017 406.266C343.285 406.64 343.516 407.063 343.704 407.539L343.435 407.899L343.591 408.364L343.911 408.151C344.058 408.653 344.163 409.198 344.22 409.792L343.915 410.087L343.949 410.658L344.263 410.543L344.271 410.878C344.271 411.392 344.237 411.916 344.178 412.444L343.857 412.655C343.832 412.87 343.8 413.087 343.764 413.304L344.056 413.291C343.939 413.969 343.781 414.651 343.578 415.333L343.262 415.448C343.194 415.678 343.119 415.906 343.04 416.134L343.288 416.228C343.049 416.919 342.767 417.607 342.451 418.283L342.159 418.291C342.052 418.52 341.939 418.745 341.824 418.969L342.014 419.16C341.664 419.825 341.281 420.475 340.87 421.1L340.622 421.005C340.481 421.215 340.338 421.424 340.191 421.63L340.31 421.91C339.877 422.506 339.416 423.075 338.934 423.609L338.746 423.416L338.245 423.946L338.285 424.293C337.796 424.782 337.286 425.236 336.763 425.644L336.646 425.366L336.108 425.76L336.068 426.155C335.809 426.333 335.547 426.502 335.282 426.659C335.018 426.815 334.755 426.952 334.497 427.078L334.456 426.731L333.919 426.967L333.801 427.384C333.278 427.591 332.768 427.736 332.28 427.821L332.32 427.426L331.819 427.487L331.631 427.899C331.148 427.932 330.687 427.906 330.254 427.819L330.374 427.397L329.943 427.28L329.697 427.665C329.283 427.523 328.901 427.326 328.551 427.072L328.741 426.655L328.406 426.374L328.116 426.707C327.798 426.403 327.518 426.044 327.277 425.636L327.525 425.251L327.303 424.828L326.987 425.084C326.786 424.639 326.626 424.143 326.511 423.603L326.801 423.272L326.707 422.734L326.387 422.899Z" fill="#67383F"/>
<path fill-rule="evenodd" clip-rule="evenodd" d="M327.294 420.889C327.294 426.265 330.946 428.431 335.451 425.726C339.955 423.021 343.607 416.469 343.607 411.094C343.607 405.716 339.955 403.55 335.451 406.255C330.946 408.96 327.294 415.512 327.294 420.889Z" fill="#5C2930"/>
<path fill-rule="evenodd" clip-rule="evenodd" d="M328.958 419.911C328.958 424.027 331.791 425.686 335.284 423.615C338.778 421.543 341.609 416.527 341.609 412.411C341.609 408.295 338.778 406.636 335.284 408.707C331.791 410.778 328.958 415.795 328.958 419.911Z" fill="#67383F"/>
<path fill-rule="evenodd" clip-rule="evenodd" d="M329.625 419.451C329.625 423.065 332.085 424.52 335.118 422.701C338.153 420.884 340.611 416.482 340.611 412.87C340.611 409.257 338.153 407.802 335.118 409.621C332.085 411.437 329.625 415.84 329.625 419.451Z" fill="#10F5BB"/>
<path fill-rule="evenodd" clip-rule="evenodd" d="M329.955 418.993V419.049C329.955 422.414 332.194 423.77 334.949 422.069C337.705 420.382 339.943 416.293 339.943 412.928C339.943 409.571 337.705 408.215 334.949 409.905L334.758 410.033C334.323 410.314 333.896 410.668 333.502 411.066C333.177 411.377 332.863 411.733 332.559 412.109C332.215 412.552 331.901 413.014 331.607 413.509C331.434 413.821 331.263 414.144 331.09 414.476V414.487C330.836 415.024 330.613 415.583 330.443 416.154C330.291 416.616 330.168 417.08 330.097 417.543C330.005 418.036 329.955 418.52 329.955 418.993Z" fill="#18D1B6"/>
<path fill-rule="evenodd" clip-rule="evenodd" d="M333.859 421.472C336.73 419.815 339.057 415.806 339.057 412.516C339.057 411.154 338.653 410.133 337.983 409.518C339.367 409.791 340.275 411.08 340.275 413.138C340.275 416.428 337.949 420.437 335.078 422.094C333.395 423.064 331.903 423.003 330.953 422.13C331.782 422.293 332.783 422.091 333.859 421.472Z" fill="#12A882"/>
<path fill-rule="evenodd" clip-rule="evenodd" d="M331.953 416.04C331.953 417.217 332.773 417.69 333.784 417.098C334.797 416.507 335.615 415.074 335.615 413.897C335.615 412.72 334.797 412.247 333.784 412.839C332.773 413.43 331.953 414.863 331.953 416.04Z" fill="#481018"/>
<path fill-rule="evenodd" clip-rule="evenodd" d="M332.62 416.227C332.62 417.235 333.366 417.643 334.285 417.133C335.203 416.626 335.949 415.398 335.949 414.39C335.949 413.382 335.203 412.977 334.285 413.484C333.366 413.991 332.62 415.22 332.62 416.227Z" fill="#12A882"/>
<path fill-rule="evenodd" clip-rule="evenodd" d="M332.952 416.416C332.952 417.255 333.548 417.594 334.285 417.17C335.019 416.748 335.615 415.724 335.615 414.885C335.615 414.044 335.019 413.706 334.285 414.128C333.548 414.55 332.952 415.574 332.952 416.416Z" fill="#10F5BB"/>
<path fill-rule="evenodd" clip-rule="evenodd" d="M336.054 411.48C336.054 411.952 336.38 412.141 336.781 411.905C337.182 411.666 337.506 411.094 337.506 410.622C337.506 410.152 337.182 409.961 336.781 410.197C336.38 410.436 336.054 411.01 336.054 411.48Z" fill="#12A882"/>
<path fill-rule="evenodd" clip-rule="evenodd" d="M336.72 413.183C336.72 413.653 337.044 413.844 337.447 413.608C337.848 413.369 338.172 412.797 338.172 412.325C338.172 411.855 337.848 411.664 337.447 411.903C337.044 412.139 336.72 412.713 336.72 413.183Z" fill="#12A882"/>
<path fill-rule="evenodd" clip-rule="evenodd" d="M336.387 415.908C336.387 416.38 336.713 416.569 337.114 416.332C337.515 416.094 337.841 415.522 337.841 415.05C337.841 414.58 337.515 414.389 337.114 414.628C336.713 414.864 336.387 415.438 336.387 415.908Z" fill="#12A882"/>
<path fill-rule="evenodd" clip-rule="evenodd" d="M336.549 416.155C336.549 416.519 336.803 416.667 337.115 416.484C337.427 416.3 337.679 415.854 337.679 415.487C337.679 415.12 337.427 414.972 337.115 415.158C336.803 415.342 336.549 415.787 336.549 416.155Z" fill="#10C899"/>
<path fill-rule="evenodd" clip-rule="evenodd" d="M336.688 416.072C336.688 416.348 336.879 416.46 337.114 416.32C337.349 416.181 337.541 415.845 337.541 415.569C337.541 415.292 337.349 415.18 337.114 415.321C336.879 415.459 336.688 415.795 336.688 416.072Z" fill="#10F5BB"/>
<path fill-rule="evenodd" clip-rule="evenodd" d="M336.881 413.087C336.881 413.455 337.135 413.602 337.447 413.417C337.757 413.233 338.011 412.787 338.011 412.42C338.011 412.055 337.757 411.907 337.447 412.091C337.135 412.274 336.881 412.723 336.881 413.087Z" fill="#10C899"/>
<path fill-rule="evenodd" clip-rule="evenodd" d="M337.02 413.348C337.02 413.622 337.211 413.734 337.446 413.596C337.681 413.458 337.873 413.119 337.873 412.842C337.873 412.566 337.681 412.456 337.446 412.594C337.211 412.733 337.02 413.071 337.02 413.348Z" fill="#10F5BB"/>
<path fill-rule="evenodd" clip-rule="evenodd" d="M336.215 411.384C336.215 411.751 336.469 411.899 336.781 411.715C337.094 411.529 337.345 411.083 337.345 410.716C337.345 410.351 337.094 410.204 336.781 410.387C336.469 410.573 336.215 411.019 336.215 411.384Z" fill="#10C899"/>
<path fill-rule="evenodd" clip-rule="evenodd" d="M336.354 411.304C336.354 411.58 336.545 411.69 336.78 411.552C337.015 411.413 337.207 411.077 337.207 410.801C337.207 410.524 337.015 410.412 336.78 410.55C336.545 410.691 336.354 411.027 336.354 411.304Z" fill="#10F5BB"/>
<path fill-rule="evenodd" clip-rule="evenodd" d="M334.724 418.293C334.724 418.765 335.048 418.953 335.449 418.717C335.85 418.481 336.176 417.906 336.176 417.434C336.176 416.964 335.85 416.774 335.449 417.012C335.048 417.248 334.724 417.823 334.724 418.293Z" fill="#12A882"/>
<path fill-rule="evenodd" clip-rule="evenodd" d="M333.057 419.996C333.057 420.468 333.383 420.656 333.784 420.42C334.185 420.182 334.511 419.609 334.511 419.137C334.511 418.668 334.185 418.477 333.784 418.715C333.383 418.951 333.057 419.526 333.057 419.996Z" fill="#12A882"/>
<path fill-rule="evenodd" clip-rule="evenodd" d="M330.728 420.335C330.728 420.807 331.052 420.998 331.453 420.76C331.854 420.524 332.18 419.949 332.18 419.479C332.18 419.007 331.854 418.819 331.453 419.055C331.052 419.291 330.728 419.865 330.728 420.335Z" fill="#12A882"/>
<path fill-rule="evenodd" clip-rule="evenodd" d="M330.256 418.848L330.687 418.764C331.083 418.526 331.414 417.956 331.414 417.477C331.414 417.019 331.083 416.816 330.687 417.064L330.416 417.283L330.372 417.55C330.3 417.927 330.265 418.287 330.265 418.645L330.256 418.848Z" fill="#12A882"/>
<path fill-rule="evenodd" clip-rule="evenodd" d="M334.885 418.198C334.885 418.565 335.139 418.713 335.449 418.527C335.763 418.343 336.015 417.897 336.015 417.53C336.015 417.163 335.763 417.015 335.449 417.201C335.139 417.385 334.885 417.831 334.885 418.198Z" fill="#10C899"/>
<path fill-rule="evenodd" clip-rule="evenodd" d="M335.023 418.456C335.023 418.732 335.215 418.844 335.45 418.706C335.685 418.565 335.876 418.229 335.876 417.953C335.876 417.676 335.685 417.564 335.45 417.705C335.215 417.843 335.023 418.179 335.023 418.456Z" fill="#10F5BB"/>
<path fill-rule="evenodd" clip-rule="evenodd" d="M333.219 420.242C333.219 420.607 333.47 420.755 333.783 420.571C334.095 420.388 334.349 419.939 334.349 419.575C334.349 419.207 334.095 419.06 333.783 419.246C333.47 419.429 333.219 419.875 333.219 420.242Z" fill="#10C899"/>
<path fill-rule="evenodd" clip-rule="evenodd" d="M333.357 420.16C333.357 420.436 333.549 420.548 333.784 420.408C334.022 420.269 334.21 419.933 334.21 419.657C334.21 419.38 334.022 419.268 333.784 419.406C333.549 419.547 333.357 419.883 333.357 420.16Z" fill="#10F5BB"/>
<path fill-rule="evenodd" clip-rule="evenodd" d="M330.889 420.24C330.889 420.608 331.14 420.755 331.453 420.572C331.765 420.386 332.019 419.94 332.019 419.573C332.019 419.208 331.765 419.06 331.453 419.244C331.14 419.427 330.889 419.876 330.889 420.24Z" fill="#10C899"/>
<path fill-rule="evenodd" clip-rule="evenodd" d="M331.027 420.161C331.027 420.437 331.218 420.547 331.454 420.408C331.689 420.27 331.88 419.932 331.88 419.655C331.88 419.378 331.689 419.269 331.454 419.407C331.218 419.545 331.027 419.884 331.027 420.161Z" fill="#10F5BB"/>
<path fill-rule="evenodd" clip-rule="evenodd" d="M330.607 416.096C331.013 415.857 331.395 415.407 331.395 414.93L331.148 414.386L331.022 414.644L330.931 414.853C330.771 415.214 330.626 415.571 330.51 415.948L330.475 416.041L330.428 416.179L330.607 416.096Z" fill="#12A882"/>
<path fill-rule="evenodd" clip-rule="evenodd" d="M331.576 413.509L331.937 413.416C332.34 413.168 332.664 412.608 332.664 412.128L332.638 412L332.485 412.202L332.394 412.322C332.161 412.627 331.946 412.93 331.748 413.252L331.667 413.371L331.576 413.509Z" fill="#12A882"/>
<path fill-rule="evenodd" clip-rule="evenodd" d="M333.394 411.378C333.42 411.79 333.735 411.967 334.112 411.735C334.518 411.497 334.842 410.918 334.842 410.457L334.804 410.264L334.625 410.383L334.464 410.496C334.247 410.641 334.033 410.808 333.825 410.991L333.564 411.22L333.394 411.378Z" fill="#12A882"/>
<path fill-rule="evenodd" clip-rule="evenodd" d="M333.556 411.301C333.556 411.669 333.808 411.817 334.123 411.633C334.428 411.449 334.68 410.999 334.68 410.631L334.626 410.391L334.465 410.503C334.248 410.648 334.034 410.815 333.827 410.999L333.566 411.228L333.556 411.301Z" fill="#10C899"/>
<path fill-rule="evenodd" clip-rule="evenodd" d="M334.202 411.171C334.202 411.448 334.391 411.557 334.624 411.419C334.859 411.283 335.057 410.952 335.057 410.675L334.913 410.382C334.696 410.527 334.482 410.694 334.274 410.878L334.202 411.171Z" fill="#10F5BB"/>
<path fill-rule="evenodd" clip-rule="evenodd" d="M331.706 413.339L331.967 413.255C332.282 413.072 332.534 412.621 332.534 412.254L332.524 412.17L332.433 412.289C332.2 412.595 331.986 412.897 331.788 413.219L331.706 413.339Z" fill="#10C899"/>
<path fill-rule="evenodd" clip-rule="evenodd" d="M331.788 413.219L332.03 413.174C332.263 413.036 332.452 412.695 332.452 412.418L332.433 412.289C332.2 412.595 331.986 412.897 331.788 413.219Z" fill="#10F5BB"/>
<path fill-rule="evenodd" clip-rule="evenodd" d="M330.493 416.277L330.61 416.222C330.924 416.039 331.176 415.588 331.176 415.218L331.041 414.88L330.95 415.09C330.789 415.45 330.645 415.807 330.528 416.184L330.493 416.277Z" fill="#10C899"/>
<path fill-rule="evenodd" clip-rule="evenodd" d="M330.669 416.2C330.902 416.062 331.091 415.731 331.091 415.457L330.947 415.161C330.786 415.521 330.641 415.879 330.525 416.255L330.669 416.2Z" fill="#10F5BB"/>
<path fill-rule="evenodd" clip-rule="evenodd" d="M330.355 418.627L330.749 418.591C331.063 418.405 331.315 417.957 331.315 417.587C331.315 417.22 331.063 417.072 330.749 417.258L330.462 417.532C330.39 417.909 330.355 418.269 330.355 418.627Z" fill="#10C899"/>
<path fill-rule="evenodd" clip-rule="evenodd" d="M330.408 418.154C330.408 418.431 330.599 418.543 330.835 418.402C331.07 418.264 331.261 417.927 331.261 417.651C331.261 417.374 331.07 417.262 330.835 417.403C330.599 417.541 330.408 417.877 330.408 418.154Z" fill="#10F5BB"/>
<path fill-rule="evenodd" clip-rule="evenodd" d="M361.252 376.721L359.465 371.631L350.535 366.939L340.358 374.365L334.128 390.38L333.619 400.739L338.129 403.387L349.075 397.383L359.619 383.917L361.252 376.721Z" fill="#6B6A78"/>
<path fill-rule="evenodd" clip-rule="evenodd" d="M365.58 379.497L363.794 374.38L354.863 369.664L344.688 377.131L338.458 393.228L337.947 403.641L342.562 404.749L353.402 400.269L363.946 386.731L365.58 379.497Z" fill="#4C4C59"/>
<path fill-rule="evenodd" clip-rule="evenodd" d="M353.56 359.679L329.623 386.331V389.99L336.76 387.926L338.086 403.64L342.706 404.749L353.56 400.268L364.116 386.727L365.752 379.492L369.914 375.47V384.877L421.059 367.095L422.844 350.713L411.395 339.347L353.56 359.679Z" fill="#380009"/>
<path fill-rule="evenodd" clip-rule="evenodd" d="M380.609 428.935L337.947 403.668L352.626 381.245L395.877 394.844L380.609 428.935Z" fill="#380009"/>
<path fill-rule="evenodd" clip-rule="evenodd" d="M327.291 391.464L370.572 416.896V421.441L327.291 396.009V391.464Z" fill="#888383"/>
<path fill-rule="evenodd" clip-rule="evenodd" d="M373.57 414.969L370.241 416.822V421.441L373.57 419.587V414.969Z" fill="#6E6868"/>
<path fill-rule="evenodd" clip-rule="evenodd" d="M330.39 389.421L327.293 391.244L370.473 416.672L373.57 414.848L330.39 389.421Z" fill="#9398A1"/>
<path fill-rule="evenodd" clip-rule="evenodd" d="M366.14 415.65L369.242 417.507V419.737L365.247 416.171L366.14 415.65Z" fill="#A5253B"/>
<path fill-rule="evenodd" clip-rule="evenodd" d="M365.247 415.99L368.576 417.846V420.078L365.247 418.222V415.99Z" fill="#E25069"/>
<path fill-rule="evenodd" clip-rule="evenodd" d="M368.249 417.592L369.233 417.012V419.496L368.249 420.078V417.592Z" fill="#B83C51"/>
<path fill-rule="evenodd" clip-rule="evenodd" d="M332.287 395.364V397.596L327.959 394.19L329.187 393.508L332.287 395.364Z" fill="#A5253B"/>
<path fill-rule="evenodd" clip-rule="evenodd" d="M331.289 396.046V398.277L328.006 396.292L327.96 394.19L331.289 396.046Z" fill="#E25069"/>
<path fill-rule="evenodd" clip-rule="evenodd" d="M332.287 395.364L332.279 397.596L331.296 398.277L331.288 396.046L332.287 395.364Z" fill="#B83C51"/>
<path fill-rule="evenodd" clip-rule="evenodd" d="M333.353 395.552L334.949 400.321L331.953 398.62L333.353 395.552Z" fill="#E25069"/>
<path fill-rule="evenodd" clip-rule="evenodd" d="M333.359 395.496L333.884 395.212L335.541 400.039L335.016 400.321L333.359 395.496Z" fill="#B83C51"/>
<path fill-rule="evenodd" clip-rule="evenodd" d="M362.32 412.584L363.916 417.353L360.92 415.652L362.32 412.584Z" fill="#E25069"/>
<path fill-rule="evenodd" clip-rule="evenodd" d="M362.326 412.527L362.85 412.243L364.507 417.071L363.983 417.353L362.326 412.527Z" fill="#B83C51"/>
<path fill-rule="evenodd" clip-rule="evenodd" d="M372.179 415.309L329.29 389.956V386.273L353.319 359.444L396.209 384.798L372.179 411.626V415.309Z" fill="#4C1A21"/>
<path fill-rule="evenodd" clip-rule="evenodd" d="M401.204 268.39L413.695 261L456.471 286.31L443.98 293.701L401.204 268.39Z" fill="white"/>
<path fill-rule="evenodd" clip-rule="evenodd" d="M401.312 268.494L352.681 297.105L336.263 320.295L330.622 376.819L373.465 402.024L444.152 293.699L401.312 268.494Z" fill="#14EB7A"/>
<path fill-rule="evenodd" clip-rule="evenodd" d="M352.7 297.108L395.543 322.302L379.124 345.478L336.281 320.287L352.7 297.108Z" fill="#14F07D"/>
<path fill-rule="evenodd" clip-rule="evenodd" d="M371.212 363.362L364.247 376.243V385.674L415.399 367.848L417.184 351.425L405.735 340.028L371.212 363.362Z" fill="#64D6E5"/>
<path fill-rule="evenodd" clip-rule="evenodd" d="M411.857 359.679C411.857 370.265 404.553 383.162 395.545 388.488C386.535 393.816 379.23 389.553 379.23 378.965C379.23 368.38 386.535 355.482 395.545 350.157C404.553 344.831 411.857 349.094 411.857 359.679Z" fill="#64D6E5"/>
<path fill-rule="evenodd" clip-rule="evenodd" d="M396.509 385.117L372.572 411.835V415.503L379.709 413.433L381.035 429.186L385.655 430.297L396.509 425.803L407.065 412.231L408.699 404.979L412.863 400.947V410.377L464.009 392.552L465.793 376.13L457.336 359.104L396.509 385.117Z" fill="#380009"/>
<path fill-rule="evenodd" clip-rule="evenodd" d="M468.958 353.303L473.451 346.432V337.984L451.675 347.861L452.144 367.444L468.958 353.303Z" fill="#2D3230"/>
<path fill-rule="evenodd" clip-rule="evenodd" d="M443.819 293.894L456.347 286.548L471.258 298.064L473.764 306.812L476.113 334.535L470.798 342.311L451.294 356.719L443.819 293.894Z" fill="#C4D5CC"/>
<path fill-rule="evenodd" clip-rule="evenodd" d="M411.495 387.284L404.533 400.209V409.671L407.148 411.221L457.469 375.308L446.018 363.873L411.495 387.284Z" fill="#240007"/>
<path fill-rule="evenodd" clip-rule="evenodd" d="M413.825 388.569L406.863 401.45V410.881L458.014 393.055L459.799 376.632L448.348 365.235L413.825 388.569Z" fill="#380009"/>
<path fill-rule="evenodd" clip-rule="evenodd" d="M466.729 382.852L466.16 382.491C466.23 382.69 466.3 382.887 466.362 383.095L466.729 382.852ZM467.593 387.113C467.597 387.317 467.606 387.52 467.606 387.73C467.606 388.675 467.546 389.64 467.435 390.616L466.851 391.003C466.805 391.401 466.745 391.799 466.679 392.2L467.212 392.178C466.998 393.425 466.709 394.685 466.34 395.943L465.762 396.153C465.637 396.575 465.5 396.995 465.357 397.418L465.811 397.588C465.37 398.864 464.859 400.13 464.279 401.375L463.746 401.395C463.55 401.813 463.343 402.228 463.132 402.64L463.48 402.996C462.843 404.221 462.141 405.416 461.389 406.569L460.937 406.394C460.679 406.783 460.419 407.168 460.149 407.545L460.368 408.063C459.576 409.161 458.734 410.207 457.851 411.191L457.508 410.837C457.208 411.17 456.903 411.498 456.592 411.813L456.666 412.454C455.771 413.357 454.842 414.193 453.885 414.946L453.67 414.431C453.346 414.685 453.018 414.926 452.687 415.16L452.615 415.886C452.142 416.214 451.665 416.529 451.179 416.816C450.695 417.103 450.217 417.356 449.742 417.588L449.67 416.947C449.339 417.107 449.013 417.254 448.689 417.385L448.474 418.153C447.784 418.428 447.106 418.641 446.447 418.798L449.152 421.806L447.914 422.463L445.132 420.944L444.802 421.084L435.374 417.006C434.922 416.792 432.367 413.773 431.964 413.475L432.036 413.32L431.165 412.804C430.587 412.246 430.073 411.585 429.634 410.83L429.96 410.319L429.106 409.813C428.735 408.993 428.445 408.078 428.234 407.083L428.765 406.475L428.718 406.203L428.01 405.783C427.897 404.941 427.838 404.049 427.838 403.103C427.838 402.893 427.846 402.679 427.851 402.469L428.428 401.999C428.437 401.769 428.452 401.535 428.466 401.305L427.932 400.988C428.036 399.774 428.228 398.538 428.496 397.295L429.08 396.993C429.155 396.658 429.236 396.324 429.323 395.987L428.874 395.72C429.217 394.438 429.639 393.154 430.131 391.883L430.689 391.767C430.845 391.371 431.009 390.975 431.179 390.581L430.779 390.316C431.337 389.043 431.96 387.789 432.648 386.571L433.147 386.65C433.36 386.278 433.577 385.91 433.801 385.547L433.517 385.109C434.253 383.924 435.045 382.777 435.887 381.69L436.305 381.937C436.554 381.62 436.808 381.305 437.066 380.999L436.919 380.415C437.786 379.391 438.696 378.426 439.642 377.54L440.107 377.818C440.329 377.614 440.552 377.413 440.776 377.221V376.527C441.716 375.731 442.688 375.011 443.681 374.381L444.237 374.711L444.265 374.694L444.702 374.446L444.847 373.69C445.842 373.14 446.812 372.709 447.754 372.392L448.538 372.856L448.604 372.836L448.888 372.06C449.834 371.826 450.744 371.71 451.611 371.707L452.643 371.76C453.485 371.85 458.126 374.339 458.862 374.654L459.686 375.142L459.731 375.083L468.718 380.41L470.453 385.212L467.028 383.04C467.25 383.876 467.42 384.762 467.512 385.726L466.954 386.269C466.984 386.612 467.003 386.967 467.016 387.326L467.593 387.113Z" fill="#481018"/>
<path fill-rule="evenodd" clip-rule="evenodd" d="M455.146 372.317L460.037 375.598L468.123 379.542L465.736 378.933L457.805 375.452L452.808 371.367L455.146 372.317Z" fill="#4F1F26"/>
<path fill-rule="evenodd" clip-rule="evenodd" d="M432.738 386.355L436.891 392.472L445.816 393.886L443.91 397.596L434.935 396.152L430.834 390.062L431.744 388.174L432.738 386.355Z" fill="#4F1F26"/>
<path fill-rule="evenodd" clip-rule="evenodd" d="M430.115 391.805L434.929 397.891L443.154 399.276L441.875 403.046L433.6 401.631L428.838 395.573L429.36 393.861L430.115 391.805Z" fill="#4F1F26"/>
<path fill-rule="evenodd" clip-rule="evenodd" d="M428.413 397.255L432.968 403.385L441.488 404.826L440.913 408.496L432.343 407.028L427.838 400.928L428.014 399.288L428.413 397.255Z" fill="#4F1F26"/>
<path fill-rule="evenodd" clip-rule="evenodd" d="M427.851 402.365L432.156 408.384L440.665 409.958L440.822 413.265L432.265 411.663L428.01 405.672L427.838 404.236L427.851 402.365Z" fill="#4F1F26"/>
<path fill-rule="evenodd" clip-rule="evenodd" d="M428.171 406.793L432.03 412.08L441.265 414.314L442.154 417.012L432.673 414.242L429.06 409.492L428.569 408.376L428.171 406.793Z" fill="#4F1F26"/>
<path fill-rule="evenodd" clip-rule="evenodd" d="M429.503 410.54L433.842 414.902L442.59 418.384L444.152 420.419L435.355 416.907L431.063 412.575L430.231 411.718L429.503 410.54Z" fill="#4F1F26"/>
<path fill-rule="evenodd" clip-rule="evenodd" d="M435.884 381.586L439.988 387.695L448.812 389.107L446.426 392.486L437.552 391.046L433.498 384.966L434.687 383.188L435.884 381.586Z" fill="#4F1F26"/>
<path fill-rule="evenodd" clip-rule="evenodd" d="M439.9 377.498L443.998 383.523L452.809 384.915L450.07 387.717L441.209 386.297L437.161 380.3L438.395 378.904L439.9 377.498Z" fill="#4F1F26"/>
<path fill-rule="evenodd" clip-rule="evenodd" d="M443.771 374.092L447.91 380.35L456.803 381.797L453.854 383.97L444.909 382.495L440.822 376.265L442.081 375.22L443.771 374.092Z" fill="#4F1F26"/>
<path fill-rule="evenodd" clip-rule="evenodd" d="M447.767 372.048L451.488 377.364L460.797 379.906L457.848 381.245L448.49 378.674L444.816 373.388L446.112 372.674L447.767 372.048Z" fill="#4F1F26"/>
<path fill-rule="evenodd" clip-rule="evenodd" d="M451.884 371.367L455.892 375.64L464.793 379.18L462.054 379.542L453.365 376.642L449.145 371.729L450.652 371.445L451.884 371.367Z" fill="#4F1F26"/>
<path fill-rule="evenodd" clip-rule="evenodd" d="M465.792 379.202L471.785 382.49L470.202 384.992L465.792 382.432V379.202Z" fill="#481018"/>
<path fill-rule="evenodd" clip-rule="evenodd" d="M467.124 382.608L473.117 386.006L471.536 388.399L467.124 385.951V382.608Z" fill="#481018"/>
<path fill-rule="evenodd" clip-rule="evenodd" d="M467.79 387.036L473.783 390.432L472.202 392.827L467.79 390.379V387.036Z" fill="#481018"/>
<path fill-rule="evenodd" clip-rule="evenodd" d="M467.458 391.805L473.451 395.203L471.87 397.596L467.458 395.148V391.805Z" fill="#481018"/>
<path fill-rule="evenodd" clip-rule="evenodd" d="M465.792 397.596L471.785 400.992L470.204 403.387L465.792 400.939V397.596Z" fill="#481018"/>
<path fill-rule="evenodd" clip-rule="evenodd" d="M440.996 413.231C440.885 412.39 440.823 411.499 440.823 410.555C440.823 410.345 440.831 410.131 440.838 409.921L441.415 409.452C441.428 409.078 441.447 408.702 441.477 408.324L440.917 408.442C441.022 407.23 441.214 405.995 441.484 404.757L442.072 404.453C442.159 404.055 442.253 403.658 442.358 403.258L441.862 403.184C442.206 401.901 442.63 400.619 443.126 399.349L443.684 399.234C443.84 398.838 444.006 398.443 444.178 398.049L443.773 397.787C444.334 396.514 444.96 395.262 445.651 394.045L446.149 394.123C446.363 393.752 446.581 393.385 446.805 393.022L446.521 392.585C447.261 391.401 448.054 390.256 448.898 389.171L449.302 389.439C449.557 389.114 449.818 388.793 450.081 388.48L449.933 387.897C450.803 386.874 451.716 385.913 452.666 385.026L452.948 385.467C453.23 385.205 453.517 384.952 453.805 384.707L453.803 384.015C454.748 383.219 455.721 382.5 456.717 381.871L456.865 382.457L457.303 382.184L457.743 381.937L457.889 381.181C458.885 380.635 459.86 380.202 460.803 379.885V380.578C461.092 380.484 461.376 380.401 461.658 380.329L461.94 379.553C462.89 379.319 463.803 379.204 464.673 379.202L464.525 379.96C464.788 379.962 465.049 379.973 465.304 379.997L465.708 379.254C466.552 379.344 467.348 379.551 468.085 379.866L467.801 380.637C468.025 380.735 468.243 380.842 468.457 380.962L468.958 380.294C469.646 380.696 470.273 381.211 470.833 381.823L470.431 382.562C470.602 382.752 470.766 382.953 470.922 383.165L471.483 382.621C471.977 383.307 472.4 384.087 472.744 384.963L472.248 385.625C472.353 385.9 472.447 386.186 472.537 386.481L473.123 386.09C473.392 387.012 473.584 388.019 473.689 389.107L473.129 389.651C473.159 389.994 473.178 390.346 473.191 390.706L473.768 390.492C473.775 390.698 473.783 390.901 473.783 391.111C473.783 392.054 473.721 393.018 473.61 393.99L473.026 394.377C472.977 394.774 472.919 395.174 472.853 395.574L473.386 395.552C473.174 396.798 472.881 398.054 472.511 399.31L471.934 399.52C471.808 399.941 471.671 400.363 471.528 400.783L471.981 400.953C471.54 402.227 471.027 403.494 470.444 404.737L469.911 404.754C469.712 405.174 469.507 405.587 469.295 406L469.644 406.354C469.003 407.577 468.301 408.772 467.546 409.921L467.093 409.749C466.835 410.136 466.572 410.52 466.302 410.896L466.52 411.414C465.727 412.51 464.882 413.557 463.997 414.54L463.653 414.184C463.352 414.516 463.046 414.844 462.734 415.16L462.809 415.798C461.911 416.701 460.978 417.535 460.016 418.289L459.802 417.776C459.477 418.027 459.148 418.269 458.817 418.501L458.744 419.226C458.269 419.556 457.788 419.869 457.303 420.155C456.818 420.441 456.337 420.694 455.862 420.928L455.789 420.286C455.458 420.445 455.129 420.592 454.804 420.723L454.59 421.49C453.628 421.872 452.696 422.139 451.798 422.294L451.872 421.568C451.562 421.619 451.257 421.654 450.955 421.675L450.609 422.438C449.726 422.497 448.879 422.451 448.086 422.289L448.304 421.516C448.035 421.457 447.772 421.383 447.515 421.297L447.062 422.008C446.305 421.748 445.604 421.383 444.964 420.913L445.313 420.148C445.099 419.987 444.894 419.816 444.695 419.631L444.163 420.242C443.581 419.685 443.068 419.025 442.625 418.272L443.081 417.564C442.937 417.315 442.798 417.055 442.672 416.784L442.095 417.256C441.725 416.436 441.432 415.523 441.221 414.529L441.753 413.922C441.689 413.598 441.629 413.268 441.58 412.93L440.996 413.231Z" fill="#67383F"/>
<path fill-rule="evenodd" clip-rule="evenodd" d="M442.488 409.786C442.488 419.616 449.27 423.575 457.636 418.629C466.003 413.684 472.785 401.707 472.785 391.878C472.785 382.048 466.003 378.089 457.636 383.035C449.27 387.98 442.488 399.957 442.488 409.786Z" fill="#5C2930"/>
<path fill-rule="evenodd" clip-rule="evenodd" d="M446.15 407.89C446.15 415.453 451.366 418.496 457.801 414.692C464.239 410.888 469.455 401.676 469.455 394.114C469.455 386.554 464.239 383.508 457.801 387.312C451.366 391.116 446.15 400.33 446.15 407.89Z" fill="#67383F"/>
<path fill-rule="evenodd" clip-rule="evenodd" d="M447.148 406.878C447.148 413.515 451.694 416.188 457.303 412.849C462.911 409.509 467.457 401.423 467.457 394.786C467.457 388.149 462.911 385.476 457.303 388.815C451.694 392.155 447.148 400.241 447.148 406.878Z" fill="#80F9DB"/>
<path fill-rule="evenodd" clip-rule="evenodd" d="M457.134 411.614C451.987 414.657 447.813 412.221 447.813 406.171C447.813 400.124 451.987 392.754 457.134 389.709C462.283 386.667 466.457 389.102 466.457 395.152C466.457 401.199 462.283 408.57 457.134 411.614Z" fill="#12A882"/>
<path fill-rule="evenodd" clip-rule="evenodd" d="M465.5 395.487C465.5 389.854 461.61 387.584 456.816 390.419C452.022 393.253 448.133 400.117 448.133 405.753C448.133 411.384 452.022 413.656 456.816 410.819C461.61 407.985 465.5 401.121 465.5 395.487ZM466.457 395.152C466.457 401.199 462.283 408.57 457.134 411.614C451.987 414.657 447.813 412.221 447.813 406.171C447.813 400.124 451.987 392.754 457.134 389.709C462.283 386.667 466.457 389.102 466.457 395.152Z" fill="#10F5BB"/>
<path fill-rule="evenodd" clip-rule="evenodd" d="M462.797 396.095C462.797 400.549 459.664 405.974 455.803 408.214C452.233 410.285 449.287 408.904 448.865 405.16C448.831 404.86 448.814 404.542 448.814 404.208C448.814 401.204 450.239 397.755 452.354 395.143C453.368 393.881 454.55 392.816 455.803 392.089C459.664 389.847 462.797 391.644 462.797 396.095Z" fill="#18D1B6"/>
<path fill-rule="evenodd" clip-rule="evenodd" d="M449.81 402.246L449.821 402.601C449.857 403.309 450.01 403.915 450.263 404.401L450.269 404.408C450.505 404.867 450.825 405.219 451.212 405.458L452.753 406.348C453.631 406.759 453.493 405.877 454.773 405.129C457.518 403.513 459.742 399.608 459.742 396.402C459.742 394.824 460.617 394.536 459.742 394.011L458.061 393.048L457.939 392.996C457.254 392.731 456.417 392.773 455.498 393.158C455.262 393.254 455.019 393.374 454.773 393.519C452.686 394.748 450.905 397.303 450.168 399.862C450.016 400.389 449.909 400.925 449.857 401.441C449.827 401.71 449.81 401.982 449.81 402.246Z" fill="#380009"/>
<path fill-rule="evenodd" clip-rule="evenodd" d="M451.478 403.233L451.488 403.586C451.524 404.292 451.672 404.895 451.918 405.379L451.924 405.386C452.688 406.907 454.359 407.27 456.302 406.105C458.973 404.494 461.133 400.604 461.133 397.41C461.133 395.686 460.503 394.518 459.501 394.069L459.38 394.017C458.714 393.753 457.901 393.795 457.007 394.178C456.778 394.274 456.544 394.394 456.302 394.538C454.274 395.762 452.544 398.308 451.828 400.857C451.678 401.382 451.576 401.914 451.524 402.431C451.494 402.699 451.478 402.969 451.478 403.233Z" fill="#543A3E"/>
<path fill-rule="evenodd" clip-rule="evenodd" d="M453.141 401.087C453.141 401.734 453.327 402.219 453.639 402.505C454.067 402.899 455.478 403.727 455.478 403.727L458.801 397.826C458.801 397.826 457.628 397.134 457.304 396.85C456.873 396.478 456.219 396.467 455.483 396.907C454.188 397.679 453.141 399.551 453.141 401.087Z" fill="#380009"/>
<path fill-rule="evenodd" clip-rule="evenodd" d="M454.806 402.38C454.806 403.892 455.848 404.501 457.136 403.741C458.422 402.98 459.467 401.138 459.467 399.625C459.467 398.113 458.422 397.504 457.136 398.264C455.848 399.027 454.806 400.869 454.806 402.38Z" fill="#63474B"/>
<path fill-rule="evenodd" clip-rule="evenodd" d="M456.136 401.31C456.136 401.599 456.217 401.815 456.356 401.942L457.003 402.365L458.467 399.736L457.969 399.422C457.78 399.256 457.492 399.252 457.166 399.447C456.597 399.793 456.136 400.625 456.136 401.31Z" fill="#380009"/>
<path fill-rule="evenodd" clip-rule="evenodd" d="M456.529 401.614C456.529 402.287 457.025 402.557 457.636 402.22C458.246 401.88 458.743 401.063 458.743 400.39C458.743 399.718 458.246 399.448 457.636 399.785C457.025 400.122 456.529 400.942 456.529 401.614Z" fill="#786266"/>
<path fill-rule="evenodd" clip-rule="evenodd" d="M408.195 404.653L406.411 399.563L397.48 394.871L387.304 402.298L381.073 418.313L380.562 428.672L385.074 431.319L396.019 425.315L406.563 411.85L408.195 404.653Z" fill="#291518"/>
<path fill-rule="evenodd" clip-rule="evenodd" d="M413.189 407.089L411.403 401.972L402.472 397.255L392.296 404.723L386.065 420.819L385.556 431.232L390.171 432.341L401.011 427.86L411.555 414.323L413.189 407.089Z" fill="#2C181B"/>
<path fill-rule="evenodd" clip-rule="evenodd" d="M452.143 367.444V312.871L444.254 293.361L395.628 322.061L379.211 345.321L373.571 402.024L401.416 396.478L452.143 367.444Z" fill="#12B961"/>
<path fill-rule="evenodd" clip-rule="evenodd" d="M373.237 402.024L401.186 396.489L402.029 361.153L402.255 352.232L402.535 340.249L395.378 322.315L378.894 345.5L377.863 355.751L377.059 363.911L373.237 402.024Z" fill="#16C669"/>
<path fill-rule="evenodd" clip-rule="evenodd" d="M375.009 446.307L372.386 444.765L360.919 426.256L366.549 418.95L399.912 407.474L402.535 409.017L370.528 423.915L367.4 427.609L375.009 446.307Z" fill="#423D3D"/>
<path fill-rule="evenodd" clip-rule="evenodd" d="M382.509 431.407L382.196 431.209L382.307 431.541L382.509 431.407ZM382.985 433.742L382.992 434.082C382.992 434.6 382.957 435.129 382.897 435.664L382.576 435.875C382.55 436.094 382.518 436.312 382.481 436.531L382.775 436.52C382.657 437.203 382.499 437.894 382.295 438.583L381.978 438.699C381.909 438.93 381.834 439.16 381.755 439.391L382.005 439.485C381.763 440.185 381.482 440.879 381.163 441.561L380.869 441.572C380.762 441.8 380.648 442.029 380.533 442.255L380.723 442.45C380.372 443.122 379.988 443.775 379.574 444.408L379.326 444.313C379.184 444.526 379.041 444.737 378.893 444.943L379.013 445.226C378.577 445.83 378.114 446.402 377.63 446.942L377.441 446.747L376.937 447.282L376.978 447.634C376.487 448.13 375.977 448.586 375.45 449.001L375.332 448.718L374.791 449.117L374.753 449.514C374.491 449.696 374.228 449.868 373.962 450.026C373.696 450.181 373.432 450.322 373.173 450.449L373.132 450.096L372.594 450.337L372.476 450.759C372.094 450.908 371.724 451.026 371.361 451.112L372.847 452.76L372.167 453.12L370.639 452.286L370.457 452.365L366.222 449.861C365.974 449.745 365.738 449.606 365.517 449.444L365.556 449.359L365.078 449.078C364.758 448.77 364.477 448.408 364.235 447.996L364.415 447.715L363.946 447.436C363.742 446.986 363.581 446.486 363.465 445.939L363.757 445.606L363.731 445.459L363.343 445.228C363.281 444.765 363.249 444.278 363.249 443.758L363.255 443.411L363.573 443.152L363.594 442.773L363.3 442.599C363.356 441.934 363.463 441.256 363.609 440.576L363.933 440.409L364.064 439.858L363.817 439.713C364.006 439.009 364.237 438.304 364.51 437.609L364.816 437.545C364.902 437.328 364.992 437.111 365.086 436.895L364.865 436.751C365.172 436.053 365.515 435.364 365.892 434.697L366.167 434.74C366.283 434.536 366.403 434.334 366.527 434.135L366.37 433.895C366.776 433.246 367.211 432.618 367.672 432.021L367.903 432.157L368.321 431.642L368.24 431.323C368.716 430.759 369.217 430.233 369.736 429.746L369.994 429.899L370.36 429.572V429.19C370.877 428.754 371.411 428.361 371.957 428.014L372.264 428.196L372.279 428.187L372.519 428.051L372.598 427.637C373.145 427.336 373.679 427.099 374.195 426.926L374.626 427.178L374.663 427.167L374.819 426.743C375.338 426.614 375.84 426.55 376.316 426.55L376.757 426.809L376.884 426.579C377.345 426.627 377.78 426.741 378.185 426.915L378.64 427.182L378.663 427.149L383.603 430.068L384.557 432.702L382.674 431.51C382.797 431.969 382.891 432.454 382.94 432.983L382.634 433.281L382.668 433.86L382.985 433.742Z" fill="#481018"/>
<path fill-rule="evenodd" clip-rule="evenodd" d="M378.22 426.902L381.11 428.413L383.227 429.957L381.908 429.605L379.891 427.974L376.901 426.55L377.751 426.745L378.22 426.902Z" fill="#4F1F26"/>
<path fill-rule="evenodd" clip-rule="evenodd" d="M365.947 434.726L368.783 435.092L370.908 437.525L369.877 439.494L367.723 437.047L364.915 436.695L365.409 435.692L365.947 434.726Z" fill="#4F1F26"/>
<path fill-rule="evenodd" clip-rule="evenodd" d="M364.61 437.791L367.239 438.121L369.574 440.562L368.878 442.56L366.517 440.102L363.914 439.789L364.199 438.881L364.61 437.791Z" fill="#4F1F26"/>
<path fill-rule="evenodd" clip-rule="evenodd" d="M363.563 440.516L366.069 440.832L368.576 443.334L368.263 445.285L365.728 442.769L363.249 442.468L363.345 441.596L363.563 440.516Z" fill="#4F1F26"/>
<path fill-rule="evenodd" clip-rule="evenodd" d="M363.255 443.582L365.618 443.841L368.155 446.522L368.242 448.351L365.677 445.654L363.342 445.411L363.248 444.616L363.255 443.582Z" fill="#4F1F26"/>
<path fill-rule="evenodd" clip-rule="evenodd" d="M363.581 445.626L365.718 445.782L368.436 448.554L368.908 450.054L366.163 447.267L364.053 447.126L363.792 446.508L363.581 445.626Z" fill="#4F1F26"/>
<path fill-rule="evenodd" clip-rule="evenodd" d="M364.58 448.01L366.305 448.341L369.415 450.744L370.24 451.757L367.103 449.338L365.405 449.024L364.964 448.596L364.58 448.01Z" fill="#4F1F26"/>
<path fill-rule="evenodd" clip-rule="evenodd" d="M367.897 432.341L370.758 432.721L372.904 435.244L371.584 437.11L369.411 434.569L366.579 434.205L367.237 433.225L367.897 432.341Z" fill="#4F1F26"/>
<path fill-rule="evenodd" clip-rule="evenodd" d="M369.713 429.957L372.489 430.335L374.568 432.833L373.098 434.385L370.99 431.871L368.243 431.51L368.906 430.737L369.713 429.957Z" fill="#4F1F26"/>
<path fill-rule="evenodd" clip-rule="evenodd" d="M372.201 427.913L375.077 428.296L377.232 430.827L375.605 432L373.422 429.452L370.574 429.086L371.268 428.521L372.201 427.913Z" fill="#4F1F26"/>
<path fill-rule="evenodd" clip-rule="evenodd" d="M374.531 426.891L377.407 427.251L379.562 429.63L377.936 430.297L375.752 427.904L372.904 427.56L373.618 427.204L374.531 426.891Z" fill="#4F1F26"/>
<path fill-rule="evenodd" clip-rule="evenodd" d="M376.374 426.55L379.212 427.218L381.229 429.745L379.758 429.957L377.838 427.338L374.903 426.762L375.712 426.596L376.374 426.55Z" fill="#4F1F26"/>
<path fill-rule="evenodd" clip-rule="evenodd" d="M381.893 429.616L385.223 431.614L384.343 433.022L381.893 431.582V429.616Z" fill="#481018"/>
<path fill-rule="evenodd" clip-rule="evenodd" d="M382.891 431.319L386.221 433.317L385.341 434.726L382.891 433.286V431.319Z" fill="#481018"/>
<path fill-rule="evenodd" clip-rule="evenodd" d="M383.225 433.704L386.555 435.702L385.675 437.11L383.225 435.67V433.704Z" fill="#481018"/>
<path fill-rule="evenodd" clip-rule="evenodd" d="M382.891 436.429L386.221 438.426L385.341 439.835L382.891 438.396V436.429Z" fill="#481018"/>
<path fill-rule="evenodd" clip-rule="evenodd" d="M382.227 439.494L385.557 441.494L384.677 442.901L382.227 441.462V439.494Z" fill="#481018"/>
<path fill-rule="evenodd" clip-rule="evenodd" d="M368.336 448.106C368.274 447.648 368.242 447.163 368.242 446.651L368.249 446.307L368.565 446.051C368.571 445.849 368.582 445.645 368.599 445.439L368.294 445.504C368.349 444.843 368.456 444.174 368.601 443.501L368.923 443.336C368.97 443.119 369.021 442.904 369.079 442.686L368.808 442.645C368.996 441.95 369.228 441.253 369.497 440.562L369.803 440.499C369.888 440.284 369.978 440.071 370.072 439.856L369.852 439.712C370.157 439.022 370.498 438.342 370.874 437.679L371.147 437.723C371.263 437.521 371.384 437.323 371.506 437.125L371.35 436.889C371.754 436.243 372.187 435.622 372.648 435.031L372.868 435.177L373.292 434.658L373.211 434.341C373.685 433.784 374.185 433.263 374.701 432.781L374.857 433.02L375.322 432.607V432.231C375.837 431.799 376.368 431.408 376.912 431.067L376.991 431.384L377.233 431.236L377.472 431.104L377.551 430.691C378.095 430.394 378.626 430.159 379.141 429.987V430.363L379.608 430.229L379.762 429.807C380.278 429.681 380.778 429.618 381.252 429.616L381.171 430.027L381.598 430.048L381.817 429.644C382.278 429.694 382.71 429.805 383.113 429.977L382.959 430.396L383.316 430.574L383.589 430.209C383.965 430.428 384.306 430.709 384.611 431.041L384.394 431.441L384.66 431.769L384.966 431.473C385.237 431.847 385.467 432.27 385.655 432.746L385.384 433.105L385.542 433.572L385.862 433.359C386.009 433.861 386.114 434.406 386.169 434.999L385.864 435.294L385.898 435.868L386.214 435.75L386.221 436.087C386.221 436.6 386.189 437.123 386.127 437.651L385.809 437.862C385.783 438.077 385.751 438.294 385.715 438.511L386.005 438.498C385.89 439.176 385.73 439.858 385.529 440.542L385.213 440.655C385.143 440.883 385.068 441.114 384.991 441.342L385.239 441.435C384.998 442.126 384.718 442.814 384.4 443.49L384.11 443.501C384.001 443.727 383.89 443.953 383.773 444.176L383.962 444.368C383.615 445.032 383.232 445.682 382.818 446.307L382.573 446.212C382.432 446.423 382.289 446.631 382.142 446.837L382.261 447.118C381.828 447.713 381.367 448.282 380.882 448.816L380.695 448.623L380.195 449.153L380.236 449.501C379.745 449.989 379.237 450.443 378.712 450.852L378.594 450.574L378.056 450.967L378.018 451.362C377.758 451.54 377.497 451.71 377.233 451.866C376.966 452.023 376.705 452.159 376.445 452.285L376.407 451.938L375.869 452.175L375.751 452.592C375.226 452.798 374.718 452.944 374.229 453.028L374.27 452.633L373.768 452.694L373.581 453.106C373.098 453.139 372.637 453.113 372.204 453.026L372.323 452.605L371.892 452.487L371.645 452.872C371.233 452.733 370.849 452.533 370.501 452.279L370.691 451.862L370.353 451.582L370.063 451.914C369.745 451.612 369.465 451.254 369.224 450.843L369.474 450.459L369.252 450.035L368.936 450.291C368.733 449.846 368.573 449.351 368.458 448.81L368.75 448.48L368.654 447.941L368.336 448.106Z" fill="#67383F"/>
<path fill-rule="evenodd" clip-rule="evenodd" d="M369.243 446.096C369.243 451.472 372.895 453.638 377.4 450.933C381.905 448.228 385.557 441.676 385.557 436.3C385.557 430.923 381.905 428.756 377.4 431.464C372.895 434.167 369.243 440.719 369.243 446.096Z" fill="#5C2930"/>
<path fill-rule="evenodd" clip-rule="evenodd" d="M371.239 445.118C371.239 449.236 374.072 450.892 377.566 448.821C381.058 446.75 383.891 441.734 383.891 437.618C383.891 433.502 381.058 431.843 377.566 433.914C374.072 435.985 371.239 441.002 371.239 445.118Z" fill="#67383F"/>
<path fill-rule="evenodd" clip-rule="evenodd" d="M371.906 444.658C371.906 448.272 374.366 449.727 377.4 447.908C380.433 446.091 382.893 441.689 382.893 438.078C382.893 434.464 380.433 433.009 377.4 434.828C374.366 436.645 371.906 441.047 371.906 444.658Z" fill="#10F5BB"/>
<path fill-rule="evenodd" clip-rule="evenodd" d="M372.239 444.2V444.255C372.239 447.621 374.477 448.976 377.233 447.278C379.988 445.589 382.227 441.5 382.227 438.135C382.227 434.778 379.988 433.423 377.233 435.112L377.039 435.24C376.604 435.521 376.179 435.875 375.783 436.273C375.46 436.587 375.146 436.941 374.842 437.316C374.496 437.759 374.184 438.221 373.888 438.716C373.717 439.028 373.544 439.351 373.372 439.682V439.694C373.12 440.231 372.897 440.79 372.724 441.361C372.572 441.823 372.451 442.287 372.38 442.749C372.289 443.242 372.239 443.727 372.239 444.2Z" fill="#18D1B6"/>
<path fill-rule="evenodd" clip-rule="evenodd" d="M375.81 446.679C378.681 445.022 381.008 441.013 381.008 437.723C381.008 436.361 380.605 435.341 379.932 434.726C381.316 434.998 382.227 436.287 382.227 438.345C382.227 441.635 379.898 445.644 377.027 447.301C375.346 448.271 373.854 448.21 372.904 447.338C373.733 447.502 374.732 447.299 375.81 446.679Z" fill="#12A882"/>
<path fill-rule="evenodd" clip-rule="evenodd" d="M374.568 441.928C374.568 443.105 375.388 443.578 376.399 442.987C377.41 442.395 378.23 440.962 378.23 439.785C378.23 438.61 377.41 438.136 376.399 438.727C375.388 439.319 374.568 440.752 374.568 441.928Z" fill="#481018"/>
<path fill-rule="evenodd" clip-rule="evenodd" d="M374.569 441.775C374.569 442.783 375.315 443.191 376.235 442.681C377.154 442.174 377.898 440.946 377.898 439.938C377.898 438.93 377.154 438.525 376.235 439.032C375.315 439.539 374.569 440.767 374.569 441.775Z" fill="#12A882"/>
<path fill-rule="evenodd" clip-rule="evenodd" d="M375.235 441.623C375.235 442.462 375.831 442.802 376.566 442.377C377.303 441.956 377.898 440.931 377.898 440.092C377.898 439.251 377.303 438.914 376.566 439.335C375.831 439.76 375.235 440.781 375.235 441.623Z" fill="#10F5BB"/>
<path fill-rule="evenodd" clip-rule="evenodd" d="M378.337 436.687C378.337 437.159 378.661 437.347 379.064 437.111C379.465 436.873 379.789 436.301 379.789 435.829C379.789 435.359 379.465 435.168 379.064 435.407C378.661 435.643 378.337 436.217 378.337 436.687Z" fill="#12A882"/>
<path fill-rule="evenodd" clip-rule="evenodd" d="M379.336 438.731C379.336 439.203 379.662 439.391 380.063 439.155C380.464 438.917 380.79 438.345 380.79 437.872C380.79 437.403 380.464 437.212 380.063 437.45C379.662 437.686 379.336 438.261 379.336 438.731Z" fill="#12A882"/>
<path fill-rule="evenodd" clip-rule="evenodd" d="M378.669 441.456C378.669 441.928 378.993 442.116 379.396 441.88C379.797 441.642 380.121 441.07 380.121 440.598C380.121 440.128 379.797 439.937 379.396 440.175C378.993 440.412 378.669 440.986 378.669 441.456Z" fill="#12A882"/>
<path fill-rule="evenodd" clip-rule="evenodd" d="M378.83 441.361C378.83 441.728 379.084 441.876 379.396 441.69C379.709 441.507 379.96 441.061 379.96 440.694C379.96 440.326 379.709 440.178 379.396 440.364C379.084 440.548 378.83 440.994 378.83 441.361Z" fill="#10C899"/>
<path fill-rule="evenodd" clip-rule="evenodd" d="M378.969 441.278C378.969 441.555 379.16 441.667 379.395 441.529C379.631 441.388 379.822 441.052 379.822 440.775C379.822 440.499 379.631 440.387 379.395 440.527C379.16 440.666 378.969 441.002 378.969 441.278Z" fill="#10F5BB"/>
<path fill-rule="evenodd" clip-rule="evenodd" d="M379.498 438.635C379.498 439.002 379.75 439.15 380.062 438.966C380.374 438.78 380.628 438.334 380.628 437.967C380.628 437.602 380.374 437.455 380.062 437.638C379.75 437.822 379.498 438.27 379.498 438.635Z" fill="#10C899"/>
<path fill-rule="evenodd" clip-rule="evenodd" d="M379.637 438.555C379.637 438.832 379.828 438.941 380.063 438.803C380.299 438.665 380.49 438.326 380.49 438.049C380.49 437.773 380.299 437.663 380.063 437.802C379.828 437.94 379.637 438.278 379.637 438.555Z" fill="#10F5BB"/>
<path fill-rule="evenodd" clip-rule="evenodd" d="M378.498 436.591C378.498 436.958 378.75 437.106 379.062 436.922C379.374 436.736 379.628 436.291 379.628 435.926C379.628 435.559 379.374 435.411 379.062 435.594C378.75 435.78 378.498 436.226 378.498 436.591Z" fill="#10C899"/>
<path fill-rule="evenodd" clip-rule="evenodd" d="M379.064 436.759C379.299 436.621 379.49 436.282 379.49 436.008C379.49 435.731 379.299 435.619 379.064 435.757C378.828 435.898 378.637 436.234 378.637 436.511C378.637 436.788 378.828 436.897 379.064 436.759Z" fill="#10F5BB"/>
<path fill-rule="evenodd" clip-rule="evenodd" d="M377.004 443.84C377.004 444.312 377.33 444.501 377.731 444.265C378.132 444.029 378.458 443.454 378.458 442.982C378.458 442.512 378.132 442.321 377.731 442.56C377.33 442.796 377.004 443.371 377.004 443.84Z" fill="#12A882"/>
<path fill-rule="evenodd" clip-rule="evenodd" d="M375.007 445.544C375.007 446.016 375.331 446.204 375.734 445.968C376.135 445.73 376.459 445.157 376.459 444.685C376.459 444.215 376.135 444.025 375.734 444.263C375.331 444.499 375.007 445.074 375.007 445.544Z" fill="#12A882"/>
<path fill-rule="evenodd" clip-rule="evenodd" d="M373.01 445.542C373.01 446.015 373.336 446.205 373.737 445.967C374.138 445.731 374.464 445.156 374.464 444.686C374.464 444.214 374.138 444.026 373.737 444.262C373.336 444.498 373.01 445.073 373.01 445.542Z" fill="#12A882"/>
<path fill-rule="evenodd" clip-rule="evenodd" d="M372.16 444.357L372.591 444.274C372.985 444.035 373.318 443.465 373.318 442.986C373.318 442.528 372.985 442.325 372.591 442.573L372.321 442.793L372.276 443.06C372.204 443.437 372.167 443.797 372.167 444.154L372.16 444.357Z" fill="#12A882"/>
<path fill-rule="evenodd" clip-rule="evenodd" d="M377.166 443.745C377.166 444.112 377.418 444.26 377.73 444.074C378.042 443.891 378.296 443.445 378.296 443.077C378.296 442.71 378.042 442.565 377.73 442.748C377.418 442.932 377.166 443.378 377.166 443.745Z" fill="#10C899"/>
<path fill-rule="evenodd" clip-rule="evenodd" d="M377.451 443.717C377.451 443.994 377.642 444.106 377.878 443.968C378.113 443.827 378.304 443.491 378.304 443.214C378.304 442.938 378.113 442.828 377.878 442.966C377.642 443.105 377.451 443.441 377.451 443.717Z" fill="#10F5BB"/>
<path fill-rule="evenodd" clip-rule="evenodd" d="M375.168 445.45C375.168 445.815 375.422 445.963 375.734 445.779C376.047 445.595 376.298 445.147 376.298 444.782C376.298 444.415 376.047 444.267 375.734 444.451C375.422 444.637 375.168 445.083 375.168 445.45Z" fill="#10C899"/>
<path fill-rule="evenodd" clip-rule="evenodd" d="M375.307 445.367C375.307 445.643 375.498 445.755 375.733 445.615C375.969 445.476 376.16 445.14 376.16 444.863C376.16 444.587 375.969 444.475 375.733 444.615C375.498 444.754 375.307 445.09 375.307 445.367Z" fill="#10F5BB"/>
<path fill-rule="evenodd" clip-rule="evenodd" d="M373.172 445.448C373.172 445.815 373.426 445.963 373.738 445.779C374.051 445.593 374.302 445.147 374.302 444.78C374.302 444.415 374.051 444.267 373.738 444.451C373.426 444.635 373.172 445.083 373.172 445.448Z" fill="#10C899"/>
<path fill-rule="evenodd" clip-rule="evenodd" d="M373.312 445.708C373.312 445.985 373.501 446.095 373.736 445.956C373.971 445.818 374.162 445.48 374.162 445.203C374.162 444.926 373.971 444.817 373.736 444.955C373.501 445.093 373.312 445.432 373.312 445.708Z" fill="#10F5BB"/>
<path fill-rule="evenodd" clip-rule="evenodd" d="M372.621 441.583L372.801 441.5C373.206 441.261 373.521 440.691 373.521 440.212L373.339 439.79L373.213 440.048L373.125 440.258C372.962 440.618 372.819 440.975 372.701 441.352L372.666 441.445L372.621 441.583Z" fill="#BF5300"/>
<path fill-rule="evenodd" clip-rule="evenodd" d="M373.525 438.716L373.884 438.623C374.289 438.375 374.613 437.815 374.613 437.336L374.585 437.207L374.343 437.529C374.11 437.834 373.893 438.137 373.695 438.459L373.616 438.578L373.525 438.716Z" fill="#BF5300"/>
<path fill-rule="evenodd" clip-rule="evenodd" d="M375.676 436.585C375.704 437 376.018 437.174 376.396 436.942C376.801 436.704 377.123 436.125 377.123 435.664L377.088 435.471L376.908 435.59L376.745 435.702C376.531 435.848 376.314 436.015 376.109 436.198L375.848 436.427L375.676 436.585Z" fill="#12A882"/>
<path fill-rule="evenodd" clip-rule="evenodd" d="M375.838 436.508C375.838 436.878 376.089 437.024 376.404 436.84C376.709 436.656 376.961 436.206 376.961 435.838L376.907 435.598L376.744 435.71C376.53 435.855 376.313 436.022 376.108 436.206L375.847 436.435L375.838 436.508Z" fill="#10C899"/>
<path fill-rule="evenodd" clip-rule="evenodd" d="M375.973 436.499C375.973 436.776 376.161 436.885 376.395 436.747C376.628 436.611 376.826 436.28 376.826 436.003L376.681 435.71C376.467 435.855 376.25 436.022 376.045 436.206L375.973 436.499Z" fill="#10F5BB"/>
<path fill-rule="evenodd" clip-rule="evenodd" d="M373.657 438.546L373.918 438.462C374.23 438.279 374.482 437.828 374.482 437.461L374.475 437.377L374.384 437.497C374.151 437.802 373.934 438.105 373.736 438.427L373.657 438.546Z" fill="#E68F00"/>
<path fill-rule="evenodd" clip-rule="evenodd" d="M373.736 438.427L373.978 438.381C374.214 438.243 374.402 437.902 374.402 437.628L374.384 437.497C374.151 437.802 373.934 438.105 373.736 438.427Z" fill="#E89E00"/>
<path fill-rule="evenodd" clip-rule="evenodd" d="M372.73 441.385L372.846 441.331C373.161 441.147 373.412 440.696 373.412 440.327L373.277 439.988L373.189 440.198C373.026 440.558 372.883 440.916 372.765 441.292L372.73 441.385Z" fill="#E68F00"/>
<path fill-rule="evenodd" clip-rule="evenodd" d="M372.788 441.234L372.932 441.179C373.165 441.041 373.354 440.709 373.354 440.435L373.212 440.139C373.049 440.5 372.907 440.857 372.788 441.234Z" fill="#E89E00"/>
<path fill-rule="evenodd" clip-rule="evenodd" d="M372.258 444.136L372.654 444.101C372.969 443.917 373.22 443.466 373.22 443.097C373.22 442.73 372.969 442.582 372.654 442.768L372.367 443.042C372.295 443.419 372.258 443.779 372.258 444.136Z" fill="#10C899"/>
<path fill-rule="evenodd" clip-rule="evenodd" d="M371.979 444.004C371.979 444.28 372.17 444.392 372.405 444.254C372.64 444.113 372.832 443.777 372.832 443.5C372.832 443.224 372.64 443.112 372.405 443.253C372.17 443.391 371.979 443.727 371.979 444.004Z" fill="#E89E00"/>
<path fill-rule="evenodd" clip-rule="evenodd" d="M378.171 442.438L375.038 446.307L363.582 427.879L369.207 420.604L402.535 409.178L400.87 414.664L373.181 425.547L370.057 429.227L378.171 442.438Z" fill="#362326"/>
<path fill-rule="evenodd" clip-rule="evenodd" d="M336.275 320.271L379.229 345.482L373.574 402.024L330.62 376.811L336.275 320.271Z" fill="#00DE84"/>
<path fill-rule="evenodd" clip-rule="evenodd" d="M401.869 361.148L448.812 335.159V327.424L402.095 352.191L401.869 361.148Z" fill="#C7EDD9"/>
<path fill-rule="evenodd" clip-rule="evenodd" d="M334.617 338.304L377.084 363.873H377.103L377.898 355.717L335.357 330.831L334.617 338.304Z" fill="#D6EBE0"/>
<path fill-rule="evenodd" clip-rule="evenodd" d="M377.233 363.873L401.979 361.138L402.203 352.291L378.03 355.781L377.233 363.873Z" fill="#CEECDC"/>
<path fill-rule="evenodd" clip-rule="evenodd" d="M395.644 321.96L379.23 345.138L402.781 339.896L452.143 312.802L444.256 293.361L395.644 321.96Z" fill="#16D870"/>
<path fill-rule="evenodd" clip-rule="evenodd" d="M452.014 313.118L471.453 297.79L456.617 286.207L444.153 293.596L452.014 313.118Z" fill="#E0EAE5"/>
<path fill-rule="evenodd" clip-rule="evenodd" d="M363.522 427.756L374.902 446.307L372.299 444.761L360.919 426.21L363.522 427.756Z" fill="#291518"/>
<path fill-rule="evenodd" clip-rule="evenodd" d="M366.597 418.716L369.242 420.26L363.564 427.572L360.919 426.028L366.597 418.716Z" fill="#4C4C4C"/>
<path fill-rule="evenodd" clip-rule="evenodd" d="M472.307 337.303L474.449 333.46L472.263 306.646L470.121 310.486L472.307 337.303Z" fill="#D2D2D2"/>
<path fill-rule="evenodd" clip-rule="evenodd" d="M470.292 314.821L472.451 311.078L472.278 309.03L470.121 312.773L470.292 314.821Z" fill="#E25069"/>
<path fill-rule="evenodd" clip-rule="evenodd" d="M470.958 319.249L473.117 315.507L472.944 313.458L470.787 317.201L470.958 319.249Z" fill="#E25069"/>
<path fill-rule="evenodd" clip-rule="evenodd" d="M470.958 324.018L473.117 320.275L472.944 318.227L470.787 321.97L470.958 324.018Z" fill="#E25069"/>
<path fill-rule="evenodd" clip-rule="evenodd" d="M471.292 328.446L473.451 324.704L473.278 322.656L471.121 326.398L471.292 328.446Z" fill="#E25069"/>
<path fill-rule="evenodd" clip-rule="evenodd" d="M471.624 332.875L473.783 329.132L473.61 327.084L471.453 330.826L471.624 332.875Z" fill="#E25069"/>
<path fill-rule="evenodd" clip-rule="evenodd" d="M471.956 337.644L474.115 333.901L473.942 331.853L471.785 335.595L471.956 337.644Z" fill="#E25069"/>
<path fill-rule="evenodd" clip-rule="evenodd" d="M516.043 351.132C517.561 349.66 519.415 348.298 521.607 347.045C530.656 341.977 543.415 340.287 554.936 341.922C560.838 342.74 566.402 344.483 571.011 347.045C581.465 352.876 583.882 361.54 578.374 368.679C576.688 370.859 574.215 372.93 571.011 374.728C557.353 382.357 535.209 382.357 521.551 374.728C518.347 372.93 515.874 370.859 514.132 368.625C509.917 363.012 510.535 356.527 516.043 351.132Z" fill="#26523F" fill-opacity="0.1"/>
<path d="M516.481 272.238C512.925 275.788 513.147 273.776 511.713 274.782C510.279 275.788 513.652 281.231 518.34 279.022C520.198 278.292 520.946 277.484 520.946 277.484C524.764 281.487 527.997 283.459 530.764 284.879C533.532 286.299 536.987 285.392 538.563 282.769C542.482 276.202 542.906 264.37 542.906 264.37L534.562 263.759C534.562 263.759 534.704 272.041 532.32 279.278C529.754 280.245 521.915 274.072 521.511 272.948C521.107 271.844 517.511 269.852 515.249 269.911C512.986 269.971 512.966 270.957 513.45 271.311C513.956 271.666 516.481 272.238 516.481 272.238Z" fill="#E7AD95"/>
<path d="M539.832 266.979L541.33 252.865C536.594 253.776 533.962 256.342 533.497 261.177C533.436 261.884 533.436 264.654 533.477 267.276C534.387 269.136 538.314 270.177 539.954 269.954C539.893 268.15 539.832 266.979 539.832 266.979Z" fill="#FBE0C0"/>
<path d="M535.809 343.13C533.392 345.489 531.51 349.104 530.5 351.348C530.004 352.471 530.44 353.764 531.55 354.373L531.946 354.582C534.343 355.914 537.275 355.914 539.672 354.582C542.525 353.003 544.982 351.653 546.765 350.663C548.766 349.56 549.697 347.258 548.964 345.166C548.469 343.739 548.072 343.149 548.072 343.149H535.809V343.13Z" fill="#40404C"/>
<path d="M553.149 354.025C550.732 356.383 548.85 359.998 547.839 362.242C547.344 363.365 547.78 364.658 548.889 365.267L549.286 365.476C551.683 366.808 554.615 366.808 557.012 365.476C559.865 363.897 562.322 362.547 564.105 361.558C566.106 360.454 567.037 358.152 566.304 356.06C565.809 354.633 565.412 354.044 565.412 354.044H553.149V354.025Z" fill="#40404C"/>
<path d="M536.614 292.809C535.576 299.907 535.026 343.14 535.026 343.14C541.319 346.65 547.633 343.14 547.633 343.14C547.633 327.984 548.468 316.827 548.773 310.847C548.814 310.083 549.893 309.867 550.239 310.573C552.459 315.239 553.946 328.729 553.946 353.669C557.958 355.884 561.4 356.531 566.553 353.669L565.066 303.201V296.181L547.653 287.103L536.614 292.809Z" fill="#4E6895"/>
<path d="M566.237 292.648C566.237 292.609 566.237 292.569 566.237 292.53C566.237 280.907 566.237 266.975 566.237 266.975C566.237 261.785 564.014 258.509 551.241 252.885C538.385 247.242 535.395 258.253 535.395 262.298C535.395 265.416 535.208 278.026 535.104 283.65C535.083 285.327 535.062 286.373 535.062 286.373C535.062 287.754 535.041 288.84 535.041 289.728C535.021 294.168 535.021 296.023 535.041 296.536C535.041 296.634 535.062 296.733 535.125 296.832C538.24 301.548 553.007 310.231 563.121 303.028C564.388 302.002 565.261 301.133 565.821 300.522C566.341 299.969 566.59 299.239 566.548 298.509L566.237 292.648Z" fill="#FBE0C0"/>
<path d="M546.309 256.256C546.01 258.314 545.711 259.5 547.127 260.351C548.563 261.223 551.476 260.015 553.111 258.65C554.268 257.665 555.665 255.875 555.505 254.711C555.345 253.548 546.309 256.256 546.309 256.256Z" fill="#D9BCB3"/>
<path d="M550 259.09C544.341 259.09 539.754 252.819 539.754 245.083C539.754 237.347 544.341 231.076 550 231.076C555.659 231.076 560.246 237.347 560.246 245.083C560.246 252.819 555.659 259.09 550 259.09Z" fill="#E7AD95"/>
<path d="M541.695 237.803C543.165 240.38 551.671 237.04 551.298 240.761C550.887 244.903 553.14 246.296 553.748 247.422C555.12 249.025 554.649 252.06 555.766 252.48C555.335 249.407 556.413 248.453 557.276 248.453C558.138 248.453 558.981 249.102 558.981 249.941C558.981 250.781 558.177 253.396 557.021 253.587C557.021 253.587 556.825 254.217 557.158 254.407C557.491 254.598 559.118 252.709 559.431 252.194C559.745 251.678 561.822 248.453 561.822 242.899C561.822 237.345 558.001 229.52 551.729 229.52C549.652 229.52 545.007 231.333 543.655 232.65C542.949 233.337 542.166 233.929 541.715 234.826C541.225 235.742 541.186 236.906 541.695 237.803Z" fill="#81462F"/>
<path d="M547.665 292.12C547.914 289.292 550.587 289.1 556.449 291.139C557.527 291.505 563.845 290.312 565.296 288.35C566.767 286.388 565.627 281.925 563.017 277.462C560.406 272.999 569.688 275.192 569.688 275.192C572.775 280.559 572.857 287.061 572.857 289.1C572.857 291.139 569.19 293.409 564.964 294.621C560.738 295.833 556.429 295.294 556.429 295.294C552.596 297.045 547.189 297.353 547.665 292.12Z" fill="#E7AD95"/>
<path d="M564.946 261.178C569.116 268.2 570.613 273.248 571.281 275.901C567.517 279.193 562.922 279.672 561.789 279.133C558.874 272.131 557.68 270.714 557.194 267.901C556.709 265.088 558.024 261.996 560.412 261.038C562.801 260.081 564.946 261.178 564.946 261.178Z" fill="#FBE0C0"/>
<path fill-rule="evenodd" clip-rule="evenodd" d="M567.268 294.954L544.912 307.78V289.861L567.268 277.035V294.954Z" fill="#A18262"/>
<path fill-rule="evenodd" clip-rule="evenodd" d="M544.912 307.78L502.996 286.898V268.65L544.912 289.469V307.78Z" fill="#C49B72"/>
<path fill-rule="evenodd" clip-rule="evenodd" d="M567.268 275.351L542.505 288.215L502.996 267.163L527.48 254.675L567.268 275.351Z" fill="#D6AD85"/>
<path fill-rule="evenodd" clip-rule="evenodd" d="M556.09 300.704L553.295 302.19V284.111L556.09 282.625V300.704Z" fill="#856B51"/>
<path fill-rule="evenodd" clip-rule="evenodd" d="M556.09 281.098L553.219 282.625L514.173 261.898L517.265 260.265L556.09 281.098Z" fill="#C49B72"/>
</svg>
