<svg width="350" height="350" viewBox="0 0 722 496" fill="none" xmlns="http://www.w3.org/2000/svg">
<path fill-rule="evenodd" clip-rule="evenodd" d="M501.483 491.488C492.029 496.943 477.724 497.534 469.535 492.812L5.52873 225.121C-2.65991 220.396 -1.63456 212.145 7.82221 206.69L219.515 84.513C228.972 79.0581 243.275 78.4646 251.466 83.1894L715.472 350.878C723.661 355.603 722.633 363.856 713.176 369.311L501.483 491.488Z" fill="#038651" fill-opacity="0.4"/>
<mask id="mask0" mask-type="alpha" maskUnits="userSpaceOnUse" x="0" y="0" width="722" height="417">
<path fill-rule="evenodd" clip-rule="evenodd" d="M484.039 416.164C478.947 416.164 474.08 415.158 470.396 413.108C474.08 415.158 478.947 416.161 484.039 416.164ZM484.048 413.28C479.086 413.28 474.341 412.328 470.694 410.385L714.364 269.865L652.303 234.088L716.341 271.005C720.057 273.147 721.877 276.014 721.874 279.018C721.872 281.993 720.079 285.105 716.568 287.775C720.669 284.656 722.422 280.938 721.719 277.531C721.126 280.721 718.557 283.956 714.043 286.557L502.138 408.766C496.962 411.751 490.332 413.28 484.048 413.28ZM501.773 411.857C501.872 411.8 501.973 411.746 502.072 411.687C501.973 411.746 501.872 411.8 501.773 411.857ZM10.1663 144.911L5.68797 142.331C2.58998 140.546 0.813295 138.256 0.308367 135.803C-0.314535 139.151 1.25216 142.444 5.14765 144.89C1.88214 142.84 0.237583 140.194 0.157361 137.419C0.0511842 133.735 2.7056 129.821 7.98375 126.777L219.888 4.56817C225.065 1.5832 231.695 0.0541992 237.981 0.0541992C243.186 0.0541992 248.157 1.10494 251.871 3.24413L298.947 30.3821L298.945 30.3845L253.848 4.3844L10.1663 144.911Z" fill="white"/>
</mask>
<g mask="url(#mask0)">
<path fill-rule="evenodd" clip-rule="evenodd" d="M470.694 410.385C474.341 412.328 479.086 413.28 484.048 413.28C490.332 413.28 496.962 411.751 502.138 408.766L714.043 286.557C718.557 283.956 721.126 280.721 721.719 277.531C722.309 280.39 721.169 283.468 718.364 286.228C720.689 283.941 721.872 281.435 721.874 279.018C721.877 276.014 720.057 273.147 716.341 271.005L714.364 269.865L470.694 410.385ZM484.039 416.164C478.947 416.164 474.08 415.158 470.396 413.108C474.08 415.158 478.947 416.161 484.039 416.164ZM501.773 411.857C501.872 411.8 501.973 411.746 502.072 411.687C501.973 411.746 501.872 411.8 501.773 411.857ZM10.1663 144.911L5.68797 142.331C2.58998 140.546 0.813295 138.256 0.308367 135.803C-0.314535 139.151 1.25216 142.444 5.14765 144.89C1.88214 142.84 0.237583 140.194 0.157361 137.419C0.0511842 133.735 2.7056 129.821 7.98375 126.777L219.888 4.56817C225.065 1.5832 231.695 0.0541992 237.981 0.0541992C243.186 0.0541992 248.157 1.10494 251.871 3.24413L298.947 30.3821L298.945 30.3845L253.848 4.3844L10.1663 144.911Z" fill="#062D1D"/>
</g>
<path fill-rule="evenodd" clip-rule="evenodd" d="M713.181 287.097L501.48 409.585C492.025 415.054 477.719 415.649 469.53 410.912L5.50615 142.543C2.41113 140.753 0.636151 138.458 0.131708 136C-0.516526 139.507 1.22074 142.954 5.50615 145.433L469.53 413.803C477.719 418.539 492.025 417.944 501.48 412.476L713.181 289.988C719.065 286.585 721.681 282.099 720.849 278.051C720.257 281.248 717.69 284.491 713.181 287.097Z" fill="#FFFFFE"/>
<path fill-rule="evenodd" clip-rule="evenodd" d="M714 269.84L468.06 412L8 146.163L253.94 4.00001L714 269.84Z" fill="#22CF86"/>
<path fill-rule="evenodd" clip-rule="evenodd" d="M145.821 60.4394L112.984 79.3203C111.558 80.1415 109.402 80.2311 108.168 79.5209L107.834 79.3298C106.599 78.6196 106.753 77.3784 108.179 76.5597L141.016 57.6787C142.442 56.8576 144.598 56.7703 145.832 57.4782L146.166 57.6717C147.401 58.3819 147.247 59.6206 145.821 60.4394Z" fill="white"/>
<path fill-rule="evenodd" clip-rule="evenodd" d="M68 148.626L63.8456 151L54 145.374L58.1568 143L68 148.626Z" fill="#FFFFFE"/>
<path fill-rule="evenodd" clip-rule="evenodd" d="M75 144.626L70.8439 147L61 141.374L65.1561 139L75 144.626Z" fill="#FFFFFE"/>
<path fill-rule="evenodd" clip-rule="evenodd" d="M83 139.626L78.8432 142L69 136.374L73.1568 134L83 139.626Z" fill="#FFFFFE"/>
<path fill-rule="evenodd" clip-rule="evenodd" d="M91 135.626L86.8456 138L77 132.374L81.1568 130L91 135.626Z" fill="#FFFFFE"/>
<mask id="mask1" mask-type="alpha" maskUnits="userSpaceOnUse" x="641" y="229" width="11" height="6">
<path fill-rule="evenodd" clip-rule="evenodd" d="M651.706 234.562L641.672 229.131L651.706 234.562Z" fill="white"/>
</mask>
<g mask="url(#mask1)">
<path fill-rule="evenodd" clip-rule="evenodd" d="M641.672 234.562H651.706V229.131H641.672V234.562Z" fill="#272A5A"/>
</g>
<mask id="mask2" mask-type="alpha" maskUnits="userSpaceOnUse" x="641" y="229" width="11" height="6">
<path fill-rule="evenodd" clip-rule="evenodd" d="M651.706 234.562L641.672 229.131L651.706 234.562Z" fill="white"/>
</mask>
<g mask="url(#mask2)">
<path fill-rule="evenodd" clip-rule="evenodd" d="M651.706 234.562L641.672 229.131L651.706 234.562Z" fill="url(#paint0_linear)"/>
</g>
<path fill-rule="evenodd" clip-rule="evenodd" d="M468.235 337C465.1 337 462.108 336.365 459.872 335.073L173.33 169.405C168.396 166.552 169.017 161.568 174.715 158.273L180.377 155L464.867 319.483C467.339 320.911 470.645 321.613 474.11 321.613C478.291 321.613 482.699 320.593 486.145 318.602L642.139 228.409L652 234.111C651.446 234.569 650.811 235.008 650.099 235.422L479.124 334.275C476.008 336.077 472.018 337 468.235 337Z" fill="#26523F"/>
<mask id="mask3" mask-type="alpha" maskUnits="userSpaceOnUse" x="144" y="4" width="537" height="310">
<path fill-rule="evenodd" clip-rule="evenodd" d="M474.429 313.715C470.965 313.715 467.657 313.016 465.184 311.587L148.33 128.554C145.879 127.137 144.668 125.246 144.647 123.263C144.621 120.831 146.388 118.263 149.859 116.258L299.029 30.0877L299.032 30.0853L338.919 7.0429C342.366 5.05266 346.779 4.03275 350.963 4.03275C354.429 4.03275 357.735 4.73394 360.208 6.15992L677.061 189.194C679.558 190.636 680.768 192.572 680.745 194.595C680.717 196.994 678.952 199.518 675.535 201.492L486.473 310.705C483.025 312.695 478.613 313.715 474.429 313.715ZM433.753 240.088L426.792 244.108L486.942 278.851L493.901 274.831L433.753 240.088ZM388.321 221.883C390.883 224.919 394.335 227.771 398.68 230.306C409.418 236.572 423.543 239.712 437.654 239.712C451.477 239.712 465.283 236.695 475.857 230.651C497.223 218.436 497.31 198.474 476.055 186.07C465.316 179.802 451.191 176.662 437.08 176.662C423.258 176.662 409.451 179.679 398.878 185.723C386.947 192.546 381.65 201.782 383 210.77L359.823 197.379L352.862 201.399L388.321 221.883ZM331.519 94.3467C317.708 94.3467 303.921 97.3498 293.354 103.391C271.988 115.607 271.9 135.566 293.156 147.972C303.878 154.231 317.98 157.364 332.062 157.364C345.377 157.364 358.674 154.564 369.097 148.957C372.421 149.313 375.793 149.493 379.163 149.493C392.974 149.493 406.761 146.49 417.33 140.448C438.697 128.233 438.784 108.274 417.526 95.8671C406.804 89.6084 392.705 86.4755 378.622 86.4755C365.307 86.4755 352.008 89.2755 341.588 94.8826C338.263 94.5261 334.889 94.3467 331.519 94.3467Z" fill="white"/>
</mask>
<g mask="url(#mask3)">
<path fill-rule="evenodd" clip-rule="evenodd" d="M474.429 313.715C470.965 313.715 467.657 313.016 465.184 311.587L148.33 128.554C145.879 127.137 144.668 125.246 144.647 123.263C144.621 120.831 146.388 118.263 149.859 116.258L299.029 30.0877L299.032 30.0853L338.919 7.0429C342.366 5.05266 346.779 4.03275 350.963 4.03275C354.429 4.03275 357.735 4.73394 360.208 6.15992L677.061 189.194C679.558 190.636 680.768 192.572 680.745 194.595C680.717 196.994 678.952 199.518 675.535 201.492L486.473 310.705C483.025 312.695 478.613 313.715 474.429 313.715ZM433.753 240.088L426.792 244.108L486.942 278.851L493.901 274.831L433.753 240.088ZM388.321 221.883C390.883 224.919 394.335 227.771 398.68 230.306C409.418 236.572 423.543 239.712 437.654 239.712C451.477 239.712 465.283 236.695 475.857 230.651C497.223 218.436 497.31 198.474 476.055 186.07C465.316 179.802 451.191 176.662 437.08 176.662C423.258 176.662 409.451 179.679 398.878 185.723C386.947 192.546 381.65 201.782 383 210.77L359.823 197.379L352.862 201.399L388.321 221.883ZM331.519 94.3467C317.708 94.3467 303.921 97.3498 293.354 103.391C271.988 115.607 271.9 135.566 293.156 147.972C303.878 154.231 317.98 157.364 332.062 157.364C345.377 157.364 358.674 154.564 369.097 148.957C372.421 149.313 375.793 149.493 379.163 149.493C392.974 149.493 406.761 146.49 417.33 140.448C438.697 128.233 438.784 108.274 417.526 95.8671C406.804 89.6084 392.705 86.4755 378.622 86.4755C365.307 86.4755 352.008 89.2755 341.588 94.8826C338.263 94.5261 334.889 94.3467 331.519 94.3467Z" fill="#F5D58C"/>
</g>
<path fill-rule="evenodd" clip-rule="evenodd" d="M545.91 161.123L547.443 161.999C548.89 162.828 550.191 163.219 551.352 163.174C552.514 163.132 553.829 162.689 555.292 161.851C556.053 161.415 556.579 161.01 556.872 160.638C557.167 160.265 557.219 159.888 557.037 159.509C556.851 159.129 556.539 158.769 556.098 158.431C555.658 158.092 555.012 157.68 554.155 157.185L553.47 156.797L545.91 161.123ZM533.391 168.296L535.197 169.329C536.663 170.17 538.023 170.557 539.267 170.486C540.516 170.418 541.928 169.934 543.502 169.032C545.129 168.1 545.993 167.243 546.092 166.458C546.191 165.676 545.49 164.854 543.993 163.996L542.445 163.109L533.391 168.296ZM525 167.463L552.001 152L558.614 155.787C559.863 156.504 560.841 157.19 561.546 157.848C562.25 158.506 562.708 159.19 562.918 159.9C563.119 160.612 562.951 161.331 562.41 162.066C561.867 162.797 560.944 163.533 559.644 164.266C556.298 166.17 553.109 166.474 550.082 165.191C551.373 166.28 551.869 167.357 551.562 168.435C551.26 169.51 550.124 170.618 548.163 171.756C545.606 173.229 543.021 173.978 540.398 174C537.777 174.021 535.23 173.323 532.753 171.906L525 167.463Z" fill="#FFFFFE"/>
<path fill-rule="evenodd" clip-rule="evenodd" d="M557.906 175.711L561.559 177.825L570.936 170.278L557.906 175.711ZM542 177.586L574.818 165L580 168L558.254 187L553.63 184.323L558.862 180.017L554.138 177.28L546.691 180.304L542 177.586Z" fill="#FFFFFE"/>
<path fill-rule="evenodd" clip-rule="evenodd" d="M561 188.777L587.952 173L591.336 174.981L582.67 187.778L597.935 178.843L602 181.223L575.048 197L571.829 195.117L581.207 181.823L565.162 191.214L561 188.777Z" fill="#FFFFFE"/>
<path fill-rule="evenodd" clip-rule="evenodd" d="M579 199.265L606.051 184L610.98 186.781L599.231 193.41L616.3 189.783L621 192.435L603.721 196.346L594.486 208L589.573 205.229L597.637 195.416L594.893 195.858L583.929 202.046L579 199.265Z" fill="#FFFFFE"/>
<path fill-rule="evenodd" clip-rule="evenodd" d="M265.052 151L205 116.045L211.948 112L272 146.955L265.052 151Z" fill="#FFFFFE"/>
<path fill-rule="evenodd" clip-rule="evenodd" d="M339.05 194L279 159.045L285.95 155L346 189.955L339.05 194Z" fill="#FFFFFE"/>
<path fill-rule="evenodd" clip-rule="evenodd" d="M413.05 236L353 201.045L359.95 197L420 231.955L413.05 236Z" fill="#FFFFFE"/>
<path fill-rule="evenodd" clip-rule="evenodd" d="M487.053 279L427 244.045L433.95 240L494 274.955L487.053 279Z" fill="#FFFFFE"/>
<mask id="mask4" mask-type="alpha" maskUnits="userSpaceOnUse" x="277" y="86" width="157" height="72">
<path fill-rule="evenodd" clip-rule="evenodd" d="M331.888 157.546C317.814 157.546 303.721 154.421 293.006 148.178C271.763 135.803 271.85 115.895 293.204 103.712C303.764 97.6855 317.543 94.6902 331.345 94.6902C334.713 94.6902 338.085 94.8691 341.408 95.2247C351.822 89.632 365.113 86.8391 378.42 86.8391C392.494 86.8391 406.584 89.964 417.3 96.2067C438.545 108.581 438.458 128.489 417.104 140.673C406.542 146.699 392.763 149.694 378.96 149.694C375.592 149.694 372.223 149.516 368.9 149.16C358.484 154.753 345.195 157.546 331.888 157.546Z" fill="white"/>
</mask>
<g mask="url(#mask4)">
<path fill-rule="evenodd" clip-rule="evenodd" d="M331.888 157.546C317.814 157.546 303.721 154.421 293.006 148.178C271.763 135.803 271.85 115.895 293.204 103.712C303.764 97.6855 317.543 94.6902 331.345 94.6902C334.713 94.6902 338.085 94.8691 341.408 95.2247C351.822 89.632 365.113 86.8391 378.42 86.8391C392.494 86.8391 406.584 89.964 417.3 96.2067C438.545 108.581 438.458 128.489 417.104 140.673C406.542 146.699 392.763 149.694 378.96 149.694C375.592 149.694 372.223 149.516 368.9 149.16C358.484 154.753 345.195 157.546 331.888 157.546Z" fill="#988253"/>
</g>
<path fill-rule="evenodd" clip-rule="evenodd" d="M381 111.911L377.997 116.361C375.405 111.989 371.102 107.875 365.076 104.366C343.855 92.013 309.362 91.8602 288.032 104.022C282.127 107.391 277.856 111.352 275.208 115.578L272.042 111.427L272 120.921L272.021 120.907C271.776 129.092 277.043 137.341 287.855 143.633C309.077 155.986 343.57 156.141 364.9 143.977C375.566 137.895 380.92 129.887 380.955 121.855L381 111.911Z" fill="#EAA258"/>
<path fill-rule="evenodd" clip-rule="evenodd" d="M364.939 133.945C343.6 146.152 309.093 145.997 287.863 133.6C266.636 121.203 266.723 101.26 288.061 89.0546C309.4 76.849 343.907 77.0023 365.137 89.399C386.364 101.796 386.277 121.739 364.939 133.945Z" fill="#F6C86C"/>
<mask id="mask5" mask-type="alpha" maskUnits="userSpaceOnUse" x="271" y="80" width="110" height="64">
<path fill-rule="evenodd" clip-rule="evenodd" d="M364.871 134.424C343.486 146.69 308.903 146.534 287.627 134.078C266.353 121.621 266.44 101.582 287.825 89.3179C309.21 77.0536 343.793 77.2077 365.069 89.664C386.344 102.12 386.256 122.159 364.871 134.424Z" fill="white"/>
</mask>
<g mask="url(#mask5)">
<path fill-rule="evenodd" clip-rule="evenodd" d="M364.871 134.424C343.486 146.69 308.903 146.534 287.627 134.078C266.353 121.621 266.44 101.582 287.825 89.3179C309.21 77.0536 343.793 77.2077 365.069 89.664C386.344 102.12 386.256 122.159 364.871 134.424Z" fill="url(#paint1_radial)"/>
</g>
<path fill-rule="evenodd" clip-rule="evenodd" d="M326.259 85.9143C314.672 85.9143 303.106 88.4324 294.262 93.4804C285.695 98.3697 280.96 104.875 280.93 111.794C280.899 118.716 285.574 125.261 294.096 130.231C311.874 140.59 340.867 140.72 358.738 130.517C367.305 125.628 372.04 119.123 372.07 112.201C372.101 105.282 367.428 98.7368 358.904 93.7694C349.925 88.539 338.081 85.9143 326.259 85.9143ZM326.741 139C314.746 139 302.739 136.34 293.631 131.031C284.806 125.891 279.969 119.057 280 111.792C280.033 104.526 284.934 97.7348 293.802 92.6726C311.922 82.3303 341.337 82.4582 359.371 92.9687C368.194 98.1115 373.033 104.941 373 112.206C372.967 119.474 368.066 126.263 359.198 131.325C350.231 136.444 338.492 139 326.741 139Z" fill="#EAA258"/>
<mask id="mask6" mask-type="alpha" maskUnits="userSpaceOnUse" x="281" y="85" width="92" height="54">
<path fill-rule="evenodd" clip-rule="evenodd" d="M359.15 130.625C341.22 140.824 312.219 140.695 294.378 130.339C276.539 119.98 276.612 103.318 294.545 93.1188C312.478 82.9198 341.477 83.049 359.318 93.4076C377.156 103.764 377.083 120.429 359.15 130.625Z" fill="white"/>
</mask>
<g mask="url(#mask6)">
<path fill-rule="evenodd" clip-rule="evenodd" d="M359.15 130.625C341.22 140.824 312.219 140.695 294.378 130.339C276.539 119.98 276.612 103.318 294.545 93.1188C312.478 82.9198 341.477 83.049 359.318 93.4076C377.156 103.764 377.083 120.429 359.15 130.625Z" fill="url(#paint2_radial)"/>
</g>
<path fill-rule="evenodd" clip-rule="evenodd" d="M294.543 94.8854C312.554 84.5437 341.685 84.6747 359.606 95.1759C368.082 100.144 372.524 106.541 372.956 113C373.498 105.81 369.06 98.4993 359.615 92.9642C341.694 82.4606 312.566 82.3297 294.553 92.6714C285.06 98.1208 280.556 105.391 281.034 112.586C281.523 106.134 286.022 99.7753 294.543 94.8854Z" fill="#EAA258"/>
<path fill-rule="evenodd" clip-rule="evenodd" d="M364.956 132.795C343.613 145.081 309.099 144.925 287.864 132.448C277.703 126.476 272.44 118.765 272.034 111C271.52 119.456 276.781 128.031 287.855 134.538C309.09 147.017 343.604 147.173 364.947 134.884C376.077 128.478 381.413 119.953 380.975 111.492C380.501 119.252 375.17 126.915 364.956 132.795Z" fill="#FAE383"/>
<mask id="mask7" mask-type="alpha" maskUnits="userSpaceOnUse" x="382" y="177" width="110" height="64">
<path fill-rule="evenodd" clip-rule="evenodd" d="M437.376 240.262C423.253 240.262 409.116 237.127 398.368 230.871C394.02 228.34 390.565 225.492 388 222.461L412.711 236.701L419.678 232.686L382.674 211.366C381.324 202.392 386.626 193.171 398.566 186.359C409.149 180.325 422.967 177.312 436.802 177.312C450.925 177.312 465.062 180.447 475.811 186.706C497.085 199.09 496.997 219.02 475.612 231.216C465.029 237.25 451.211 240.262 437.376 240.262Z" fill="white"/>
</mask>
<g mask="url(#mask7)">
<path fill-rule="evenodd" clip-rule="evenodd" d="M437.376 240.262C423.253 240.262 409.116 237.127 398.368 230.871C394.02 228.34 390.565 225.492 388 222.461L412.711 236.701L419.678 232.686L382.674 211.366C381.324 202.392 386.626 193.171 398.566 186.359C409.149 180.325 422.967 177.312 436.802 177.312C450.925 177.312 465.062 180.447 475.811 186.706C497.085 199.09 496.997 219.02 475.612 231.216C465.029 237.25 451.211 240.262 437.376 240.262Z" fill="#988253"/>
</g>
<path fill-rule="evenodd" clip-rule="evenodd" d="M413.034 236L388.325 221.949C385.35 218.478 383.576 214.761 383 211L420 232.039L413.034 236Z" fill="#C9CCD5"/>
<path fill-rule="evenodd" clip-rule="evenodd" d="M485 194.91L481.997 199.36C479.405 194.988 475.102 190.874 469.076 187.367C447.856 175.014 413.36 174.859 392.03 187.021C386.125 190.39 381.854 194.351 379.206 198.577L376.04 194.426L376 203.922L376.019 203.908C375.774 212.093 381.041 220.339 391.856 226.634C413.075 238.987 447.571 239.14 468.899 226.978C479.566 220.896 484.92 212.888 484.955 204.853L485 194.91Z" fill="#EAA258"/>
<path fill-rule="evenodd" clip-rule="evenodd" d="M468.938 216.945C447.6 229.151 413.093 228.998 391.863 216.601C370.636 204.204 370.723 184.259 392.061 172.053C413.4 159.848 447.906 160.004 469.136 172.4C490.366 184.794 490.276 204.74 468.938 216.945Z" fill="#F6C86C"/>
<mask id="mask8" mask-type="alpha" maskUnits="userSpaceOnUse" x="376" y="162" width="110" height="64">
<path fill-rule="evenodd" clip-rule="evenodd" d="M469.404 216.237C448.019 228.433 413.437 228.279 392.16 215.893C370.886 203.506 370.973 183.576 392.358 171.38C413.744 159.184 448.326 159.34 469.603 171.727C490.879 184.111 490.789 204.041 469.404 216.237Z" fill="white"/>
</mask>
<g mask="url(#mask8)">
<path fill-rule="evenodd" clip-rule="evenodd" d="M469.404 216.237C448.019 228.433 413.437 228.279 392.16 215.893C370.886 203.506 370.973 183.576 392.358 171.38C413.744 159.184 448.326 159.34 469.603 171.727C490.879 184.111 490.789 204.041 469.404 216.237Z" fill="url(#paint3_radial)"/>
</g>
<path fill-rule="evenodd" clip-rule="evenodd" d="M430.259 167.916C418.672 167.916 407.106 170.431 398.262 175.479C389.695 180.369 384.96 186.874 384.93 193.793C384.899 200.715 389.574 207.263 398.096 212.23C415.877 222.59 444.867 222.72 462.738 212.519C471.305 207.63 476.04 201.125 476.073 194.203C476.104 187.284 471.428 180.736 462.904 175.771C453.925 170.538 442.081 167.916 430.259 167.916ZM430.741 221C418.746 221 406.739 218.34 397.631 213.033C388.809 207.891 383.969 201.056 384 193.791C384.033 186.526 388.934 179.736 397.802 174.674C415.922 164.329 445.337 164.459 463.371 174.968C472.194 180.111 477.033 186.942 477 194.208C476.967 201.473 472.066 208.262 463.2 213.325C454.231 218.444 442.492 221 430.741 221Z" fill="#EAA258"/>
<mask id="mask9" mask-type="alpha" maskUnits="userSpaceOnUse" x="385" y="168" width="92" height="53">
<path fill-rule="evenodd" clip-rule="evenodd" d="M463.384 213.386C445.522 223.585 416.631 223.456 398.86 213.097C381.087 202.741 381.16 186.076 399.025 175.877C416.889 165.678 445.778 165.807 463.551 176.166C481.324 186.524 481.249 203.187 463.384 213.386Z" fill="white"/>
</mask>
<g mask="url(#mask9)">
<path fill-rule="evenodd" clip-rule="evenodd" d="M463.384 213.386C445.522 223.585 416.631 223.456 398.86 213.097C381.087 202.741 381.16 186.076 399.025 175.877C416.889 165.678 445.778 165.807 463.551 176.166C481.324 186.524 481.249 203.187 463.384 213.386Z" fill="url(#paint4_radial)"/>
</g>
<path fill-rule="evenodd" clip-rule="evenodd" d="M398.543 177.884C416.554 167.543 445.685 167.674 463.605 178.174C472.081 183.143 476.526 189.542 476.955 196C477.5 188.808 473.06 181.498 463.615 175.963C445.694 165.462 416.566 165.329 398.553 175.67C389.06 181.122 384.556 188.389 385.034 195.586C385.523 189.132 390.022 182.774 398.543 177.884Z" fill="#EAA258"/>
<path fill-rule="evenodd" clip-rule="evenodd" d="M468.956 214.794C447.613 227.08 413.098 226.925 391.865 214.447C381.701 208.475 376.438 200.765 376.035 193C375.518 201.458 380.779 210.03 391.855 216.539C413.088 229.017 447.603 229.172 468.947 216.886C480.077 210.479 485.413 201.955 484.975 193.494C484.504 201.252 479.169 208.914 468.956 214.794Z" fill="#FAE383"/>
<path fill-rule="evenodd" clip-rule="evenodd" d="M436 116.065L431.517 119.032C430.79 114.012 428.383 108.578 424.145 103.051C409.222 83.5848 377.34 70.3358 352.931 73.455C346.171 74.3211 340.701 76.3536 336.63 79.2498L335.29 74.2131L331.616 82.9628L331.637 82.9558C328.279 90.417 330 100.033 337.603 109.949C352.523 129.415 384.407 142.664 408.816 139.545C421.021 137.984 429.046 132.626 432.154 125.226L436 116.065Z" fill="#EAA258"/>
<path fill-rule="evenodd" clip-rule="evenodd" d="M412.12 130.541C387.62 133.687 355.617 120.326 340.641 100.697C325.663 81.0694 333.382 62.6066 357.881 59.4588C382.381 56.3135 414.382 69.6736 429.361 89.3009C444.337 108.931 436.618 127.393 412.12 130.541Z" fill="#F6C86C"/>
<mask id="mask10" mask-type="alpha" maskUnits="userSpaceOnUse" x="333" y="59" width="105" height="72">
<path fill-rule="evenodd" clip-rule="evenodd" d="M412.67 129.949C388.304 133.064 356.476 119.834 341.582 100.395C326.685 80.9578 334.362 62.6742 358.728 59.557C383.094 56.4422 414.919 69.6727 429.816 89.1094C444.71 108.548 437.033 126.832 412.67 129.949Z" fill="white"/>
</mask>
<g mask="url(#mask10)">
<path fill-rule="evenodd" clip-rule="evenodd" d="M412.67 129.949C388.304 133.064 356.476 119.834 341.582 100.395C326.685 80.9578 334.362 62.6742 358.728 59.557C383.094 56.4422 414.919 69.6727 429.816 89.1094C444.71 108.548 437.033 126.832 412.67 129.949Z" fill="url(#paint5_radial)"/>
</g>
<path fill-rule="evenodd" clip-rule="evenodd" d="M394.697 70.4609C384.025 66.0756 372.421 64.01 362.358 65.2992C352.612 66.5438 345.78 70.7244 343.121 77.0671C340.46 83.4098 342.276 91.1877 348.234 98.9749C360.665 115.215 387.307 126.303 407.64 123.701C417.386 122.454 424.22 118.274 426.879 111.931C429.538 105.591 427.722 97.8104 421.764 90.0255C415.487 81.8242 405.578 74.9356 394.697 70.4609ZM374.957 119.379C363.912 114.841 353.869 107.854 347.5 99.5349C341.331 91.4771 339.475 83.3699 342.267 76.7119C345.06 70.0539 352.154 65.6756 362.243 64.384C382.858 61.7444 409.89 72.9947 422.498 89.4679C428.667 97.5257 430.525 105.628 427.734 112.289C424.94 118.946 417.846 123.325 407.758 124.616C397.554 125.922 385.775 123.826 374.957 119.379Z" fill="#EAA258"/>
<mask id="mask11" mask-type="alpha" maskUnits="userSpaceOnUse" x="342" y="64" width="88" height="61">
<path fill-rule="evenodd" clip-rule="evenodd" d="M408.646 124.331C388.079 126.95 361.214 115.831 348.64 99.495C336.068 83.1611 342.546 67.7937 363.113 65.1754C383.681 62.5571 410.546 73.6756 423.12 90.0118C435.693 106.346 429.214 121.711 408.646 124.331Z" fill="white"/>
</mask>
<g mask="url(#mask11)">
<path fill-rule="evenodd" clip-rule="evenodd" d="M408.646 124.331C388.079 126.95 361.214 115.831 348.64 99.495C336.068 83.1611 342.546 67.7937 363.113 65.1754C383.681 62.5571 410.546 73.6756 423.12 90.0118C435.693 106.346 429.214 121.711 408.646 124.331Z" fill="url(#paint6_radial)"/>
</g>
<path fill-rule="evenodd" clip-rule="evenodd" d="M362.096 66.4192C382.553 63.7745 409.274 75.005 421.781 91.5035C427.696 99.3097 429.366 106.893 427.324 113C430.537 106.59 429.215 98.1674 422.624 89.4726C410.117 72.9717 383.396 61.7412 362.939 64.3859C352.159 65.7817 345.276 70.7535 343 77.5572C345.886 71.8034 352.421 67.6704 362.096 66.4192Z" fill="#EAA258"/>
<path fill-rule="evenodd" clip-rule="evenodd" d="M413.218 128.619C388.932 131.764 357.21 118.413 342.362 98.8018C335.257 89.4161 333.318 80.3024 335.874 73C332.209 80.5909 333.822 90.4945 341.566 100.722C356.411 120.335 388.136 133.684 412.423 130.542C425.087 128.9 433.213 123.095 436 115.138C432.64 122.099 424.841 127.115 413.218 128.619Z" fill="#FAE383"/>
<path fill-rule="evenodd" clip-rule="evenodd" d="M207.874 434.041C207.153 433.608 206.44 433.185 205.716 432.752C206.411 432.835 206.798 432.894 206.798 432.894L207.874 434.041Z" fill="#8B490E"/>
<path fill-rule="evenodd" clip-rule="evenodd" d="M219.12 430.085L222.449 428.086L236.999 404.098L229.858 394.631L187.522 379.755L184.193 381.755L224.807 401.066L228.775 405.853L219.12 430.085Z" fill="#423D3D"/>
<path fill-rule="evenodd" clip-rule="evenodd" d="M233.698 406.486L219.258 430.527L222.561 428.523L237.001 404.479L233.698 406.486Z" fill="#291518"/>
<path fill-rule="evenodd" clip-rule="evenodd" d="M229.799 394.766L226.439 396.767L233.644 406.245L237.001 404.241L229.799 394.766Z" fill="#4C4C4C"/>
<path fill-rule="evenodd" clip-rule="evenodd" d="M215.532 425.073L219.508 430.085L234.044 406.203L226.907 396.774L184.617 381.963L186.73 389.073L221.863 403.182L225.828 407.948L215.532 425.073Z" fill="#362326"/>
<path fill-rule="evenodd" clip-rule="evenodd" d="M202.422 415.188L202.817 414.932L202.675 415.362L202.422 415.188ZM201.818 418.214L201.81 418.655C201.81 419.327 201.851 420.012 201.93 420.703L202.335 420.979C202.368 421.261 202.408 421.545 202.455 421.83L202.085 421.815C202.232 422.7 202.436 423.596 202.691 424.489L203.094 424.637C203.184 424.938 203.279 425.237 203.377 425.536L203.061 425.658C203.369 426.565 203.725 427.464 204.13 428.349L204.5 428.363C204.639 428.659 204.781 428.955 204.93 429.248L204.688 429.498C205.131 430.371 205.621 431.219 206.146 432.038L206.462 431.916C206.638 432.191 206.821 432.464 207.008 432.732L206.856 433.099C207.408 433.881 207.996 434.623 208.613 435.323L208.853 435.07L209.492 435.764L209.438 436.219C210.063 436.862 210.711 437.453 211.38 437.991L211.53 437.624L212.215 438.142L212.264 438.657C212.596 438.893 212.928 439.115 213.265 439.316C213.605 439.521 213.937 439.7 214.269 439.868L214.318 439.41L215.003 439.723L215.153 440.266C215.634 440.463 216.108 440.613 216.567 440.727L214.682 442.863L215.545 443.33L217.484 442.249L217.715 442.351L223.088 439.106C223.401 438.955 223.703 438.776 223.983 438.566L223.934 438.455L224.541 438.088C224.943 437.692 225.302 437.223 225.607 436.688L225.378 436.324L225.977 435.963C226.235 435.38 226.437 434.731 226.583 434.023L226.214 433.591L226.246 433.4L226.741 433.102C226.817 432.504 226.861 431.867 226.861 431.196L226.85 430.747L226.45 430.414L226.423 429.919L226.796 429.694C226.722 428.832 226.589 427.953 226.401 427.072L225.993 426.855L225.825 426.142L226.137 425.954C225.901 425.041 225.604 424.128 225.261 423.226L224.872 423.144C224.764 422.862 224.649 422.58 224.53 422.302L224.81 422.114C224.421 421.21 223.986 420.316 223.504 419.452L223.159 419.509C223.009 419.244 222.857 418.982 222.702 418.724L222.9 418.414C222.386 417.572 221.834 416.758 221.246 415.985L220.955 416.161L220.425 415.492L220.528 415.077C219.922 414.349 219.288 413.666 218.629 413.035L218.303 413.231L217.835 412.807L217.838 412.315C217.18 411.749 216.502 411.24 215.811 410.791L215.422 411.027L215.403 411.013L215.099 410.839L214.998 410.302C214.304 409.912 213.627 409.605 212.971 409.377L212.424 409.707L212.376 409.693L212.18 409.144C211.519 408.976 210.885 408.894 210.281 408.894L209.721 409.229L209.56 408.928C208.972 408.993 208.42 409.141 207.906 409.363L207.332 409.713L207.302 409.67L201.035 413.453L199.824 416.866L202.213 415.322C202.058 415.916 201.938 416.545 201.875 417.23L202.264 417.617L202.221 418.368L201.818 418.214Z" fill="#481018"/>
<path fill-rule="evenodd" clip-rule="evenodd" d="M207.442 409.349L203.779 411.309L201.092 413.309L202.768 412.853L205.326 410.741L209.118 408.894L208.041 409.149L207.442 409.349Z" fill="#4F1F26"/>
<path fill-rule="evenodd" clip-rule="evenodd" d="M223.438 419.489L219.843 419.964L217.145 423.12L218.456 425.67L221.187 422.498L224.749 422.042L224.123 420.741L223.438 419.489Z" fill="#4F1F26"/>
<path fill-rule="evenodd" clip-rule="evenodd" d="M224.713 423.021L221.377 423.448L218.412 426.613L219.293 429.202L222.293 426.016L225.594 425.611L225.235 424.434L224.713 423.021Z" fill="#4F1F26"/>
<path fill-rule="evenodd" clip-rule="evenodd" d="M226.039 426.995L222.862 427.404L219.68 430.645L220.08 433.176L223.295 429.915L226.439 429.525L226.317 428.394L226.039 426.995Z" fill="#4F1F26"/>
<path fill-rule="evenodd" clip-rule="evenodd" d="M226.428 430.527L223.432 430.862L220.21 434.334L220.102 436.707L223.356 433.212L226.32 432.897L226.438 431.866L226.428 430.527Z" fill="#4F1F26"/>
<path fill-rule="evenodd" clip-rule="evenodd" d="M226.017 433.617L223.305 433.819L219.854 437.412L219.258 439.356L222.743 435.744L225.421 435.562L225.75 434.76L226.017 433.617Z" fill="#4F1F26"/>
<path fill-rule="evenodd" clip-rule="evenodd" d="M225.172 436.707L222.986 437.134L219.037 440.251L217.99 441.564L221.974 438.428L224.128 438.018L224.685 437.467L225.172 436.707Z" fill="#4F1F26"/>
<path fill-rule="evenodd" clip-rule="evenodd" d="M220.96 415.516L217.33 416.008L214.609 419.278L216.285 421.697L219.042 418.404L222.636 417.932L221.801 416.662L220.96 415.516Z" fill="#4F1F26"/>
<path fill-rule="evenodd" clip-rule="evenodd" d="M218.237 412.867L214.717 413.357L212.076 416.595L213.942 418.606L216.615 415.346L220.103 414.878L219.261 413.878L218.237 412.867Z" fill="#4F1F26"/>
<path fill-rule="evenodd" clip-rule="evenodd" d="M215.504 410.66L211.856 411.156L209.119 414.437L211.186 415.957L213.956 412.654L217.568 412.181L216.687 411.448L215.504 410.66Z" fill="#4F1F26"/>
<path fill-rule="evenodd" clip-rule="evenodd" d="M212.969 409.335L209.321 409.802L206.584 412.886L208.648 413.75L211.418 410.645L215.033 410.202L214.127 409.741L212.969 409.335Z" fill="#4F1F26"/>
<path fill-rule="evenodd" clip-rule="evenodd" d="M209.788 408.452L206.185 409.318L203.627 412.593L205.495 412.867L207.928 409.473L211.653 408.726L210.627 408.511L209.788 408.452Z" fill="#4F1F26"/>
<path fill-rule="evenodd" clip-rule="evenodd" d="M203.205 412.426L198.98 415.014L200.096 416.84L203.205 414.973V412.426Z" fill="#481018"/>
<path fill-rule="evenodd" clip-rule="evenodd" d="M202.359 414.633L198.135 417.223L199.251 419.048L202.359 417.182V414.633Z" fill="#481018"/>
<path fill-rule="evenodd" clip-rule="evenodd" d="M201.937 418.165L197.713 420.755L198.826 422.58L201.937 420.713V418.165Z" fill="#481018"/>
<path fill-rule="evenodd" clip-rule="evenodd" d="M201.937 421.255L197.713 423.844L198.828 425.67L201.937 423.806V421.255Z" fill="#481018"/>
<path fill-rule="evenodd" clip-rule="evenodd" d="M203.205 425.67L198.98 428.262L200.094 430.085L203.205 428.22V425.67Z" fill="#481018"/>
<path fill-rule="evenodd" clip-rule="evenodd" d="M219.982 436.831C220.058 436.237 220.101 435.609 220.101 434.945L220.09 434.497L219.69 434.168C219.682 433.903 219.668 433.639 219.649 433.374L220.036 433.456C219.963 432.603 219.831 431.736 219.644 430.86L219.237 430.649C219.175 430.367 219.11 430.089 219.037 429.807L219.381 429.754C219.143 428.853 218.85 427.949 218.509 427.054L218.122 426.972C218.013 426.693 217.897 426.417 217.781 426.139L218.059 425.953C217.672 425.058 217.239 424.176 216.76 423.32L216.416 423.374C216.267 423.112 216.115 422.856 215.961 422.6L216.158 422.293C215.647 421.457 215.097 420.651 214.512 419.886L214.233 420.074L213.694 419.401L213.794 418.99C213.193 418.27 212.562 417.594 211.904 416.969L211.709 417.279L211.116 416.744L211.119 416.257C210.464 415.696 209.789 415.19 209.099 414.748L208.998 415.159L208.695 414.967L208.392 414.793L208.289 414.261C207.601 413.875 206.927 413.571 206.272 413.348L206.274 413.836L205.681 413.661L205.486 413.115C204.828 412.951 204.197 412.87 203.593 412.867L203.696 413.399L203.157 413.427L202.878 412.904C202.293 412.968 201.744 413.112 201.232 413.334L201.43 413.878L200.975 414.109L200.631 413.636C200.151 413.92 199.718 414.283 199.331 414.714L199.61 415.232L199.269 415.657L198.881 415.274C198.54 415.758 198.248 416.307 198.009 416.924L198.351 417.391L198.153 417.994L197.747 417.718C197.56 418.368 197.427 419.075 197.354 419.843L197.741 420.226L197.698 420.967L197.3 420.818L197.289 421.251C197.289 421.918 197.332 422.597 197.408 423.281L197.814 423.554C197.847 423.833 197.888 424.114 197.934 424.396L197.563 424.379C197.712 425.257 197.912 426.141 198.169 427.025L198.57 427.175C198.657 427.473 198.751 427.769 198.852 428.064L198.537 428.185C198.841 429.081 199.198 429.973 199.599 430.849L199.97 430.86C200.105 431.156 200.249 431.448 200.395 431.738L200.154 431.986C200.598 432.848 201.083 433.689 201.606 434.5L201.92 434.376C202.098 434.649 202.28 434.92 202.467 435.187L202.315 435.55C202.865 436.322 203.45 437.059 204.062 437.752L204.3 437.501L204.936 438.188L204.885 438.639C205.505 439.272 206.152 439.861 206.816 440.39L206.965 440.03L207.647 440.539L207.699 441.052C208.026 441.282 208.359 441.502 208.695 441.705C209.031 441.907 209.364 442.085 209.692 442.248L209.743 441.798L210.426 442.104L210.575 442.645C211.238 442.912 211.885 443.101 212.505 443.211L212.454 442.699L213.09 442.777L213.329 443.312C213.941 443.354 214.526 443.321 215.075 443.208L214.924 442.662L215.471 442.51L215.782 443.008C216.307 442.825 216.792 442.569 217.236 442.24L216.995 441.699L217.42 441.336L217.789 441.767C218.192 441.372 218.547 440.908 218.853 440.379L218.539 439.88L218.82 439.331L219.221 439.664C219.476 439.086 219.679 438.445 219.825 437.743L219.457 437.316L219.576 436.617L219.982 436.831Z" fill="#67383F"/>
<path fill-rule="evenodd" clip-rule="evenodd" d="M218.835 434.227C218.835 441.194 214.201 444.001 208.485 440.495C202.769 436.989 198.135 428.498 198.135 421.531C198.135 414.562 202.769 411.754 208.485 415.26C214.201 418.766 218.835 427.257 218.835 434.227Z" fill="#5C2930"/>
<path fill-rule="evenodd" clip-rule="evenodd" d="M216.723 432.959C216.723 438.294 213.128 440.443 208.696 437.759C204.262 435.075 200.67 428.573 200.67 423.238C200.67 417.903 204.262 415.754 208.696 418.438C213.128 421.122 216.723 427.624 216.723 432.959Z" fill="#67383F"/>
<path fill-rule="evenodd" clip-rule="evenodd" d="M215.878 432.363C215.878 437.046 212.756 438.932 208.908 436.575C205.057 434.22 201.938 428.514 201.938 423.834C201.938 419.151 205.057 417.265 208.908 419.622C212.756 421.976 215.878 427.682 215.878 432.363Z" fill="#10F5BB"/>
<path fill-rule="evenodd" clip-rule="evenodd" d="M215.455 431.77V431.841C215.455 436.203 212.614 437.96 209.118 435.756C205.622 433.569 202.781 428.27 202.781 423.908C202.781 419.557 205.622 417.801 209.118 419.99L209.361 420.156C209.913 420.52 210.455 420.979 210.955 421.495C211.367 421.899 211.766 422.36 212.152 422.848C212.588 423.421 212.987 424.02 213.359 424.662C213.579 425.066 213.795 425.484 214.015 425.914V425.929C214.337 426.625 214.62 427.35 214.836 428.09C215.029 428.689 215.185 429.29 215.275 429.889C215.391 430.529 215.455 431.156 215.455 431.77Z" fill="#18D1B6"/>
<path fill-rule="evenodd" clip-rule="evenodd" d="M210.501 434.982C206.858 432.835 203.906 427.639 203.906 423.374C203.906 421.609 204.417 420.287 205.268 419.489C203.512 419.843 202.359 421.513 202.359 424.18C202.359 428.444 205.312 433.64 208.955 435.788C211.09 437.045 212.983 436.967 214.188 435.835C213.137 436.046 211.866 435.785 210.501 434.982Z" fill="#12A882"/>
<path fill-rule="evenodd" clip-rule="evenodd" d="M212.92 427.942C212.92 429.467 211.88 430.08 210.597 429.313C209.311 428.547 208.273 426.69 208.273 425.164C208.273 423.639 209.311 423.027 210.597 423.793C211.88 424.56 212.92 426.417 212.92 427.942Z" fill="#481018"/>
<path fill-rule="evenodd" clip-rule="evenodd" d="M212.076 428.185C212.076 429.491 211.13 430.019 209.964 429.359C208.798 428.702 207.852 427.11 207.852 425.803C207.852 424.497 208.798 423.972 209.964 424.629C211.13 425.286 212.076 426.879 212.076 428.185Z" fill="#12A882"/>
<path fill-rule="evenodd" clip-rule="evenodd" d="M211.653 428.429C211.653 429.516 210.897 429.957 209.962 429.407C209.029 428.86 208.273 427.533 208.273 426.445C208.273 425.355 209.029 424.917 209.962 425.464C210.897 426.011 211.653 427.338 211.653 428.429Z" fill="#10F5BB"/>
<path fill-rule="evenodd" clip-rule="evenodd" d="M207.716 422.032C207.716 422.644 207.302 422.888 206.793 422.582C206.285 422.273 205.874 421.531 205.874 420.92C205.874 420.311 206.285 420.063 206.793 420.369C207.302 420.678 207.716 421.423 207.716 422.032Z" fill="#12A882"/>
<path fill-rule="evenodd" clip-rule="evenodd" d="M206.87 424.239C206.87 424.848 206.459 425.095 205.948 424.789C205.439 424.48 205.028 423.739 205.028 423.127C205.028 422.518 205.439 422.271 205.948 422.58C206.459 422.886 206.87 423.63 206.87 424.239Z" fill="#12A882"/>
<path fill-rule="evenodd" clip-rule="evenodd" d="M207.296 427.771C207.296 428.383 206.882 428.627 206.373 428.321C205.864 428.012 205.45 427.27 205.45 426.658C205.45 426.05 205.864 425.802 206.373 426.111C206.882 426.417 207.296 427.162 207.296 427.771Z" fill="#12A882"/>
<path fill-rule="evenodd" clip-rule="evenodd" d="M207.09 428.091C207.09 428.563 206.768 428.755 206.372 428.517C205.975 428.279 205.656 427.701 205.656 427.225C205.656 426.749 205.975 426.558 206.372 426.799C206.768 427.037 207.09 427.615 207.09 428.091Z" fill="#10C899"/>
<path fill-rule="evenodd" clip-rule="evenodd" d="M206.914 427.983C206.914 428.341 206.672 428.487 206.373 428.304C206.074 428.125 205.832 427.689 205.832 427.331C205.832 426.972 206.074 426.827 206.373 427.009C206.672 427.189 206.914 427.624 206.914 427.983Z" fill="#10F5BB"/>
<path fill-rule="evenodd" clip-rule="evenodd" d="M206.666 424.115C206.666 424.591 206.344 424.783 205.948 424.542C205.554 424.304 205.232 423.726 205.232 423.25C205.232 422.777 205.554 422.585 205.948 422.823C206.344 423.061 206.666 423.642 206.666 424.115Z" fill="#10C899"/>
<path fill-rule="evenodd" clip-rule="evenodd" d="M206.49 424.453C206.49 424.808 206.248 424.954 205.949 424.774C205.651 424.595 205.408 424.156 205.408 423.798C205.408 423.439 205.651 423.297 205.949 423.476C206.248 423.656 206.49 424.094 206.49 424.453Z" fill="#10F5BB"/>
<path fill-rule="evenodd" clip-rule="evenodd" d="M207.512 421.907C207.512 422.383 207.19 422.575 206.793 422.337C206.397 422.096 206.078 421.518 206.078 421.042C206.078 420.569 206.397 420.377 206.793 420.615C207.19 420.856 207.512 421.434 207.512 421.907Z" fill="#10C899"/>
<path fill-rule="evenodd" clip-rule="evenodd" d="M207.336 421.803C207.336 422.162 207.094 422.304 206.795 422.125C206.496 421.945 206.254 421.51 206.254 421.151C206.254 420.793 206.496 420.648 206.795 420.827C207.094 421.009 207.336 421.445 207.336 421.803Z" fill="#10F5BB"/>
<path fill-rule="evenodd" clip-rule="evenodd" d="M209.406 430.861C209.406 431.473 208.995 431.717 208.486 431.411C207.977 431.105 207.563 430.361 207.563 429.749C207.563 429.14 207.977 428.893 208.486 429.202C208.995 429.508 209.406 430.252 209.406 430.861Z" fill="#12A882"/>
<path fill-rule="evenodd" clip-rule="evenodd" d="M211.52 433.069C211.52 433.681 211.106 433.925 210.598 433.619C210.089 433.31 209.675 432.568 209.675 431.956C209.675 431.347 210.089 431.1 210.598 431.409C211.106 431.715 211.52 432.46 211.52 433.069Z" fill="#12A882"/>
<path fill-rule="evenodd" clip-rule="evenodd" d="M214.476 433.509C214.476 434.121 214.065 434.368 213.556 434.059C213.048 433.753 212.634 433.008 212.634 432.399C212.634 431.788 213.048 431.543 213.556 431.849C214.065 432.155 214.476 432.9 214.476 433.509Z" fill="#12A882"/>
<path fill-rule="evenodd" clip-rule="evenodd" d="M215.075 431.581L214.528 431.473C214.025 431.164 213.605 430.425 213.605 429.804C213.605 429.21 214.025 428.948 214.528 429.269L214.871 429.553L214.927 429.9C215.019 430.388 215.063 430.854 215.063 431.318L215.075 431.581Z" fill="#12A882"/>
<path fill-rule="evenodd" clip-rule="evenodd" d="M209.202 430.739C209.202 431.214 208.879 431.406 208.486 431.165C208.087 430.927 207.767 430.349 207.767 429.873C207.767 429.397 208.087 429.206 208.486 429.447C208.879 429.685 209.202 430.263 209.202 430.739Z" fill="#10C899"/>
<path fill-rule="evenodd" clip-rule="evenodd" d="M209.026 431.073C209.026 431.431 208.783 431.577 208.484 431.397C208.186 431.215 207.943 430.779 207.943 430.421C207.943 430.062 208.186 429.917 208.484 430.099C208.783 430.279 209.026 430.714 209.026 431.073Z" fill="#10F5BB"/>
<path fill-rule="evenodd" clip-rule="evenodd" d="M211.315 433.388C211.315 433.861 210.995 434.053 210.599 433.815C210.203 433.577 209.881 432.996 209.881 432.523C209.881 432.047 210.203 431.856 210.599 432.097C210.995 432.335 211.315 432.913 211.315 433.388Z" fill="#10C899"/>
<path fill-rule="evenodd" clip-rule="evenodd" d="M211.139 433.281C211.139 433.64 210.896 433.785 210.598 433.603C210.296 433.424 210.057 432.988 210.057 432.629C210.057 432.271 210.296 432.126 210.598 432.305C210.896 432.487 211.139 432.923 211.139 433.281Z" fill="#10F5BB"/>
<path fill-rule="evenodd" clip-rule="evenodd" d="M214.272 433.386C214.272 433.862 213.952 434.054 213.556 433.816C213.16 433.574 212.838 432.997 212.838 432.521C212.838 432.048 213.16 431.856 213.556 432.094C213.952 432.332 214.272 432.913 214.272 433.386Z" fill="#10C899"/>
<path fill-rule="evenodd" clip-rule="evenodd" d="M214.096 433.282C214.096 433.641 213.853 433.783 213.555 433.604C213.256 433.425 213.014 432.986 213.014 432.627C213.014 432.269 213.256 432.127 213.555 432.306C213.853 432.485 214.096 432.924 214.096 433.282Z" fill="#10F5BB"/>
<path fill-rule="evenodd" clip-rule="evenodd" d="M214.628 428.014C214.113 427.705 213.629 427.121 213.629 426.503L213.942 425.798L214.101 426.132L214.217 426.404C214.421 426.871 214.604 427.334 214.752 427.823L214.796 427.943L214.855 428.122L214.628 428.014Z" fill="#12A882"/>
<path fill-rule="evenodd" clip-rule="evenodd" d="M213.4 424.662L212.941 424.541C212.43 424.22 212.019 423.493 212.019 422.872L212.051 422.705L212.246 422.968L212.362 423.123C212.657 423.518 212.929 423.911 213.181 424.328L213.284 424.482L213.4 424.662Z" fill="#12A882"/>
<path fill-rule="evenodd" clip-rule="evenodd" d="M211.092 421.899C211.06 422.434 210.66 422.663 210.181 422.363C209.667 422.054 209.256 421.303 209.256 420.706L209.303 420.456L209.531 420.611L209.735 420.756C210.01 420.944 210.282 421.161 210.545 421.399L210.876 421.695L211.092 421.899Z" fill="#12A882"/>
<path fill-rule="evenodd" clip-rule="evenodd" d="M210.887 421.8C210.887 422.276 210.567 422.468 210.168 422.23C209.781 421.992 209.461 421.408 209.461 420.932L209.529 420.62L209.733 420.765C210.008 420.954 210.28 421.17 210.544 421.408L210.875 421.705L210.887 421.8Z" fill="#10C899"/>
<path fill-rule="evenodd" clip-rule="evenodd" d="M210.068 421.631C210.068 421.99 209.829 422.132 209.533 421.953C209.234 421.777 208.983 421.347 208.983 420.989L209.166 420.609C209.441 420.797 209.713 421.013 209.976 421.251L210.068 421.631Z" fill="#10F5BB"/>
<path fill-rule="evenodd" clip-rule="evenodd" d="M213.234 424.441L212.903 424.333C212.504 424.095 212.184 423.51 212.184 423.035L212.196 422.926L212.311 423.081C212.607 423.476 212.879 423.869 213.13 424.286L213.234 424.441Z" fill="#10C899"/>
<path fill-rule="evenodd" clip-rule="evenodd" d="M213.13 424.286L212.823 424.227C212.527 424.048 212.288 423.606 212.288 423.248L212.311 423.081C212.607 423.476 212.879 423.869 213.13 424.286Z" fill="#10F5BB"/>
<path fill-rule="evenodd" clip-rule="evenodd" d="M214.773 428.249L214.625 428.178C214.226 427.94 213.907 427.356 213.907 426.877L214.078 426.438L214.194 426.71C214.398 427.177 214.581 427.64 214.729 428.129L214.773 428.249Z" fill="#10C899"/>
<path fill-rule="evenodd" clip-rule="evenodd" d="M214.55 428.15C214.254 427.971 214.015 427.541 214.015 427.186L214.198 426.802C214.402 427.269 214.585 427.733 214.733 428.221L214.55 428.15Z" fill="#10F5BB"/>
<path fill-rule="evenodd" clip-rule="evenodd" d="M214.949 431.295L214.449 431.248C214.05 431.007 213.731 430.426 213.731 429.947C213.731 429.471 214.05 429.28 214.449 429.521L214.813 429.876C214.905 430.365 214.949 430.831 214.949 431.295Z" fill="#10C899"/>
<path fill-rule="evenodd" clip-rule="evenodd" d="M214.881 430.682C214.881 431.04 214.639 431.185 214.34 431.003C214.041 430.824 213.799 430.388 213.799 430.03C213.799 429.671 214.041 429.526 214.34 429.708C214.639 429.887 214.881 430.323 214.881 430.682Z" fill="#10F5BB"/>
<path fill-rule="evenodd" clip-rule="evenodd" d="M175.744 376.982L178.011 370.385L189.343 364.303L202.255 373.929L210.161 394.685L210.807 408.111L205.084 411.543L191.195 403.761L177.816 386.309L175.744 376.982Z" fill="#6B6A78"/>
<path fill-rule="evenodd" clip-rule="evenodd" d="M170.254 380.58L172.521 373.948L183.852 367.835L196.763 377.514L204.668 398.376L205.317 411.872L199.462 413.309L185.706 407.501L172.328 389.955L170.254 380.58Z" fill="#4C4C59"/>
<path fill-rule="evenodd" clip-rule="evenodd" d="M185.504 354.894L215.878 389.438V394.18L206.821 391.504L205.139 411.871L199.276 413.309L185.504 407.5L172.11 389.951L170.034 380.573L164.753 375.36V387.552L99.8559 364.506L97.5918 343.274L112.119 328.543L185.504 354.894Z" fill="#380009"/>
<path fill-rule="evenodd" clip-rule="evenodd" d="M151.183 444.654L205.317 411.907L186.69 382.846L131.811 400.47L151.183 444.654Z" fill="#380009"/>
<path fill-rule="evenodd" clip-rule="evenodd" d="M218.834 396.09L163.916 429.052V434.942L218.834 401.98V396.09Z" fill="#888383"/>
<path fill-rule="evenodd" clip-rule="evenodd" d="M160.115 426.553L164.34 428.956V434.942L160.115 432.539V426.553Z" fill="#6E6868"/>
<path fill-rule="evenodd" clip-rule="evenodd" d="M214.906 393.441L218.836 395.805L164.045 428.761L160.115 426.397L214.906 393.441Z" fill="#9398A1"/>
<path fill-rule="evenodd" clip-rule="evenodd" d="M169.541 427.436L165.605 429.843V432.734L170.675 428.111L169.541 427.436Z" fill="#A5253B"/>
<path fill-rule="evenodd" clip-rule="evenodd" d="M170.676 427.878L166.451 430.283V433.176L170.676 430.77V427.878Z" fill="#E25069"/>
<path fill-rule="evenodd" clip-rule="evenodd" d="M166.864 429.954L165.616 429.202V432.421L166.864 433.176V429.954Z" fill="#B83C51"/>
<path fill-rule="evenodd" clip-rule="evenodd" d="M212.498 401.145V404.037L217.99 399.622L216.432 398.739L212.498 401.145Z" fill="#A5253B"/>
<path fill-rule="evenodd" clip-rule="evenodd" d="M213.766 402.029V404.92L217.931 402.347L217.99 399.622L213.766 402.029Z" fill="#E25069"/>
<path fill-rule="evenodd" clip-rule="evenodd" d="M212.498 401.145L212.508 404.037L213.756 404.92L213.765 402.029L212.498 401.145Z" fill="#B83C51"/>
<path fill-rule="evenodd" clip-rule="evenodd" d="M211.144 401.388L209.119 407.569L212.921 405.364L211.144 401.388Z" fill="#E25069"/>
<path fill-rule="evenodd" clip-rule="evenodd" d="M211.136 401.315L210.471 400.947L208.368 407.204L209.033 407.569L211.136 401.315Z" fill="#B83C51"/>
<path fill-rule="evenodd" clip-rule="evenodd" d="M174.39 423.463L172.365 429.644L176.167 427.439L174.39 423.463Z" fill="#E25069"/>
<path fill-rule="evenodd" clip-rule="evenodd" d="M174.382 423.389L173.717 423.021L171.614 429.278L172.28 429.644L174.382 423.389Z" fill="#B83C51"/>
<path fill-rule="evenodd" clip-rule="evenodd" d="M161.879 426.995L216.301 394.135V389.362L185.81 354.59L131.389 387.45L161.879 422.221V426.995Z" fill="#4C1A21"/>
<path fill-rule="evenodd" clip-rule="evenodd" d="M125.05 236.577L109.201 227L54.9238 259.803L70.773 269.383L125.05 236.577Z" fill="white"/>
<path fill-rule="evenodd" clip-rule="evenodd" d="M124.913 236.713L186.62 273.795L207.453 303.85L214.61 377.109L160.248 409.777L70.5547 269.381L124.913 236.713Z" fill="#14EB7A"/>
<path fill-rule="evenodd" clip-rule="evenodd" d="M186.595 273.798L132.232 306.451L153.066 336.489L207.428 303.839L186.595 273.798Z" fill="#14F07D"/>
<path fill-rule="evenodd" clip-rule="evenodd" d="M163.106 359.667L171.943 376.363V388.585L107.038 365.482L104.773 344.197L119.3 329.426L163.106 359.667Z" fill="#64D6E5"/>
<path fill-rule="evenodd" clip-rule="evenodd" d="M111.533 354.895C111.533 368.614 120.802 385.33 132.232 392.233C143.664 399.138 152.933 393.613 152.933 379.891C152.933 366.171 143.664 349.455 132.232 342.553C120.802 335.65 111.533 341.176 111.533 354.895Z" fill="#64D6E5"/>
<path fill-rule="evenodd" clip-rule="evenodd" d="M131.008 387.864L161.381 422.491V427.245L152.325 424.563L150.643 444.98L144.78 446.42L131.008 440.595L117.614 423.006L115.54 413.606L110.257 408.38V420.602L45.3598 397.5L43.0957 376.217L53.8262 354.149L131.008 387.864Z" fill="#380009"/>
<path fill-rule="evenodd" clip-rule="evenodd" d="M39.0806 346.631L33.3789 337.726V326.777L61.0104 339.577L60.4156 364.958L39.0806 346.631Z" fill="#2D3230"/>
<path fill-rule="evenodd" clip-rule="evenodd" d="M70.9776 269.633L55.0811 260.112L36.1604 275.037L32.9806 286.376L30 322.306L36.7445 332.384L61.4926 351.059L70.9776 269.633Z" fill="#C4D5CC"/>
<path fill-rule="evenodd" clip-rule="evenodd" d="M111.991 390.673L120.826 407.424V419.687L117.507 421.697L53.6562 375.15L68.1856 360.33L111.991 390.673Z" fill="#240007"/>
<path fill-rule="evenodd" clip-rule="evenodd" d="M109.034 392.338L117.869 409.033V421.255L52.9636 398.152L50.6992 376.867L65.2286 362.096L109.034 392.338Z" fill="#380009"/>
<path fill-rule="evenodd" clip-rule="evenodd" d="M41.9059 384.928L42.6279 384.46C42.5387 384.718 42.4495 384.973 42.371 385.242L41.9059 384.928ZM40.8107 390.451C40.8053 390.715 40.7945 390.979 40.7945 391.251C40.7945 392.476 40.8702 393.726 41.0108 394.991L41.7518 395.493C41.8113 396.009 41.887 396.525 41.9708 397.044L41.2948 397.015C41.5652 398.631 41.9329 400.265 42.4008 401.895L43.1336 402.167C43.2932 402.714 43.4662 403.259 43.6474 403.806L43.0714 404.027C43.6312 405.68 44.2802 407.322 45.0157 408.935L45.6918 408.961C45.9406 409.502 46.2029 410.041 46.4706 410.574L46.0298 411.036C46.8384 412.624 47.7281 414.172 48.6827 415.667L49.256 415.44C49.5832 415.944 49.9131 416.444 50.2565 416.931L49.978 417.603C50.984 419.027 52.0521 420.382 53.1717 421.658L53.607 421.199C53.9883 421.63 54.375 422.055 54.7698 422.463L54.6752 423.294C55.811 424.465 56.99 425.548 58.2042 426.523L58.4773 425.857C58.8884 426.186 59.3048 426.498 59.724 426.801L59.8159 427.743C60.4163 428.168 61.022 428.576 61.6386 428.948C62.2524 429.319 62.8582 429.648 63.4612 429.949L63.5531 429.118C63.9723 429.325 64.386 429.515 64.7971 429.685L65.0702 430.68C65.9464 431.037 66.8063 431.312 67.6419 431.517L64.2103 435.415L65.7814 436.266L69.3104 434.298L69.7296 434.48L81.693 429.194C82.2663 428.917 85.5087 425.004 86.0198 424.618L85.9278 424.417L87.0338 423.748C87.7667 423.025 88.4184 422.168 88.9755 421.19L88.5617 420.527L89.6461 419.872C90.1166 418.808 90.4844 417.623 90.7521 416.333L90.0788 415.545L90.1383 415.193L91.0361 414.649C91.1794 413.557 91.2551 412.4 91.2551 411.175C91.2551 410.903 91.2443 410.625 91.2389 410.353L90.506 409.743C90.4952 409.446 90.4763 409.142 90.4574 408.845L91.1361 408.433C91.0036 406.86 90.7602 405.258 90.4195 403.647L89.6786 403.256C89.5839 402.822 89.4811 402.388 89.3703 401.952L89.9409 401.606C89.5055 399.944 88.97 398.28 88.3454 396.632L87.6369 396.482C87.4395 395.969 87.2312 395.456 87.0149 394.945L87.5233 394.602C86.8148 392.952 86.0252 391.327 85.1517 389.748L84.5189 389.85C84.2485 389.368 83.9727 388.892 83.6887 388.421L84.0484 387.854C83.1154 386.317 82.1095 384.831 81.0413 383.422L80.5113 383.743C80.1949 383.331 79.8731 382.923 79.5459 382.526L79.7325 381.769C78.6318 380.442 77.4771 379.192 76.2765 378.043L75.6869 378.403C75.4057 378.14 75.1218 377.879 74.8378 377.629V376.731C73.6453 375.698 72.4121 374.766 71.152 373.949L70.4462 374.377L70.411 374.354L69.8567 374.034L69.6728 373.053C68.4099 372.341 67.1795 371.783 65.9842 371.372L64.9891 371.973L64.9052 371.947L64.5456 370.941C63.3449 370.637 62.1902 370.487 61.0896 370.484L59.7808 370.552C58.7126 370.668 52.8228 373.895 51.8899 374.303L50.8433 374.936L50.7865 374.859L39.3829 381.763L37.1816 387.987L41.5273 385.172C41.2461 386.255 41.0297 387.403 40.9135 388.653L41.622 389.357C41.5841 389.802 41.5598 390.261 41.5435 390.726L40.8107 390.451Z" fill="#481018"/>
<path fill-rule="evenodd" clip-rule="evenodd" d="M56.6054 371.275L50.3983 375.527L40.1387 380.638L43.1673 379.849L53.2309 375.338L59.5713 370.043L56.6054 371.275Z" fill="#4F1F26"/>
<path fill-rule="evenodd" clip-rule="evenodd" d="M85.0377 389.468L79.7679 397.397L68.4434 399.229L70.862 404.037L82.2499 402.165L87.4536 394.273L86.2993 391.826L85.0377 389.468Z" fill="#4F1F26"/>
<path fill-rule="evenodd" clip-rule="evenodd" d="M88.3671 396.532L82.2589 404.419L71.8223 406.215L73.4454 411.101L83.9453 409.266L89.9876 401.415L89.3257 399.196L88.3671 396.532Z" fill="#4F1F26"/>
<path fill-rule="evenodd" clip-rule="evenodd" d="M90.526 403.596L84.747 411.54L73.9355 413.407L74.6655 418.165L85.5403 416.261L91.256 408.356L91.0328 406.23L90.526 403.596Z" fill="#4F1F26"/>
<path fill-rule="evenodd" clip-rule="evenodd" d="M91.2386 410.218L85.7756 418.019L74.979 420.059L74.7793 424.346L85.6379 422.269L91.0362 414.505L91.2548 412.643L91.2386 410.218Z" fill="#4F1F26"/>
<path fill-rule="evenodd" clip-rule="evenodd" d="M90.8327 415.957L85.9363 422.81L74.2181 425.705L73.0898 429.202L85.1198 425.612L89.7045 419.455L90.3279 418.009L90.8327 415.957Z" fill="#4F1F26"/>
<path fill-rule="evenodd" clip-rule="evenodd" d="M89.1424 420.814L83.6367 426.467L72.537 430.98L70.5547 433.617L81.7178 429.066L87.1629 423.45L88.2188 422.34L89.1424 420.814Z" fill="#4F1F26"/>
<path fill-rule="evenodd" clip-rule="evenodd" d="M81.0447 383.287L75.8372 391.204L64.6406 393.035L67.6692 397.415L78.9285 395.548L84.0733 387.668L82.5644 385.364L81.0447 383.287Z" fill="#4F1F26"/>
<path fill-rule="evenodd" clip-rule="evenodd" d="M75.9518 377.989L70.7521 385.797L59.5723 387.602L63.0478 391.234L74.2902 389.393L79.4274 381.621L77.8609 379.811L75.9518 377.989Z" fill="#4F1F26"/>
<path fill-rule="evenodd" clip-rule="evenodd" d="M71.0375 373.574L65.7856 381.686L54.502 383.561L58.2439 386.378L69.5934 384.465L74.7795 376.391L73.1817 375.036L71.0375 373.574Z" fill="#4F1F26"/>
<path fill-rule="evenodd" clip-rule="evenodd" d="M65.9669 370.926L61.2455 377.815L49.4336 381.109L53.1751 382.846L65.0501 379.514L69.7111 372.662L68.0669 371.737L65.9669 370.926Z" fill="#4F1F26"/>
<path fill-rule="evenodd" clip-rule="evenodd" d="M60.7429 370.043L55.6574 375.581L44.3633 380.17L47.8388 380.638L58.8637 376.879L64.2184 370.511L62.3066 370.144L60.7429 370.043Z" fill="#4F1F26"/>
<path fill-rule="evenodd" clip-rule="evenodd" d="M43.0963 380.197L35.4922 384.459L37.5006 387.702L43.0963 384.384V380.197Z" fill="#481018"/>
<path fill-rule="evenodd" clip-rule="evenodd" d="M41.4068 384.612L33.8027 389.016L35.8091 392.117L41.4068 388.945V384.612Z" fill="#481018"/>
<path fill-rule="evenodd" clip-rule="evenodd" d="M40.5611 390.351L32.957 394.753L34.9634 397.856L40.5611 394.684V390.351Z" fill="#481018"/>
<path fill-rule="evenodd" clip-rule="evenodd" d="M40.983 396.532L33.3789 400.936L35.3853 404.037L40.983 400.865V396.532Z" fill="#481018"/>
<path fill-rule="evenodd" clip-rule="evenodd" d="M43.0963 404.037L35.4922 408.439L37.4986 411.543L43.0963 408.37V404.037Z" fill="#481018"/>
<path fill-rule="evenodd" clip-rule="evenodd" d="M74.5597 424.302C74.7008 423.212 74.7795 422.056 74.7795 420.833C74.7795 420.561 74.7686 420.284 74.7605 420.012L74.028 419.403C74.0117 418.919 73.9873 418.432 73.9493 417.942L74.6601 418.095C74.5272 416.523 74.283 414.923 73.9412 413.318L73.1951 412.924C73.0839 412.409 72.9645 411.894 72.8316 411.375L73.461 411.279C73.0242 409.617 72.4871 407.955 71.8577 406.31L71.1496 406.16C70.9515 405.647 70.7399 405.135 70.5229 404.625L71.0356 404.285C70.3249 402.634 69.53 401.012 68.6537 399.435L68.0216 399.537C67.7503 399.055 67.4736 398.58 67.1887 398.109L67.5495 397.543C66.6109 396.008 65.6044 394.525 64.5328 393.117L64.02 393.466C63.6972 393.044 63.3662 392.628 63.0325 392.223L63.2197 391.467C62.1155 390.141 60.9571 388.895 59.7526 387.746L59.3945 388.318C59.0364 387.978 58.6728 387.65 58.3066 387.332L58.3093 386.435C57.1102 385.404 55.8758 384.473 54.6116 383.657L54.4244 384.416L53.8683 384.062L53.3094 383.742L53.1249 382.762C51.8607 382.054 50.6236 381.494 49.4272 381.083V381.981C49.061 381.859 48.7001 381.751 48.342 381.658L47.9839 380.653C46.7794 380.35 45.621 380.2 44.5168 380.197L44.704 381.179C44.3703 381.182 44.0393 381.196 43.7165 381.228L43.2037 380.265C42.1321 380.381 41.1229 380.65 40.187 381.058L40.5478 382.057C40.2629 382.185 39.9862 382.323 39.7149 382.479L39.0801 381.613C38.2065 382.134 37.4117 382.802 36.7009 383.595L37.2109 384.552C36.9939 384.798 36.785 385.059 36.5869 385.333L35.8761 384.628C35.2495 385.517 34.7123 386.528 34.2755 387.664L34.9049 388.522C34.772 388.878 34.6526 389.249 34.5387 389.632L33.7953 389.125C33.4535 390.32 33.2093 391.625 33.0764 393.035L33.7872 393.74C33.7492 394.185 33.7248 394.641 33.7085 395.108L32.976 394.831C32.9679 395.097 32.957 395.36 32.957 395.632C32.957 396.855 33.0357 398.104 33.1768 399.364L33.9174 399.865C33.9798 400.38 34.0531 400.899 34.1372 401.417L33.4616 401.388C33.7302 403.002 34.1019 404.631 34.5712 406.259L35.3037 406.531C35.4638 407.077 35.6374 407.624 35.8192 408.167L35.244 408.388C35.8029 410.039 36.454 411.681 37.1946 413.292L37.8701 413.315C38.1224 413.859 38.3829 414.394 38.6515 414.929L38.2093 415.388C39.0231 416.974 39.913 418.522 40.8706 420.012L41.4458 419.788C41.774 420.289 42.1077 420.788 42.4496 421.275L42.1728 421.946C43.1793 423.367 44.2509 424.724 45.3741 425.998L45.8109 425.536C46.1934 425.967 46.5813 426.391 46.9774 426.802L46.8825 427.629C48.0219 428.798 49.2047 429.88 50.4256 430.857L50.6968 430.191C51.1092 430.517 51.527 430.831 51.9475 431.132L52.0397 432.072C52.642 432.499 53.2524 432.904 53.8683 433.275C54.4841 433.646 55.0945 433.974 55.6968 434.277L55.789 433.445C56.2095 433.652 56.6273 433.841 57.0397 434.011L57.311 435.005C58.5318 435.501 59.7146 435.846 60.854 436.047L60.7591 435.107C61.1525 435.172 61.5404 435.217 61.9229 435.246L62.3624 436.234C63.4829 436.31 64.5572 436.251 65.5637 436.041L65.287 435.039C65.6288 434.963 65.9625 434.866 66.288 434.756L66.8632 435.676C67.8235 435.339 68.7134 434.866 69.5245 434.258L69.0823 433.267C69.3536 433.057 69.6141 432.836 69.8664 432.595L70.5419 433.388C71.2798 432.666 71.9309 431.811 72.4925 430.834L71.9146 429.917C72.0964 429.594 72.2727 429.257 72.4328 428.906L73.1653 429.518C73.6346 428.456 74.0063 427.272 74.2749 425.984L73.5994 425.196C73.6807 424.777 73.7567 424.35 73.8191 423.911L74.5597 424.302Z" fill="#67383F"/>
<path fill-rule="evenodd" clip-rule="evenodd" d="M72.6675 419.837C72.6675 432.577 64.0622 437.707 53.4474 431.298C42.8298 424.888 34.2246 409.366 34.2246 396.626C34.2246 383.886 42.8298 378.755 53.4474 385.165C64.0622 391.575 72.6675 407.097 72.6675 419.837Z" fill="#5C2930"/>
<path fill-rule="evenodd" clip-rule="evenodd" d="M68.0206 417.379C68.0206 427.181 61.4021 431.126 53.2363 426.195C45.0678 421.265 38.4492 409.326 38.4492 399.524C38.4492 389.726 45.0678 385.778 53.2363 390.709C61.4021 395.639 68.0206 407.581 68.0206 417.379Z" fill="#67383F"/>
<path fill-rule="evenodd" clip-rule="evenodd" d="M66.7538 416.068C66.7538 424.67 60.9854 428.134 53.8691 423.806C46.7527 419.478 40.9844 408.997 40.9844 400.395C40.9844 391.793 46.7527 388.329 53.8691 392.657C60.9854 396.985 66.7538 407.466 66.7538 416.068Z" fill="#80F9DB"/>
<path fill-rule="evenodd" clip-rule="evenodd" d="M54.0799 422.206C60.6111 426.149 65.9071 422.992 65.9071 415.152C65.9071 407.314 60.6111 397.761 54.0799 393.815C47.5461 389.872 42.25 393.029 42.25 400.87C42.25 408.708 47.5461 418.26 54.0799 422.206Z" fill="#12A882"/>
<path fill-rule="evenodd" clip-rule="evenodd" d="M43.4661 401.304C43.4661 394.003 48.4011 391.062 54.4844 394.735C60.5677 398.408 65.5027 407.305 65.5027 414.609C65.5027 421.908 60.5677 424.852 54.4844 421.176C48.4011 417.502 43.4661 408.605 43.4661 401.304ZM42.25 400.87C42.25 408.708 47.5461 418.26 54.0799 422.206C60.6111 426.149 65.9071 422.992 65.9071 415.152C65.9071 407.314 60.6111 397.761 54.0799 393.815C47.5461 389.872 42.25 393.029 42.25 400.87Z" fill="#10F5BB"/>
<path fill-rule="evenodd" clip-rule="evenodd" d="M46.8984 402.092C46.8984 407.864 50.8738 414.896 55.7726 417.799C60.3026 420.483 64.0402 418.694 64.5757 413.841C64.6194 413.451 64.6413 413.039 64.6413 412.607C64.6413 408.714 62.8326 404.243 60.1496 400.858C58.8627 399.223 57.3627 397.843 55.7726 396.9C50.8738 393.995 46.8984 396.322 46.8984 402.092Z" fill="#18D1B6"/>
<path fill-rule="evenodd" clip-rule="evenodd" d="M63.3733 410.064L63.3596 410.524C63.3133 411.442 63.12 412.228 62.7986 412.857L62.7904 412.865C62.4908 413.461 62.085 413.917 61.5948 414.226L59.6392 415.38C58.5253 415.913 58.6996 414.771 57.0763 413.801C53.5929 411.706 50.7712 406.645 50.7712 402.489C50.7712 400.445 49.66 400.071 50.7712 399.39L52.9038 398.143L53.059 398.075C53.9279 397.732 54.9901 397.786 56.1558 398.285C56.4553 398.41 56.7631 398.565 57.0763 398.753C59.7237 400.346 61.9842 403.657 62.9184 406.974C63.1118 407.657 63.248 408.352 63.3133 409.021C63.3515 409.37 63.3733 409.721 63.3733 410.064Z" fill="#380009"/>
<path fill-rule="evenodd" clip-rule="evenodd" d="M61.2608 411.343L61.2475 411.8C61.2025 412.715 61.0145 413.498 60.7021 414.125L60.6942 414.133C59.7251 416.104 57.6043 416.576 55.1392 415.065C51.7502 412.978 49.0098 407.936 49.0098 403.796C49.0098 401.562 49.8094 400.048 51.0803 399.466L51.2339 399.399C52.0785 399.057 53.1111 399.111 54.2443 399.608C54.5356 399.732 54.8321 399.887 55.1392 400.074C57.7128 401.661 59.9078 404.96 60.816 408.264C61.0066 408.945 61.1363 409.634 61.2025 410.303C61.2396 410.651 61.2608 411.001 61.2608 411.343Z" fill="#543A3E"/>
<path fill-rule="evenodd" clip-rule="evenodd" d="M59.1484 408.562C59.1484 409.401 58.9123 410.029 58.517 410.399C57.9732 410.91 56.1824 411.984 56.1824 411.984L51.9668 404.336C51.9668 404.336 53.4551 403.438 53.8663 403.071C54.4128 402.589 55.2432 402.575 56.1771 403.144C57.8193 404.145 59.1484 406.571 59.1484 408.562Z" fill="#380009"/>
<path fill-rule="evenodd" clip-rule="evenodd" d="M57.0373 410.237C57.0373 412.197 55.7145 412.987 54.0802 412.001C52.4485 411.016 51.123 408.627 51.123 406.667C51.123 404.707 52.4485 403.918 54.0802 404.903C55.7145 405.892 57.0373 408.28 57.0373 410.237Z" fill="#63474B"/>
<path fill-rule="evenodd" clip-rule="evenodd" d="M55.3478 408.851C55.3478 409.225 55.2458 409.505 55.0694 409.67L54.2481 410.218L52.3906 406.811L53.0217 406.404C53.2615 406.189 53.6281 406.183 54.0414 406.437C54.7635 406.885 55.3478 407.963 55.3478 408.851Z" fill="#380009"/>
<path fill-rule="evenodd" clip-rule="evenodd" d="M54.85 409.245C54.85 410.117 54.2201 410.467 53.4454 410.03C52.6706 409.59 52.0407 408.53 52.0407 407.659C52.0407 406.787 52.6706 406.437 53.4454 406.874C54.2201 407.311 54.85 408.374 54.85 409.245Z" fill="#786266"/>
<path fill-rule="evenodd" clip-rule="evenodd" d="M116.18 413.184L118.444 406.587L129.776 400.505L142.688 410.131L150.594 430.887L151.243 444.313L145.517 447.745L131.63 439.963L118.251 422.511L116.18 413.184Z" fill="#291518"/>
<path fill-rule="evenodd" clip-rule="evenodd" d="M109.844 416.341L112.111 409.709L123.443 403.596L136.355 413.274L144.261 434.136L144.907 447.632L139.051 449.069L125.297 443.262L111.918 425.716L109.844 416.341Z" fill="#2C181B"/>
<path fill-rule="evenodd" clip-rule="evenodd" d="M60.416 364.958V294.228L70.4259 268.941L132.126 306.139L152.957 336.286L160.114 409.777L124.781 402.589L60.416 364.958Z" fill="#12B961"/>
<path fill-rule="evenodd" clip-rule="evenodd" d="M160.537 409.777L125.074 402.603L124.004 356.805L123.717 345.242L123.361 329.712L132.443 306.468L153.359 336.517L154.667 349.804L155.687 360.379L160.537 409.777Z" fill="#16C669"/>
<path fill-rule="evenodd" clip-rule="evenodd" d="M158.288 467.17L161.617 465.171L176.167 441.183L169.023 431.713L126.69 416.84L123.361 418.84L163.975 438.148L167.943 442.936L158.288 467.17Z" fill="#423D3D"/>
<path fill-rule="evenodd" clip-rule="evenodd" d="M148.772 447.858L149.169 447.602L149.027 448.032L148.772 447.858ZM148.168 450.885L148.16 451.326C148.16 451.997 148.203 452.682 148.279 453.376L148.687 453.649C148.72 453.934 148.761 454.215 148.807 454.5L148.434 454.486C148.584 455.37 148.785 456.266 149.044 457.159L149.446 457.31C149.533 457.609 149.629 457.907 149.729 458.206L149.411 458.328C149.718 459.236 150.075 460.134 150.48 461.019L150.853 461.033C150.989 461.329 151.133 461.625 151.28 461.918L151.038 462.171C151.484 463.041 151.971 463.889 152.496 464.708L152.811 464.586C152.991 464.862 153.173 465.135 153.361 465.402L153.208 465.769C153.761 466.551 154.348 467.294 154.963 467.993L155.202 467.74L155.842 468.434L155.79 468.889C156.413 469.532 157.06 470.124 157.73 470.661L157.879 470.294L158.565 470.812L158.614 471.327C158.945 471.563 159.28 471.785 159.617 471.99C159.955 472.191 160.289 472.374 160.618 472.538L160.67 472.081L161.353 472.393L161.503 472.94C161.987 473.133 162.457 473.287 162.917 473.397L161.032 475.534L161.894 476L163.834 474.919L164.065 475.022L169.438 471.776C169.753 471.625 170.052 471.446 170.333 471.236L170.284 471.125L170.89 470.761C171.295 470.363 171.652 469.893 171.959 469.359L171.731 468.994L172.326 468.633C172.585 468.05 172.789 467.402 172.936 466.693L172.566 466.261L172.599 466.07L173.091 465.772C173.17 465.172 173.211 464.54 173.211 463.866L173.202 463.417L172.8 463.081L172.773 462.589L173.145 462.364C173.075 461.503 172.939 460.624 172.754 459.742L172.343 459.526L172.177 458.812L172.49 458.624C172.25 457.711 171.957 456.798 171.611 455.896L171.222 455.814C171.113 455.532 170.999 455.251 170.879 454.972L171.159 454.784C170.77 453.88 170.335 452.987 169.856 452.122L169.508 452.179C169.361 451.914 169.209 451.653 169.051 451.394L169.25 451.084C168.736 450.242 168.184 449.428 167.599 448.655L167.305 448.831L166.774 448.163L166.878 447.75C166.274 447.019 165.637 446.337 164.979 445.705L164.653 445.904L164.187 445.48V444.986C163.532 444.42 162.855 443.91 162.161 443.461L161.772 443.697L161.753 443.686L161.448 443.509L161.347 442.972C160.654 442.582 159.976 442.275 159.321 442.05L158.774 442.377L158.728 442.363L158.529 441.814C157.871 441.646 157.234 441.564 156.631 441.564L156.07 441.899L155.91 441.601C155.325 441.663 154.773 441.811 154.258 442.036L153.682 442.383L153.652 442.34L147.384 446.123L146.174 449.536L148.562 447.992C148.407 448.586 148.287 449.215 148.225 449.901L148.614 450.287L148.57 451.038L148.168 450.885Z" fill="#481018"/>
<path fill-rule="evenodd" clip-rule="evenodd" d="M154.216 442.019L150.549 443.978L147.863 445.979L149.537 445.523L152.096 443.41L155.89 441.564L154.812 441.817L154.216 442.019Z" fill="#4F1F26"/>
<path fill-rule="evenodd" clip-rule="evenodd" d="M169.789 452.16L166.191 452.634L163.494 455.787L164.803 458.34L167.535 455.168L171.098 454.713L170.473 453.412L169.789 452.16Z" fill="#4F1F26"/>
<path fill-rule="evenodd" clip-rule="evenodd" d="M171.482 456.133L168.147 456.56L165.184 459.724L166.067 462.314L169.063 459.128L172.365 458.723L172.004 457.545L171.482 456.133Z" fill="#4F1F26"/>
<path fill-rule="evenodd" clip-rule="evenodd" d="M172.813 459.665L169.632 460.074L166.451 463.316L166.849 465.846L170.065 462.584L173.21 462.194L173.089 461.064L172.813 459.665Z" fill="#4F1F26"/>
<path fill-rule="evenodd" clip-rule="evenodd" d="M173.202 463.638L170.203 463.973L166.984 467.449L166.873 469.819L170.128 466.324L173.091 466.009L173.21 464.978L173.202 463.638Z" fill="#4F1F26"/>
<path fill-rule="evenodd" clip-rule="evenodd" d="M172.788 466.287L170.077 466.49L166.628 470.082L166.029 472.027L169.513 468.414L172.19 468.232L172.521 467.431L172.788 466.287Z" fill="#4F1F26"/>
<path fill-rule="evenodd" clip-rule="evenodd" d="M171.52 469.378L169.331 469.807L165.384 472.921L164.338 474.234L168.319 471.099L170.473 470.691L171.032 470.137L171.52 469.378Z" fill="#4F1F26"/>
<path fill-rule="evenodd" clip-rule="evenodd" d="M167.312 449.069L163.682 449.561L160.959 452.831L162.635 455.25L165.391 451.957L168.986 451.485L168.15 450.215L167.312 449.069Z" fill="#4F1F26"/>
<path fill-rule="evenodd" clip-rule="evenodd" d="M165.008 445.979L161.487 446.469L158.848 449.707L160.714 451.718L163.388 448.46L166.874 447.993L166.032 446.99L165.008 445.979Z" fill="#4F1F26"/>
<path fill-rule="evenodd" clip-rule="evenodd" d="M161.851 443.33L158.202 443.826L155.467 447.107L157.531 448.628L160.302 445.325L163.916 444.851L163.035 444.119L161.851 443.33Z" fill="#4F1F26"/>
<path fill-rule="evenodd" clip-rule="evenodd" d="M158.894 442.005L155.245 442.472L152.51 445.556L154.574 446.42L157.345 443.318L160.959 442.872L160.053 442.411L158.894 442.005Z" fill="#4F1F26"/>
<path fill-rule="evenodd" clip-rule="evenodd" d="M156.559 441.564L152.957 442.429L150.398 445.705L152.265 445.979L154.7 442.585L158.425 441.838L157.398 441.623L156.559 441.564Z" fill="#4F1F26"/>
<path fill-rule="evenodd" clip-rule="evenodd" d="M149.553 445.537L145.328 448.127L146.444 449.952L149.553 448.086V445.537Z" fill="#481018"/>
<path fill-rule="evenodd" clip-rule="evenodd" d="M148.285 447.745L144.061 450.335L145.177 452.16L148.285 450.293V447.745Z" fill="#481018"/>
<path fill-rule="evenodd" clip-rule="evenodd" d="M147.863 450.835L143.639 453.425L144.755 455.25L147.863 453.384V450.835Z" fill="#481018"/>
<path fill-rule="evenodd" clip-rule="evenodd" d="M148.285 454.367L144.061 456.956L145.177 458.782L148.285 456.917V454.367Z" fill="#481018"/>
<path fill-rule="evenodd" clip-rule="evenodd" d="M149.131 458.34L144.906 460.932L146.022 462.755L149.131 460.891V458.34Z" fill="#481018"/>
<path fill-rule="evenodd" clip-rule="evenodd" d="M166.754 469.502C166.832 468.907 166.873 468.28 166.873 467.615L166.865 467.17L166.464 466.838C166.456 466.576 166.442 466.312 166.421 466.044L166.808 466.129C166.737 465.273 166.602 464.406 166.418 463.533L166.009 463.319C165.949 463.037 165.884 462.759 165.811 462.477L166.155 462.424C165.917 461.523 165.622 460.619 165.28 459.724L164.893 459.642C164.785 459.363 164.671 459.088 164.552 458.809L164.831 458.623C164.443 457.728 164.01 456.847 163.533 455.988L163.187 456.044C163.041 455.782 162.886 455.526 162.732 455.27L162.929 454.963C162.418 454.127 161.868 453.322 161.283 452.556L161.004 452.745L160.465 452.072L160.568 451.661C159.967 450.94 159.333 450.264 158.677 449.639L158.48 449.949L157.889 449.414V448.927C157.237 448.367 156.562 447.86 155.872 447.418L155.771 447.829L155.465 447.637L155.162 447.466L155.062 446.931C154.371 446.545 153.697 446.241 153.044 446.019V446.506L152.451 446.331L152.256 445.785C151.601 445.622 150.967 445.54 150.366 445.537L150.468 446.069L149.927 446.097L149.648 445.574C149.063 445.639 148.516 445.782 148.004 446.005L148.199 446.548L147.747 446.779L147.4 446.306C146.923 446.59 146.49 446.953 146.103 447.384L146.379 447.902L146.04 448.327L145.653 447.944C145.309 448.429 145.017 448.978 144.778 449.594L145.122 450.059L144.922 450.664L144.516 450.388C144.329 451.038 144.196 451.745 144.126 452.514L144.513 452.897L144.47 453.64L144.069 453.488L144.061 453.924C144.061 454.589 144.101 455.267 144.18 455.951L144.583 456.224C144.616 456.503 144.656 456.785 144.702 457.066L144.334 457.049C144.48 457.928 144.683 458.812 144.938 459.698L145.339 459.845C145.428 460.14 145.523 460.439 145.621 460.735L145.306 460.856C145.612 461.751 145.967 462.643 146.371 463.519L146.739 463.533C146.877 463.826 147.018 464.119 147.167 464.409L146.926 464.656C147.367 465.518 147.852 466.36 148.378 467.17L148.689 467.047C148.868 467.32 149.049 467.59 149.236 467.857L149.084 468.221C149.634 468.992 150.219 469.73 150.834 470.422L151.072 470.172L151.706 470.859L151.655 471.309C152.278 471.942 152.922 472.531 153.588 473.06L153.737 472.7L154.42 473.209L154.469 473.722C154.799 473.953 155.129 474.172 155.465 474.375C155.804 474.578 156.134 474.755 156.465 474.918L156.513 474.468L157.196 474.775L157.345 475.315C158.011 475.583 158.656 475.771 159.276 475.881L159.224 475.369L159.861 475.448L160.099 475.982C160.711 476.025 161.296 475.991 161.846 475.878L161.694 475.332L162.242 475.18L162.556 475.678C163.078 475.498 163.566 475.239 164.007 474.91L163.766 474.369L164.194 474.006L164.563 474.437C164.966 474.045 165.321 473.581 165.627 473.049L165.31 472.551L165.592 472.002L165.993 472.334C166.25 471.757 166.453 471.115 166.599 470.414L166.228 469.986L166.35 469.288L166.754 469.502Z" fill="#67383F"/>
<path fill-rule="evenodd" clip-rule="evenodd" d="M165.606 466.897C165.606 473.864 160.972 476.672 155.256 473.166C149.54 469.659 144.906 461.168 144.906 454.201C144.906 447.231 149.54 444.423 155.256 447.932C160.972 451.435 165.606 459.927 165.606 466.897Z" fill="#5C2930"/>
<path fill-rule="evenodd" clip-rule="evenodd" d="M163.071 465.629C163.071 470.966 159.476 473.113 155.043 470.429C150.612 467.745 147.018 461.242 147.018 455.908C147.018 450.574 150.612 448.424 155.043 451.108C159.476 453.792 163.071 460.294 163.071 465.629Z" fill="#67383F"/>
<path fill-rule="evenodd" clip-rule="evenodd" d="M162.226 465.033C162.226 469.716 159.104 471.602 155.254 469.245C151.407 466.891 148.285 461.185 148.285 456.504C148.285 451.821 151.407 449.935 155.254 452.292C159.104 454.647 162.226 460.353 162.226 465.033Z" fill="#10F5BB"/>
<path fill-rule="evenodd" clip-rule="evenodd" d="M161.804 464.439V464.511C161.804 468.872 158.964 470.629 155.468 468.428C151.972 466.239 149.131 460.94 149.131 456.578C149.131 452.228 151.972 450.471 155.468 452.66L155.713 452.827C156.266 453.191 156.805 453.649 157.307 454.165C157.716 454.572 158.115 455.03 158.501 455.518C158.94 456.091 159.336 456.69 159.711 457.332C159.928 457.736 160.147 458.154 160.367 458.584V458.598C160.687 459.295 160.969 460.02 161.189 460.759C161.382 461.358 161.535 461.96 161.625 462.559C161.741 463.198 161.804 463.826 161.804 464.439Z" fill="#18D1B6"/>
<path fill-rule="evenodd" clip-rule="evenodd" d="M157.272 467.652C153.63 465.505 150.677 460.309 150.677 456.045C150.677 454.279 151.189 452.957 152.042 452.16C150.286 452.513 149.131 454.184 149.131 456.85C149.131 461.114 152.086 466.31 155.729 468.458C157.861 469.716 159.754 469.637 160.959 468.506C159.908 468.719 158.64 468.455 157.272 467.652Z" fill="#12A882"/>
<path fill-rule="evenodd" clip-rule="evenodd" d="M158.846 461.495C158.846 463.02 157.806 463.633 156.523 462.866C155.24 462.1 154.199 460.242 154.199 458.717C154.199 457.195 155.24 456.579 156.523 457.346C157.806 458.113 158.846 459.97 158.846 461.495Z" fill="#481018"/>
<path fill-rule="evenodd" clip-rule="evenodd" d="M158.848 461.297C158.848 462.603 157.901 463.131 156.734 462.471C155.567 461.814 154.623 460.221 154.623 458.915C154.623 457.609 155.567 457.083 156.734 457.741C157.901 458.398 158.848 459.99 158.848 461.297Z" fill="#12A882"/>
<path fill-rule="evenodd" clip-rule="evenodd" d="M158.003 461.099C158.003 462.186 157.247 462.627 156.314 462.077C155.379 461.53 154.623 460.203 154.623 459.115C154.623 458.025 155.379 457.588 156.314 458.134C157.247 458.684 158.003 460.009 158.003 461.099Z" fill="#10F5BB"/>
<path fill-rule="evenodd" clip-rule="evenodd" d="M154.066 454.702C154.066 455.314 153.655 455.558 153.143 455.252C152.634 454.943 152.223 454.201 152.223 453.589C152.223 452.98 152.634 452.733 153.143 453.042C153.655 453.348 154.066 454.093 154.066 454.702Z" fill="#12A882"/>
<path fill-rule="evenodd" clip-rule="evenodd" d="M152.8 457.351C152.8 457.963 152.386 458.207 151.877 457.901C151.368 457.592 150.954 456.85 150.954 456.238C150.954 455.629 151.368 455.382 151.877 455.691C152.386 455.997 152.8 456.742 152.8 457.351Z" fill="#12A882"/>
<path fill-rule="evenodd" clip-rule="evenodd" d="M153.642 460.883C153.642 461.494 153.231 461.739 152.719 461.433C152.211 461.124 151.8 460.382 151.8 459.77C151.8 459.161 152.211 458.914 152.719 459.223C153.231 459.529 153.642 460.274 153.642 460.883Z" fill="#12A882"/>
<path fill-rule="evenodd" clip-rule="evenodd" d="M153.438 460.76C153.438 461.236 153.116 461.427 152.719 461.186C152.323 460.948 152.004 460.37 152.004 459.894C152.004 459.419 152.323 459.227 152.719 459.468C153.116 459.706 153.438 460.284 153.438 460.76Z" fill="#10C899"/>
<path fill-rule="evenodd" clip-rule="evenodd" d="M153.262 460.653C153.262 461.011 153.019 461.156 152.721 460.977C152.422 460.795 152.18 460.359 152.18 460.001C152.18 459.642 152.422 459.497 152.721 459.679C153.019 459.858 153.262 460.294 153.262 460.653Z" fill="#10F5BB"/>
<path fill-rule="evenodd" clip-rule="evenodd" d="M152.594 457.226C152.594 457.702 152.275 457.894 151.878 457.656C151.482 457.415 151.16 456.837 151.16 456.361C151.16 455.888 151.482 455.697 151.878 455.935C152.275 456.173 152.594 456.754 152.594 457.226Z" fill="#10C899"/>
<path fill-rule="evenodd" clip-rule="evenodd" d="M152.418 457.123C152.418 457.481 152.176 457.623 151.877 457.444C151.578 457.265 151.336 456.826 151.336 456.468C151.336 456.109 151.578 455.967 151.877 456.146C152.176 456.325 152.418 456.764 152.418 457.123Z" fill="#10F5BB"/>
<path fill-rule="evenodd" clip-rule="evenodd" d="M153.862 454.577C153.862 455.053 153.542 455.245 153.146 455.007C152.75 454.766 152.427 454.188 152.427 453.715C152.427 453.239 152.75 453.048 153.146 453.286C153.542 453.527 153.862 454.105 153.862 454.577Z" fill="#10C899"/>
<path fill-rule="evenodd" clip-rule="evenodd" d="M153.145 454.795C152.846 454.616 152.604 454.177 152.604 453.821C152.604 453.463 152.846 453.318 153.145 453.497C153.443 453.679 153.686 454.115 153.686 454.474C153.686 454.832 153.443 454.974 153.145 454.795Z" fill="#10F5BB"/>
<path fill-rule="evenodd" clip-rule="evenodd" d="M155.757 463.973C155.757 464.585 155.343 464.829 154.834 464.523C154.325 464.217 153.911 463.472 153.911 462.86C153.911 462.252 154.325 462.004 154.834 462.313C155.343 462.619 155.757 463.364 155.757 463.973Z" fill="#12A882"/>
<path fill-rule="evenodd" clip-rule="evenodd" d="M158.29 466.18C158.29 466.792 157.879 467.037 157.368 466.731C156.859 466.422 156.448 465.68 156.448 465.068C156.448 464.459 156.859 464.212 157.368 464.521C157.879 464.827 158.29 465.572 158.29 466.18Z" fill="#12A882"/>
<path fill-rule="evenodd" clip-rule="evenodd" d="M160.825 466.179C160.825 466.791 160.411 467.038 159.902 466.729C159.394 466.423 158.98 465.678 158.98 465.07C158.98 464.458 159.394 464.214 159.902 464.52C160.411 464.825 160.825 465.57 160.825 466.179Z" fill="#12A882"/>
<path fill-rule="evenodd" clip-rule="evenodd" d="M161.905 464.643L161.358 464.534C160.858 464.225 160.435 463.487 160.435 462.866C160.435 462.272 160.858 462.01 161.358 462.331L161.701 462.615L161.757 462.961C161.849 463.45 161.896 463.916 161.896 464.38L161.905 464.643Z" fill="#12A882"/>
<path fill-rule="evenodd" clip-rule="evenodd" d="M155.551 463.85C155.551 464.325 155.232 464.517 154.836 464.276C154.439 464.038 154.117 463.46 154.117 462.984C154.117 462.508 154.439 462.32 154.836 462.558C155.232 462.796 155.551 463.374 155.551 463.85Z" fill="#10C899"/>
<path fill-rule="evenodd" clip-rule="evenodd" d="M155.188 463.814C155.188 464.172 154.945 464.317 154.647 464.138C154.348 463.956 154.105 463.52 154.105 463.161C154.105 462.803 154.348 462.661 154.647 462.84C154.945 463.019 155.188 463.455 155.188 463.814Z" fill="#10F5BB"/>
<path fill-rule="evenodd" clip-rule="evenodd" d="M158.086 466.059C158.086 466.532 157.764 466.724 157.368 466.486C156.971 466.248 156.652 465.667 156.652 465.194C156.652 464.718 156.971 464.526 157.368 464.764C157.764 465.005 158.086 465.583 158.086 466.059Z" fill="#10C899"/>
<path fill-rule="evenodd" clip-rule="evenodd" d="M157.91 465.951C157.91 466.31 157.668 466.455 157.369 466.272C157.071 466.093 156.828 465.657 156.828 465.299C156.828 464.94 157.071 464.795 157.369 464.978C157.668 465.157 157.91 465.593 157.91 465.951Z" fill="#10F5BB"/>
<path fill-rule="evenodd" clip-rule="evenodd" d="M160.62 466.056C160.62 466.532 160.297 466.724 159.901 466.486C159.505 466.245 159.185 465.667 159.185 465.191C159.185 464.718 159.505 464.526 159.901 464.764C160.297 465.002 160.62 465.583 160.62 466.056Z" fill="#10C899"/>
<path fill-rule="evenodd" clip-rule="evenodd" d="M160.442 466.394C160.442 466.753 160.203 466.895 159.904 466.716C159.605 466.536 159.363 466.097 159.363 465.739C159.363 465.38 159.605 465.238 159.904 465.418C160.203 465.597 160.442 466.036 160.442 466.394Z" fill="#10F5BB"/>
<path fill-rule="evenodd" clip-rule="evenodd" d="M161.319 461.048L161.091 460.94C160.577 460.63 160.177 459.892 160.177 459.271L160.408 458.724L160.568 459.057L160.68 459.329C160.887 459.796 161.067 460.26 161.218 460.748L161.263 460.868L161.319 461.048Z" fill="#BF5300"/>
<path fill-rule="evenodd" clip-rule="evenodd" d="M160.171 457.332L159.716 457.211C159.201 456.89 158.79 456.164 158.79 455.543L158.826 455.376L159.133 455.793C159.429 456.188 159.704 456.581 159.955 456.998L160.056 457.153L160.171 457.332Z" fill="#BF5300"/>
<path fill-rule="evenodd" clip-rule="evenodd" d="M157.442 454.569C157.406 455.107 157.007 455.333 156.528 455.033C156.013 454.724 155.605 453.973 155.605 453.376L155.65 453.126L155.877 453.281L156.084 453.426C156.356 453.614 156.631 453.831 156.892 454.069L157.223 454.365L157.442 454.569Z" fill="#12A882"/>
<path fill-rule="evenodd" clip-rule="evenodd" d="M157.236 454.47C157.236 454.949 156.917 455.138 156.518 454.9C156.13 454.662 155.811 454.078 155.811 453.602L155.879 453.29L156.086 453.435C156.358 453.624 156.633 453.84 156.893 454.078L157.224 454.375L157.236 454.47Z" fill="#10C899"/>
<path fill-rule="evenodd" clip-rule="evenodd" d="M157.065 454.458C157.065 454.817 156.825 454.959 156.529 454.78C156.234 454.604 155.982 454.174 155.982 453.816L156.166 453.435C156.438 453.624 156.713 453.84 156.973 454.078L157.065 454.458Z" fill="#10F5BB"/>
<path fill-rule="evenodd" clip-rule="evenodd" d="M160.004 457.111L159.673 457.003C159.276 456.765 158.957 456.181 158.957 455.705L158.966 455.597L159.081 455.751C159.377 456.147 159.652 456.539 159.903 456.956L160.004 457.111Z" fill="#E68F00"/>
<path fill-rule="evenodd" clip-rule="evenodd" d="M159.903 456.956L159.596 456.898C159.297 456.718 159.058 456.276 159.058 455.921L159.081 455.751C159.377 456.147 159.652 456.539 159.903 456.956Z" fill="#E89E00"/>
<path fill-rule="evenodd" clip-rule="evenodd" d="M161.181 460.791L161.033 460.72C160.634 460.482 160.315 459.898 160.315 459.419L160.486 458.98L160.599 459.252C160.806 459.719 160.986 460.182 161.137 460.671L161.181 460.791Z" fill="#E68F00"/>
<path fill-rule="evenodd" clip-rule="evenodd" d="M161.107 460.595L160.924 460.524C160.628 460.345 160.389 459.915 160.389 459.56L160.569 459.176C160.776 459.643 160.957 460.107 161.107 460.595Z" fill="#E89E00"/>
<path fill-rule="evenodd" clip-rule="evenodd" d="M161.781 464.357L161.278 464.31C160.879 464.072 160.559 463.488 160.559 463.009C160.559 462.533 160.879 462.342 161.278 462.583L161.642 462.938C161.733 463.426 161.781 463.893 161.781 464.357Z" fill="#10C899"/>
<path fill-rule="evenodd" clip-rule="evenodd" d="M162.135 464.185C162.135 464.543 161.892 464.688 161.594 464.509C161.295 464.327 161.053 463.891 161.053 463.532C161.053 463.174 161.295 463.029 161.594 463.211C161.892 463.39 162.135 463.826 162.135 464.185Z" fill="#E89E00"/>
<path fill-rule="evenodd" clip-rule="evenodd" d="M154.276 462.155L158.252 467.17L172.788 443.286L165.651 433.856L123.361 419.048L125.474 426.159L160.608 440.264L164.572 445.034L154.276 462.155Z" fill="#362326"/>
<path fill-rule="evenodd" clip-rule="evenodd" d="M207.436 303.819L152.934 336.494L160.109 409.777L214.611 377.099L207.436 303.819Z" fill="#00DE84"/>
<path fill-rule="evenodd" clip-rule="evenodd" d="M124.206 356.798L64.6406 323.115V313.09L123.92 345.19L124.206 356.798Z" fill="#C7EDD9"/>
<path fill-rule="evenodd" clip-rule="evenodd" d="M209.541 327.191L155.656 360.33H155.632L154.623 349.76L208.603 317.505L209.541 327.191Z" fill="#D6EBE0"/>
<path fill-rule="evenodd" clip-rule="evenodd" d="M155.467 360.33L124.068 356.785L123.783 345.319L154.456 349.843L155.467 360.33Z" fill="#CEECDC"/>
<path fill-rule="evenodd" clip-rule="evenodd" d="M132.106 306.008L152.932 336.048L123.05 329.254L60.416 294.138L70.4232 268.941L132.106 306.008Z" fill="#16D870"/>
<path fill-rule="evenodd" clip-rule="evenodd" d="M60.5803 294.548L35.9141 274.682L54.7389 259.67L70.5549 269.246L60.5803 294.548Z" fill="#E0EAE5"/>
<path fill-rule="evenodd" clip-rule="evenodd" d="M172.864 443.126L158.424 467.17L161.727 465.166L176.167 441.122L172.864 443.126Z" fill="#291518"/>
<path fill-rule="evenodd" clip-rule="evenodd" d="M168.962 431.41L165.605 433.411L172.81 442.888L176.167 440.887L168.962 431.41Z" fill="#4C4C4C"/>
<path fill-rule="evenodd" clip-rule="evenodd" d="M34.8293 325.894L32.1113 320.913L34.8852 286.16L37.6032 291.138L34.8293 325.894Z" fill="#D2D2D2"/>
<path fill-rule="evenodd" clip-rule="evenodd" d="M37.3865 296.755L34.6465 291.905L34.8663 289.25L37.6036 294.101L37.3865 296.755Z" fill="#E25069"/>
<path fill-rule="evenodd" clip-rule="evenodd" d="M36.5427 302.495L33.8027 297.644L34.0226 294.989L36.7599 299.84L36.5427 302.495Z" fill="#E25069"/>
<path fill-rule="evenodd" clip-rule="evenodd" d="M36.5427 308.676L33.8027 303.824L34.0226 301.17L36.7599 306.022L36.5427 308.676Z" fill="#E25069"/>
<path fill-rule="evenodd" clip-rule="evenodd" d="M36.1189 314.415L33.3789 309.564L33.5987 306.91L36.336 311.76L36.1189 314.415Z" fill="#E25069"/>
<path fill-rule="evenodd" clip-rule="evenodd" d="M35.697 320.154L32.957 315.304L33.1769 312.649L35.9142 317.499L35.697 320.154Z" fill="#E25069"/>
<path fill-rule="evenodd" clip-rule="evenodd" d="M35.2751 326.335L32.5352 321.485L32.755 318.83L35.4923 323.68L35.2751 326.335Z" fill="#E25069"/>
<defs>
<linearGradient id="paint0_linear" x1="166.77" y1="432.103" x2="628.063" y2="113.957" gradientUnits="userSpaceOnUse">
<stop stop-color="#4A91BF"/>
<stop offset="1" stop-color="#65ABCF"/>
</linearGradient>
<radialGradient id="paint1_radial" cx="0" cy="0" r="1" gradientUnits="userSpaceOnUse" gradientTransform="translate(294.74 93.779) rotate(-17.1344) scale(78.0263 52.9778)">
<stop stop-color="#F6C76C"/>
<stop offset="1" stop-color="#FAE384"/>
</radialGradient>
<radialGradient id="paint2_radial" cx="0" cy="0" r="1" gradientUnits="userSpaceOnUse" gradientTransform="translate(351.868 149.258) rotate(-16.9994) scale(185.263 124.917)">
<stop stop-color="#F6C76C"/>
<stop offset="1" stop-color="#FAE384"/>
</radialGradient>
<radialGradient id="paint3_radial" cx="0" cy="0" r="1" gradientUnits="userSpaceOnUse" gradientTransform="translate(399.273 175.816) rotate(-17.0443) scale(77.9886 52.7075)">
<stop stop-color="#F6C76C"/>
<stop offset="1" stop-color="#FAE384"/>
</radialGradient>
<radialGradient id="paint4_radial" cx="0" cy="0" r="1" gradientUnits="userSpaceOnUse" gradientTransform="translate(456.13 232.018) rotate(-17.0606) scale(184.619 124.878)">
<stop stop-color="#F6C76C"/>
<stop offset="1" stop-color="#FAE384"/>
</radialGradient>
<radialGradient id="paint5_radial" cx="0" cy="0" r="1" gradientUnits="userSpaceOnUse" gradientTransform="translate(363.411 66.2527) rotate(5.31746) scale(77.7954 54.1373)">
<stop stop-color="#F6C76C"/>
<stop offset="1" stop-color="#FAE384"/>
</radialGradient>
<radialGradient id="paint6_radial" cx="0" cy="0" r="1" gradientUnits="userSpaceOnUse" gradientTransform="translate(394.72 138.779) rotate(5.29412) scale(186.066 128.92)">
<stop stop-color="#F6C76C"/>
<stop offset="1" stop-color="#FAE384"/>
</radialGradient>
</defs>
</svg>
