<svg width="340" height="450" viewBox="0 0 500 591" fill="none" xmlns="http://www.w3.org/2000/svg">
<path fill-rule="evenodd" clip-rule="evenodd" d="M499.863 483.719C495.335 441.805 379.798 419.818 241.802 434.609C103.807 449.399 -4.39056 495.367 0.137069 537.281C4.6646 579.195 120.202 601.182 258.198 586.391C396.193 571.601 504.39 525.633 499.863 483.719Z" fill="#26523F" fill-opacity="0.08"/>
<path fill-rule="evenodd" clip-rule="evenodd" d="M478 433.319C477.201 433.554 476.081 433.681 475 433.681C476.081 433.681 477.172 433.554 478 433.319Z" fill="#E5E5E5"/>
<path fill-rule="evenodd" clip-rule="evenodd" d="M492 282.364C490.97 282.364 489.898 282.458 489 282.636C489.898 282.458 490.937 282.364 492 282.364Z" fill="white"/>
<path fill-rule="evenodd" clip-rule="evenodd" d="M285 450L362 494.818L358.339 497L285 454.357V450L285 450Z" fill="#19382B"/>
<path fill-rule="evenodd" clip-rule="evenodd" d="M386.578 154C387.043 154 387.492 154.316 387.625 154.817L453.974 448.813C454.077 449.262 453.87 449.718 453.472 449.946L449.137 452.448C449.115 452.47 449.115 452.47 449.085 452.492C448.444 452.823 447.648 453 446.829 453C446.719 453 446.608 453 446.498 452.993L444.647 444.861L380.024 158.467C379.928 158.04 380.127 157.562 380.533 157.341L386.07 154.132C386.232 154.044 386.409 154 386.578 154L386.578 154Z" fill="#19382B"/>
<path fill-rule="evenodd" clip-rule="evenodd" d="M373 152L380.43 156.29L445.152 442.883L447 451C446.183 451 445.38 450.824 444.747 450.456L440.424 447.959C440.019 447.702 439.717 447.312 439.592 446.828L373 152L373 152Z" fill="#26523F"/>
<path fill-rule="evenodd" clip-rule="evenodd" d="M373 299L372.976 554.737C372.976 555.236 372.653 555.735 371.95 556.109L367.638 558.428C367.606 558.457 367.606 558.457 367.575 558.457C366.88 558.824 365.94 559 365 559V550.496L365.024 303.292L373 299V299Z" fill="#19382B"/>
<path fill-rule="evenodd" clip-rule="evenodd" d="M358 299L366 303.271L365.976 550.495V559C365.036 559 364.063 558.824 363.368 558.428L359.067 556.109C358.427 555.757 358.047 555.287 358.024 554.839V554.634L358 299L358 299Z" fill="#26523F"/>
<path fill-rule="evenodd" clip-rule="evenodd" d="M321 269L276.507 499.523C276.374 500.126 276.026 500.655 275.47 500.949L271.317 503.331C270.436 503.853 269.503 504 269 504L270.592 495.7L313.523 273.279L321 269V269Z" fill="#19382B"/>
<path fill-rule="evenodd" clip-rule="evenodd" d="M306.496 269L314 273.257L271.044 495.699L269.452 504C268.57 504 267.689 503.801 267.007 503.427L266.815 503.331L263 501.125C262.326 500.721 262 500.228 262 499.728V499.677L262.052 499.405V499.353L306.496 269L306.496 269Z" fill="#26523F"/>
<path fill-rule="evenodd" clip-rule="evenodd" d="M277 449L360 497.467V506L277 457.54V449V449Z" fill="#26523F"/>
<path fill-rule="evenodd" clip-rule="evenodd" d="M261.714 253C262.569 253 263.431 253.191 264.094 253.566L474.62 374.778C475.954 375.557 477 377.379 477 378.878V381.971C477 383.47 475.954 385.321 474.62 386.071L449.673 400.442C449.025 400.809 448.17 401 447.308 401C446.453 401 445.599 400.809 444.943 400.442L234.38 279.214C233.076 278.465 232 276.614 232 275.115V272.044C232 270.523 233.076 268.701 234.38 267.922L259.334 253.566C259.997 253.191 260.852 253 261.714 253L261.714 253Z" fill="#1FB299"/>
<path fill-rule="evenodd" clip-rule="evenodd" d="M469.454 371.741L474.004 374.354C474.534 374.655 474.857 375.059 474.961 375.433C475.086 375.91 474.909 376.38 474.489 376.784C474.364 376.879 474.188 377.004 474.004 377.107L465.178 382.193C467.305 380.894 469.108 377.899 469.256 375.455L469.454 371.741ZM242.987 266.973L450.183 386.26C450.212 386.26 450.212 386.289 450.212 386.289H450.234C451.309 386.906 452.737 387.207 454.136 387.207C455.512 387.207 456.889 386.906 457.971 386.333L449.079 391.457C448.909 391.552 448.681 391.655 448.453 391.721C448.409 391.758 448.357 391.78 448.306 391.78C447.805 391.927 447.253 392 446.73 392C445.854 392 445 391.824 444.353 391.457L233.977 270.342C232.674 269.593 232.674 268.375 233.977 267.597L240.241 264C240.911 265.255 241.89 266.349 242.987 266.973Z" fill="#23C7AC"/>
<path fill-rule="evenodd" clip-rule="evenodd" d="M450 401.319C449.201 401.554 448.081 401.681 447 401.681C448.081 401.681 449.172 401.554 450 401.319Z" fill="#E5E5E5"/>
<path fill-rule="evenodd" clip-rule="evenodd" d="M473.15 376C474.223 376.845 475 378.364 475 379.649V382.608C475 383.964 474.1 385.583 472.948 386.406C472.876 386.477 472.775 386.52 472.675 386.569L448.297 400.453C447.663 400.808 446.828 401 446 401V392.745C446.511 392.745 447.051 392.652 447.541 392.511C447.591 392.511 447.642 392.489 447.685 392.454C447.908 392.39 448.102 392.29 448.297 392.198L457.087 387.201C457.087 387.201 457.109 387.201 457.109 387.173L463.898 383.311H463.92L472.675 378.321C472.855 378.222 472.999 378.101 473.15 378.009C473.56 377.618 473.733 377.164 473.61 376.703C473.531 376.461 473.387 376.22 473.15 376V376Z" fill="#7DEBD9"/>
<path fill-rule="evenodd" clip-rule="evenodd" d="M475.301 377C475.381 377.305 475.268 377.606 475 377.864C475.268 377.606 475.381 377.305 475.301 377Z" fill="#70D3C3"/>
<path fill-rule="evenodd" clip-rule="evenodd" d="M269.509 1.56752e-05C270.942 1.56752e-05 272.374 0.316517 273.467 0.956862L481.299 120.57C483.485 121.821 485.138 124.898 484.991 127.4L470.66 375.209C470.513 377.741 468.6 380.788 466.423 382.039L459.46 386.043C458.368 386.684 456.943 387 455.503 387C454.071 387 452.638 386.684 451.531 386.043L243.72 266.43C241.535 265.179 239.881 262.102 240.007 259.6L254.367 11.7913C254.514 9.25933 256.397 6.21214 258.582 4.96088L265.559 0.956846C266.652 0.316501 268.084 0 269.509 0L269.509 1.56752e-05Z" fill="#E0E0E0"/>
<path fill-rule="evenodd" clip-rule="evenodd" d="M268.994 1C270.423 1 271.859 1.30893 272.956 1.94149L480.268 121.474C481.35 122.121 482.322 123.195 483 124.453L468.153 133C467.498 131.772 466.525 130.676 465.428 130.028L258.132 10.4885C257.491 10.1281 256.872 9.95889 256.32 9.95889C255.164 9.95889 254.287 10.7165 254 12.0919C254.376 9.73822 256.106 7.1197 258.08 5.94283L265.069 1.91207C266.152 1.30158 267.573 1 268.994 1L268.994 1Z" fill="#FAFAFA"/>
<path fill-rule="evenodd" clip-rule="evenodd" d="M256.7 9C257.251 9 257.86 9.17683 258.492 9.53784L465.325 129.278C467.492 130.523 469.138 133.61 468.991 136.108L454.73 384.171C454.62 385.961 453.65 387 452.313 387C451.762 387 451.152 386.823 450.505 386.447L243.702 266.715C241.528 265.462 239.882 262.383 240.007 259.878L254.297 11.8218C254.4 10.0241 255.37 9 256.7 9V9Z" fill="#F0F0F0"/>
<path fill-rule="evenodd" clip-rule="evenodd" d="M344.414 25.4145L430.347 75.1341C431.247 75.6892 432 76.9695 432 78.0279L431.978 93.3257L424.575 89.0257L409.694 97.633V104.323C409.694 105.382 408.941 106.692 408.011 107.217L403.914 109.578C403.45 109.859 402.852 110 402.246 110C401.648 110 401.043 109.859 400.578 109.578L314.661 59.8659C313.723 59.3108 313 58.0231 313 56.9647V43.5838C313 42.5255 313.753 41.2377 314.661 40.69L341.078 25.4145C341.543 25.1406 342.148 25 342.746 25C343.352 25 343.957 25.1406 344.414 25.4145Z" fill="#19382B"/>
<path fill-rule="evenodd" clip-rule="evenodd" d="M315.361 41C314.742 41.5027 314.837 42.2568 315.638 42.7078L400.369 92.4044C400.813 92.6557 401.41 92.811 402 92.811V110C401.41 110 400.843 109.874 400.369 109.623L315.638 59.9042C314.742 59.3793 314 58.0929 314 57.0357V43.6689C314 42.7374 314.568 41.6062 315.361 41L315.361 41Z" fill="#26523F"/>
<path fill-rule="evenodd" clip-rule="evenodd" d="M343.51 25C344.11 25 344.71 25.1411 345.164 25.4159L430.331 75.3093C431.223 75.8663 431.223 76.7204 430.331 77.2551L404.134 92.6064C403.673 92.8663 403.08 93 402.481 93C401.888 93 401.288 92.8663 400.827 92.6064L315.675 42.6833C314.775 42.156 314.775 41.2945 315.675 40.7449L341.857 25.4159C342.318 25.1411 342.918 25 343.51 25V25Z" fill="#3C8364"/>
<path fill-rule="evenodd" clip-rule="evenodd" d="M404.265 133C408.266 133 412.718 134.261 417.363 136.916C433.055 145.941 444.968 167.628 443.938 185.326C443.205 197.818 436.263 205 426.728 205C422.727 205 418.275 203.739 413.629 201.07C397.945 192.044 386.032 170.364 387.062 152.659C387.788 140.168 394.73 133 404.265 133V133Z" fill="#93F6C1"/>
<path fill-rule="evenodd" clip-rule="evenodd" d="M403.604 132C407.397 132 411.611 133.261 416 135.944L414.233 168L397 133.504C398.977 132.509 401.221 132 403.604 132L403.604 132Z" fill="#26F486"/>
<path fill-rule="evenodd" clip-rule="evenodd" d="M392 138C389.174 141.302 387.377 146.126 387.055 152.281C387.377 146.126 389.174 141.281 392 138ZM387.055 152.31C386.685 159.27 388.221 166.845 391.115 174C388.2 166.845 386.685 159.27 387.055 152.31Z" fill="#C0C0C0"/>
<path fill-rule="evenodd" clip-rule="evenodd" d="M397.106 134L415 168.272L391.369 174C388.297 166.756 386.659 159.08 387.06 152.033C387.402 145.807 389.309 140.929 392.308 137.589C393.663 136.051 395.3 134.85 397.106 134L397.106 134Z" fill="#14C466"/>
<path fill-rule="evenodd" clip-rule="evenodd" d="M274.592 72C274.921 72 275.286 72.1099 275.658 72.3225L370.803 127.433C372.103 128.18 373.089 129.998 372.994 131.522L372.848 134.307C372.789 135.384 372.212 136 371.416 136C371.088 136 370.722 135.897 370.335 135.678C356.781 127.836 288.767 88.4379 275.213 80.567C273.898 79.8195 272.905 78.0021 273.007 76.4777L273.153 73.6929C273.204 72.6156 273.796 72 274.592 72L274.592 72Z" fill="#26523F"/>
<path fill-rule="evenodd" clip-rule="evenodd" d="M365.466 146C365.719 146 366.015 146.069 366.311 146.221L370.255 148.215C371.283 148.733 372.058 149.997 371.997 151.039L371.701 155.851C371.657 156.581 371.196 157 370.569 157C370.307 157 370.02 156.932 369.724 156.779L365.754 154.792C364.709 154.275 363.942 153.003 364.003 151.968L364.326 147.18C364.378 146.426 364.831 146 365.466 146V146Z" fill="#7DEBD9"/>
<path fill-rule="evenodd" clip-rule="evenodd" d="M272.643 92C272.971 92 273.345 92.1028 273.726 92.3158L356.732 139.401C358.054 140.15 359.078 142.001 358.995 143.499L358.846 146.318C358.771 147.376 358.181 148 357.374 148C357.038 148 356.664 147.89 356.276 147.662L273.248 100.584C271.925 99.8353 270.909 98.0142 271.006 96.4868L271.163 93.689C271.238 92.6095 271.828 92 272.643 92L272.643 92Z" fill="#26523F"/>
<path fill-rule="evenodd" clip-rule="evenodd" d="M365.446 166C365.708 166 365.997 166.076 366.294 166.221L370.241 168.214C371.289 168.731 372.058 170.001 371.997 171.036L371.708 175.844C371.656 176.574 371.184 177 370.556 177C370.294 177 370.005 176.924 369.708 176.772L365.761 174.809C364.721 174.269 363.927 172.999 364.005 171.964L364.311 167.179C364.346 166.426 364.809 166 365.446 166V166Z" fill="#27DEBF"/>
<path fill-rule="evenodd" clip-rule="evenodd" d="M365.434 166C365.705 166 366.002 166.053 366.291 166.206L370.243 168.2C371.231 168.695 372 169.882 372 170.918V171.024L371.712 175.835C371.642 176.558 371.204 177 370.549 177C370.278 177 370.007 176.924 369.709 176.764L365.757 174.8C364.752 174.282 364 173.095 364 172.082V171.953L364.306 167.165C364.332 166.419 364.813 166 365.434 166V166Z" fill="#23C7AC"/>
<path fill-rule="evenodd" clip-rule="evenodd" d="M271.647 113C271.976 113 272.342 113.103 272.723 113.316L355.759 160.418C357.081 161.167 358.097 163.009 357.993 164.507L357.843 167.334C357.791 168.391 357.201 169 356.387 169C356.043 169 355.67 168.897 355.274 168.677L272.26 121.611C270.945 120.833 269.929 119.005 270.004 117.508L270.183 114.696C270.235 113.624 270.833 113 271.647 113L271.647 113Z" fill="#26523F"/>
<path fill-rule="evenodd" clip-rule="evenodd" d="M364.451 188C364.721 188 365.008 188.076 365.313 188.236L369.247 190.232C370.283 190.742 371.058 192.015 370.997 193.051L370.701 197.842C370.657 198.581 370.196 199 369.569 199C369.308 199 369.021 198.924 368.716 198.779L364.756 196.783C363.712 196.265 362.92 194.993 363.007 193.957L363.302 189.166C363.363 188.434 363.825 188 364.451 188V188Z" fill="#27DEBF"/>
<path fill-rule="evenodd" clip-rule="evenodd" d="M364.447 188C364.717 188 364.979 188.069 365.31 188.229L369.248 190.224C370.259 190.712 371 191.908 371 192.913V193.043L370.704 197.834C370.643 198.566 370.198 199 369.545 199C369.309 199 369.013 198.924 368.717 198.771L364.752 196.776C363.741 196.28 362.975 195.092 363.001 194.056V193.949L363.297 189.158C363.358 188.404 363.829 188 364.447 188V188Z" fill="#1FB299"/>
<path fill-rule="evenodd" clip-rule="evenodd" d="M269.636 133C269.972 133 270.338 133.103 270.727 133.323L353.732 180.418C355.054 181.167 356.078 183.017 355.995 184.514L355.846 187.311C355.771 188.376 355.174 189 354.352 189C354.023 189 353.657 188.897 353.276 188.684L270.241 141.604C268.926 140.833 267.903 139.013 268.007 137.515L268.164 134.689C268.217 133.624 268.814 133 269.636 133L269.636 133Z" fill="#26523F"/>
<path fill-rule="evenodd" clip-rule="evenodd" d="M390.852 201C391.177 201 391.547 201.101 391.924 201.317L431.783 223.809C433.092 224.567 434.09 226.356 433.994 227.827L433.617 234.348C433.55 235.387 432.959 236 432.16 236C431.828 236 431.458 235.899 431.081 235.668L391.222 213.191C389.913 212.455 388.93 210.63 389.004 209.158L389.388 202.666C389.455 201.606 390.046 201 390.852 201L390.852 201Z" fill="#26523F"/>
<path fill-rule="evenodd" clip-rule="evenodd" d="M380.622 245C380.945 245 381.305 245.102 381.679 245.312L439.799 278.513C441.098 279.253 442.089 281.083 441.994 282.564L441.847 285.345C441.773 286.397 441.194 287 440.393 287C440.071 287 439.703 286.898 439.322 286.681L381.202 253.509C379.903 252.739 378.905 250.939 379.007 249.458L379.154 246.67C379.227 245.617 379.815 245 380.622 245L380.622 245Z" fill="#26523F"/>
<path fill-rule="evenodd" clip-rule="evenodd" d="M379.625 267C379.956 267 380.323 267.102 380.697 267.319L438.8 300.543C440.091 301.284 441.089 303.084 440.994 304.587L440.84 307.323C440.774 308.376 440.179 309 439.372 309C439.049 309 438.69 308.898 438.323 308.688L380.227 275.486C378.899 274.745 377.931 272.923 378.004 271.442L378.18 268.655C378.231 267.603 378.826 267 379.625 267L379.625 267Z" fill="#26523F"/>
<path fill-rule="evenodd" clip-rule="evenodd" d="M377.626 289C377.956 289 378.316 289.102 378.698 289.319L436.774 322.565C438.094 323.327 439.063 325.128 438.997 326.63L438.843 329.352C438.769 330.397 438.19 331 437.39 331C437.052 331 436.685 330.898 436.297 330.681L378.228 297.515C376.9 296.745 375.924 294.945 376.005 293.464L376.181 290.67C376.232 289.617 376.819 289 377.626 289L377.626 289Z" fill="#26523F"/>
<path fill-rule="evenodd" clip-rule="evenodd" d="M376.606 310C376.936 310 377.303 310.102 377.677 310.319L435.773 343.593C437.072 344.333 438.07 346.156 437.996 347.637L437.82 350.33C437.769 351.39 437.182 352 436.375 352C436.044 352 435.685 351.906 435.303 351.688L377.208 318.494C375.909 317.754 374.911 315.917 375.006 314.436L375.16 311.648C375.226 310.603 375.813 310 376.606 310Z" fill="#26523F"/>
<path fill-rule="evenodd" clip-rule="evenodd" d="M350.117 240C350.454 240 350.828 240.103 351.218 240.323L359.727 245.146C361.082 245.918 362.071 247.742 361.996 249.241L359.345 293.309C359.292 294.382 358.693 295 357.869 295C357.532 295 357.157 294.904 356.768 294.684L348.244 289.839C346.919 289.089 345.922 287.266 346.005 285.744L348.626 241.698C348.694 240.618 349.293 240 350.117 240L350.117 240Z" fill="#93F6C1"/>
<path fill-rule="evenodd" clip-rule="evenodd" d="M346.142 296C346.529 296 346.981 296.143 347.456 296.428L355.764 301.36C357.055 302.126 358.069 303.71 357.996 304.851C357.967 305.595 357.508 306 356.851 306C356.472 306 356.019 305.865 355.545 305.572L347.237 300.647C345.916 299.881 344.924 298.297 345.005 297.149C345.034 296.405 345.486 296 346.142 296V296Z" fill="#26523F"/>
<path fill-rule="evenodd" clip-rule="evenodd" d="M319.724 243C320.037 243 320.393 243.103 320.756 243.316L328.859 248.14C330.119 248.919 331.086 250.74 330.994 252.238L329.685 275.326C329.635 276.391 329.059 277 328.283 277C327.963 277 327.607 276.897 327.244 276.677L319.141 271.86C317.881 271.111 316.914 269.267 317.006 267.769L318.315 244.696C318.365 243.617 318.941 243 319.724 243V243Z" fill="#27DEBF"/>
<path fill-rule="evenodd" clip-rule="evenodd" d="M319.713 243C320.026 243 320.397 243.103 320.753 243.323L328.864 248.147C330.074 248.866 331 250.591 331 252.067V252.243L329.69 275.326C329.64 276.398 329.056 277 328.287 277C327.974 277 327.603 276.905 327.247 276.677L319.136 271.861C317.926 271.134 317 269.438 317 267.962V267.771L318.31 244.703C318.36 243.624 318.944 243 319.713 243V243Z" fill="#26F486"/>
<path fill-rule="evenodd" clip-rule="evenodd" d="M317.163 280C317.542 280 317.987 280.135 318.461 280.413L326.765 285.338C328.056 286.126 329.069 287.688 328.996 288.859C328.953 289.602 328.5 290 327.844 290C327.458 290 327.006 289.857 326.517 289.58L318.235 284.655C316.93 283.889 315.931 282.297 316.004 281.126C316.04 280.398 316.5 280 317.163 280L317.163 280Z" fill="#26523F"/>
<path fill-rule="evenodd" clip-rule="evenodd" d="M292.855 194C293.199 194 293.589 194.103 293.987 194.325L302.678 199.172C304.056 199.948 305.066 201.788 304.997 203.295L301.661 260.293C301.592 261.379 300.98 262 300.146 262C299.802 262 299.427 261.889 299.029 261.675L290.322 256.828C288.968 256.045 287.927 254.212 288.004 252.705L291.363 195.707C291.416 194.621 292.021 194 292.855 194L292.855 194Z" fill="#27DEBF"/>
<path fill-rule="evenodd" clip-rule="evenodd" d="M292.845 194C293.205 194 293.565 194.096 293.986 194.325L302.681 199.172C304.005 199.896 305 201.633 305 203.111V203.295L301.663 260.293C301.586 261.372 300.989 262 300.155 262C299.81 262 299.428 261.897 299.03 261.675L290.319 256.828C289.018 256.096 288 254.36 288 252.882V252.705L291.36 195.707C291.414 194.621 292.003 194 292.845 194V194Z" fill="#14C466"/>
<path fill-rule="evenodd" clip-rule="evenodd" d="M289.167 264C289.553 264 290.004 264.135 290.477 264.42L298.77 269.345C300.059 270.111 301.049 271.688 300.998 272.866C300.954 273.595 300.496 274 299.833 274C299.455 274 299.003 273.865 298.523 273.587L290.23 268.625C288.941 267.859 287.951 266.305 288.002 265.134C288.053 264.398 288.512 264 289.167 264L289.167 264Z" fill="#26523F"/>
<path fill-rule="evenodd" clip-rule="evenodd" d="M263.003 202C263.321 202 263.668 202.101 264.035 202.326L271.896 207.079C273.142 207.818 274.084 209.636 273.994 211.114L272.346 242.334C272.297 243.384 271.743 244 270.988 244C270.683 244 270.344 243.899 269.991 243.688L262.102 238.899C260.849 238.16 259.934 236.364 260.004 234.864L261.652 203.659C261.701 202.609 262.248 202 263.003 202L263.003 202Z" fill="#27DEBF"/>
<path fill-rule="evenodd" clip-rule="evenodd" d="M263.022 202C263.327 202 263.652 202.094 264.034 202.319L271.9 207.072C273.106 207.789 274 209.484 274 210.94V211.107L272.35 242.326C272.302 243.384 271.754 244 271.006 244C270.68 244 270.341 243.87 269.994 243.681L262.1 238.892C260.901 238.189 260 236.487 260 235.031V234.857L261.65 203.652C261.698 202.594 262.259 202 263.022 202L263.022 202Z" fill="#4E806A"/>
<path fill-rule="evenodd" clip-rule="evenodd" d="M260.176 247C260.554 247 261.006 247.135 261.479 247.413L269.771 252.364C271.059 253.129 272.049 254.704 271.998 255.86C271.954 256.595 271.496 257 270.833 257C270.455 257 269.996 256.865 269.523 256.565L261.231 251.644C259.95 250.878 258.931 249.303 259.004 248.148C259.055 247.405 259.506 247 260.176 247V247Z" fill="#26523F"/>
<path fill-rule="evenodd" clip-rule="evenodd" d="M111.189 488.846V513.754H96.0273V488.846H111.189Z" fill="#E7AD95"/>
<path fill-rule="evenodd" clip-rule="evenodd" d="M137.946 468.385L153.108 468.861L152.419 495.962L137.946 495.487V468.385Z" fill="#E7AD95"/>
<path fill-rule="evenodd" clip-rule="evenodd" d="M160.817 279.794C160.817 279.794 164.896 383.74 164.696 393.896C164.532 402.86 153.989 488.698 153.989 488.698C151.276 489.62 148.782 489.945 146.579 489.945C140.551 489.945 136.782 487.433 136.782 487.433C136.782 487.433 133.997 427.147 133.341 417.461C132.412 404.847 135.143 393.896 135.143 393.896L128.115 333.972C128.115 333.972 124.182 383.867 121.87 402.191C119.156 423.226 112.438 502.342 112.438 502.342C109.451 503.553 106.684 503.969 104.299 503.969C99.1635 503.969 95.7769 502.053 95.7769 502.053C95.7769 502.053 87.5466 443.683 88.0201 422.395C88.3296 407.775 92.2625 400.51 92.6267 396.48C92.6267 396.48 90.0959 314.202 90.0959 300.07L160.817 279.794L160.817 279.794Z" fill="#4E6895"/>
<path fill-rule="evenodd" clip-rule="evenodd" d="M133.369 187.277C146.988 187.277 159.135 197.618 159.807 211.792C159.88 212.316 159.88 212.877 159.88 213.401C159.88 224.953 161.135 295.497 161.135 295.497C148.952 304.337 135.496 308.26 122.35 308.26C110.931 308.26 99.7299 305.296 89.7834 300.071L90.2017 245.292V216.239C90.2017 210.581 91.22 206.441 92.3656 203.422C93.7112 200.131 96.3115 197.474 99.5661 196.027L113.113 191.58L126.605 188.145C128.859 187.566 131.132 187.277 133.369 187.277V187.277Z" fill="#FBE0C0"/>
<path fill-rule="evenodd" clip-rule="evenodd" d="M137.91 121.448C149.242 121.448 158.46 130.57 158.46 141.872C158.46 153.174 149.242 162.369 137.91 162.369C126.597 162.369 117.433 153.174 117.433 141.872C117.433 130.57 126.597 121.448 137.91 121.448Z" fill="#81462F"/>
<path fill-rule="evenodd" clip-rule="evenodd" d="M102.271 156.142L111.003 166.572L111.189 177.492C111.189 177.492 108.396 176.766 107.019 174.245C105.678 171.705 102.271 156.142 102.271 156.142V156.142Z" fill="#81462F"/>
<path fill-rule="evenodd" clip-rule="evenodd" d="M105.64 133.902C106.149 133.902 106.458 133.957 106.458 133.957L108.514 157.031L102.294 156.303C98.8926 147.696 97.383 138.979 100.111 136.195C102.057 134.193 104.422 133.902 105.64 133.902V133.902Z" fill="#81462F"/>
<path fill-rule="evenodd" clip-rule="evenodd" d="M134.113 125.006C143.463 125.006 152.34 129.483 153.756 140.99C155.808 158.053 154.9 165.03 152.485 173.642C150.906 179.09 147.765 182.974 142.755 183.765C142.137 183.855 141.411 183.891 140.612 183.891C137.472 183.891 133.514 183.279 133.514 183.279V190.759C138.706 196.675 134.639 199.731 128.395 199.731C122.749 199.731 115.324 197.25 111.293 192.144L110.821 166.954C110.821 166.954 110.15 169.776 106.337 169.776C105.393 169.776 104.268 169.597 102.906 169.165C98.9666 167.96 94.21 160.912 96.7336 155.536C97.9318 153.037 99.6928 152.228 101.363 152.228C103.251 152.228 105.03 153.253 105.847 154.098C107.19 155.464 108.733 157.46 109.914 157.46C110.077 157.46 110.24 157.424 110.386 157.334C110.386 157.334 105.92 136.927 117.756 129.573C122.295 126.732 128.304 125.006 134.113 125.006V125.006Z" fill="#E7AD95"/>
<path fill-rule="evenodd" clip-rule="evenodd" d="M147.146 117C149.419 117 151.511 117.543 153.424 119.227C156.31 121.69 157.554 126.145 156.003 129.64C155.642 130.491 155.101 131.215 154.506 131.885C153.424 133.08 152.215 133.968 150.718 134.529C150.718 134.529 148.444 136.503 140.471 137.481C138.144 137.771 135.438 137.879 132.732 137.879C126.184 137.879 119.618 137.245 118.445 137.119C118.283 137.082 118.139 137.082 118.012 137.082C116.082 137.082 115.595 139.437 114.404 145.123C113.34 150.537 112.438 159.628 110.274 159.7C109.678 159.7 107.279 155.734 105.764 154.34C103.617 152.348 106.377 134.638 106.377 134.638C106.377 134.638 104.338 130.237 108.415 125.656C111.356 122.414 116.28 122.052 124.687 120.73C129.052 120.06 135.727 118.793 140.164 117.96C142.69 117.489 144.999 117 147.146 117V117Z" fill="#81462F"/>
<path fill-rule="evenodd" clip-rule="evenodd" d="M102.477 129.454C103.149 129.454 103.802 129.611 104.437 129.943C106.505 131.041 107.34 133.588 106.251 135.681L98.7034 131.739C99.4653 130.309 100.935 129.454 102.477 129.454V129.454Z" fill="#81462F"/>
<path fill-rule="evenodd" clip-rule="evenodd" d="M112.973 173.933C113.589 175.495 115.766 177.836 118.341 179.202C122.277 181.26 133.486 183.442 133.486 183.442V186.388C133.486 186.388 118.886 183.744 116.056 180.143C113.698 177.251 112.973 173.951 112.973 173.933V173.933Z" fill="#C49684"/>
<path fill-rule="evenodd" clip-rule="evenodd" d="M95.7529 504.858C95.7894 504.858 95.8256 504.858 95.8622 504.858V506.418C96.9544 507.602 99.9214 508.803 103.325 508.911C103.453 508.911 103.58 508.929 103.726 508.929C106.111 508.929 110.825 508.462 110.771 506.938V504.858C112.227 505.45 115.54 517.912 121.438 523.237C126.153 527.468 132.561 532.345 134.199 537.079C135.691 541.4 127.5 544 122.585 544C121.948 544 121.383 543.964 120.874 543.875C115.74 542.978 106.894 539.446 104.727 536.165C102.47 532.883 101.45 528.06 99.6304 525.622C97.81 523.237 93.623 520.547 92.6582 517.75C92.1121 516.244 92.7856 512.855 93.5137 510.04C94.2057 507.53 94.9154 504.858 95.7529 504.858V504.858Z" fill="#40404C"/>
<path fill-rule="evenodd" clip-rule="evenodd" d="M136.99 490.625C137.008 490.625 137.044 490.625 137.062 490.643V492.083C138.196 493.869 142.426 494.944 146.313 494.944C148.437 494.944 150.471 494.616 151.857 493.905L151.911 491.609C152.685 491.664 153.351 492.757 155.025 494.579C157.077 496.821 160.425 499.244 163.7 500.939C169.208 503.727 179.936 508.027 184.795 510.214C187.837 511.617 187.711 515.371 184.543 517.43C182.473 518.851 178.424 519.981 173.258 519.981C170.666 519.981 167.768 519.69 164.726 518.997C159.975 517.94 153.747 513.531 149.679 513.531C149.535 513.531 149.409 513.531 149.283 513.549C148.293 513.603 147.105 513.658 145.827 513.658C141.76 513.658 136.828 513.221 134.56 511.617C131.5 509.485 132.706 505.002 133.588 501.176C134.47 497.021 135.64 490.625 136.99 490.625V490.625Z" fill="#40404C"/>
<path fill-rule="evenodd" clip-rule="evenodd" d="M148.648 321.604C148.648 321.604 144.697 329.049 132.931 336.025L134.53 388.323L128.135 333.441C128.135 333.441 139.901 330.134 148.648 321.604L148.648 321.604Z" fill="#263238"/>
<path fill-rule="evenodd" clip-rule="evenodd" d="M160.794 291.285C160.794 291.285 159.496 225.449 158.625 214.565C157.645 202 153.186 192.802 144 190C157.7 192.419 162.436 220.368 162.436 220.368L163.231 254.152L174.131 292.7C174.491 293.586 174.832 294.395 175.152 295.109C175.71 296.396 178.462 298.117 179.77 298.703C182.311 299.856 183.827 301.178 185.538 302.671C186.155 303.21 186.798 303.771 187.524 304.354C188.515 305.142 189.404 305.63 190.059 305.99C190.831 306.413 191.279 306.659 191.19 307.009C190.993 307.763 190.052 308.995 188.175 308.995C187.923 308.995 187.661 308.974 187.376 308.93C186.167 308.729 184.547 308.007 182.517 307.068C182.517 307.068 184.361 310.792 188.213 314.413C193.423 319.304 194.057 322.621 184.99 323.875C184.421 323.957 183.858 324 183.3 324C178.304 324 173.724 320.58 168.399 309.891C167.885 308.846 167.275 307.743 166.634 306.585C165.189 303.972 163.587 301.075 162.575 297.923C162.571 297.92 162.567 297.915 162.567 297.915C162.567 297.915 162.569 297.916 162.573 297.917C162.558 297.871 162.544 297.825 162.529 297.779L162.548 297.766C162.451 297.474 162.127 296.661 161.134 294.449C161.188 294.403 161.076 293.631 160.963 292.861C160.851 292.094 160.74 291.328 160.794 291.285Z" fill="#E7AD95"/>
<path fill-rule="evenodd" clip-rule="evenodd" d="M158.813 214.768C159.695 225.742 159.426 249.997 159.426 249.997C159.316 250.084 165 247.6 165 247.6L163.251 220C163.251 220 157.876 192.439 144 190C153.304 192.825 157.82 202.099 158.813 214.768Z" fill="#F3D8B8"/>
<path fill-rule="evenodd" clip-rule="evenodd" d="M66.1029 237.998C66.1029 237.998 71.7918 231.776 80.309 218.061C82.3285 214.802 83.8198 212.06 85.0913 209.721C89.172 202.216 90.9899 198.873 100.747 196C102.925 198.416 104 203.314 104 208.868C104 217.545 101.403 227.845 96.413 232.954C96.413 232.954 78.4431 252.908 73.9856 256.714C72.1036 258.321 70.512 259 68.899 259C66.7051 259 64.4576 257.729 61.3335 255.753C60.1149 254.984 56.5013 252.182 52.1532 248.729C47.613 245.155 42.4945 240.999 37.9859 237.337C32.6039 232.966 28.0911 229.301 26.4688 228.177C23.5955 226.397 22.0449 225.683 19.7462 225.082C14.9699 223.822 9.75445 222.438 5.81307 219.429C3.98604 218.024 2.28909 216.42 1.18312 214.43C0.0771484 212.424 -0.383667 210 0.369881 207.849C1.10179 205.719 3.16737 203.997 5.44437 203.997H5.51484C6.97278 204.017 8.31802 204.715 9.6292 205.396C9.72716 205.446 9.82492 205.497 9.92252 205.548C12.0749 206.685 14.2705 207.736 16.515 208.685C17.6373 209.168 18.9547 209.704 20.2341 209.704C20.451 209.704 20.6732 209.688 20.8902 209.656C22.2692 209.437 21.7822 208.329 21.317 207.271C21.1915 206.985 21.0676 206.703 20.9823 206.443C20.6679 205.515 20.3534 204.496 20.6299 203.563C20.8576 202.823 21.6004 202.211 22.3214 202.211C22.5328 202.211 22.7388 202.26 22.934 202.378C23.1348 202.492 23.3125 202.689 23.4841 202.879C23.4977 202.894 23.5114 202.91 23.525 202.925C25.8453 205.623 28.0953 208.396 30.2855 211.222C32.0326 213.483 33.0622 215.603 34.2597 218.069C34.3665 218.289 34.4746 218.511 34.5847 218.737C35.4193 219.76 36.6738 220.97 38.2108 222.291L66.1029 237.998Z" fill="#E7AD95"/>
<path fill-rule="evenodd" clip-rule="evenodd" d="M78.5001 215.839C69.8941 229.568 71.0521 227.531 71.0521 227.531C71.0521 227.531 79.8003 252.511 81.7019 250.903C86.2058 247.093 96.334 232.99 96.334 232.99C101.376 227.876 104 217.566 104 208.881C104 203.321 102.913 198.419 100.713 196C87.7824 199.772 87.0897 202.111 78.5001 215.839Z" fill="#F3D8B8"/>
</svg>
