<svg width="823" height="555" viewBox="0 0 823 555" fill="none" xmlns="http://www.w3.org/2000/svg">
<path fill-rule="evenodd" clip-rule="evenodd" d="M818.878 271.252C765.93 240.688 713.196 210.195 660.39 179.773C607.727 149.351 554.921 118.858 501.973 88.2943C496.145 84.8825 485.769 85.3801 479.089 89.2183C401.763 133.785 324.723 178.28 247.824 222.705C170.712 267.201 93.6715 311.696 16.4886 356.263C9.87899 360.101 9.16829 365.929 14.925 369.199C67.7306 399.692 120.678 430.256 173.555 460.82C226.574 491.455 279.451 522.019 332.256 552.441C337.942 555.711 347.892 555.355 354.43 551.588C431.4 507.164 508.583 462.597 585.908 417.959C663.02 373.393 740.274 328.826 817.315 284.331C823.924 280.492 824.706 274.593 818.878 271.252Z" fill="url(#paint0_linear)"/>
<path fill-rule="evenodd" clip-rule="evenodd" d="M795.212 264.713C743.756 235.002 692.514 205.433 641.201 175.793C589.177 145.797 537.082 115.66 484.774 85.4512C479.017 82.1104 468.783 82.5369 462.174 86.3752C385.844 130.444 309.798 174.371 233.894 218.227C157.706 262.154 81.7317 306.081 5.47267 350.079C5.25946 350.221 5.04625 350.292 4.83303 350.434H0.0712891V357.187C0.0712891 357.258 0.0712891 357.329 0.0712891 357.329V357.4C0.14236 359.461 1.42163 361.38 3.90911 362.873C56.004 392.939 108.312 423.148 160.549 453.286C181.553 465.416 202.557 477.546 223.542 489.666C254.819 507.731 286.055 525.776 317.189 543.769C322.804 547.039 332.612 546.613 339.079 542.916C415.054 499.061 491.242 455.063 567.643 410.994C643.76 366.996 720.019 322.998 796.135 279.071C799.191 277.294 800.968 275.09 801.395 272.958C801.537 272.176 801.537 271.465 801.395 270.683V264.713H795.212Z" fill="#725920"/>
<path fill-rule="evenodd" clip-rule="evenodd" d="M641.201 168.685C589.177 138.689 537.083 108.552 484.774 78.3432C479.018 75.0025 468.783 75.429 462.174 79.2673C385.844 123.336 309.798 167.263 233.894 211.119C157.707 255.046 81.7318 298.973 5.47284 342.971C-1.06568 346.738 -1.77638 352.495 3.90928 355.765C56.0042 385.832 108.312 416.04 160.549 446.178C212.857 476.386 265.166 506.595 317.189 536.662C322.804 539.931 332.612 539.505 339.079 535.809C415.054 491.953 491.242 447.955 567.643 403.886C643.76 359.888 720.019 315.89 796.136 271.963C802.674 268.125 803.385 262.296 797.628 259.026C745.391 228.818 693.296 198.751 641.201 168.685Z" fill="#22CF86"/>
<path fill-rule="evenodd" clip-rule="evenodd" d="M786.186 245.095L467.931 61.3552L9.7373 325.912L327.992 509.722L786.186 245.095Z" fill="#F7F6F4"/>
<path fill-rule="evenodd" clip-rule="evenodd" d="M789.384 245.095L331.19 509.723V531.757L789.384 267.13V245.095Z" fill="#DBDCDC"/>
<path fill-rule="evenodd" clip-rule="evenodd" d="M12.9355 325.912L331.191 509.723V531.757L12.9355 347.946V325.912Z" fill="#C8C8C9"/>
<path fill-rule="evenodd" clip-rule="evenodd" d="M750.011 237.418C747.666 238.769 747.666 240.901 750.011 242.252C752.356 243.602 756.052 243.602 758.326 242.252C760.672 240.901 760.672 238.769 758.326 237.418C756.052 236.068 752.285 236.068 750.011 237.418Z" fill="#B4B5B5"/>
<path fill-rule="evenodd" clip-rule="evenodd" d="M781.495 227.467C781.495 231.163 780.5 235.144 778.795 238.911L776.876 237.774C778.084 234.859 778.795 231.803 778.795 228.96C778.795 221.07 773.251 217.871 766.428 221.852C760.245 225.406 755.128 233.651 754.204 240.972L752.001 239.693C753.778 231.377 759.606 222.705 766.428 218.724C774.744 214.033 781.495 217.943 781.495 227.467Z" fill="url(#paint1_linear)"/>
<path fill-rule="evenodd" clip-rule="evenodd" d="M729.258 225.477C726.913 226.827 726.913 228.96 729.258 230.31C731.532 231.661 735.299 231.661 737.573 230.31C739.919 228.96 739.919 226.827 737.573 225.477C735.299 224.126 731.603 224.126 729.258 225.477Z" fill="#B4B5B5"/>
<path fill-rule="evenodd" clip-rule="evenodd" d="M760.742 215.526C760.742 219.222 759.747 223.202 758.042 226.97L756.123 225.832C757.331 222.918 758.042 219.862 758.042 217.019C758.042 209.129 752.498 205.93 745.675 209.911C739.492 213.465 734.375 221.71 733.451 229.031L731.248 227.752C733.025 219.435 738.853 210.764 745.675 206.783C753.991 202.092 760.742 205.93 760.742 215.526Z" fill="url(#paint2_linear)"/>
<path fill-rule="evenodd" clip-rule="evenodd" d="M708.576 213.465C706.231 214.815 706.231 216.947 708.576 218.298C710.851 219.648 714.617 219.648 716.892 218.298C719.237 216.947 719.237 214.815 716.892 213.465C714.617 212.114 710.851 212.114 708.576 213.465Z" fill="#B4B5B5"/>
<path fill-rule="evenodd" clip-rule="evenodd" d="M739.99 203.585C739.99 207.281 738.995 211.261 737.289 215.028L735.37 213.891C736.578 210.977 737.289 207.92 737.289 205.077C737.289 197.188 731.745 193.989 724.922 197.969C718.739 201.523 713.622 209.769 712.698 217.09L710.495 215.81C712.272 207.494 718.1 198.822 724.922 194.842C733.309 190.08 739.99 193.989 739.99 203.585Z" fill="url(#paint3_linear)"/>
<path fill-rule="evenodd" clip-rule="evenodd" d="M687.823 201.523C685.478 202.874 685.478 205.006 687.823 206.357C690.098 207.707 693.864 207.707 696.139 206.357C698.484 205.006 698.484 202.874 696.139 201.523C693.864 200.173 690.098 200.173 687.823 201.523Z" fill="#B4B5B5"/>
<path fill-rule="evenodd" clip-rule="evenodd" d="M719.237 191.572C719.237 195.268 718.242 199.249 716.536 203.016L714.617 201.879C715.825 198.965 716.536 195.908 716.536 193.065C716.536 185.175 710.992 181.977 704.17 185.957C697.986 189.511 692.869 197.756 691.945 205.077L689.742 203.798C691.519 195.482 697.347 186.81 704.17 182.83C712.556 178.138 719.237 181.977 719.237 191.572Z" fill="url(#paint4_linear)"/>
<path fill-rule="evenodd" clip-rule="evenodd" d="M667.072 189.511C664.726 190.862 664.726 192.994 667.072 194.344C669.346 195.695 673.113 195.695 675.387 194.344C677.732 192.994 677.732 190.862 675.387 189.511C673.113 188.232 669.417 188.232 667.072 189.511Z" fill="#B4B5B5"/>
<path fill-rule="evenodd" clip-rule="evenodd" d="M698.555 179.631C698.555 183.327 697.56 187.307 695.854 191.075L693.935 189.937C695.144 187.023 695.854 183.967 695.854 181.124C695.854 173.234 690.311 170.035 683.488 174.016C677.305 177.57 672.188 185.815 671.264 193.136L669.061 191.856C670.837 183.54 676.665 174.869 683.488 170.888C691.803 166.197 698.555 170.035 698.555 179.631Z" fill="url(#paint5_linear)"/>
<path fill-rule="evenodd" clip-rule="evenodd" d="M646.319 177.57C643.973 178.92 643.973 181.053 646.319 182.403C648.593 183.754 652.36 183.754 654.634 182.403C656.979 181.053 656.979 178.92 654.634 177.57C652.36 176.219 648.664 176.219 646.319 177.57Z" fill="#B4B5B5"/>
<path fill-rule="evenodd" clip-rule="evenodd" d="M677.803 167.619C677.803 171.315 676.808 175.295 675.102 179.062L673.183 177.925C674.392 175.011 675.102 171.954 675.102 169.111C675.102 161.221 669.559 158.023 662.736 162.003C656.553 165.557 651.436 173.802 650.512 181.124L648.309 179.844C650.085 171.528 655.913 162.856 662.736 158.876C671.122 154.185 677.803 158.094 677.803 167.619Z" fill="url(#paint6_linear)"/>
<path fill-rule="evenodd" clip-rule="evenodd" d="M625.637 165.557C623.292 166.908 623.292 169.04 625.637 170.391C627.911 171.741 631.678 171.741 633.952 170.391C636.298 169.04 636.298 166.908 633.952 165.557C631.678 164.278 627.911 164.278 625.637 165.557Z" fill="#B4B5B5"/>
<path fill-rule="evenodd" clip-rule="evenodd" d="M657.05 155.677C657.05 159.373 656.055 163.354 654.349 167.121L652.43 165.984C653.639 163.069 654.349 160.013 654.349 157.17C654.349 149.28 648.806 146.082 641.983 150.062C635.8 153.616 630.683 161.861 629.759 169.182L627.556 167.903C629.332 159.587 635.16 150.915 641.983 146.935C650.369 142.243 657.05 146.082 657.05 155.677Z" fill="url(#paint7_linear)"/>
<path fill-rule="evenodd" clip-rule="evenodd" d="M604.884 153.616C602.539 154.966 602.539 157.099 604.884 158.449C607.158 159.8 610.925 159.8 613.199 158.449C615.545 157.099 615.545 154.966 613.199 153.616C610.925 152.265 607.158 152.265 604.884 153.616Z" fill="#B4B5B5"/>
<path fill-rule="evenodd" clip-rule="evenodd" d="M636.368 143.665C636.368 147.361 635.373 151.341 633.668 155.109L631.749 153.971C632.957 151.057 633.668 148.001 633.668 145.158C633.668 137.268 628.124 134.069 621.301 138.05C615.118 141.604 610.001 149.849 609.077 157.17L606.874 155.891C608.651 147.574 614.479 138.903 621.301 134.922C629.617 130.231 636.368 134.14 636.368 143.665Z" fill="url(#paint8_linear)"/>
<path fill-rule="evenodd" clip-rule="evenodd" d="M584.131 141.675C581.786 143.025 581.786 145.158 584.131 146.508C586.405 147.859 590.172 147.859 592.446 146.508C594.792 145.158 594.792 143.025 592.446 141.675C590.172 140.324 586.476 140.324 584.131 141.675Z" fill="#B4B5B5"/>
<path fill-rule="evenodd" clip-rule="evenodd" d="M615.615 131.724C615.615 135.42 614.62 139.4 612.915 143.167L610.996 142.03C612.204 139.116 612.915 136.059 612.915 133.216C612.915 125.327 607.371 122.128 600.548 126.108C594.365 129.662 589.248 137.908 588.324 145.229L586.121 143.949C587.898 135.633 593.726 126.961 600.548 122.981C608.864 118.29 615.615 122.128 615.615 131.724Z" fill="url(#paint9_linear)"/>
<path fill-rule="evenodd" clip-rule="evenodd" d="M563.379 129.662C561.034 131.013 561.034 133.145 563.379 134.496C565.653 135.846 569.42 135.846 571.694 134.496C574.04 133.145 574.04 131.013 571.694 129.662C569.491 128.312 565.724 128.312 563.379 129.662Z" fill="#B4B5B5"/>
<path fill-rule="evenodd" clip-rule="evenodd" d="M594.864 119.782C594.864 123.479 593.869 127.459 592.163 131.226L590.244 130.089C591.452 127.175 592.163 124.118 592.163 121.275C592.163 113.385 586.619 110.187 579.797 114.167C573.613 117.721 568.496 125.966 567.572 133.287L565.369 132.008C567.146 123.692 572.974 115.02 579.797 111.04C588.183 106.277 594.864 110.187 594.864 119.782Z" fill="url(#paint10_linear)"/>
<path fill-rule="evenodd" clip-rule="evenodd" d="M542.697 117.721C540.352 119.072 540.352 121.204 542.697 122.555C544.972 123.905 548.738 123.905 551.013 122.555C553.358 121.204 553.358 119.072 551.013 117.721C548.738 116.371 544.972 116.371 542.697 117.721Z" fill="#B4B5B5"/>
<path fill-rule="evenodd" clip-rule="evenodd" d="M574.111 107.77C574.111 111.466 573.116 115.447 571.41 119.214L569.491 118.077C570.699 115.162 571.41 112.106 571.41 109.263C571.41 101.373 565.866 98.1744 559.044 102.155C552.86 105.709 547.743 113.954 546.819 121.275L544.616 119.996C546.393 111.679 552.221 103.008 559.044 99.0273C567.43 94.3361 574.111 98.1744 574.111 107.77Z" fill="url(#paint11_linear)"/>
<path fill-rule="evenodd" clip-rule="evenodd" d="M521.945 105.709C519.599 107.059 519.599 109.192 521.945 110.542C524.219 111.893 527.986 111.893 530.26 110.542C532.605 109.192 532.605 107.059 530.26 105.709C527.986 104.358 524.29 104.358 521.945 105.709Z" fill="#B4B5B5"/>
<path fill-rule="evenodd" clip-rule="evenodd" d="M553.429 95.8286C553.429 99.5247 552.434 103.505 550.728 107.272L548.809 106.135C550.018 103.221 550.728 100.164 550.728 97.3213C550.728 89.4315 545.185 86.2329 538.362 90.2134C532.179 93.7673 527.062 102.013 526.138 109.334L523.935 108.054C525.711 99.738 531.539 91.0663 538.362 87.0859C546.677 82.3947 553.429 86.2329 553.429 95.8286Z" fill="url(#paint12_linear)"/>
<path fill-rule="evenodd" clip-rule="evenodd" d="M501.192 93.7673C498.846 95.1178 498.846 97.2502 501.192 98.6007C503.466 99.9512 507.233 99.9512 509.507 98.6007C511.852 97.2502 511.852 95.1178 509.507 93.7673C507.233 92.4168 503.537 92.4168 501.192 93.7673Z" fill="#B4B5B5"/>
<path fill-rule="evenodd" clip-rule="evenodd" d="M532.676 83.8163C532.676 87.5124 531.681 91.4928 529.975 95.26L528.056 94.1228C529.265 91.2085 529.975 88.1521 529.975 85.309C529.975 77.4192 524.432 74.2206 517.609 78.201C511.426 81.755 506.309 90.0002 505.385 97.3213L503.182 96.0419C504.958 87.7257 510.786 79.054 517.609 75.0736C525.995 70.3823 532.676 74.2917 532.676 83.8163Z" fill="url(#paint13_linear)"/>
<path fill-rule="evenodd" clip-rule="evenodd" d="M480.51 81.755C478.165 83.1055 478.165 85.2379 480.51 86.5884C482.784 87.9389 486.551 87.9389 488.825 86.5884C491.171 85.2379 491.171 83.1055 488.825 81.755C486.551 80.4756 482.784 80.4756 480.51 81.755Z" fill="#B4B5B5"/>
<path fill-rule="evenodd" clip-rule="evenodd" d="M511.923 71.875C511.923 75.5711 510.928 79.5516 509.222 83.3188L507.303 82.1815C508.512 79.2673 509.222 76.2108 509.222 73.3677C509.222 65.4779 503.679 62.2793 496.856 66.2598C490.673 69.8137 485.556 78.0589 484.632 85.3801L482.429 84.1006C484.205 75.7844 490.033 67.1127 496.856 63.1323C505.242 58.4411 511.923 62.2793 511.923 71.875Z" fill="url(#paint14_linear)"/>
<path fill-rule="evenodd" clip-rule="evenodd" d="M734.659 250.781L461.321 92.9146L458.691 94.4072L732.101 252.274L734.659 250.781Z" fill="url(#paint15_linear)"/>
<path fill-rule="evenodd" clip-rule="evenodd" d="M715.257 262.012L441.848 104.145L439.289 105.638L712.698 263.504L715.257 262.012Z" fill="url(#paint16_linear)"/>
<path fill-rule="evenodd" clip-rule="evenodd" d="M695.855 273.242L422.445 115.375L419.887 116.868L693.225 274.735L695.855 273.242Z" fill="url(#paint17_linear)"/>
<path fill-rule="evenodd" clip-rule="evenodd" d="M676.381 284.473L403.043 126.606L400.413 128.099L673.823 285.965L676.381 284.473Z" fill="url(#paint18_linear)"/>
<path fill-rule="evenodd" clip-rule="evenodd" d="M656.979 295.632L383.569 137.836L381.011 139.329L654.42 297.196L656.979 295.632Z" fill="url(#paint19_linear)"/>
<path fill-rule="evenodd" clip-rule="evenodd" d="M637.576 306.863L364.167 148.996L361.608 150.489L634.947 308.355L637.576 306.863Z" fill="url(#paint20_linear)"/>
<path fill-rule="evenodd" clip-rule="evenodd" d="M618.175 318.093L344.765 160.226L342.136 161.719L615.545 319.586L618.175 318.093Z" fill="url(#paint21_linear)"/>
<path fill-rule="evenodd" clip-rule="evenodd" d="M598.701 329.324L325.363 171.457L322.733 172.949L596.143 330.816L598.701 329.324Z" fill="url(#paint22_linear)"/>
<path fill-rule="evenodd" clip-rule="evenodd" d="M579.299 340.554L305.89 182.688L303.331 184.18L576.74 342.047L579.299 340.554Z" fill="url(#paint23_linear)"/>
<path fill-rule="evenodd" clip-rule="evenodd" d="M559.897 351.714L286.487 193.918L283.929 195.411L557.267 353.206L559.897 351.714Z" fill="url(#paint24_linear)"/>
<path fill-rule="evenodd" clip-rule="evenodd" d="M540.423 362.944L267.085 205.077L264.455 206.57L537.865 364.437L540.423 362.944Z" fill="url(#paint25_linear)"/>
<path fill-rule="evenodd" clip-rule="evenodd" d="M521.021 374.175L247.611 216.308L245.053 217.801L518.462 375.667L521.021 374.175Z" fill="#DAD5D1"/>
<path fill-rule="evenodd" clip-rule="evenodd" d="M501.618 385.405L228.209 227.538L225.65 229.031L498.989 386.898L501.618 385.405Z" fill="url(#paint26_linear)"/>
<path fill-rule="evenodd" clip-rule="evenodd" d="M482.216 396.636L208.806 238.769L206.177 240.261L479.586 398.128L482.216 396.636Z" fill="#DAD5D1"/>
<path fill-rule="evenodd" clip-rule="evenodd" d="M462.742 407.795L189.404 249.928L186.774 251.421L460.184 409.288L462.742 407.795Z" fill="url(#paint27_linear)"/>
<path fill-rule="evenodd" clip-rule="evenodd" d="M443.34 419.025L169.931 261.159L167.372 262.651L440.781 420.518L443.34 419.025Z" fill="url(#paint28_linear)"/>
<path fill-rule="evenodd" clip-rule="evenodd" d="M423.938 430.256L150.528 272.389L147.97 273.882L421.308 431.749L423.938 430.256Z" fill="url(#paint29_linear)"/>
<path fill-rule="evenodd" clip-rule="evenodd" d="M404.464 441.487L131.126 283.62L128.496 285.113L401.906 442.979L404.464 441.487Z" fill="url(#paint30_linear)"/>
<path fill-rule="evenodd" clip-rule="evenodd" d="M385.062 452.646L111.652 294.85L109.094 296.343L382.503 454.21L385.062 452.646Z" fill="url(#paint31_linear)"/>
<path fill-rule="evenodd" clip-rule="evenodd" d="M365.659 463.877L92.25 306.01L89.6914 307.502L363.03 465.369L365.659 463.877Z" fill="url(#paint32_linear)"/>
<path fill-rule="evenodd" clip-rule="evenodd" d="M548.979 163.614H505.311V25.813H548.979V163.614Z" fill="#12AF5B"/>
<path fill-rule="evenodd" clip-rule="evenodd" d="M636.644 271.765C614.44 283.01 592.22 294.264 570.025 305.484C560.478 300.629 550.931 295.8 541.324 290.945C529.9 285.186 519.902 285.058 514.797 290.1C513.056 292.694 508.248 296.107 506.091 297.191L502.812 298.641L500.833 299.392L498.616 300.117C498.616 300.143 498.548 300.143 498.523 300.117L492.603 301.474L486.241 302.259C476.77 302.898 467.019 301.474 459.986 297.916C452.961 294.349 450.226 289.461 451.517 284.674L452.12 283.164L453.021 281.44L453.318 281.048C453.318 280.997 453.386 280.929 453.53 280.869L453.827 280.451L454.133 280.084V280.024L455.008 279.145C455.093 279.12 455.153 279.034 455.187 278.941C455.305 278.906 455.305 278.821 455.399 278.787C455.399 278.727 455.509 278.702 455.509 278.642L455.815 278.395L457.675 276.918H457.735L458.185 276.552L460.861 274.922L461.549 274.589C463.714 273.506 470.467 271.065 475.513 270.221C485.459 267.653 485.281 262.533 473.831 256.766C464.284 251.911 454.702 247.048 445.121 242.193C467.316 230.999 489.57 219.745 511.765 208.5C521.321 213.355 530.893 218.218 540.449 223.039C551.891 228.832 552.094 233.934 542.131 236.528C537.086 237.372 530.324 239.813 528.192 240.896L527.47 241.229L524.803 242.833L524.345 243.191H524.285L522.425 244.701L522.128 244.906C522.128 245 522 245 522 245.085C521.915 245.12 521.915 245.179 521.822 245.213C521.762 245.333 521.711 245.393 521.61 245.418L520.743 246.331V246.357L520.446 246.715L520.14 247.176C519.996 247.201 519.936 247.261 519.936 247.355L519.63 247.713L518.73 249.437L518.135 250.973C516.87 255.768 519.571 260.656 526.604 264.189C534.835 268.352 545.911 269.436 556.273 268.199L559.221 267.747L565.133 266.39C565.167 266.416 565.218 266.416 565.218 266.39L567.452 265.699L569.431 264.939C570.059 265.272 577.984 260.537 581.407 256.407C586.512 251.365 596.518 251.45 607.925 257.244C617.541 262.107 627.096 266.936 636.644 271.765H636.644Z" fill="#8E8CB8"/>
<path fill-rule="evenodd" clip-rule="evenodd" d="M570.026 305.484C547.84 316.737 525.611 327.991 503.416 339.185C493.861 334.356 484.313 329.527 474.707 324.672C463.299 318.879 453.26 318.785 448.163 323.827C446.447 326.387 441.64 329.8 439.474 330.883L436.204 332.359L434.225 333.085L431.999 333.81C431.999 333.844 431.94 333.844 431.906 333.81L425.994 335.167L419.623 335.951C410.169 336.617 400.41 335.167 393.377 331.609C386.352 328.051 383.617 323.17 384.874 318.393L385.511 316.857L386.412 315.133L386.718 314.775C386.718 314.69 386.769 314.621 386.921 314.596L387.219 314.144L387.525 313.785V313.751L388.391 312.847C388.476 312.813 388.544 312.753 388.569 312.633C388.697 312.599 388.697 312.548 388.782 312.514C388.782 312.42 388.875 312.42 388.875 312.335L389.198 312.087L391.066 310.611H391.092L391.576 310.253L394.243 308.649L394.94 308.325C397.097 307.241 403.858 304.792 408.904 303.948C418.842 301.354 418.664 296.252 407.222 290.467C397.666 285.638 388.06 280.775 378.512 275.929C400.707 264.7 422.961 253.447 445.122 242.193C454.703 247.048 464.285 251.911 473.832 256.766C485.282 262.533 485.46 267.652 475.514 270.221C470.468 271.065 463.716 273.505 461.55 274.589L460.862 274.922L458.186 276.551L457.736 276.918H457.676L455.816 278.394L455.51 278.642C455.51 278.701 455.4 278.727 455.4 278.787C455.307 278.821 455.307 278.906 455.188 278.94C455.154 279.034 455.094 279.12 455.009 279.145L454.134 280.024V280.084L453.829 280.451L453.531 280.869C453.387 280.928 453.319 280.997 453.319 281.048L453.022 281.44L452.121 283.164L451.518 284.674C450.227 289.46 452.962 294.349 459.987 297.916C468.217 302.079 479.302 303.137 489.665 301.892L492.604 301.474L498.524 300.117C498.549 300.143 498.617 300.143 498.617 300.117L500.834 299.392L502.813 298.641C503.442 298.974 511.375 294.238 514.798 290.1C519.903 285.058 529.901 285.186 541.325 290.945C550.932 295.8 560.479 300.629 570.026 305.484L570.026 305.484Z" fill="#15A392"/>
<path fill-rule="evenodd" clip-rule="evenodd" d="M503.417 339.185C481.222 350.43 459.002 361.684 436.807 372.904C427.26 368.057 417.704 363.228 408.089 358.365C396.682 352.572 386.65 352.486 381.545 357.52C379.829 360.123 375.005 363.527 372.864 364.619L369.594 366.061L367.615 366.82L365.39 367.537H365.271L359.384 368.868L353.014 369.687C343.552 370.31 333.792 368.868 326.768 365.344C319.743 361.778 317.008 356.889 318.265 352.094L318.894 350.558L319.794 348.869L320.1 348.468C320.1 348.383 320.159 348.357 320.312 348.289L320.609 347.871L320.907 347.504V347.453L321.748 346.548C321.875 346.514 321.934 346.454 321.96 346.36C322.079 346.335 322.079 346.241 322.172 346.215C322.172 346.156 322.266 346.122 322.266 346.028L322.563 345.823L324.457 344.347H324.483L324.967 343.98L327.642 342.35L328.33 342.018C330.496 340.934 337.215 338.485 342.294 337.649C352.232 335.073 352.054 329.953 340.613 324.186C331.065 319.331 321.45 314.476 311.895 309.621C334.098 298.427 356.344 287.174 378.513 275.928C388.06 280.775 397.667 285.638 407.223 290.467C418.664 296.252 418.842 301.354 408.904 303.948C403.859 304.792 397.098 307.241 394.94 308.325L394.244 308.649L391.577 310.253L391.092 310.611H391.067L389.198 312.087L388.876 312.335C388.876 312.42 388.782 312.42 388.782 312.514C388.697 312.548 388.697 312.599 388.57 312.633C388.544 312.753 388.476 312.812 388.391 312.847L387.525 313.751V313.785L387.219 314.143L386.922 314.596C386.769 314.621 386.718 314.69 386.718 314.775L386.412 315.133L385.512 316.857L384.875 318.392C383.618 323.17 386.353 328.051 393.377 331.609C401.608 335.772 412.693 336.856 423.047 335.593L425.994 335.166L431.906 333.81C431.94 333.844 432 333.844 432 333.81L434.225 333.085L436.204 332.359C436.841 332.692 444.766 327.957 448.164 323.827C453.26 318.785 463.3 318.879 474.707 324.672C484.314 329.527 493.861 334.356 503.417 339.185H503.417Z" fill="#E3453F"/>
<path fill-rule="evenodd" clip-rule="evenodd" d="M445.122 38.2356L555.671 94.2314V298.215L445.122 242.194V38.2356Z" fill="#17DE74"/>
<path fill-rule="evenodd" clip-rule="evenodd" d="M451.221 83.3015C451.365 87.2262 454.253 91.0315 459.987 93.9239C467.02 97.4817 476.771 98.9066 486.242 98.2667L492.604 97.4817L498.524 96.1251C498.549 96.1507 498.617 96.1507 498.617 96.1251L500.834 95.3999L502.813 94.6747L506.092 93.1986C508.25 92.1151 513.057 88.7023 514.798 86.1085C519.903 81.0746 529.901 81.1941 541.325 86.9617C550.932 91.8421 560.479 96.6712 570.026 101.5V305.484C560.479 300.63 550.932 295.801 541.325 290.946C529.901 285.187 519.903 285.059 514.798 290.101C513.057 292.695 508.25 296.108 506.092 297.191L502.813 298.642L500.834 299.393L498.617 300.118C498.617 300.143 498.549 300.143 498.524 300.118L492.604 301.474L486.242 302.259C476.771 302.899 467.02 301.474 459.987 297.916C454.253 294.99 451.365 291.185 451.221 287.294V83.3015Z" fill="#17DE74"/>
<path fill-rule="evenodd" clip-rule="evenodd" d="M520.022 76.1602L570.026 101.5V305.484L520.022 280.144V76.1602Z" fill="#28E781"/>
<path fill-rule="evenodd" clip-rule="evenodd" d="M378.513 117.907L489.062 173.929V331.916L378.513 275.929V117.907Z" fill="#17DE74"/>
<path fill-rule="evenodd" clip-rule="evenodd" d="M384.612 163.008C384.764 166.924 387.644 170.729 393.377 173.621C400.41 177.188 410.17 178.604 419.624 177.964L425.994 177.188L431.906 175.831C431.94 175.857 432 175.857 432 175.831L434.225 175.106L436.204 174.381L439.474 172.896C441.64 171.813 446.448 168.408 448.164 165.815C453.26 160.772 463.3 160.892 474.707 166.659C484.314 171.514 493.861 176.377 503.417 181.198V339.186C493.861 334.357 484.314 329.527 474.707 324.673C463.3 318.879 453.26 318.786 448.164 323.828C446.448 326.388 441.64 329.8 439.474 330.884L436.204 332.36L434.225 333.085L432 333.81C432 333.845 431.94 333.845 431.906 333.81L425.994 335.167L419.624 335.952C410.17 336.618 400.41 335.167 393.377 331.609C387.644 328.717 384.764 324.912 384.612 320.995V163.008Z" fill="#17DE74"/>
<path fill-rule="evenodd" clip-rule="evenodd" d="M453.413 155.858L503.417 181.198V339.186L453.413 313.845V155.858Z" fill="#28E781"/>
<path fill-rule="evenodd" clip-rule="evenodd" d="M570.026 147.496L503.416 181.198V339.186L570.026 305.484V147.496Z" fill="#14C466"/>
<path fill-rule="evenodd" clip-rule="evenodd" d="M317.994 253.6C318.147 257.491 321.026 261.296 326.768 264.214C333.793 267.781 343.552 269.188 353.014 268.566L359.385 267.781L365.271 266.416C365.331 266.45 365.39 266.45 365.39 266.416L367.616 265.699L369.595 264.939L372.865 263.498C375.005 262.405 379.83 259.001 381.546 256.407C386.651 251.365 396.682 251.493 408.089 257.244C417.705 262.107 427.26 266.962 436.808 271.791V372.904C427.26 368.058 417.705 363.229 408.089 358.365C396.682 352.572 386.651 352.487 381.546 357.521C379.83 360.123 375.005 363.527 372.865 364.619L369.595 366.061L367.616 366.821L365.39 367.537H365.271L359.385 368.868L353.014 369.687C343.552 370.31 333.793 368.868 326.768 365.345C321.026 362.41 318.147 358.604 317.994 354.722V253.6Z" fill="#17DE74"/>
<path fill-rule="evenodd" clip-rule="evenodd" d="M320.161 349.133L370.199 374.473V406.605C348.726 395.752 329.445 383.62 320.161 388.261V349.133Z" fill="#FAFAFA"/>
<path fill-rule="evenodd" clip-rule="evenodd" d="M311.895 208.5L422.453 264.521V365.635L311.895 309.622V208.5Z" fill="#17DE74"/>
<path fill-rule="evenodd" clip-rule="evenodd" d="M386.803 246.45L436.808 271.791V372.904L386.803 347.564V246.45Z" fill="#28E781"/>
<path fill-rule="evenodd" clip-rule="evenodd" d="M503.417 238.055L436.807 271.791V372.904L503.417 339.185V238.055Z" fill="#14C466"/>
<path fill-rule="evenodd" clip-rule="evenodd" d="M436.808 340.296L370.198 373.989V406.12L436.808 372.419V340.296Z" fill="#14C466"/>
<path fill-rule="evenodd" clip-rule="evenodd" d="M251.384 356.291C251.529 360.208 254.417 364.004 260.15 366.905C267.183 370.463 276.943 371.888 286.371 371.248L292.742 370.463L298.653 369.107C298.713 369.141 298.781 369.141 298.781 369.107L300.998 368.381L302.951 367.656L306.255 366.18C308.387 365.096 313.221 361.684 314.936 359.09C320.041 354.056 330.073 354.175 341.489 359.935C351.095 364.798 360.643 369.644 370.198 374.473V406.605C360.643 401.776 351.095 396.947 341.489 392.066C330.073 386.299 320.041 386.188 314.936 391.222C313.221 393.815 308.387 397.228 306.255 398.312L302.951 399.788L300.998 400.513L298.781 401.238C298.781 401.264 298.713 401.264 298.653 401.238L292.742 402.586L286.371 403.38C276.943 404.011 267.183 402.586 260.15 399.037C254.417 396.136 251.529 392.339 251.384 388.415V356.291Z" fill="#17DE74"/>
<path fill-rule="evenodd" clip-rule="evenodd" d="M245.294 311.183L355.835 367.204V399.336L245.294 343.348V311.183Z" fill="#17DE74"/>
<path fill-rule="evenodd" clip-rule="evenodd" d="M436.808 340.78C414.613 352.034 392.384 363.288 370.198 374.473C360.642 369.644 351.095 364.798 341.488 359.935C330.072 354.176 320.041 354.056 314.936 359.09C313.22 361.684 308.387 365.097 306.255 366.18L302.951 367.656L300.997 368.382L298.78 369.107C298.78 369.141 298.712 369.141 298.653 369.107L292.741 370.463L286.371 371.248C276.942 371.888 267.183 370.463 260.15 366.906C253.125 363.348 250.39 358.459 251.656 353.689L252.25 352.154L253.193 350.43L253.482 350.038C253.482 349.987 253.55 349.918 253.694 349.859L254 349.44L254.297 349.082V349.014L255.138 348.144C255.257 348.109 255.291 348.024 255.351 347.93C255.436 347.896 255.436 347.845 255.563 347.811C255.563 347.717 255.648 347.691 255.648 347.632L255.954 347.384L257.839 345.908H257.873L258.323 345.55L261.025 343.946L261.721 343.622C263.879 342.529 270.606 340.089 275.677 339.236C285.623 336.651 285.411 331.549 273.995 325.755C264.448 320.926 254.841 316.072 245.294 311.183C267.48 299.997 289.734 288.744 311.895 277.49C321.451 282.344 331.066 287.208 340.613 292.062C352.055 297.83 352.233 302.949 342.295 305.518C337.216 306.362 330.497 308.802 328.331 309.886L327.643 310.219L324.967 311.848L324.483 312.215H324.458L322.563 313.691L322.266 313.896C322.266 313.99 322.173 314.024 322.173 314.084C322.079 314.118 322.079 314.203 321.96 314.229C321.935 314.323 321.875 314.382 321.748 314.416L320.907 315.321V315.381L320.61 315.747L320.313 316.165C320.16 316.225 320.1 316.251 320.1 316.345L319.794 316.737L318.894 318.426L318.266 319.962C317.008 324.757 319.744 329.646 326.768 333.213C334.999 337.342 346.075 338.426 356.446 337.188L359.385 336.745L365.271 335.405H365.39L367.616 334.689L369.595 333.929C370.223 334.262 378.148 329.527 381.546 325.397C386.651 320.355 396.682 320.449 408.089 326.242C417.705 331.097 427.26 335.926 436.808 340.78H436.808Z" fill="#26F486"/>
<path fill-rule="evenodd" clip-rule="evenodd" d="M317.994 322.556L318.266 251.007L365.391 266.415L366.495 335.047L317.994 322.556Z" fill="#17DE74"/>
<path fill-rule="evenodd" clip-rule="evenodd" d="M503.417 238.055C481.222 249.317 459.002 260.571 436.807 271.791C427.26 266.962 417.704 262.107 408.089 257.244C396.682 251.493 386.65 251.365 381.545 256.408C379.829 259.001 375.005 262.406 372.864 263.498L369.594 264.94L367.615 265.699L365.39 266.416C365.39 266.45 365.33 266.45 365.271 266.416L359.384 267.781L353.014 268.566C343.552 269.189 333.792 267.781 326.768 264.214C319.743 260.657 317.008 255.768 318.265 251.007L318.894 249.463L319.794 247.748L320.1 247.355C320.1 247.287 320.159 247.236 320.312 247.176L320.609 246.749L320.907 246.382V246.331L321.748 245.452C321.875 245.418 321.934 245.333 321.96 245.239C322.079 245.214 322.079 245.12 322.172 245.12C322.172 245.034 322.266 245 322.266 244.941L322.563 244.702L324.457 243.226H324.483L324.967 242.859L327.642 241.263L328.33 240.93C330.496 239.838 337.215 237.398 342.294 236.554C352.232 233.96 352.054 228.832 340.613 223.073C331.065 218.244 321.45 213.355 311.895 208.5C334.098 197.306 356.344 186.052 378.513 174.799C388.06 179.662 397.667 184.517 407.223 189.337C418.664 195.13 418.842 200.267 408.904 202.826C403.859 203.671 397.098 206.12 394.94 207.203L394.244 207.536L391.577 209.166L391.092 209.498H391.067L389.198 211L388.876 211.213C388.876 211.307 388.782 211.333 388.782 211.393C388.697 211.427 388.697 211.521 388.57 211.521C388.544 211.631 388.476 211.7 388.391 211.725L387.525 212.63V212.689L387.219 213.022L386.922 213.483C386.769 213.534 386.718 213.568 386.718 213.662L386.412 214.02L385.512 215.735L384.875 217.28C383.618 222.075 386.353 226.964 393.377 230.496C401.608 234.659 412.693 235.743 423.047 234.506L425.994 234.045L431.906 232.697C431.94 232.723 432 232.723 432 232.697L434.225 231.997L436.204 231.247C436.841 231.579 444.766 226.836 448.164 222.715C453.26 217.672 463.3 217.757 474.707 223.551C484.314 228.405 493.861 233.235 503.417 238.055L503.417 238.055Z" fill="#26F486"/>
<path fill-rule="evenodd" clip-rule="evenodd" d="M384.731 219.874L384.612 163.008L431.694 178.425L433.266 232.33L384.731 219.874Z" fill="#17DE74"/>
<path fill-rule="evenodd" clip-rule="evenodd" d="M570.026 147.497C547.84 158.75 525.611 170.004 503.416 181.198C493.861 176.378 484.313 171.514 474.707 166.66C463.299 160.892 453.26 160.773 448.163 165.815C446.447 168.409 441.64 171.813 439.474 172.897L436.204 174.381L434.225 175.106L431.999 175.832C431.999 175.857 431.94 175.857 431.906 175.832L425.994 177.188L419.623 177.965C410.169 178.605 400.41 177.188 393.377 173.622C386.352 170.064 383.617 165.184 384.874 160.406L385.511 158.878L386.412 157.155L386.718 156.763C386.718 156.703 386.769 156.643 386.921 156.583L387.219 156.157L387.525 155.798V155.739L388.391 154.86C388.476 154.834 388.544 154.74 388.569 154.655C388.697 154.621 388.697 154.561 388.782 154.527C388.782 154.433 388.875 154.408 388.875 154.348L389.198 154.109L391.066 152.624H391.092L391.576 152.266L394.243 150.671L394.94 150.338C397.097 149.254 403.858 146.806 408.904 145.97C418.842 143.367 418.664 138.239 407.222 132.48C397.666 127.651 388.06 122.796 378.512 117.908C400.707 106.714 422.961 95.4683 445.122 84.2061C454.703 89.0693 464.285 93.9241 473.832 98.7532C485.282 104.546 485.46 109.674 475.514 112.234C470.468 113.078 463.716 115.519 461.55 116.611L460.862 116.943L458.186 118.573L457.736 118.931H457.676L455.816 120.408L455.51 120.629C455.51 120.715 455.4 120.74 455.4 120.809C455.307 120.834 455.307 120.919 455.188 120.954C455.154 121.047 455.094 121.107 455.009 121.133L454.134 122.037V122.105L453.829 122.464L453.531 122.882C453.387 122.942 453.319 122.976 453.319 123.061L453.022 123.453L452.121 125.151L451.518 126.687C450.227 131.482 452.962 136.371 459.987 139.929C468.217 144.058 479.302 145.15 489.665 143.913L492.604 143.461L498.524 142.096C498.549 142.13 498.617 142.13 498.617 142.096L500.834 141.405L502.813 140.654C503.442 140.987 511.375 136.252 514.798 132.113C519.903 127.08 529.901 127.173 541.325 132.967C550.932 137.821 560.479 142.642 570.026 147.497H570.026Z" fill="#26F486"/>
<path fill-rule="evenodd" clip-rule="evenodd" d="M451.221 129.281L451.518 80.7078L498.618 96.1252L499.722 141.763L451.221 129.281Z" fill="#17DE74"/>
<path fill-rule="evenodd" clip-rule="evenodd" d="M636.644 67.7992C614.44 79.053 592.22 90.3068 570.025 101.501C560.478 96.6717 550.931 91.8425 541.324 86.9622C529.9 81.1945 519.902 81.0751 514.797 86.109C513.056 88.7027 508.248 92.1156 506.091 93.1991L502.812 94.6752L500.833 95.4004L498.616 96.1256C498.616 96.1512 498.548 96.1512 498.523 96.1256L492.603 97.4822L486.241 98.2672C476.77 98.9071 467.019 97.4822 459.986 93.9243C452.961 90.3579 450.226 85.4776 451.517 80.7082L452.12 79.1725L453.021 77.449L453.318 77.065C453.318 77.0053 453.386 76.937 453.53 76.8773L453.827 76.4593L454.133 76.1009V76.0327L455.008 75.1538C455.093 75.1283 455.153 75.0429 455.187 74.9491C455.305 74.915 455.305 74.8638 455.399 74.8296C455.399 74.7358 455.509 74.7102 455.509 74.6505L455.815 74.403L457.675 72.927H457.735L458.185 72.5686L460.861 70.9646L461.549 70.6319C463.714 69.5483 470.467 67.1081 475.513 66.2635C485.459 63.6697 485.281 58.5676 473.831 52.7743C464.284 47.9452 454.702 43.0904 445.121 38.2357C467.316 27.0075 489.57 15.7623 511.765 4.50854C521.321 9.36328 530.893 14.2265 540.449 19.0471C551.891 24.8404 552.094 29.9682 542.131 32.5363C537.086 33.381 530.324 35.8211 528.192 36.9047L527.47 37.2375L524.803 38.8671L524.345 39.234H524.285L522.425 40.71L522.128 40.9233C522.128 41.0172 522 41.0427 522 41.1025C521.915 41.1281 521.915 41.2219 521.822 41.2561C521.762 41.3499 521.711 41.4011 521.61 41.4352L520.743 42.3396V42.3993L520.446 42.7577L520.14 43.1843C519.996 43.244 519.936 43.2696 519.936 43.3635L519.63 43.7559L518.73 45.4453L518.135 46.9896C516.87 51.7761 519.571 56.6649 526.604 60.2313C534.835 64.3608 545.911 65.4444 556.273 64.2073L559.221 63.755L565.133 62.4326H565.218L567.452 61.7074L569.431 60.9565C570.059 61.2893 577.984 56.554 581.407 52.416C586.512 47.3735 596.518 47.4674 607.925 53.2521C617.541 58.1154 627.096 62.9445 636.644 67.7992L636.644 67.7992Z" fill="#26F486"/>
<path fill-rule="evenodd" clip-rule="evenodd" d="M636.644 67.7988L570.025 101.5V305.484L636.644 271.766V67.7988Z" fill="#14C466"/>
<path fill-rule="evenodd" clip-rule="evenodd" d="M644.84 23.5424C644.723 23.6205 644.605 23.6986 644.449 23.7767C642.688 24.6356 640.301 23.4643 639.831 21.6293C639.284 19.4429 643.118 17.8421 644.566 17.1394C645.388 16.7489 652.118 13.6645 651.923 15.031C651.884 15.3434 651.531 15.5386 651.218 15.6948C650.279 16.1242 649.379 16.5537 648.44 16.9832C647.814 17.2565 647.149 17.6079 646.875 18.1935C646.679 18.584 646.679 19.0525 646.64 19.521C646.523 20.8094 645.975 22.6835 644.84 23.5424Z" fill="#E7AD95"/>
<path fill-rule="evenodd" clip-rule="evenodd" d="M618.466 23.5814C625.939 23.8938 633.179 21.1998 640.144 18.5059C641.709 20.1847 642.492 22.5663 642.179 24.8308C638.031 26.2364 633.844 27.6029 629.696 29.0084C627.231 29.8283 624.766 30.6482 622.222 31.1167C619.561 31.6243 616.822 31.7414 614.083 31.8586C611.5 31.9757 608.879 32.0538 606.296 31.9366C601.835 31.7024 597.179 29.4769 599.213 24.05C599.487 23.2691 599.957 22.5663 600.622 22.0978C602.266 20.9656 606.961 22.0588 608.879 22.3321C612.087 22.7615 615.257 23.4643 618.466 23.5814Z" fill="#FBE0C0"/>
<path fill-rule="evenodd" clip-rule="evenodd" d="M609.505 110.296C610.092 113.927 608.409 118.69 609.662 120.525C611.383 123.024 613.966 123.883 616.862 123.688C618.114 123.61 619.092 122.712 618.818 121.111C618.309 116.777 616.548 113.966 616.196 109.945L609.505 110.296Z" fill="#40404C"/>
<path fill-rule="evenodd" clip-rule="evenodd" d="M622.262 101.823H628.014L629.931 102.682C633.57 104.439 636.505 106.938 639.401 109.515C641.24 111.155 638.696 112.951 635.879 112.638C632.866 112.287 630.714 110.53 627.857 109.007C625.744 107.875 623.592 107.563 621.792 106.235L622.262 101.823Z" fill="#40404C"/>
<path fill-rule="evenodd" clip-rule="evenodd" d="M606.57 58.3687C606.57 58.3687 620.344 66.1382 628.679 74.4153C628.679 74.4153 632.084 90.3058 631.497 102.292C631.497 102.292 628.484 106.587 621.088 105.064L618.349 78.4367L596.044 66.5677L594.088 59.0714L606.57 58.3687Z" fill="#4E6895"/>
<path fill-rule="evenodd" clip-rule="evenodd" d="M594.087 61.8044C594.087 61.8044 614.279 76.0161 616.431 79.2957C616.157 79.2176 617.448 99.7542 617.879 109.085C617.879 109.085 613.026 112.795 607.861 110.023C608.292 110.023 605.239 86.5967 604.574 84.2151C604.574 84.2151 589.118 77.6949 586.652 75.001C584.187 72.307 582.818 65.2793 583.992 62.9757L594.087 61.8044Z" fill="#4E6895"/>
<path fill-rule="evenodd" clip-rule="evenodd" d="M632.788 36.6608L631.262 35.9189L619.797 42.7124C617.527 44.0789 615.649 46.0311 614.436 48.3737L607.588 61.4921L609.114 62.2339L632.788 36.6608Z" fill="#D5D3D4"/>
<path fill-rule="evenodd" clip-rule="evenodd" d="M589.783 23.7766C587.826 24.7527 585.987 25.963 584.578 27.6028C582.426 30.1015 581.448 33.4592 581.292 36.7389C581.018 42.1658 582.074 48.1394 582.7 53.5664C582.818 54.5034 583.405 62.9367 583.992 63.0538C583.992 63.0538 597.022 65.5135 607.039 58.4077C606.296 51.8485 607.078 45.2893 607.274 38.73C607.431 34.123 608.292 26.4706 604.652 22.9567C602.892 21.2388 600.309 20.4579 597.844 20.7703C596.2 20.9655 594.674 21.6292 593.187 22.293C592.013 22.7224 590.878 23.23 589.783 23.7766Z" fill="#FBE0C0"/>
<path fill-rule="evenodd" clip-rule="evenodd" d="M600.113 29.1256C600.074 28.6961 599.996 28.2666 599.918 27.8372C597.687 28.9694 594.752 29.2037 592.209 28.3838C593.187 29.8284 594.557 31.1949 595.496 32.4442C596.905 34.3183 598.313 36.2314 599.722 38.1055C598.47 36.4266 600.348 31.2339 600.113 29.1256Z" fill="#FBE0C0"/>
<path fill-rule="evenodd" clip-rule="evenodd" d="M632.787 36.6609L619.874 44.3133C618.544 45.0942 617.448 46.2655 616.705 47.632L609.074 62.234L622.848 54.3474C624.726 53.2542 626.213 51.6144 627.074 49.6622L632.787 36.6609Z" fill="#FFF7FA"/>
<path fill-rule="evenodd" clip-rule="evenodd" d="M584.461 29.7893C589.314 29.9845 589.509 41.4632 589.705 44.5476C589.861 47.2415 589.627 50.0526 590.018 52.7075C595.692 54.1912 601.131 54.7378 606.883 55.1282C607.079 55.1282 607.314 55.1672 607.47 55.2844C607.588 55.4015 607.666 55.5967 607.705 55.7529C608.096 57.3927 608.018 59.1106 607.588 60.7114C601.209 61.0627 594.792 60.7114 588.414 60.0086C584.266 59.5791 583.718 57.9393 582.583 54.3473C581.918 52.239 581.409 50.0917 581.057 47.9443C580.314 43.3372 580.04 39.1596 580.509 34.4745C580.705 32.3271 582.074 30.1797 584.461 29.7893Z" fill="#FBE0C0"/>
<path fill-rule="evenodd" clip-rule="evenodd" d="M611.187 53.7597C610.871 54.6015 610.437 55.405 609.924 56.132C612.529 55.8642 613.949 53.5683 616.475 52.8413C616.633 53.0326 616.711 53.3005 616.633 53.5683C617.185 53.5301 617.777 53.5683 618.29 53.7214C617.422 55.405 616.198 56.9356 614.738 58.16C614.225 58.5809 613.673 58.9636 613.081 59.1932C611.542 59.6906 607.28 60.5707 606.728 58.6575C605.939 55.7111 610.516 55.4815 611.187 53.7597Z" fill="#E7AD95"/>
<path fill-rule="evenodd" clip-rule="evenodd" d="M600.628 1.6438C604.649 1.6438 607.919 4.84991 607.919 8.82242C607.919 12.7949 604.649 16.0266 600.628 16.0266C596.615 16.0266 593.364 12.7949 593.364 8.82242C593.364 4.84991 596.615 1.6438 600.628 1.6438Z" fill="#81462F"/>
<path fill-rule="evenodd" clip-rule="evenodd" d="M587.957 13.9719L591.215 17.5855L591.284 21.3688C591.284 21.3688 590.242 21.1174 589.728 20.2438C589.228 19.364 587.957 13.9719 587.957 13.9719L587.957 13.9719Z" fill="#81462F"/>
<path fill-rule="evenodd" clip-rule="evenodd" d="M589.062 5.75317C589.234 5.75317 589.339 5.77256 589.339 5.77256L590.036 13.9719L587.927 13.7132C586.774 10.6547 586.262 7.55728 587.187 6.56792C587.847 5.85663 588.648 5.75317 589.062 5.75317L589.062 5.75317Z" fill="#81462F"/>
<path fill-rule="evenodd" clip-rule="evenodd" d="M599.331 2.87646C602.633 2.87646 605.769 4.45217 606.269 8.50222C606.994 14.5077 606.673 16.963 605.821 19.9942C605.263 21.9116 604.153 23.2785 602.383 23.5569C602.165 23.5886 601.909 23.6013 601.627 23.6013C600.517 23.6013 599.119 23.3861 599.119 23.3861V26.0186C600.953 28.1006 599.517 29.1764 597.311 29.1764C595.316 29.1764 592.694 28.3031 591.27 26.5059L591.103 17.6401C591.103 17.6401 590.866 18.6336 589.519 18.6336C589.186 18.6336 588.788 18.5703 588.307 18.4185C586.916 17.9945 585.236 15.5138 586.127 13.6217C586.55 12.7421 587.172 12.4573 587.762 12.4573C588.429 12.4573 589.058 12.818 589.346 13.1155C589.821 13.5964 590.366 14.2988 590.783 14.2988C590.84 14.2988 590.898 14.2862 590.949 14.2545C590.949 14.2545 589.372 7.07205 593.553 4.48381C595.156 3.48398 597.279 2.87646 599.331 2.87646V2.87646Z" fill="#E7AD95"/>
<path fill-rule="evenodd" clip-rule="evenodd" d="M604.132 5.78947e-08C604.936 5.78947e-08 605.676 0.193448 606.353 0.79312C607.374 1.67005 607.814 3.25629 607.265 4.50079C607.137 4.80385 606.946 5.06178 606.735 5.30035C606.353 5.72593 605.925 6.04188 605.395 6.24177C605.395 6.24177 604.591 6.94461 601.771 7.29282C600.948 7.39599 599.991 7.43467 599.034 7.43467C596.717 7.43467 594.395 7.20898 593.98 7.16385C593.922 7.15097 593.871 7.15097 593.827 7.15097C593.144 7.15097 592.972 7.98922 592.551 10.0139C592.174 11.9419 591.855 15.1789 591.089 15.2046C590.879 15.2046 590.03 13.7925 589.494 13.296C588.735 12.5867 589.711 6.28045 589.711 6.28045C589.711 6.28045 588.99 4.71357 590.432 3.0822C591.472 1.92798 593.214 1.79902 596.188 1.32831C597.732 1.08974 600.093 0.638356 601.662 0.341741C602.556 0.174092 603.373 0 604.132 0V5.78947e-08Z" fill="#81462F"/>
<path fill-rule="evenodd" clip-rule="evenodd" d="M588.079 4.52026C588.322 4.52026 588.559 4.57207 588.789 4.6814C589.539 5.04399 589.842 5.8843 589.447 6.57494L586.71 5.27421C586.986 4.80227 587.519 4.52026 588.079 4.52026V4.52026Z" fill="#81462F"/>
<path fill-rule="evenodd" clip-rule="evenodd" d="M592.116 20.136C592.328 20.7026 593.078 21.5526 593.966 22.0484C595.322 22.7954 599.186 23.5874 599.186 23.5874V24.6563C599.186 24.6563 594.154 23.6969 593.179 22.3897C592.366 21.3401 592.116 20.1424 592.116 20.136L592.116 20.136Z" fill="#C49684"/>
<defs>
<linearGradient id="paint0_linear" x1="11.0347" y1="554.65" x2="822.803" y2="554.65" gradientUnits="userSpaceOnUse">
<stop offset="0.125" stop-color="#A2A2A2"/>
<stop offset="1" stop-color="#EFEFEF"/>
</linearGradient>
<linearGradient id="paint1_linear" x1="752.029" y1="241.021" x2="781.469" y2="241.021" gradientUnits="userSpaceOnUse">
<stop offset="0.125" stop-color="#A2A2A2"/>
<stop offset="1" stop-color="#EFEFEF"/>
</linearGradient>
<linearGradient id="paint2_linear" x1="731.296" y1="229.055" x2="760.736" y2="229.055" gradientUnits="userSpaceOnUse">
<stop offset="0.125" stop-color="#A2A2A2"/>
<stop offset="1" stop-color="#EFEFEF"/>
</linearGradient>
<linearGradient id="paint3_linear" x1="710.564" y1="217.098" x2="740.004" y2="217.098" gradientUnits="userSpaceOnUse">
<stop offset="0.125" stop-color="#A2A2A2"/>
<stop offset="1" stop-color="#EFEFEF"/>
</linearGradient>
<linearGradient id="paint4_linear" x1="689.831" y1="205.111" x2="719.271" y2="205.111" gradientUnits="userSpaceOnUse">
<stop offset="0.125" stop-color="#A2A2A2"/>
<stop offset="1" stop-color="#EFEFEF"/>
</linearGradient>
<linearGradient id="paint5_linear" x1="669.098" y1="193.138" x2="698.538" y2="193.138" gradientUnits="userSpaceOnUse">
<stop offset="0.125" stop-color="#A2A2A2"/>
<stop offset="1" stop-color="#EFEFEF"/>
</linearGradient>
<linearGradient id="paint6_linear" x1="648.367" y1="181.16" x2="677.807" y2="181.16" gradientUnits="userSpaceOnUse">
<stop offset="0.125" stop-color="#A2A2A2"/>
<stop offset="1" stop-color="#EFEFEF"/>
</linearGradient>
<linearGradient id="paint7_linear" x1="627.634" y1="169.194" x2="657.074" y2="169.194" gradientUnits="userSpaceOnUse">
<stop offset="0.125" stop-color="#A2A2A2"/>
<stop offset="1" stop-color="#EFEFEF"/>
</linearGradient>
<linearGradient id="paint8_linear" x1="606.901" y1="157.216" x2="636.341" y2="157.216" gradientUnits="userSpaceOnUse">
<stop offset="0.125" stop-color="#A2A2A2"/>
<stop offset="1" stop-color="#EFEFEF"/>
</linearGradient>
<linearGradient id="paint9_linear" x1="586.168" y1="145.25" x2="615.608" y2="145.25" gradientUnits="userSpaceOnUse">
<stop offset="0.125" stop-color="#A2A2A2"/>
<stop offset="1" stop-color="#EFEFEF"/>
</linearGradient>
<linearGradient id="paint10_linear" x1="565.437" y1="133.294" x2="594.877" y2="133.294" gradientUnits="userSpaceOnUse">
<stop offset="0.125" stop-color="#A2A2A2"/>
<stop offset="1" stop-color="#EFEFEF"/>
</linearGradient>
<linearGradient id="paint11_linear" x1="544.704" y1="121.306" x2="574.144" y2="121.306" gradientUnits="userSpaceOnUse">
<stop offset="0.125" stop-color="#A2A2A2"/>
<stop offset="1" stop-color="#EFEFEF"/>
</linearGradient>
<linearGradient id="paint12_linear" x1="523.971" y1="109.334" x2="553.411" y2="109.334" gradientUnits="userSpaceOnUse">
<stop offset="0.125" stop-color="#A2A2A2"/>
<stop offset="1" stop-color="#EFEFEF"/>
</linearGradient>
<linearGradient id="paint13_linear" x1="503.238" y1="97.3558" x2="532.679" y2="97.3558" gradientUnits="userSpaceOnUse">
<stop offset="0.125" stop-color="#A2A2A2"/>
<stop offset="1" stop-color="#EFEFEF"/>
</linearGradient>
<linearGradient id="paint14_linear" x1="482.506" y1="85.39" x2="511.946" y2="85.39" gradientUnits="userSpaceOnUse">
<stop offset="0.125" stop-color="#A2A2A2"/>
<stop offset="1" stop-color="#EFEFEF"/>
</linearGradient>
<linearGradient id="paint15_linear" x1="458.703" y1="252.307" x2="734.681" y2="252.307" gradientUnits="userSpaceOnUse">
<stop offset="0.125" stop-color="#A2A2A2"/>
<stop offset="1" stop-color="#EFEFEF"/>
</linearGradient>
<linearGradient id="paint16_linear" x1="439.28" y1="263.522" x2="715.258" y2="263.522" gradientUnits="userSpaceOnUse">
<stop offset="0.125" stop-color="#A2A2A2"/>
<stop offset="1" stop-color="#EFEFEF"/>
</linearGradient>
<linearGradient id="paint17_linear" x1="419.857" y1="274.737" x2="695.835" y2="274.737" gradientUnits="userSpaceOnUse">
<stop offset="0.125" stop-color="#A2A2A2"/>
<stop offset="1" stop-color="#EFEFEF"/>
</linearGradient>
<linearGradient id="paint18_linear" x1="400.434" y1="285.953" x2="676.411" y2="285.953" gradientUnits="userSpaceOnUse">
<stop offset="0.125" stop-color="#A2A2A2"/>
<stop offset="1" stop-color="#EFEFEF"/>
</linearGradient>
<linearGradient id="paint19_linear" x1="381.011" y1="297.168" x2="656.988" y2="297.168" gradientUnits="userSpaceOnUse">
<stop offset="0.125" stop-color="#A2A2A2"/>
<stop offset="1" stop-color="#EFEFEF"/>
</linearGradient>
<linearGradient id="paint20_linear" x1="361.588" y1="308.383" x2="637.565" y2="308.383" gradientUnits="userSpaceOnUse">
<stop offset="0.125" stop-color="#A2A2A2"/>
<stop offset="1" stop-color="#EFEFEF"/>
</linearGradient>
<linearGradient id="paint21_linear" x1="342.166" y1="319.578" x2="618.143" y2="319.578" gradientUnits="userSpaceOnUse">
<stop offset="0.125" stop-color="#A2A2A2"/>
<stop offset="1" stop-color="#EFEFEF"/>
</linearGradient>
<linearGradient id="paint22_linear" x1="322.743" y1="330.813" x2="598.72" y2="330.813" gradientUnits="userSpaceOnUse">
<stop offset="0.125" stop-color="#A2A2A2"/>
<stop offset="1" stop-color="#EFEFEF"/>
</linearGradient>
<linearGradient id="paint23_linear" x1="303.32" y1="342.029" x2="579.297" y2="342.029" gradientUnits="userSpaceOnUse">
<stop offset="0.125" stop-color="#A2A2A2"/>
<stop offset="1" stop-color="#EFEFEF"/>
</linearGradient>
<linearGradient id="paint24_linear" x1="283.896" y1="353.208" x2="559.874" y2="353.208" gradientUnits="userSpaceOnUse">
<stop offset="0.125" stop-color="#A2A2A2"/>
<stop offset="1" stop-color="#EFEFEF"/>
</linearGradient>
<linearGradient id="paint25_linear" x1="264.473" y1="364.459" x2="540.451" y2="364.459" gradientUnits="userSpaceOnUse">
<stop offset="0.125" stop-color="#A2A2A2"/>
<stop offset="1" stop-color="#EFEFEF"/>
</linearGradient>
<linearGradient id="paint26_linear" x1="225.627" y1="386.889" x2="501.604" y2="386.889" gradientUnits="userSpaceOnUse">
<stop offset="0.125" stop-color="#A2A2A2"/>
<stop offset="1" stop-color="#EFEFEF"/>
</linearGradient>
<linearGradient id="paint27_linear" x1="186.781" y1="409.319" x2="462.758" y2="409.319" gradientUnits="userSpaceOnUse">
<stop offset="0.125" stop-color="#A2A2A2"/>
<stop offset="1" stop-color="#EFEFEF"/>
</linearGradient>
<linearGradient id="paint28_linear" x1="167.358" y1="420.535" x2="443.335" y2="420.535" gradientUnits="userSpaceOnUse">
<stop offset="0.125" stop-color="#A2A2A2"/>
<stop offset="1" stop-color="#EFEFEF"/>
</linearGradient>
<linearGradient id="paint29_linear" x1="147.935" y1="431.75" x2="423.912" y2="431.75" gradientUnits="userSpaceOnUse">
<stop offset="0.125" stop-color="#A2A2A2"/>
<stop offset="1" stop-color="#EFEFEF"/>
</linearGradient>
<linearGradient id="paint30_linear" x1="128.511" y1="442.965" x2="404.489" y2="442.965" gradientUnits="userSpaceOnUse">
<stop offset="0.125" stop-color="#A2A2A2"/>
<stop offset="1" stop-color="#EFEFEF"/>
</linearGradient>
<linearGradient id="paint31_linear" x1="109.088" y1="454.18" x2="385.066" y2="454.18" gradientUnits="userSpaceOnUse">
<stop offset="0.125" stop-color="#A2A2A2"/>
<stop offset="1" stop-color="#EFEFEF"/>
</linearGradient>
<linearGradient id="paint32_linear" x1="89.6652" y1="465.395" x2="365.643" y2="465.395" gradientUnits="userSpaceOnUse">
<stop offset="0.125" stop-color="#A2A2A2"/>
<stop offset="1" stop-color="#EFEFEF"/>
</linearGradient>
</defs>
</svg>
