<svg width="710" height="300" viewBox="0 0 865 509" fill="none" xmlns="http://www.w3.org/2000/svg">
<path fill-rule="evenodd" clip-rule="evenodd" d="M695.835 363.58L827.878 402.502C744.107 498.47 541.661 536.649 375.754 487.625C342.632 477.82 316.788 466.976 290.349 451.823C158.455 375.762 157.861 252.311 288.716 176.102C419.719 99.8919 632.71 100.04 764.604 176.102C870.06 237.01 894.716 325.698 827.729 402.354L695.835 363.58Z" fill="#26523F" fill-opacity="0.1"/>
<path fill-rule="evenodd" clip-rule="evenodd" d="M274.29 265.309L460.563 157.155L465.073 154.538L465.077 153.118L466.695 153.597L646.981 49L646.546 186.691L623.51 200.066L705 224.215L704.558 365.518L464.635 294.272L464.641 292.309L460.273 294.845L274 403L274.29 265.309Z" fill="#0F964E"/>
<path fill-rule="evenodd" clip-rule="evenodd" d="M209.528 203.88C205.239 196.658 201.691 189.436 199.325 181.92C196.071 172.045 194.445 162.022 194.445 152L194.001 292.165C193.853 332.254 220.47 372.491 273.556 403L274 262.835C250.636 249.423 232.448 234.242 219.435 218.029C215.738 213.46 212.337 208.597 209.528 203.88Z" fill="#10AD59"/>
<path fill-rule="evenodd" clip-rule="evenodd" d="M705 349V348.563L705.409 210.34L732.949 137V275.369C733.767 300.01 724.769 324.942 705.545 348.563C705.273 348.708 705.136 348.854 705 349Z" fill="#10AD59"/>
<path fill-rule="evenodd" clip-rule="evenodd" d="M653.281 46.0473L654.077 45.5874C548.01 -15.1958 376.82 -15.1958 271.495 45.5874C166.318 106.518 166.911 205.217 272.83 266L463.453 155.794L464.662 155.095L703.198 224.438C756.666 164.079 737.095 94.143 653.281 46.0473Z" fill="#14C466"/>
<path fill-rule="evenodd" clip-rule="evenodd" d="M721.79 268.216C721.051 268.967 720.311 269.719 719.572 270.471C718.094 271.974 716.615 273.327 715.137 274.83C713.806 276.033 712.327 277.235 710.997 278.588C709.814 279.641 708.631 280.693 707.448 281.595C705.969 282.797 704.491 284 702.865 285.203C701.682 286.105 700.499 287.157 699.168 288.059C697.542 289.261 695.915 290.464 694.289 291.516C693.106 292.418 691.775 293.32 690.592 294.222C688.818 295.425 687.044 296.477 685.122 297.68C683.791 298.431 682.608 299.333 681.278 300.085C680.834 300.386 680.243 300.686 679.799 300.987C677.433 302.34 675.068 303.693 672.702 305.046C671.815 305.497 670.928 306.098 670.04 306.549C667.823 307.752 665.605 308.954 663.387 310.007C662.648 310.458 661.761 310.758 661.021 311.209C658.064 312.712 654.959 314.065 651.854 315.569C651.263 315.869 650.671 316.02 650.228 316.32C647.566 317.523 645.053 318.575 642.391 319.627C641.356 320.078 640.469 320.379 639.434 320.83C636.921 321.882 634.555 322.784 632.042 323.686C631.154 323.987 630.267 324.288 629.38 324.588C626.127 325.791 622.727 326.843 619.474 328.046C615.482 329.399 611.49 330.601 607.497 331.804L606.758 331.954C602.914 333.007 599.07 334.059 595.225 335.111C593.895 335.412 592.416 335.712 590.938 336.163C588.128 336.765 585.467 337.516 582.658 338.118C581.031 338.418 579.257 338.869 577.631 339.17C575.117 339.621 572.456 340.222 569.942 340.673C568.611 340.974 567.133 341.124 565.802 341.425C561.81 342.176 557.818 342.778 553.826 343.379C552.347 343.529 550.869 343.83 549.39 343.98C544.215 344.732 539.04 345.333 533.717 345.935C533.274 345.935 532.682 346.085 532.239 346.085C528.099 346.536 523.959 346.837 519.819 347.137C518.192 347.288 516.714 347.288 515.087 347.438C511.982 347.588 508.878 347.739 505.773 347.889C503.85 348.039 501.78 348.039 499.858 348.039C497.493 348.039 494.979 348.19 492.613 348.19C490.543 348.19 488.473 348.19 486.403 348.19C484.038 348.19 481.524 348.19 479.158 348.19C477.089 348.19 474.871 348.039 472.801 348.039C470.583 347.889 468.365 347.889 466.295 347.739C464.077 347.588 461.859 347.438 459.789 347.438C457.572 347.288 455.354 347.137 453.284 346.987C451.066 346.837 448.848 346.686 446.63 346.386C444.412 346.235 442.342 345.935 440.125 345.784C437.907 345.484 435.689 345.333 433.619 345.033C431.401 344.732 429.331 344.431 427.113 344.131C425.043 343.83 422.825 343.529 420.755 343.229C418.39 342.928 416.172 342.477 413.806 342.176C411.736 341.876 409.666 341.425 407.596 341.124C405.378 340.673 403.013 340.222 400.795 339.771C398.873 339.32 396.803 339.02 394.881 338.569C392.219 337.967 389.41 337.366 386.749 336.765C384.826 336.314 383.052 335.863 381.13 335.412C378.321 334.66 375.659 333.908 372.85 333.157C370.484 332.556 368.119 331.804 365.753 331.203C362.648 330.301 359.691 329.399 356.882 328.346C355.995 328.046 355.107 327.745 354.22 327.444C352.298 326.843 350.228 326.092 348.306 325.49C347.271 325.19 346.236 324.739 345.349 324.438C343.575 323.837 341.8 323.085 340.026 322.484C339.139 322.183 338.104 321.732 337.217 321.431C336.034 320.98 334.703 320.379 333.52 319.928C331.45 319.176 329.528 318.275 327.606 317.373C326.423 316.922 325.24 316.32 324.058 315.869C322.136 314.967 320.213 314.065 318.291 313.163C317.256 312.562 316.073 312.111 315.038 311.51C312.968 310.458 311.046 309.405 308.976 308.353C308.089 307.902 307.054 307.451 306.167 306.85C303.21 305.346 300.401 303.693 297.444 301.889L297 444.85C299.957 446.503 302.766 448.157 305.723 449.81C306.611 450.261 307.646 450.863 308.533 451.314C310.455 452.366 312.525 453.418 314.595 454.471C315.63 455.072 316.813 455.523 317.848 456.124C319.77 457.026 321.692 457.928 323.614 458.83C324.797 459.281 325.98 459.882 327.163 460.333C329.085 461.235 331.155 461.987 333.077 462.889C333.816 463.19 334.555 463.49 335.295 463.791C335.738 463.941 336.182 464.091 336.625 464.392C337.513 464.693 338.548 465.144 339.435 465.444C341.209 466.196 342.983 466.797 344.757 467.399C345.792 467.699 346.827 468.15 347.715 468.451C349.637 469.203 351.559 469.804 353.629 470.405C354.516 470.706 355.403 471.007 356.29 471.307C359.247 472.209 362.204 473.111 365.162 474.163C366.197 474.464 367.379 474.765 368.414 475.065C369.597 475.366 370.928 475.667 372.111 476.118C374.92 476.869 377.581 477.621 380.391 478.373C382.313 478.824 384.087 479.275 386.009 479.725C388.671 480.327 391.332 480.928 394.141 481.529C395.176 481.68 396.063 481.98 397.098 482.131C398.133 482.281 399.168 482.582 400.056 482.732C402.273 483.183 404.639 483.634 406.857 484.085C408.927 484.536 410.997 484.837 413.067 485.137C415.433 485.588 417.65 485.889 420.016 486.19C421.199 486.34 422.382 486.641 423.713 486.791C424.6 486.941 425.487 487.092 426.374 487.092C428.592 487.392 430.662 487.693 432.88 487.993C435.097 488.294 437.315 488.444 439.385 488.745C441.603 489.046 443.673 489.196 445.891 489.346C447.222 489.497 448.404 489.647 449.735 489.647C450.622 489.797 451.657 489.797 452.544 489.797C454.762 489.948 456.98 490.098 459.05 490.248C461.268 490.399 463.486 490.549 465.556 490.549C467.774 490.699 469.991 490.699 472.061 490.85C473.392 490.85 474.575 491 475.906 491C476.793 491 477.68 491 478.567 491C480.933 491 483.446 491 485.812 491C487.882 491 489.952 491 492.022 491C494.388 491 496.901 490.85 499.267 490.85C500.598 490.85 501.928 490.85 503.407 490.699C503.998 490.699 504.738 490.699 505.329 490.549C508.434 490.399 511.539 490.248 514.644 490.098C516.27 489.948 517.749 489.948 519.375 489.797C523.515 489.497 527.655 489.196 531.795 488.745C532.239 488.745 532.682 488.745 533.126 488.595H533.274C538.597 487.993 543.772 487.392 548.946 486.641C550.425 486.49 551.904 486.19 553.382 486.039C557.374 485.438 561.366 484.837 565.358 484.085C566.246 483.935 567.133 483.784 568.02 483.634C568.463 483.484 569.055 483.484 569.498 483.333C572.012 482.882 574.673 482.281 577.187 481.83C578.813 481.529 580.588 481.078 582.214 480.778C585.023 480.176 587.685 479.425 590.494 478.824C591.973 478.523 593.303 478.222 594.782 477.771C598.626 476.719 602.618 475.667 606.462 474.614L607.054 474.464C611.046 473.261 615.038 472.059 619.03 470.706L619.474 470.556C622.727 469.503 625.832 468.451 628.937 467.248C629.824 466.948 630.711 466.647 631.598 466.346C634.111 465.444 636.625 464.542 638.991 463.49C640.026 463.039 641.061 462.739 641.948 462.288C644.609 461.235 647.271 460.033 649.784 458.98C650.376 458.68 650.967 458.529 651.411 458.229C654.516 456.876 657.621 455.373 660.578 453.869C661.317 453.418 662.204 453.118 662.943 452.667C665.161 451.464 667.379 450.412 669.597 449.209C670.484 448.758 671.371 448.307 672.258 447.706C674.624 446.353 676.99 445 679.355 443.647C679.799 443.346 680.39 443.046 680.834 442.745L681.278 442.444C682.46 441.693 683.495 440.941 684.678 440.19C686.452 438.987 688.375 437.935 690.149 436.732C691.48 435.83 692.662 434.928 693.845 434.026C695.472 432.824 697.098 431.771 698.725 430.569C700.055 429.667 701.238 428.614 702.421 427.712C703.899 426.51 705.526 425.307 707.004 424.105C708.187 423.052 709.37 422 710.553 421.098C712.032 419.895 713.362 418.693 714.693 417.34L715.432 416.739C716.763 415.536 717.946 414.333 719.129 413.131C719.868 412.379 720.607 411.627 721.346 410.876C723.564 408.621 725.634 406.366 727.556 403.961L728 261C725.93 263.706 723.86 266.111 721.79 268.216Z" fill="#8AEBB7"/>
<path fill-rule="evenodd" clip-rule="evenodd" d="M728 264.312C660.827 340.642 498.518 370.88 365.504 332.128C338.872 324.348 318.158 315.688 297 303.651L487.125 194L728 264.312Z" fill="#9DF5C6"/>
<path fill-rule="evenodd" clip-rule="evenodd" d="M253 183.124L296.966 212L346 178.011L311.274 155L253 183.124Z" fill="url(#paint0_linear)"/>
<path fill-rule="evenodd" clip-rule="evenodd" d="M245 189.054L284.316 204L328 163.851L289.739 147L245 189.054Z" fill="white"/>
<path fill-rule="evenodd" clip-rule="evenodd" d="M178.25 401.332C174.101 397.233 169.03 393.438 163.037 389.947C138.298 375.829 103.416 371.124 71.9148 375.678C55.7802 377.954 40.5674 382.812 27.967 389.947C-0.614428 406.189 -7.22197 430.325 7.83708 450.211C12.447 456.283 19.2082 462.052 27.967 467.061C65.3073 488.313 125.851 488.313 163.191 467.061C171.95 462.052 178.711 456.283 183.475 450.059C194.999 434.424 193.309 416.36 178.25 401.332Z" fill="#26523F" fill-opacity="0.1"/>
<path d="M176.893 186.463C186.725 196.39 186.111 190.765 190.077 193.577C194.044 196.39 184.714 211.611 171.753 205.434C166.614 203.394 164.547 201.133 164.547 201.133C153.988 212.328 145.049 217.842 137.396 221.813C129.742 225.784 120.189 223.247 115.831 215.912C104.993 197.548 103.82 164.46 103.82 164.46L126.893 162.75C126.893 162.75 126.502 185.912 133.094 206.151C140.189 208.853 161.865 191.592 162.982 188.449C164.1 185.36 174.044 179.791 180.301 179.956C186.558 180.121 186.614 182.879 185.273 183.872C183.876 184.864 176.893 186.463 176.893 186.463Z" fill="#E7AD95"/>
<path d="M112.322 171.755L108.18 132.284C121.277 134.832 128.553 142.009 129.841 155.53C130.008 157.506 130.008 165.255 129.897 172.587C127.378 177.787 116.519 180.7 111.986 180.076C112.154 175.031 112.322 171.755 112.322 171.755Z" fill="#FBE0C0"/>
<path d="M123.45 384.716C130.133 391.312 135.338 401.42 138.132 407.698C139.501 410.836 138.296 414.454 135.228 416.156L134.133 416.741C127.504 420.465 119.396 420.465 112.767 416.741C104.878 412.326 98.0847 408.549 93.1541 405.782C87.6209 402.697 85.0461 396.26 87.0731 390.408C88.4427 386.418 89.5384 384.769 89.5384 384.769H123.45V384.716Z" fill="#40404C"/>
<path d="M75.5005 415.182C82.1842 421.778 87.3887 431.886 90.1827 438.163C91.5523 441.302 90.347 444.92 87.2791 446.622L86.1834 447.207C79.5545 450.931 71.4465 450.931 64.8176 447.207C56.9287 442.792 50.1355 439.015 45.2049 436.248C39.6717 433.163 37.0969 426.726 39.1239 420.874C40.4935 416.884 41.5892 415.235 41.5892 415.235H75.5005V415.182Z" fill="#40404C"/>
<path d="M121.222 243.99C124.094 263.839 125.615 384.743 125.615 384.743C108.213 394.557 90.7545 384.743 90.7545 384.743C90.7545 342.358 88.4455 311.159 87.6007 294.435C87.4881 292.297 84.5033 291.693 83.5459 293.667C77.4073 306.717 73.2961 344.441 73.2961 414.187C62.2015 420.383 52.6839 422.193 38.4355 414.187L42.5467 273.051V253.421L90.6982 228.034L121.222 243.99Z" fill="#4E6895"/>
<path d="M39.3094 243.54C39.3094 243.43 39.3094 243.319 39.3094 243.209C39.3094 210.705 39.3094 171.744 39.3094 171.744C39.3094 157.23 45.4546 148.07 80.7751 132.342C116.325 116.559 124.596 147.352 124.596 158.665C124.596 167.385 125.113 202.648 125.4 218.376C125.457 223.066 125.515 225.991 125.515 225.991C125.515 229.854 125.572 232.889 125.572 235.373C125.629 247.789 125.629 252.977 125.572 254.412C125.572 254.688 125.515 254.964 125.342 255.239C116.727 268.429 75.8934 292.71 47.9241 272.568C44.4208 269.698 42.0086 267.27 40.458 265.559C39.0222 264.014 38.333 261.972 38.4479 259.93L39.3094 243.54Z" fill="#FBE0C0"/>
<path d="M94.411 141.767C95.2384 147.524 96.0658 150.841 92.1495 153.219C88.1781 155.66 80.1249 152.28 75.6019 148.463C72.4027 145.709 68.5416 140.703 68.9829 137.449C69.4242 134.195 94.411 141.767 94.411 141.767Z" fill="#D9BCB3"/>
<path d="M84.2054 149.693C99.8535 149.693 112.539 132.156 112.539 110.523C112.539 88.8895 99.8535 71.3523 84.2054 71.3523C68.5573 71.3523 55.8721 88.8895 55.8721 110.523C55.8721 132.156 68.5573 149.693 84.2054 149.693Z" fill="#E7AD95"/>
<path d="M107.169 90.164C103.105 97.3693 79.5848 88.029 80.6144 98.4368C81.7525 110.019 75.5203 113.915 73.8403 117.064C70.0468 121.547 71.3474 130.034 68.2584 131.208C69.4506 122.615 66.47 119.946 64.0855 119.946C61.701 119.946 59.3707 121.761 59.3707 124.109C59.3707 126.458 61.5926 133.77 64.79 134.304C64.79 134.304 65.332 136.065 64.4107 136.599C63.4894 137.132 58.9914 131.848 58.1243 130.407C57.2572 128.966 51.5127 119.946 51.5127 104.415C51.5127 88.883 62.0804 67 79.4222 67C85.1667 67 98.0105 72.0705 101.75 75.7532C103.701 77.6746 105.868 79.3292 107.115 81.8377C108.47 84.3997 108.578 87.6554 107.169 90.164Z" fill="#81462F"/>
<path d="M90.6621 242.064C89.9747 234.156 82.5845 233.618 66.372 239.321C63.3931 240.343 45.9203 237.007 41.9101 231.52C37.8427 226.033 40.9935 213.552 48.2118 201.071C55.43 188.59 29.7651 194.723 29.7651 194.723C21.2292 209.732 21 227.916 21 233.618C21 239.321 31.14 245.669 42.8267 249.058C54.5134 252.447 66.4293 250.941 66.4293 250.941C77.0276 255.836 91.9798 256.697 90.6621 242.064Z" fill="#E7AD95"/>
<path d="M42.8775 155.533C31.348 175.171 27.2063 189.287 25.3594 196.707C35.7695 205.912 48.4743 207.251 51.6085 205.745C59.668 186.162 62.9701 182.201 64.3133 174.335C65.6566 166.468 62.0186 157.82 55.4144 155.142C48.8101 152.464 42.8775 155.533 42.8775 155.533Z" fill="#FBE0C0"/>
<defs>
<linearGradient id="paint0_linear" x1="252.97" y1="212.017" x2="345.944" y2="212.017" gradientUnits="userSpaceOnUse">
<stop offset="0.125" stop-color="#A2A2A2"/>
<stop offset="1" stop-color="#EFEFEF"/>
</linearGradient>
</defs>
</svg>
