<svg width="188" height="269" viewBox="0 0 188 269" fill="none" xmlns="http://www.w3.org/2000/svg">
<path fill-rule="evenodd" clip-rule="evenodd" d="M54.082 74.8802C50.3107 72.8233 47.243 74.4966 47.243 78.6104V105.598L94.5 131.379V104.399C94.5 100.284 91.4323 95.2624 87.661 93.2055L54.082 74.8802ZM110.25 110.777V139.97L126 148.562V148.738L143 123V122.523L188 114V233.476L143 242V243.262L126 269L0 200.266V79.8273L31.5 97.0118V67.8315C31.5 55.49 40.7015 50.4684 52.0153 56.6392L89.7347 77.2049C101.047 83.374 110.25 98.4337 110.25 110.777Z" fill="#26523F" fill-opacity="0.2"/>
<path fill-rule="evenodd" clip-rule="evenodd" d="M113.827 51.1949V24.4431C113.827 20.3572 116.716 18.6953 120.268 20.7382L151.892 38.939C155.444 40.9819 158.333 45.971 158.333 50.0568V76.8004L113.827 51.1949ZM188 93.8664L173.167 85.3334V56.3909C173.167 44.1317 164.499 29.1743 153.845 23.0472L118.321 2.62122C107.666 -3.50756 99 1.47988 99 13.7374V42.6668L69.3333 25.5992L54.5016 51.1998L10 59.7328L128.667 128L143.502 102.399L158.333 99.5551V110.995L173.167 119.515V96.7107L188 93.8664Z" fill="#93D5FF"/>
<path fill-rule="evenodd" clip-rule="evenodd" d="M188 213.476V94L145 102.523V222L188 213.476Z" fill="#75A4D6"/>
<path fill-rule="evenodd" clip-rule="evenodd" d="M129 249V128.738L145 103V223.262L129 249Z" fill="#6694C5"/>
<path fill-rule="evenodd" clip-rule="evenodd" d="M68.9699 25L69 94L53 85.3671L53.0177 50.8754L68.9699 25Z" fill="#6694C5"/>
<path fill-rule="evenodd" clip-rule="evenodd" d="M10 61.5016L56 53L55.983 87L10 61.5016Z" fill="#75A4D6"/>
<path fill-rule="evenodd" clip-rule="evenodd" d="M54.6184 58.6104C54.6184 54.4966 57.5157 52.8233 61.0774 54.8802L92.7909 73.2055C96.3527 75.2624 99.25 80.284 99.25 84.3994V111.379L54.6184 85.5982V58.6104ZM114.125 119.97V90.7768C114.125 78.4337 105.433 63.374 94.7495 57.2049L59.1255 36.6392C48.4403 30.4684 39.75 35.49 39.75 47.8315V77.0118L10 59.8273V180.266L129 249V128.562L114.125 119.97Z" fill="#8FC5FF"/>
</svg>
