<svg width="250" height="250" viewBox="0 -50 315 195" fill="none" xmlns="http://www.w3.org/2000/svg">
<path fill-rule="evenodd" clip-rule="evenodd" d="M191.105 195C189.264 195 187.507 194.626 186.194 193.867L17.9552 96.4686C15.0584 94.7913 15.4226 91.8615 18.7681 89.9245L22.0928 88L189.127 184.701C190.578 185.541 192.52 185.954 194.554 185.954C197.009 185.954 199.597 185.354 201.62 184.183L293.21 131.158L299 134.51C298.675 134.78 298.302 135.038 297.884 135.281L197.498 193.398C195.669 194.457 193.326 195 191.105 195Z" fill="#CDB070"/>
<mask id="mask0" mask-type="alpha" maskUnits="userSpaceOnUse" x="0" y="0" width="315" height="180">
<path fill-rule="evenodd" clip-rule="evenodd" d="M193.466 179.675C191.438 179.675 189.501 179.27 188.053 178.442L2.5349 72.3529C1.09944 71.5318 0.39069 70.4357 0.378256 69.2862C0.363059 67.8767 1.39786 66.3879 3.43016 65.2261L90.7694 15.2801L90.7708 15.2787L114.125 1.92296C116.144 0.76938 118.727 0.178223 121.177 0.178223C123.206 0.178223 125.142 0.584644 126.59 1.41117L312.108 107.501C313.57 108.337 314.279 109.459 314.265 110.632C314.248 112.022 313.215 113.485 311.214 114.629L200.518 177.931C198.499 179.084 195.916 179.675 193.466 179.675ZM169.651 137L165.575 139.33L200.793 159.468L204.867 157.137L169.651 137ZM143.05 126.448C144.55 128.208 146.571 129.861 149.115 131.33C155.402 134.962 163.673 136.782 171.934 136.782C180.028 136.782 188.111 135.033 194.302 131.53C206.812 124.45 206.864 112.88 194.418 105.69C188.131 102.057 179.861 100.237 171.599 100.237C163.505 100.237 155.422 101.986 149.231 105.489C142.246 109.444 139.144 114.797 139.934 120.007L126.364 112.245L122.289 114.575L143.05 126.448ZM109.792 52.5258C101.706 52.5258 93.6335 54.2664 87.4467 57.7682C74.9365 64.8484 74.8854 76.4171 87.3307 83.6081C93.6086 87.2358 101.865 89.0517 110.11 89.0517C117.906 89.0517 125.692 87.4287 131.794 84.1787C133.741 84.3854 135.715 84.4894 137.688 84.4894C145.774 84.4894 153.847 82.7487 160.035 79.247C172.545 72.1667 172.596 60.5981 160.15 53.4071C153.872 49.7794 145.617 47.9635 137.371 47.9635C129.575 47.9635 121.789 49.5864 115.688 52.8364C113.741 52.6298 111.765 52.5258 109.792 52.5258Z" fill="white"/>
</mask>
<g mask="url(#mask0)">
<path fill-rule="evenodd" clip-rule="evenodd" d="M193.466 179.675C191.438 179.675 189.501 179.27 188.053 178.442L2.5349 72.3529C1.09944 71.5318 0.39069 70.4357 0.378256 69.2862C0.363059 67.8767 1.39786 66.3879 3.43016 65.2261L90.7694 15.2801L90.7708 15.2787L114.125 1.92296C116.144 0.76938 118.727 0.178223 121.177 0.178223C123.206 0.178223 125.142 0.584644 126.59 1.41117L312.108 107.501C313.57 108.337 314.279 109.459 314.265 110.632C314.248 112.022 313.215 113.485 311.214 114.629L200.518 177.931C198.499 179.084 195.916 179.675 193.466 179.675ZM169.651 137L165.575 139.33L200.793 159.468L204.867 157.137L169.651 137ZM143.05 126.448C144.55 128.208 146.571 129.861 149.115 131.33C155.402 134.962 163.673 136.782 171.934 136.782C180.028 136.782 188.111 135.033 194.302 131.53C206.812 124.45 206.864 112.88 194.418 105.69C188.131 102.057 179.861 100.237 171.599 100.237C163.505 100.237 155.422 101.986 149.231 105.489C142.246 109.444 139.144 114.797 139.934 120.007L126.364 112.245L122.289 114.575L143.05 126.448ZM109.792 52.5258C101.706 52.5258 93.6335 54.2664 87.4467 57.7682C74.9365 64.8484 74.8854 76.4171 87.3307 83.6081C93.6086 87.2358 101.865 89.0517 110.11 89.0517C117.906 89.0517 125.692 87.4287 131.794 84.1787C133.741 84.3854 135.715 84.4894 137.688 84.4894C145.774 84.4894 153.847 82.7487 160.035 79.247C172.545 72.1667 172.596 60.5981 160.15 53.4071C153.872 49.7794 145.617 47.9635 137.371 47.9635C129.575 47.9635 121.789 49.5864 115.688 52.8364C113.741 52.6298 111.765 52.5258 109.792 52.5258Z" fill="#F5D58C"/>
</g>
<path fill-rule="evenodd" clip-rule="evenodd" d="M234.556 90.8053L235.402 91.3627C236.202 91.8903 236.921 92.1392 237.563 92.1109C238.205 92.0841 238.932 91.8024 239.741 91.2688C240.161 90.9916 240.452 90.7337 240.613 90.4967C240.776 90.2598 240.805 90.0198 240.705 89.7784C240.602 89.5369 240.429 89.3074 240.185 89.0927C239.943 88.8766 239.585 88.6143 239.112 88.2998L238.733 88.0524L234.556 90.8053ZM227.637 95.3705L228.635 96.0278C229.445 96.5628 230.197 96.8088 230.884 96.764C231.574 96.7208 232.355 96.4123 233.225 95.8385C234.124 95.2453 234.601 94.6998 234.656 94.2005C234.711 93.7027 234.323 93.1795 233.496 92.634L232.64 92.0692L227.637 95.3705ZM223 94.8399L237.922 85L241.576 87.41C242.266 87.8661 242.807 88.3028 243.197 88.7216C243.586 89.1404 243.839 89.5757 243.955 90.0273C244.066 90.4803 243.973 90.9379 243.674 91.4059C243.374 91.8709 242.864 92.3389 242.145 92.8054C240.296 94.0172 238.534 94.2109 236.861 93.3942C237.575 94.0872 237.849 94.7728 237.679 95.4584C237.512 96.1425 236.885 96.8475 235.8 97.5719C234.387 98.5093 232.959 98.9863 231.509 98.9997C230.061 99.0131 228.653 98.569 227.285 97.6673L223 94.8399Z" fill="#FFFFFE"/>
<path fill-rule="evenodd" clip-rule="evenodd" d="M243.79 101.816L245.809 103.162L250.991 98.3584L243.79 101.816ZM235 103.009L253.136 95L256 96.9091L243.982 109L241.427 107.296L244.319 104.556L241.708 102.814L237.592 104.739L235 103.009Z" fill="#FFFFFE"/>
<path fill-rule="evenodd" clip-rule="evenodd" d="M244 109.518L259.119 99L261.018 100.321L256.156 108.852L264.719 102.895L267 104.482L251.881 115L250.075 113.745L255.335 104.882L246.335 111.143L244 109.518Z" fill="#FFFFFE"/>
<path fill-rule="evenodd" clip-rule="evenodd" d="M256 116.177L272.102 106L275.036 107.854L268.042 112.273L278.202 109.856L281 111.623L270.715 114.23L265.218 122L262.294 120.152L267.093 113.611L265.46 113.905L258.934 118.03L256 116.177Z" fill="#FFFFFE"/>
<path fill-rule="evenodd" clip-rule="evenodd" d="M70.9559 86L36 65.3856L40.0441 63L75 83.6144L70.9559 86Z" fill="#FFFFFE"/>
<path fill-rule="evenodd" clip-rule="evenodd" d="M112.955 111L78 90.3854L82.0454 88L117 108.615L112.955 111Z" fill="#FFFFFE"/>
<path fill-rule="evenodd" clip-rule="evenodd" d="M157.955 136L123 115.385L127.045 113L162 133.615L157.955 136Z" fill="#FFFFFE"/>
<path fill-rule="evenodd" clip-rule="evenodd" d="M201.956 161L167 140.386L171.045 138L206 158.614L201.956 161Z" fill="#FFFFFE"/>
<mask id="mask1" mask-type="alpha" maskUnits="userSpaceOnUse" x="80" y="48" width="91" height="42">
<path fill-rule="evenodd" clip-rule="evenodd" d="M112.189 89.7322C104.083 89.7322 95.9661 87.8915 89.7944 84.2143C77.5597 76.9252 77.6099 65.1986 89.9085 58.0218C95.9906 54.4722 103.927 52.7078 111.876 52.7078C113.816 52.7078 115.758 52.8133 117.672 53.0227C123.67 49.7283 131.324 48.0833 138.989 48.0833C147.095 48.0833 155.21 49.9239 161.382 53.6011C173.618 60.8903 173.567 72.6168 161.269 79.7937C155.185 83.3433 147.249 85.1076 139.3 85.1076C137.36 85.1076 135.419 85.0022 133.506 84.7928C127.506 88.0871 119.853 89.7322 112.189 89.7322Z" fill="white"/>
</mask>
<g mask="url(#mask1)">
<path fill-rule="evenodd" clip-rule="evenodd" d="M112.189 89.7322C104.083 89.7322 95.9661 87.8915 89.7944 84.2143C77.5597 76.9252 77.6099 65.1986 89.9085 58.0218C95.9906 54.4722 103.927 52.7078 111.876 52.7078C113.816 52.7078 115.758 52.8133 117.672 53.0227C123.67 49.7283 131.324 48.0833 138.989 48.0833C147.095 48.0833 155.21 49.9239 161.382 53.6011C173.618 60.8903 173.567 72.6168 161.269 79.7937C155.185 83.3433 147.249 85.1076 139.3 85.1076C137.36 85.1076 135.419 85.0022 133.506 84.7928C127.506 88.0871 119.853 89.7322 112.189 89.7322Z" fill="#988253"/>
</g>
<path fill-rule="evenodd" clip-rule="evenodd" d="M139 61.9135L137.237 64.522C135.715 61.959 133.188 59.5475 129.65 57.4902C117.19 50.249 96.9373 50.1594 84.4134 57.289C80.9459 59.2637 78.4384 61.5856 76.8838 64.0632L75.0249 61.6297L75 67.1953L75.0124 67.187C74.8686 71.9851 77.9612 76.8204 84.3096 80.5093C96.7699 87.7505 117.023 87.8414 129.547 80.7104C135.809 77.1456 138.953 72.4509 138.974 67.7423L139 61.9135Z" fill="#EAA258"/>
<path fill-rule="evenodd" clip-rule="evenodd" d="M129.569 77.8254C117.04 84.8014 96.7797 84.7124 84.3143 77.6286C71.8504 70.5448 71.9016 59.1487 84.4306 52.1741C96.9595 45.1994 117.22 45.287 129.686 52.3709C142.15 59.4547 142.098 70.8508 129.569 77.8254Z" fill="#F6C86C"/>
<mask id="mask2" mask-type="alpha" maskUnits="userSpaceOnUse" x="75" y="47" width="66" height="36">
<path fill-rule="evenodd" clip-rule="evenodd" d="M130.815 77.6132C118.099 84.5132 97.5366 84.4252 84.8856 77.4186C72.2361 70.4119 72.2881 59.1399 85.0036 52.2412C97.7191 45.3426 118.282 45.4292 130.933 52.4359C143.582 59.4426 143.53 70.7146 130.815 77.6132Z" fill="white"/>
</mask>
<g mask="url(#mask2)">
<path fill-rule="evenodd" clip-rule="evenodd" d="M130.815 77.6132C118.099 84.5132 97.5366 84.4252 84.8856 77.4186C72.2361 70.4119 72.2881 59.1399 85.0036 52.2412C97.7191 45.3426 118.282 45.4292 130.933 52.4359C143.582 59.4426 143.53 70.7146 130.815 77.6132Z" fill="url(#paint0_radial)"/>
</g>
<path fill-rule="evenodd" clip-rule="evenodd" d="M107.865 49.5418C101.387 49.5418 94.9195 51.034 89.9745 54.0254C85.1846 56.9228 82.5371 60.7775 82.5199 64.8778C82.5026 68.9796 85.117 72.8582 89.8817 75.8033C99.8221 81.9419 116.033 82.0191 126.025 75.9731C130.815 73.0758 133.463 69.2211 133.48 65.1193C133.497 61.0189 130.884 57.1403 126.118 54.1967C121.098 51.0972 114.476 49.5418 107.865 49.5418ZM108.135 81C101.428 81 94.714 79.4236 89.6219 76.2778C84.6874 73.2316 81.9829 69.1818 82.0002 64.8764C82.0187 60.5711 84.759 56.5466 89.7173 53.5467C99.8487 47.4179 116.296 47.4937 126.379 53.7222C131.313 56.7697 134.018 60.8168 134 65.1221C133.981 69.4288 131.241 73.452 126.283 76.4518C121.269 79.4853 114.705 81 108.135 81Z" fill="#EAA258"/>
<mask id="mask3" mask-type="alpha" maskUnits="userSpaceOnUse" x="82" y="49" width="53" height="32">
<path fill-rule="evenodd" clip-rule="evenodd" d="M127.022 76.0372C116.692 82.081 99.9849 82.0045 89.707 75.8675C79.4304 69.729 79.4726 59.855 89.8035 53.8111C100.134 47.7673 116.84 47.8438 127.118 53.9823C137.395 60.1193 137.353 69.9948 127.022 76.0372Z" fill="white"/>
</mask>
<g mask="url(#mask3)">
<path fill-rule="evenodd" clip-rule="evenodd" d="M127.022 76.0372C116.692 82.081 99.9849 82.0045 89.707 75.8675C79.4304 69.729 79.4726 59.855 89.8035 53.8111C100.134 47.7673 116.84 47.8438 127.118 53.9823C137.395 60.1193 137.353 69.9948 127.022 76.0372Z" fill="url(#paint1_radial)"/>
</g>
<path fill-rule="evenodd" clip-rule="evenodd" d="M89.802 54.6488C100.178 48.7393 116.96 48.8141 127.284 54.8148C132.167 57.6539 134.726 61.3093 134.974 65C135.287 60.8916 132.73 56.7139 127.289 53.551C116.965 47.5489 100.185 47.4741 89.8075 53.3836C84.3391 56.4976 81.7441 60.6522 82.0199 64.7633C82.3011 61.0766 84.8933 57.443 89.802 54.6488Z" fill="#EAA258"/>
<path fill-rule="evenodd" clip-rule="evenodd" d="M129.58 74.888C117.048 81.5898 96.7829 81.5043 84.3148 74.6989C78.3486 71.4413 75.2582 67.2356 75.0201 63C74.7184 67.6125 77.8074 72.2897 84.3093 75.8388C96.7774 82.6454 117.043 82.7309 129.574 76.0279C136.109 72.5332 139.243 67.8832 138.985 63.2681C138.707 67.5011 135.577 71.6809 129.58 74.888Z" fill="#FAE383"/>
<mask id="mask4" mask-type="alpha" maskUnits="userSpaceOnUse" x="139" y="100" width="66" height="38">
<path fill-rule="evenodd" clip-rule="evenodd" d="M171.927 137.564C163.53 137.564 155.124 135.712 148.733 132.015C146.148 130.519 144.093 128.836 142.568 127.045L157.261 135.459L161.404 133.087L139.402 120.489C138.598 115.186 141.751 109.738 148.851 105.712C155.143 102.147 163.36 100.366 171.586 100.366C179.983 100.366 188.389 102.219 194.78 105.917C207.429 113.235 207.377 125.012 194.662 132.218C188.369 135.784 180.153 137.564 171.927 137.564Z" fill="white"/>
</mask>
<g mask="url(#mask4)">
<path fill-rule="evenodd" clip-rule="evenodd" d="M171.927 137.564C163.53 137.564 155.124 135.712 148.733 132.015C146.148 130.519 144.093 128.836 142.568 127.045L157.261 135.459L161.404 133.087L139.402 120.489C138.598 115.186 141.751 109.738 148.851 105.712C155.143 102.147 163.36 100.366 171.586 100.366C179.983 100.366 188.389 102.219 194.78 105.917C207.429 113.235 207.377 125.012 194.662 132.218C188.369 135.784 180.153 137.564 171.927 137.564Z" fill="#988253"/>
</g>
<path fill-rule="evenodd" clip-rule="evenodd" d="M158.046 136L144.022 127.007C142.334 124.786 141.327 122.407 141 120L162 133.465L158.046 136Z" fill="#C9CCD5"/>
<path fill-rule="evenodd" clip-rule="evenodd" d="M201 111.913L199.237 114.521C197.715 111.958 195.188 109.547 191.65 107.491C179.191 100.25 158.936 100.159 146.412 107.288C142.945 109.263 140.437 111.585 138.882 114.062L137.024 111.629L137 117.196L137.011 117.188C136.867 121.986 139.96 126.82 146.31 130.51C158.769 137.751 179.024 137.841 191.546 130.711C197.809 127.146 200.953 122.451 200.974 117.742L201 111.913Z" fill="#EAA258"/>
<path fill-rule="evenodd" clip-rule="evenodd" d="M191.569 123.826C179.04 130.801 158.779 130.713 146.314 123.629C133.85 116.545 133.902 105.148 146.43 98.1734C158.959 91.1988 179.22 91.2877 191.685 98.3715C204.15 105.454 204.098 116.851 191.569 123.826Z" fill="#F6C86C"/>
<mask id="mask5" mask-type="alpha" maskUnits="userSpaceOnUse" x="135" y="91" width="66" height="38">
<path fill-rule="evenodd" clip-rule="evenodd" d="M191.132 123.231C178.416 130.437 157.854 130.347 145.203 123.027C132.553 115.708 132.605 103.931 145.321 96.7246C158.037 89.518 178.599 89.6099 191.25 96.9294C203.901 104.247 203.848 116.024 191.132 123.231Z" fill="white"/>
</mask>
<g mask="url(#mask5)">
<path fill-rule="evenodd" clip-rule="evenodd" d="M191.132 123.231C178.416 130.437 157.854 130.347 145.203 123.027C132.553 115.708 132.605 103.931 145.321 96.7246C158.037 89.518 178.599 89.6099 191.25 96.9294C203.901 104.247 203.848 116.024 191.132 123.231Z" fill="url(#paint2_radial)"/>
</g>
<path fill-rule="evenodd" clip-rule="evenodd" d="M167.363 95.5425C160.759 95.5425 154.168 97.0333 149.128 100.025C144.246 102.922 141.547 106.777 141.53 110.877C141.512 114.979 144.177 118.859 149.033 121.803C159.166 127.942 175.688 128.019 185.872 121.974C190.754 119.077 193.453 115.222 193.471 111.12C193.489 107.02 190.824 103.14 185.967 100.197C180.85 97.0965 174.1 95.5425 167.363 95.5425ZM167.637 127C160.801 127 153.959 125.424 148.768 122.279C143.74 119.231 140.983 115.182 141 110.876C141.019 106.571 143.812 102.547 148.866 99.5475C159.192 93.4172 175.955 93.4944 186.233 99.7216C191.261 102.769 194.019 106.818 194 111.123C193.981 115.429 191.188 119.452 186.136 122.452C181.024 125.485 174.334 127 167.637 127Z" fill="#EAA258"/>
<mask id="mask6" mask-type="alpha" maskUnits="userSpaceOnUse" x="141" y="95" width="54" height="32">
<path fill-rule="evenodd" clip-rule="evenodd" d="M186.863 121.895C176.411 127.939 159.507 127.863 149.109 121.724C138.71 115.587 138.753 105.712 149.206 99.6678C159.658 93.624 176.561 93.7005 186.96 99.839C197.359 105.977 197.315 115.851 186.863 121.895Z" fill="white"/>
</mask>
<g mask="url(#mask6)">
<path fill-rule="evenodd" clip-rule="evenodd" d="M186.863 121.895C176.411 127.939 159.507 127.863 149.109 121.724C138.71 115.587 138.753 105.712 149.206 99.6678C159.658 93.624 176.561 93.7005 186.96 99.839C197.359 105.977 197.315 115.851 186.863 121.895Z" fill="url(#paint3_radial)"/>
</g>
<path fill-rule="evenodd" clip-rule="evenodd" d="M148.802 100.648C159.178 94.7388 175.96 94.8136 186.284 100.814C191.166 103.653 193.727 107.309 193.974 111C194.288 106.89 191.73 102.713 186.289 99.5502C175.965 93.5499 159.185 93.4737 148.807 99.3829C143.339 102.498 140.744 106.651 141.02 110.763C141.301 107.075 143.893 103.442 148.802 100.648Z" fill="#EAA258"/>
<path fill-rule="evenodd" clip-rule="evenodd" d="M191.58 122.888C179.048 129.589 158.782 129.505 146.315 122.698C140.347 119.441 137.257 115.235 137.02 111C136.717 115.614 139.806 120.289 146.31 123.839C158.777 130.646 179.042 130.73 191.574 124.029C198.109 120.534 201.243 115.884 200.985 111.269C200.709 115.501 197.577 119.681 191.58 122.888Z" fill="#FAE383"/>
<path fill-rule="evenodd" clip-rule="evenodd" d="M171 65.0679L168.378 66.7947C167.953 63.8725 166.545 60.7098 164.066 57.4924C155.337 46.1613 136.689 38.4492 122.413 40.2649C118.458 40.769 115.259 41.9521 112.878 43.638L112.094 40.7061L109.945 45.7993L109.958 45.7952C107.994 50.1382 109 55.7355 113.447 61.5076C122.174 72.8387 140.823 80.5508 155.1 78.7351C162.238 77.8266 166.933 74.7076 168.75 70.4001L171 65.0679Z" fill="#EAA258"/>
<path fill-rule="evenodd" clip-rule="evenodd" d="M159.168 73.726C144.562 75.6045 125.483 67.6255 116.555 55.9022C107.626 44.1804 112.227 33.1539 126.833 31.274C141.439 29.3955 160.516 37.3745 169.446 49.0964C178.374 60.8196 173.772 71.8461 159.168 73.726Z" fill="#F6C86C"/>
<mask id="mask7" mask-type="alpha" maskUnits="userSpaceOnUse" x="112" y="32" width="62" height="45">
<path fill-rule="evenodd" clip-rule="evenodd" d="M158.599 75.7421C144.347 77.6525 125.731 69.5379 117.019 57.6152C108.306 45.694 112.796 34.4801 127.048 32.5682C141.3 30.6578 159.915 38.7725 168.628 50.6937C177.34 62.6163 172.849 73.8302 158.599 75.7421Z" fill="white"/>
</mask>
<g mask="url(#mask7)">
<path fill-rule="evenodd" clip-rule="evenodd" d="M158.599 75.7421C144.347 77.6525 125.731 69.5379 117.019 57.6152C108.306 45.694 112.796 34.4801 127.048 32.5682C141.3 30.6578 159.915 38.7725 168.628 50.6937C177.34 62.6163 172.849 73.8302 158.599 75.7421Z" fill="url(#paint4_radial)"/>
</g>
<path fill-rule="evenodd" clip-rule="evenodd" d="M147.509 39.813C141.446 37.2249 134.853 36.0059 129.135 36.7667C123.598 37.5012 119.716 39.9685 118.205 43.7117C116.693 47.455 117.725 52.0452 121.11 56.6409C128.173 66.2254 143.311 72.7691 154.864 71.2335C160.401 70.4976 164.284 68.0303 165.795 64.2871C167.306 60.5452 166.274 55.9536 162.889 51.3593C159.322 46.5192 153.692 42.4538 147.509 39.813ZM136.294 68.6829C130.018 66.0046 124.312 61.8809 120.693 56.9714C117.188 52.216 116.134 47.4314 117.72 43.5021C119.307 39.5728 123.338 36.9889 129.07 36.2266C140.783 34.6688 156.142 41.3083 163.306 51.0302C166.811 55.7856 167.867 60.5674 166.281 64.4981C164.693 68.4274 160.663 71.0113 154.931 71.7736C149.133 72.5442 142.44 71.3071 136.294 68.6829Z" fill="#EAA258"/>
<mask id="mask8" mask-type="alpha" maskUnits="userSpaceOnUse" x="117" y="36" width="52" height="36">
<path fill-rule="evenodd" clip-rule="evenodd" d="M156.425 71.6054C144.313 73.1506 128.493 66.5889 121.088 56.9479C113.685 47.3082 117.5 38.2389 129.611 36.6937C141.723 35.1485 157.544 41.7102 164.949 51.3513C172.353 60.9909 168.537 70.0588 156.425 71.6054Z" fill="white"/>
</mask>
<g mask="url(#mask8)">
<path fill-rule="evenodd" clip-rule="evenodd" d="M156.425 71.6054C144.313 73.1506 128.493 66.5889 121.088 56.9479C113.685 47.3082 117.5 38.2389 129.611 36.6937C141.723 35.1485 157.544 41.7102 164.949 51.3513C172.353 60.9909 168.537 70.0588 156.425 71.6054Z" fill="url(#paint5_radial)"/>
</g>
<path fill-rule="evenodd" clip-rule="evenodd" d="M128.102 37.333C139.996 35.8757 155.531 42.064 162.803 51.155C166.242 55.4563 167.213 59.6349 166.025 63C167.894 59.4678 167.125 54.8269 163.293 50.0359C156.022 40.9436 140.486 34.7553 128.592 36.2126C122.325 36.9817 118.323 39.7213 117 43.4703C118.678 40.2998 122.477 38.0225 128.102 37.333Z" fill="#EAA258"/>
<path fill-rule="evenodd" clip-rule="evenodd" d="M157.822 72.6043C143.774 74.4479 125.425 66.6213 116.837 55.1252C112.727 49.6232 111.605 44.2807 113.084 40C110.964 44.4498 111.897 50.2554 116.376 56.2508C124.963 67.7483 143.314 75.5736 157.362 73.7313C164.688 72.7692 169.388 69.366 171 64.7013C169.057 68.7824 164.545 71.7226 157.822 72.6043Z" fill="#FAE383"/>
<defs>
<radialGradient id="paint0_radial" cx="0" cy="0" r="1" gradientUnits="userSpaceOnUse" gradientTransform="translate(89.1153 54.7506) rotate(-16.2596) scale(46.182 29.9368)">
<stop stop-color="#F6C76C"/>
<stop offset="1" stop-color="#FAE384"/>
</radialGradient>
<radialGradient id="paint1_radial" cx="0" cy="0" r="1" gradientUnits="userSpaceOnUse" gradientTransform="translate(122.827 87.0786) rotate(-17.4572) scale(106.993 73.8416)">
<stop stop-color="#F6C76C"/>
<stop offset="1" stop-color="#FAE384"/>
</radialGradient>
<radialGradient id="paint2_radial" cx="0" cy="0" r="1" gradientUnits="userSpaceOnUse" gradientTransform="translate(149.433 99.346) rotate(-16.9447) scale(46.347 31.1619)">
<stop stop-color="#F6C76C"/>
<stop offset="1" stop-color="#FAE384"/>
</radialGradient>
<radialGradient id="paint3_radial" cx="0" cy="0" r="1" gradientUnits="userSpaceOnUse" gradientTransform="translate(182.618 132.937) rotate(-17.2659) scale(108.141 73.9201)">
<stop stop-color="#F6C76C"/>
<stop offset="1" stop-color="#FAE384"/>
</radialGradient>
<radialGradient id="paint4_radial" cx="0" cy="0" r="1" gradientUnits="userSpaceOnUse" gradientTransform="translate(129.787 36.6749) rotate(5.57431) scale(45.5224 33.19)">
<stop stop-color="#F6C76C"/>
<stop offset="1" stop-color="#FAE384"/>
</radialGradient>
<radialGradient id="paint5_radial" cx="0" cy="0" r="1" gradientUnits="userSpaceOnUse" gradientTransform="translate(148.224 80.1319) rotate(5.30552) scale(109.574 76.0824)">
<stop stop-color="#F6C76C"/>
<stop offset="1" stop-color="#FAE384"/>
</radialGradient>
</defs>
</svg>
