<svg width="178" height="242" viewBox="0 0 178 242" fill="none" xmlns="http://www.w3.org/2000/svg">
<path fill-rule="evenodd" clip-rule="evenodd" d="M166.785 178.314C163.136 175.118 158.676 172.158 153.405 169.435C131.644 158.427 100.963 154.757 73.2549 158.308C59.0632 160.084 45.6824 163.872 34.5993 169.435C9.45956 182.102 3.64769 200.924 16.8933 216.431C20.9481 221.166 26.8952 225.664 34.5993 229.571C67.4431 246.143 120.696 246.143 153.54 229.571C161.244 225.664 167.191 221.166 171.381 216.312C181.518 204.12 180.031 190.033 166.785 178.314Z" fill="#26523F" fill-opacity="0.2"/>
<path fill-rule="evenodd" clip-rule="evenodd" d="M178 140.374C178 120.955 172.447 99.8241 163.078 80L59 140.274C71.4349 158.317 86.9024 173.705 103.667 183.411C113.041 188.84 122.007 192.015 130.268 193.132L126.042 206L155.725 188.916H155.719C169.467 181.256 178 164.442 178 140.374Z" fill="#4FD38D"/>
<path fill-rule="evenodd" clip-rule="evenodd" d="M103.079 10.162C82.5669 -1.79662 64.0126 -2.8388 50.6465 5.13634L50.6498 5.13138L21 22.3174L36.019 21.2901C31.745 29.6805 29.3614 40.3917 29.3614 53.1427C29.3614 81.2269 40.914 112.899 58.7802 139L162 78.8101C148.549 50.1402 127.162 24.2049 103.079 10.162Z" fill="#5AED9F"/>
<path fill-rule="evenodd" clip-rule="evenodd" d="M148 156.924C148 204.335 114.871 223.551 74 199.847C33.1323 176.14 0 118.488 0 71.0769C0 23.6659 33.1323 4.4484 74 28.1531C114.871 51.8594 148 109.512 148 156.924Z" fill="#22CF86"/>
<path fill-rule="evenodd" clip-rule="evenodd" d="M135 146.705C135 184.486 108.362 199.799 75.5 180.908C42.6395 162.018 16 116.076 16 78.2958C16 40.5145 42.6395 25.2015 75.5 44.0905C108.362 62.9828 135 108.923 135 146.705Z" fill="#D5FFED"/>
<path fill-rule="evenodd" clip-rule="evenodd" d="M25.7905 71.2783C25.7905 55.1961 30.4573 43.1412 38.2799 36C24.707 40.6776 16 55.1296 16 77.1004C16 115.288 42.3006 161.726 74.7431 180.821C93.5246 191.875 110.245 191.342 121 181.526C110.979 184.978 98.3121 183.108 84.5336 174.999C52.0911 155.904 25.7905 109.466 25.7905 71.2783Z" fill="#458F6F"/>
<path fill-rule="evenodd" clip-rule="evenodd" d="M108.357 118.612L85.568 105.751V70.23C85.568 69.207 84.8301 67.9626 83.923 67.4502L74.645 62.2196C73.7379 61.7073 73 62.1221 73 63.1451V110.975C73 111.999 73.7379 113.244 74.645 113.756L74.6704 113.771L108.357 132.781C109.265 133.292 110 132.877 110 131.854V121.393C110 120.368 109.265 119.124 108.357 118.612Z" fill="#4C9D7A"/>
</svg>
