<svg id="Layer_1" data-name="Layer 1" xmlns="http://www.w3.org/2000/svg" viewBox="0 0 60.69 57.91"><defs><style>.cls-1,.cls-4{fill:#272525;}.cls-1,.cls-3,.cls-4,.cls-5{stroke:#fff;}.cls-1,.cls-2,.cls-3,.cls-4,.cls-5{stroke-miterlimit:10;}.cls-1{stroke-width:2px;}.cls-2{fill:#fff;stroke:#272525;}.cls-3,.cls-5{fill:none;}.cls-4{stroke-width:0.5px;}.cls-5{stroke-width:0.75px;}</style></defs><title>bg-logo</title><path class="cls-1" d="M3,27.43S15.66,11.63,26.86,8L29.22,5,33.52,4S48,1,60.35,23.07a21.51,21.51,0,0,1,0,10.26L58,44.82l-3.49,6.4-4,2.73s-9.7,5.55-20.66,5.79l-8.15-1.69L18.49,56,16.6,53.14S5.16,38.06,5.16,33.33l-.94-.89a12.42,12.42,0,0,1-1.89-3.77Z" transform="translate(-1.28 -2.84)"/><path class="cls-2" d="M5.56,33.33S36.13,35,50.47,29.82l7.16-2.67L54,46.36S37.76,60,16.6,53.14C16.6,53.14,5.42,37.69,5.56,33.33Z" transform="translate(-1.28 -2.84)"/><path class="cls-3" d="M3,27.43s-.44,1,3.19,1.14,24.56-.14,29.49-1.14c0,0,13.12-1.28,16.47-2.48l8.16-1.88" transform="translate(-1.28 -2.84)"/><ellipse class="cls-4" cx="46.55" cy="15.29" rx="2.28" ry="5.56" transform="translate(8.75 45.12) rotate(-60)"/><ellipse class="cls-4" cx="46.47" cy="15.2" rx="1.6" ry="3.9" transform="translate(8.79 45.01) rotate(-60)"/><path class="cls-5" d="M59.47,23.27c-2.15-3.79-10.95-12.64-10.95-12.64C44,7.42,30.44,4.73,30.44,4.73L29.22,5,26.86,8s4.82-3.4,21.66,2.65" transform="translate(-1.28 -2.84)"/></svg>